G04*
G04 #@! TF.GenerationSoftware,Altium Limited,Altium Designer,19.1.7 (138)*
G04*
G04 Layer_Physical_Order=1*
G04 Layer_Color=255*
%FSLAX44Y44*%
%MOMM*%
G71*
G01*
G75*
%ADD15C,0.2540*%
%ADD16C,0.1524*%
%ADD17R,0.4000X1.0000*%
G04:AMPARAMS|DCode=18|XSize=0.55mm|YSize=1.75mm|CornerRadius=0mm|HoleSize=0mm|Usage=FLASHONLY|Rotation=45.000|XOffset=0mm|YOffset=0mm|HoleType=Round|Shape=Round|*
%AMOVALD18*
21,1,1.2000,0.5500,0.0000,0.0000,135.0*
1,1,0.5500,0.4243,-0.4243*
1,1,0.5500,-0.4243,0.4243*
%
%ADD18OVALD18*%

G04:AMPARAMS|DCode=19|XSize=0.55mm|YSize=1.75mm|CornerRadius=0mm|HoleSize=0mm|Usage=FLASHONLY|Rotation=315.000|XOffset=0mm|YOffset=0mm|HoleType=Round|Shape=Round|*
%AMOVALD19*
21,1,1.2000,0.5500,0.0000,0.0000,45.0*
1,1,0.5500,-0.4243,-0.4243*
1,1,0.5500,0.4243,0.4243*
%
%ADD19OVALD19*%

G04:AMPARAMS|DCode=20|XSize=0.55mm|YSize=1.75mm|CornerRadius=0mm|HoleSize=0mm|Usage=FLASHONLY|Rotation=315.000|XOffset=0mm|YOffset=0mm|HoleType=Round|Shape=Round|*
%AMOVALD20*
21,1,1.2000,0.5500,0.0000,0.0000,45.0*
1,1,0.5500,-0.4243,-0.4243*
1,1,0.5500,0.4243,0.4243*
%
%ADD20OVALD20*%

%ADD21R,0.4000X1.3500*%
%ADD22R,1.8000X1.9000*%
%ADD23R,1.5000X1.9000*%
%ADD24R,1.4000X1.5000*%
G04:AMPARAMS|DCode=25|XSize=1.6mm|YSize=1.4mm|CornerRadius=0mm|HoleSize=0mm|Usage=FLASHONLY|Rotation=45.000|XOffset=0mm|YOffset=0mm|HoleType=Round|Shape=Rectangle|*
%AMROTATEDRECTD25*
4,1,4,-0.0707,-1.0607,-1.0607,-0.0707,0.0707,1.0607,1.0607,0.0707,-0.0707,-1.0607,0.0*
%
%ADD25ROTATEDRECTD25*%

%ADD41C,1.4500*%
G04:AMPARAMS|DCode=42|XSize=0.6mm|YSize=1.3mm|CornerRadius=0.15mm|HoleSize=0mm|Usage=FLASHONLY|Rotation=0.000|XOffset=0mm|YOffset=0mm|HoleType=Round|Shape=RoundedRectangle|*
%AMROUNDEDRECTD42*
21,1,0.6000,1.0000,0,0,0.0*
21,1,0.3000,1.3000,0,0,0.0*
1,1,0.3000,0.1500,-0.5000*
1,1,0.3000,-0.1500,-0.5000*
1,1,0.3000,-0.1500,0.5000*
1,1,0.3000,0.1500,0.5000*
%
%ADD42ROUNDEDRECTD42*%
%ADD43C,2.0000*%
%ADD44R,1.5500X1.5500*%
%ADD45C,1.5500*%
%ADD46C,0.3810*%
G36*
X171704Y24638D02*
X170180Y23114D01*
Y-406908D01*
X-15240D01*
X-15748Y-406400D01*
Y25908D01*
X170434D01*
X171704Y24638D01*
D02*
G37*
%LPC*%
G36*
X93348Y19942D02*
X74292D01*
Y886D01*
X93348D01*
Y19942D01*
D02*
G37*
G36*
X58420Y20024D02*
X55933Y19697D01*
X53615Y18737D01*
X51625Y17209D01*
X50097Y15219D01*
X49137Y12901D01*
X48810Y10414D01*
X49137Y7927D01*
X50097Y5609D01*
X51625Y3619D01*
X53615Y2091D01*
X55933Y1131D01*
X58420Y804D01*
X60907Y1131D01*
X63225Y2091D01*
X65215Y3619D01*
X66743Y5609D01*
X67703Y7927D01*
X68030Y10414D01*
X67703Y12901D01*
X66743Y15219D01*
X65215Y17209D01*
X63225Y18737D01*
X60907Y19697D01*
X58420Y20024D01*
D02*
G37*
G36*
X33020D02*
X30533Y19697D01*
X28215Y18737D01*
X26225Y17209D01*
X24697Y15219D01*
X23737Y12901D01*
X23410Y10414D01*
X23737Y7927D01*
X24589Y5870D01*
X15582Y-3137D01*
X14909Y-4145D01*
X14672Y-5334D01*
Y-59673D01*
X6201Y-68144D01*
X5940Y-67944D01*
X3075Y-66757D01*
X1166Y-66506D01*
X580Y-66429D01*
Y-64635D01*
X1166Y-64558D01*
X3075Y-64307D01*
X5940Y-63120D01*
X8400Y-61232D01*
X10288Y-58772D01*
X11475Y-55907D01*
X11880Y-52832D01*
X11475Y-49757D01*
X10288Y-46892D01*
X8400Y-44432D01*
X5940Y-42544D01*
X3075Y-41357D01*
X1166Y-41106D01*
X580Y-41029D01*
Y-39235D01*
X1166Y-39158D01*
X3075Y-38907D01*
X5940Y-37720D01*
X8400Y-35832D01*
X10288Y-33372D01*
X11475Y-30507D01*
X11880Y-27432D01*
X11475Y-24357D01*
X10288Y-21492D01*
X8400Y-19032D01*
X5940Y-17144D01*
X3075Y-15957D01*
X0Y-15552D01*
X-3075Y-15957D01*
X-5940Y-17144D01*
X-8400Y-19032D01*
X-10288Y-21492D01*
X-11475Y-24357D01*
X-11880Y-27432D01*
X-11475Y-30507D01*
X-10288Y-33372D01*
X-8400Y-35832D01*
X-5940Y-37720D01*
X-3075Y-38907D01*
X-1166Y-39158D01*
X-580Y-39235D01*
Y-41029D01*
X-1166Y-41106D01*
X-3075Y-41357D01*
X-5940Y-42544D01*
X-8400Y-44432D01*
X-10288Y-46892D01*
X-11475Y-49757D01*
X-11880Y-52832D01*
X-11475Y-55907D01*
X-10288Y-58772D01*
X-8400Y-61232D01*
X-5940Y-63120D01*
X-3075Y-64307D01*
X-1166Y-64558D01*
X-580Y-64635D01*
Y-66429D01*
X-1166Y-66506D01*
X-3075Y-66757D01*
X-5940Y-67944D01*
X-8400Y-69832D01*
X-10288Y-72292D01*
X-11475Y-75157D01*
X-11880Y-78232D01*
X-11475Y-81307D01*
X-10288Y-84172D01*
X-8400Y-86632D01*
X-5940Y-88520D01*
X-3075Y-89707D01*
X-1166Y-89958D01*
X-580Y-90035D01*
Y-91829D01*
X-1166Y-91906D01*
X-3075Y-92157D01*
X-5940Y-93344D01*
X-8400Y-95232D01*
X-10288Y-97692D01*
X-11475Y-100557D01*
X-11880Y-103632D01*
X-11475Y-106707D01*
X-10288Y-109572D01*
X-8400Y-112032D01*
X-5940Y-113920D01*
X-3075Y-115107D01*
X-1166Y-115358D01*
X-580Y-115435D01*
Y-117229D01*
X-1166Y-117306D01*
X-3075Y-117557D01*
X-5940Y-118744D01*
X-8400Y-120632D01*
X-10288Y-123092D01*
X-11475Y-125957D01*
X-11880Y-129032D01*
X-11475Y-132107D01*
X-10288Y-134972D01*
X-8400Y-137432D01*
X-5940Y-139320D01*
X-3075Y-140507D01*
X-1166Y-140758D01*
X-580Y-140835D01*
Y-142629D01*
X-1146Y-142703D01*
X-3075Y-142957D01*
X-5940Y-144144D01*
X-8400Y-146032D01*
X-10288Y-148492D01*
X-11475Y-151357D01*
X-11880Y-154432D01*
X-11475Y-157507D01*
X-10288Y-160372D01*
X-8400Y-162832D01*
X-5940Y-164720D01*
X-3075Y-165907D01*
X-1166Y-166158D01*
X-580Y-166235D01*
Y-168029D01*
X-1166Y-168106D01*
X-3075Y-168357D01*
X-5940Y-169544D01*
X-8400Y-171432D01*
X-10288Y-173892D01*
X-11475Y-176757D01*
X-11880Y-179832D01*
X-11475Y-182907D01*
X-10288Y-185772D01*
X-8400Y-188232D01*
X-5940Y-190120D01*
X-3075Y-191307D01*
X-1166Y-191558D01*
X-580Y-191635D01*
Y-193429D01*
X-1166Y-193506D01*
X-3075Y-193757D01*
X-5940Y-194944D01*
X-8400Y-196832D01*
X-10288Y-199292D01*
X-11475Y-202157D01*
X-11880Y-205232D01*
X-11475Y-208307D01*
X-10288Y-211172D01*
X-8400Y-213632D01*
X-5940Y-215520D01*
X-3075Y-216707D01*
X-1166Y-216958D01*
X-580Y-217035D01*
Y-218829D01*
X-1166Y-218906D01*
X-3075Y-219157D01*
X-5940Y-220344D01*
X-8400Y-222232D01*
X-10288Y-224692D01*
X-11475Y-227557D01*
X-11880Y-230632D01*
X-11475Y-233707D01*
X-10288Y-236572D01*
X-8400Y-239032D01*
X-5940Y-240920D01*
X-3075Y-242107D01*
X-1166Y-242358D01*
X-580Y-242435D01*
Y-244229D01*
X-1166Y-244306D01*
X-3075Y-244557D01*
X-5940Y-245744D01*
X-8400Y-247632D01*
X-10288Y-250092D01*
X-11475Y-252957D01*
X-11880Y-256032D01*
X-11475Y-259107D01*
X-10288Y-261972D01*
X-8400Y-264432D01*
X-5940Y-266320D01*
X-3075Y-267507D01*
X-1166Y-267758D01*
X-580Y-267835D01*
Y-269629D01*
X-1166Y-269706D01*
X-3075Y-269957D01*
X-5940Y-271144D01*
X-8400Y-273032D01*
X-10288Y-275492D01*
X-11475Y-278357D01*
X-11880Y-281432D01*
X-11475Y-284507D01*
X-10288Y-287372D01*
X-8400Y-289832D01*
X-5940Y-291720D01*
X-3075Y-292907D01*
X-1166Y-293158D01*
X-580Y-293235D01*
Y-295029D01*
X-1166Y-295106D01*
X-3075Y-295357D01*
X-5940Y-296544D01*
X-8400Y-298432D01*
X-10288Y-300892D01*
X-11475Y-303757D01*
X-11880Y-306832D01*
X-11475Y-309907D01*
X-10288Y-312772D01*
X-8400Y-315232D01*
X-5940Y-317120D01*
X-3075Y-318307D01*
X-1166Y-318558D01*
X-580Y-318635D01*
Y-320429D01*
X-1166Y-320506D01*
X-3075Y-320757D01*
X-5940Y-321944D01*
X-8400Y-323832D01*
X-10288Y-326292D01*
X-11475Y-329157D01*
X-11880Y-332232D01*
X-11475Y-335307D01*
X-10288Y-338172D01*
X-8400Y-340632D01*
X-5940Y-342520D01*
X-3075Y-343707D01*
X-1166Y-343958D01*
X-580Y-344035D01*
Y-345829D01*
X-1166Y-345906D01*
X-3075Y-346157D01*
X-5940Y-347344D01*
X-8400Y-349232D01*
X-10288Y-351692D01*
X-11475Y-354557D01*
X-11880Y-357632D01*
X-11475Y-360707D01*
X-10288Y-363572D01*
X-8400Y-366032D01*
X-5940Y-367920D01*
X-3075Y-369107D01*
X-1166Y-369358D01*
X-580Y-369435D01*
Y-371229D01*
X-1166Y-371306D01*
X-3075Y-371557D01*
X-5940Y-372744D01*
X-8400Y-374632D01*
X-10288Y-377092D01*
X-11475Y-379957D01*
X-11880Y-383032D01*
X-11475Y-386107D01*
X-10288Y-388972D01*
X-8400Y-391432D01*
X-5940Y-393320D01*
X-3075Y-394507D01*
X0Y-394912D01*
X3075Y-394507D01*
X5940Y-393320D01*
X8400Y-391432D01*
X10288Y-388972D01*
X11475Y-386107D01*
X11880Y-383032D01*
X11475Y-379957D01*
X10288Y-377092D01*
X8400Y-374632D01*
X5940Y-372744D01*
X3075Y-371557D01*
X1166Y-371306D01*
X580Y-371229D01*
Y-369435D01*
X1166Y-369358D01*
X3075Y-369107D01*
X5940Y-367920D01*
X8400Y-366032D01*
X10288Y-363572D01*
X11475Y-360707D01*
X11880Y-357632D01*
X11475Y-354557D01*
X10451Y-352084D01*
X41408Y-321127D01*
X42082Y-320119D01*
X42318Y-318930D01*
Y-315022D01*
X44096Y-314483D01*
X44406Y-314947D01*
X55586Y-326127D01*
X55713Y-326765D01*
X56527Y-327983D01*
Y-329173D01*
X55713Y-330391D01*
X55427Y-331828D01*
X55713Y-333265D01*
X56527Y-334483D01*
X57745Y-335297D01*
X57751Y-335299D01*
X58465Y-337030D01*
X58253Y-337399D01*
X57035Y-338213D01*
X56221Y-339431D01*
X55935Y-340868D01*
X56221Y-342305D01*
X57035Y-343523D01*
X58253Y-344337D01*
X59690Y-344623D01*
X61127Y-344337D01*
X62345Y-343523D01*
X63159Y-342305D01*
X63286Y-341667D01*
X65697Y-339256D01*
X67033Y-340352D01*
X67058Y-340420D01*
X66531Y-341209D01*
X66245Y-342646D01*
X66531Y-344083D01*
X66892Y-344624D01*
Y-351644D01*
X59722D01*
Y-353136D01*
X57944Y-353740D01*
X57939Y-353733D01*
X56053Y-352286D01*
X53857Y-351376D01*
X51500Y-351066D01*
X49143Y-351376D01*
X46947Y-352286D01*
X45061Y-353733D01*
X44651Y-354267D01*
X43052Y-354215D01*
X41834Y-353401D01*
X40397Y-353115D01*
X38960Y-353401D01*
X37742Y-354215D01*
X36928Y-355433D01*
X36642Y-356870D01*
X36928Y-358307D01*
X37742Y-359525D01*
X38960Y-360339D01*
X40397Y-360625D01*
X40654Y-360574D01*
X42574Y-361776D01*
X42616Y-361859D01*
X42704Y-362529D01*
X43614Y-364725D01*
X45061Y-366611D01*
X46947Y-368058D01*
X49143Y-368968D01*
X50790Y-369184D01*
X51191Y-369857D01*
X51520Y-370939D01*
X51521Y-370984D01*
X50887Y-371933D01*
X50601Y-373370D01*
X50705Y-373896D01*
X49491Y-375674D01*
X33622D01*
Y-384229D01*
X33435Y-384681D01*
X33151Y-386842D01*
X33435Y-389003D01*
X33622Y-389455D01*
Y-398230D01*
X55178D01*
Y-378894D01*
X55324Y-378780D01*
X57017Y-379605D01*
X57102Y-379749D01*
Y-398230D01*
X75564D01*
X75658Y-398230D01*
X77342D01*
X77436Y-398230D01*
X95898D01*
Y-375674D01*
X91500D01*
X91275Y-375036D01*
X91204Y-373896D01*
X92155Y-373261D01*
X92969Y-372042D01*
X93255Y-370605D01*
X93230Y-370478D01*
X93278Y-368700D01*
X93278Y-368700D01*
X93576Y-367427D01*
X93908Y-367244D01*
X95271Y-366772D01*
X96947Y-368058D01*
X99143Y-368968D01*
X101500Y-369278D01*
X103857Y-368968D01*
X106053Y-368058D01*
X107939Y-366611D01*
X109386Y-364725D01*
X110295Y-362529D01*
X110606Y-360172D01*
X110303Y-357871D01*
X110717Y-357256D01*
X111662Y-356469D01*
X111760Y-356488D01*
Y-352209D01*
Y-347929D01*
X111296Y-348022D01*
X109825Y-349004D01*
X108843Y-350474D01*
X108547Y-351959D01*
X107688Y-352528D01*
X106817Y-352873D01*
X106053Y-352286D01*
X103857Y-351376D01*
X101500Y-351066D01*
X99143Y-351376D01*
X96947Y-352286D01*
X95061Y-353733D01*
X95056Y-353740D01*
X93278Y-353136D01*
Y-351644D01*
X79608D01*
Y-339644D01*
X79371Y-338455D01*
X78698Y-337447D01*
X74587Y-333336D01*
X73579Y-332663D01*
X72390Y-332426D01*
X65024D01*
X64615Y-332508D01*
X63373Y-332005D01*
X62814Y-331207D01*
X62651Y-330391D01*
X61837Y-329173D01*
Y-327983D01*
X62651Y-326765D01*
X62937Y-325328D01*
X62651Y-323891D01*
X61837Y-322673D01*
X60619Y-321858D01*
X59981Y-321731D01*
X49712Y-311462D01*
Y-247565D01*
X51490Y-246614D01*
X51903Y-246891D01*
X52541Y-247018D01*
X53534Y-248011D01*
Y-252810D01*
X52864D01*
Y-266366D01*
X57525D01*
X58871Y-268144D01*
X58822Y-268392D01*
X59108Y-269829D01*
X59922Y-271047D01*
X60064Y-271142D01*
X60173Y-271490D01*
X59265Y-273130D01*
X58788Y-273130D01*
X58788Y-273130D01*
X58751Y-273130D01*
X52864D01*
Y-286686D01*
X53534D01*
Y-287020D01*
X53771Y-288209D01*
X54444Y-289217D01*
X59117Y-293890D01*
X58430Y-295717D01*
X57721Y-295858D01*
X56502Y-296672D01*
X55688Y-297891D01*
X55402Y-299328D01*
X55688Y-300765D01*
X56502Y-301983D01*
X57721Y-302797D01*
X59158Y-303083D01*
X60595Y-302797D01*
X61813Y-301983D01*
X62627Y-300765D01*
X62768Y-300056D01*
X64596Y-299369D01*
X67524Y-302297D01*
X67651Y-302935D01*
X68465Y-304153D01*
X69683Y-304967D01*
X71120Y-305253D01*
X72557Y-304967D01*
X73775Y-304153D01*
X74589Y-302935D01*
X74875Y-301498D01*
X74589Y-300061D01*
X73775Y-298843D01*
X72557Y-298029D01*
X71919Y-297902D01*
X70899Y-296882D01*
X70959Y-296415D01*
X71599Y-295068D01*
X72557Y-294877D01*
X73775Y-294063D01*
X74589Y-292845D01*
X74875Y-291408D01*
X74589Y-289971D01*
X73775Y-288753D01*
X73343Y-288464D01*
X73882Y-286686D01*
X77949D01*
X78319Y-286933D01*
X79756Y-287219D01*
X80712Y-287029D01*
X82094Y-287816D01*
X82490Y-288205D01*
Y-292100D01*
X82727Y-293289D01*
X83400Y-294298D01*
X91783Y-302680D01*
X92791Y-303353D01*
X93980Y-303590D01*
X95250D01*
X96439Y-303353D01*
X97448Y-302680D01*
X104813Y-295313D01*
X105487Y-294305D01*
X105724Y-293116D01*
Y-276115D01*
X106697Y-275142D01*
X108490D01*
Y-279146D01*
X113030D01*
Y-280416D01*
X114300D01*
Y-287956D01*
X115764D01*
Y-302260D01*
X116001Y-303449D01*
X116674Y-304457D01*
X131766Y-319549D01*
Y-372110D01*
X132003Y-373299D01*
X132676Y-374308D01*
X138772Y-380404D01*
X139781Y-381077D01*
X140970Y-381314D01*
X141938D01*
X143111Y-382650D01*
X143060Y-383032D01*
X143465Y-386107D01*
X144652Y-388972D01*
X146540Y-391432D01*
X149000Y-393320D01*
X151865Y-394507D01*
X154940Y-394912D01*
X158015Y-394507D01*
X160880Y-393320D01*
X163340Y-391432D01*
X165228Y-388972D01*
X166415Y-386107D01*
X166820Y-383032D01*
X166415Y-379957D01*
X165228Y-377092D01*
X163340Y-374632D01*
X160880Y-372744D01*
X158015Y-371557D01*
X156106Y-371306D01*
X155520Y-371229D01*
Y-369435D01*
X156106Y-369358D01*
X158015Y-369107D01*
X160880Y-367920D01*
X163340Y-366032D01*
X165228Y-363572D01*
X166415Y-360707D01*
X166820Y-357632D01*
X166415Y-354557D01*
X165228Y-351692D01*
X163340Y-349232D01*
X160880Y-347344D01*
X158015Y-346157D01*
X156106Y-345906D01*
X155520Y-345829D01*
Y-344035D01*
X156106Y-343958D01*
X158015Y-343707D01*
X160880Y-342520D01*
X163340Y-340632D01*
X165228Y-338172D01*
X166415Y-335307D01*
X166820Y-332232D01*
X166415Y-329157D01*
X165228Y-326292D01*
X163340Y-323832D01*
X160880Y-321944D01*
X158698Y-321040D01*
X158120Y-319237D01*
X158137Y-318992D01*
X158554Y-318083D01*
X160880Y-317120D01*
X163340Y-315232D01*
X165228Y-312772D01*
X166415Y-309907D01*
X166820Y-306832D01*
X166415Y-303757D01*
X165228Y-300892D01*
X163340Y-298432D01*
X160880Y-296544D01*
X158015Y-295357D01*
X157735Y-294737D01*
X157812Y-294234D01*
X158620Y-292656D01*
X160880Y-291720D01*
X163340Y-289832D01*
X165228Y-287372D01*
X166415Y-284507D01*
X166820Y-281432D01*
X166415Y-278357D01*
X165228Y-275492D01*
X163340Y-273032D01*
X160880Y-271144D01*
X158015Y-269957D01*
X156106Y-269706D01*
X155520Y-269629D01*
Y-267835D01*
X156106Y-267758D01*
X158015Y-267507D01*
X160880Y-266320D01*
X163340Y-264432D01*
X165228Y-261972D01*
X166415Y-259107D01*
X166820Y-256032D01*
X166415Y-252957D01*
X165228Y-250092D01*
X163340Y-247632D01*
X160880Y-245744D01*
X158015Y-244557D01*
X156106Y-244306D01*
X155520Y-244229D01*
Y-242435D01*
X156106Y-242358D01*
X158015Y-242107D01*
X160880Y-240920D01*
X163340Y-239032D01*
X165228Y-236572D01*
X166415Y-233707D01*
X166820Y-230632D01*
X166415Y-227557D01*
X165228Y-224692D01*
X163340Y-222232D01*
X160880Y-220344D01*
X158015Y-219157D01*
X156106Y-218906D01*
X155520Y-218829D01*
Y-217035D01*
X156106Y-216958D01*
X158015Y-216707D01*
X160880Y-215520D01*
X163340Y-213632D01*
X165228Y-211172D01*
X166415Y-208307D01*
X166820Y-205232D01*
X166415Y-202157D01*
X165228Y-199292D01*
X163340Y-196832D01*
X160880Y-194944D01*
X158015Y-193757D01*
X156106Y-193506D01*
X155520Y-193429D01*
Y-191635D01*
X156106Y-191558D01*
X158015Y-191307D01*
X160880Y-190120D01*
X163340Y-188232D01*
X165228Y-185772D01*
X166415Y-182907D01*
X166820Y-179832D01*
X166415Y-176757D01*
X165228Y-173892D01*
X163340Y-171432D01*
X160880Y-169544D01*
X158015Y-168357D01*
X156106Y-168106D01*
X155520Y-168029D01*
Y-166235D01*
X156106Y-166158D01*
X158015Y-165907D01*
X160880Y-164720D01*
X163340Y-162832D01*
X165228Y-160372D01*
X166415Y-157507D01*
X166820Y-154432D01*
X166415Y-151357D01*
X165228Y-148492D01*
X163340Y-146032D01*
X160880Y-144144D01*
X158015Y-142957D01*
X156106Y-142706D01*
X155520Y-142629D01*
Y-140835D01*
X156106Y-140758D01*
X158015Y-140507D01*
X160880Y-139320D01*
X163340Y-137432D01*
X165228Y-134972D01*
X166415Y-132107D01*
X166820Y-129032D01*
X166415Y-125957D01*
X165228Y-123092D01*
X163340Y-120632D01*
X160880Y-118744D01*
X158219Y-117642D01*
X158066Y-117115D01*
X158214Y-115849D01*
X161264Y-114586D01*
X163884Y-112576D01*
X165894Y-109956D01*
X167157Y-106906D01*
X167421Y-104902D01*
X154940D01*
X142459D01*
X142723Y-106906D01*
X143986Y-109956D01*
X143916Y-110384D01*
X142850Y-111095D01*
X141868Y-112566D01*
X141776Y-113030D01*
X146055D01*
Y-115570D01*
X141776D01*
X141868Y-116034D01*
X142850Y-117505D01*
X144321Y-118487D01*
X145983Y-118818D01*
X146149Y-119083D01*
X146686Y-120519D01*
X146540Y-120632D01*
X144652Y-123092D01*
X144403Y-123693D01*
X142351Y-124002D01*
X141645Y-123531D01*
X140208Y-123245D01*
X138771Y-123531D01*
X137553Y-124345D01*
X136739Y-125563D01*
X136453Y-127000D01*
X136739Y-128437D01*
X137444Y-129492D01*
X137582Y-129899D01*
X137636Y-130347D01*
X136082Y-131775D01*
X135414Y-131735D01*
X134172Y-130493D01*
Y-103832D01*
X134533Y-103291D01*
X134819Y-101854D01*
X134533Y-100417D01*
X133719Y-99199D01*
X132501Y-98385D01*
X131896Y-98264D01*
X130978Y-96447D01*
X130977Y-96438D01*
X131263Y-95001D01*
X130977Y-93564D01*
X130163Y-92346D01*
X128945Y-91532D01*
X127508Y-91246D01*
X126071Y-91532D01*
X124853Y-92346D01*
X124039Y-93564D01*
X123753Y-95001D01*
X124039Y-96438D01*
X124853Y-97656D01*
X126071Y-98470D01*
X126677Y-98591D01*
X127594Y-100408D01*
X127595Y-100417D01*
X127309Y-101854D01*
X127595Y-103291D01*
X127956Y-103832D01*
Y-127715D01*
X126314Y-128396D01*
X122720Y-124803D01*
X121712Y-124129D01*
X120523Y-123892D01*
X98545D01*
X97356Y-124129D01*
X96347Y-124803D01*
X94393Y-124332D01*
X93957Y-123730D01*
X93714Y-122508D01*
X92713Y-121010D01*
X91216Y-120009D01*
X89449Y-119658D01*
X88314Y-118727D01*
Y-101761D01*
X89523Y-100953D01*
X90337Y-99735D01*
X90623Y-98298D01*
X90337Y-96861D01*
X89523Y-95643D01*
X88305Y-94829D01*
X86868Y-94543D01*
X85431Y-94829D01*
X84213Y-95643D01*
X83399Y-96861D01*
X83324Y-97235D01*
X82101Y-97809D01*
X81649Y-97929D01*
X81146Y-97593D01*
X80431Y-97115D01*
X78994Y-96829D01*
X77732Y-95379D01*
X77446Y-93941D01*
X77084Y-93400D01*
Y-90395D01*
X87098Y-80381D01*
X74684Y-67967D01*
X63807Y-78844D01*
X61893Y-78320D01*
X61861Y-78276D01*
X61528Y-77778D01*
Y-74838D01*
X71541Y-64825D01*
X59127Y-52411D01*
X45299Y-66239D01*
X55312Y-76252D01*
Y-77778D01*
X54951Y-78319D01*
X54665Y-79756D01*
X54951Y-81193D01*
X55312Y-81734D01*
Y-81842D01*
X54951Y-82383D01*
X54665Y-83820D01*
X54951Y-85257D01*
X55765Y-86475D01*
X56983Y-87289D01*
X58420Y-87575D01*
X59857Y-87289D01*
X61075Y-86475D01*
X61855Y-85309D01*
X61897Y-85255D01*
X63804Y-84744D01*
X70869Y-91809D01*
Y-93400D01*
X70507Y-93941D01*
X70221Y-95379D01*
X70507Y-96816D01*
X71321Y-98034D01*
X72540Y-98848D01*
X73976Y-99134D01*
X75239Y-100584D01*
X75525Y-102021D01*
X76339Y-103239D01*
X77557Y-104053D01*
X78994Y-104339D01*
X80321Y-104075D01*
X80469Y-104076D01*
X82099Y-105077D01*
Y-125096D01*
X77699Y-129495D01*
X76768Y-130889D01*
X75949Y-130993D01*
X75725D01*
X74906Y-130889D01*
X73975Y-129495D01*
X65490Y-121010D01*
X63992Y-120009D01*
X62225Y-119658D01*
X61617Y-119779D01*
X59691Y-117854D01*
X58683Y-117180D01*
X57493Y-116943D01*
X55209D01*
X54020Y-117180D01*
X53011Y-117854D01*
X47552Y-123313D01*
X46788Y-123205D01*
X46158Y-121320D01*
X53076Y-114402D01*
X66898D01*
X67440Y-114764D01*
X68877Y-115050D01*
X70314Y-114764D01*
X71532Y-113950D01*
X72346Y-112732D01*
X72632Y-111295D01*
X72346Y-109858D01*
X71532Y-108639D01*
X70314Y-107825D01*
X68877Y-107540D01*
X67440Y-107825D01*
X66898Y-108187D01*
X55506D01*
X44985Y-97666D01*
X31157Y-111494D01*
X41913Y-122250D01*
X41232Y-123892D01*
X33291D01*
X28359Y-118961D01*
X27351Y-118287D01*
X26162Y-118050D01*
X18542D01*
X17353Y-118287D01*
X16344Y-118961D01*
X12213Y-123092D01*
X11047Y-123092D01*
X10368Y-122971D01*
X10073Y-122812D01*
X8400Y-120632D01*
X5940Y-118744D01*
X3075Y-117557D01*
X1166Y-117306D01*
X580Y-117229D01*
Y-115435D01*
X1166Y-115358D01*
X3075Y-115107D01*
X5940Y-113920D01*
X8400Y-112032D01*
X10288Y-109572D01*
X11475Y-106707D01*
X11880Y-103632D01*
X11475Y-100557D01*
X10288Y-97692D01*
X8400Y-95232D01*
X5940Y-93344D01*
X3075Y-92157D01*
X1166Y-91906D01*
X580Y-91829D01*
Y-90035D01*
X1166Y-89958D01*
X3075Y-89707D01*
X5940Y-88520D01*
X8400Y-86632D01*
X10288Y-84172D01*
X11475Y-81307D01*
X11880Y-78232D01*
X11475Y-75157D01*
X10451Y-72684D01*
X19978Y-63158D01*
X19978Y-63157D01*
X39133Y-44002D01*
X103107D01*
X111176Y-52071D01*
X110496Y-53714D01*
X108062D01*
Y-72270D01*
X125618D01*
Y-66608D01*
X138413D01*
X144489Y-72684D01*
X143465Y-75157D01*
X143060Y-78232D01*
X143465Y-81307D01*
X144652Y-84172D01*
X146540Y-86632D01*
X149000Y-88520D01*
X151661Y-89622D01*
X151814Y-90149D01*
X151666Y-91415D01*
X148616Y-92678D01*
X145996Y-94688D01*
X143986Y-97308D01*
X142723Y-100358D01*
X142459Y-102362D01*
X154940D01*
X167421D01*
X167157Y-100358D01*
X165894Y-97308D01*
X163884Y-94688D01*
X161264Y-92678D01*
X158214Y-91415D01*
X158066Y-90149D01*
X158219Y-89622D01*
X160880Y-88520D01*
X163340Y-86632D01*
X165228Y-84172D01*
X166415Y-81307D01*
X166820Y-78232D01*
X166415Y-75157D01*
X165228Y-72292D01*
X163340Y-69832D01*
X160880Y-67944D01*
X158015Y-66757D01*
X156106Y-66506D01*
X155520Y-66429D01*
Y-64635D01*
X156106Y-64558D01*
X158015Y-64307D01*
X160880Y-63120D01*
X163340Y-61232D01*
X165228Y-58772D01*
X166415Y-55907D01*
X166820Y-52832D01*
X166415Y-49757D01*
X165228Y-46892D01*
X163340Y-44432D01*
X160880Y-42544D01*
X158015Y-41357D01*
X156106Y-41106D01*
X155520Y-41029D01*
Y-39235D01*
X156106Y-39158D01*
X158015Y-38907D01*
X160880Y-37720D01*
X163340Y-35832D01*
X165228Y-33372D01*
X166415Y-30507D01*
X166820Y-27432D01*
X166415Y-24357D01*
X165228Y-21492D01*
X163340Y-19032D01*
X160880Y-17144D01*
X158015Y-15957D01*
X154940Y-15552D01*
X151865Y-15957D01*
X149000Y-17144D01*
X146540Y-19032D01*
X144652Y-21492D01*
X143465Y-24357D01*
X143060Y-27432D01*
X143465Y-30507D01*
X144652Y-33372D01*
X146540Y-35832D01*
X149000Y-37720D01*
X151865Y-38907D01*
X153774Y-39158D01*
X154360Y-39235D01*
Y-41029D01*
X153774Y-41106D01*
X151865Y-41357D01*
X149000Y-42544D01*
X146540Y-44432D01*
X144652Y-46892D01*
X143465Y-49757D01*
X143060Y-52832D01*
X143465Y-55907D01*
X144652Y-58772D01*
X146540Y-61232D01*
X149000Y-63120D01*
X151865Y-64307D01*
X153774Y-64558D01*
X154360Y-64635D01*
Y-66429D01*
X153774Y-66506D01*
X151865Y-66757D01*
X149000Y-67944D01*
X148739Y-68144D01*
X141897Y-61302D01*
X140889Y-60629D01*
X139700Y-60392D01*
X125618D01*
Y-53714D01*
X119948D01*
Y-53340D01*
X119711Y-52151D01*
X119038Y-51143D01*
X106592Y-38696D01*
X105583Y-38023D01*
X104394Y-37786D01*
X37846D01*
X36657Y-38023D01*
X35649Y-38696D01*
X22530Y-51815D01*
X20888Y-51134D01*
Y-6621D01*
X29195Y1685D01*
X30533Y1131D01*
X33020Y804D01*
X35507Y1131D01*
X37825Y2091D01*
X39815Y3619D01*
X41343Y5609D01*
X42303Y7927D01*
X42630Y10414D01*
X42303Y12901D01*
X41343Y15219D01*
X39815Y17209D01*
X37825Y18737D01*
X35507Y19697D01*
X33020Y20024D01*
D02*
G37*
G36*
X142240Y1739D02*
Y-1270D01*
X145249D01*
X145157Y-806D01*
X144175Y665D01*
X142704Y1647D01*
X142240Y1739D01*
D02*
G37*
G36*
X139700D02*
X139236Y1647D01*
X137765Y665D01*
X136783Y-806D01*
X136691Y-1270D01*
X139700D01*
Y1739D01*
D02*
G37*
G36*
X145249Y-3810D02*
X142240D01*
Y-6819D01*
X142704Y-6727D01*
X144175Y-5745D01*
X145157Y-4274D01*
X145249Y-3810D01*
D02*
G37*
G36*
X139700D02*
X136691D01*
X136783Y-4274D01*
X137765Y-5745D01*
X139236Y-6727D01*
X139700Y-6819D01*
Y-3810D01*
D02*
G37*
G36*
X125618Y19946D02*
X108062D01*
Y1390D01*
X113732D01*
Y-465D01*
X113969Y-1654D01*
X114642Y-2662D01*
X120329Y-8349D01*
X120197Y-9014D01*
X120483Y-10452D01*
X121297Y-11670D01*
X122515Y-12484D01*
X123952Y-12770D01*
X125389Y-12484D01*
X126607Y-11670D01*
X127421Y-10452D01*
X127707Y-9014D01*
X127421Y-7577D01*
X126907Y-6807D01*
X126823Y-6388D01*
X126150Y-5379D01*
X121158Y-388D01*
X121895Y1390D01*
X125618D01*
Y19946D01*
D02*
G37*
G36*
X85090Y-4774D02*
Y-13716D01*
X94032D01*
X93845Y-12300D01*
X92808Y-9797D01*
X91159Y-7647D01*
X89009Y-5998D01*
X86506Y-4961D01*
X85090Y-4774D01*
D02*
G37*
G36*
X82550D02*
X81134Y-4961D01*
X78631Y-5998D01*
X76481Y-7647D01*
X74832Y-9797D01*
X73795Y-12300D01*
X73608Y-13716D01*
X82550D01*
Y-4774D01*
D02*
G37*
G36*
X33020Y-5376D02*
X30533Y-5703D01*
X28215Y-6663D01*
X26225Y-8191D01*
X24697Y-10181D01*
X23737Y-12499D01*
X23410Y-14986D01*
X23737Y-17473D01*
X24697Y-19791D01*
X26225Y-21781D01*
X28215Y-23309D01*
X30533Y-24269D01*
X33020Y-24596D01*
X35507Y-24269D01*
X37825Y-23309D01*
X39815Y-21781D01*
X41343Y-19791D01*
X42303Y-17473D01*
X42630Y-14986D01*
X42303Y-12499D01*
X41343Y-10181D01*
X39815Y-8191D01*
X37825Y-6663D01*
X35507Y-5703D01*
X33020Y-5376D01*
D02*
G37*
G36*
X94032Y-16256D02*
X85090D01*
Y-25198D01*
X86506Y-25011D01*
X89009Y-23974D01*
X91159Y-22325D01*
X92808Y-20175D01*
X93845Y-17672D01*
X94032Y-16256D01*
D02*
G37*
G36*
X82550D02*
X73608D01*
X73795Y-17672D01*
X74832Y-20175D01*
X76481Y-22325D01*
X78631Y-23974D01*
X81134Y-25011D01*
X82550Y-25198D01*
Y-16256D01*
D02*
G37*
G36*
X58420Y-5376D02*
X55933Y-5703D01*
X53615Y-6663D01*
X51625Y-8191D01*
X50097Y-10181D01*
X49137Y-12499D01*
X48810Y-14986D01*
X49137Y-17473D01*
X50097Y-19791D01*
X51625Y-21781D01*
X53615Y-23309D01*
X55933Y-24269D01*
X58420Y-24596D01*
X60351Y-24342D01*
X61306Y-25452D01*
X61401Y-25591D01*
X61521Y-25911D01*
X61269Y-27178D01*
X61555Y-28615D01*
X62369Y-29833D01*
X63587Y-30647D01*
X65024Y-30933D01*
X66461Y-30647D01*
X67679Y-29833D01*
X68493Y-28615D01*
X68779Y-27178D01*
X68493Y-25741D01*
X67679Y-24523D01*
X66461Y-23709D01*
X65797Y-23577D01*
X65333Y-22145D01*
X65280Y-21697D01*
X66743Y-19791D01*
X67703Y-17473D01*
X68030Y-14986D01*
X67703Y-12499D01*
X66743Y-10181D01*
X65215Y-8191D01*
X63225Y-6663D01*
X60907Y-5703D01*
X58420Y-5376D01*
D02*
G37*
G36*
X127000Y-30540D02*
X125563Y-30826D01*
X124345Y-31640D01*
X123531Y-32858D01*
X123245Y-34295D01*
X123531Y-35732D01*
X124345Y-36950D01*
X125563Y-37764D01*
X127000Y-38050D01*
X128437Y-37764D01*
X129655Y-36950D01*
X130469Y-35732D01*
X130755Y-34295D01*
X130469Y-32858D01*
X129655Y-31640D01*
X128437Y-30826D01*
X127000Y-30540D01*
D02*
G37*
G36*
X89397Y-60243D02*
X87960Y-60528D01*
X86742Y-61343D01*
X85927Y-62561D01*
X85642Y-63998D01*
X85927Y-65435D01*
X86742Y-66653D01*
X87960Y-67467D01*
X89397Y-67753D01*
X90834Y-67467D01*
X92052Y-66653D01*
X92866Y-65435D01*
X93152Y-63998D01*
X92866Y-62561D01*
X92052Y-61343D01*
X90834Y-60528D01*
X89397Y-60243D01*
D02*
G37*
G36*
X37846Y-79852D02*
Y-82861D01*
X40855D01*
X40763Y-82397D01*
X39781Y-80927D01*
X38310Y-79944D01*
X37846Y-79852D01*
D02*
G37*
G36*
X35306D02*
X34842Y-79944D01*
X33371Y-80927D01*
X32389Y-82397D01*
X32363Y-82529D01*
X30433Y-83115D01*
X29428Y-82110D01*
X20415Y-91123D01*
X19510Y-90879D01*
X18640Y-90384D01*
X18409Y-89222D01*
X17595Y-88003D01*
X16376Y-87189D01*
X14939Y-86903D01*
X13502Y-87189D01*
X12284Y-88003D01*
X11470Y-89222D01*
X11184Y-90659D01*
X11470Y-92096D01*
X11832Y-92637D01*
Y-95739D01*
X12068Y-96928D01*
X12742Y-97936D01*
X13750Y-98610D01*
X14939Y-98846D01*
X18509D01*
X28014Y-108352D01*
X41842Y-94524D01*
X37593Y-90274D01*
X38178Y-88345D01*
X38310Y-88319D01*
X39781Y-87336D01*
X40763Y-85866D01*
X40855Y-85401D01*
X36576D01*
Y-84131D01*
X35306D01*
Y-79852D01*
D02*
G37*
G36*
X57150Y-91245D02*
Y-94255D01*
X60159D01*
X60067Y-93791D01*
X59085Y-92320D01*
X57614Y-91338D01*
X57150Y-91245D01*
D02*
G37*
G36*
X54610D02*
X54146Y-91338D01*
X52675Y-92320D01*
X51693Y-93791D01*
X51601Y-94255D01*
X54610D01*
Y-91245D01*
D02*
G37*
G36*
X60159Y-96795D02*
X57150D01*
Y-99804D01*
X57614Y-99712D01*
X59085Y-98729D01*
X60067Y-97259D01*
X60159Y-96795D01*
D02*
G37*
G36*
X54610D02*
X51601D01*
X51693Y-97259D01*
X52675Y-98729D01*
X54146Y-99712D01*
X54610Y-99804D01*
Y-96795D01*
D02*
G37*
G36*
X113475Y-110545D02*
X112038Y-110831D01*
X110820Y-111645D01*
X110006Y-112863D01*
X109720Y-114300D01*
X110006Y-115737D01*
X110820Y-116955D01*
X112038Y-117769D01*
X113475Y-118055D01*
X114912Y-117769D01*
X116130Y-116955D01*
X116944Y-115737D01*
X117230Y-114300D01*
X116944Y-112863D01*
X116130Y-111645D01*
X114912Y-110831D01*
X113475Y-110545D01*
D02*
G37*
G36*
X111760Y-281686D02*
X108490D01*
Y-287956D01*
X111760D01*
Y-281686D01*
D02*
G37*
G36*
X74468Y-321619D02*
X73031Y-321905D01*
X71813Y-322719D01*
X70999Y-323937D01*
X70713Y-325374D01*
X70999Y-326811D01*
X71813Y-328029D01*
X73031Y-328843D01*
X74468Y-329129D01*
X75905Y-328843D01*
X77123Y-328029D01*
X77937Y-326811D01*
X78223Y-325374D01*
X77937Y-323937D01*
X77123Y-322719D01*
X75905Y-321905D01*
X74468Y-321619D01*
D02*
G37*
G36*
X114300Y-347929D02*
Y-350939D01*
X117309D01*
X117217Y-350474D01*
X116235Y-349004D01*
X114764Y-348022D01*
X114300Y-347929D01*
D02*
G37*
G36*
X121666Y-352607D02*
X120229Y-352893D01*
X119087Y-353656D01*
X118755Y-353572D01*
X118579Y-353479D01*
X114300D01*
Y-356488D01*
X114764Y-356396D01*
X116235Y-355413D01*
X116309Y-355302D01*
X117984Y-355996D01*
X117911Y-356362D01*
X118197Y-357799D01*
X119011Y-359017D01*
X120229Y-359831D01*
X121666Y-360117D01*
X123103Y-359831D01*
X124321Y-359017D01*
X125135Y-357799D01*
X125421Y-356362D01*
X125135Y-354925D01*
X124321Y-353707D01*
X123103Y-352893D01*
X121666Y-352607D01*
D02*
G37*
G36*
X119478Y-375674D02*
X97922D01*
Y-398230D01*
X119478D01*
Y-389213D01*
X119565Y-389003D01*
X119849Y-386842D01*
X119565Y-384681D01*
X119478Y-384471D01*
Y-375674D01*
D02*
G37*
%LPD*%
G36*
X142240Y-138899D02*
X142704Y-138807D01*
X144175Y-137825D01*
X144373Y-137528D01*
X146538Y-137432D01*
X146563Y-137450D01*
X149000Y-139320D01*
X151865Y-140507D01*
X153774Y-140758D01*
X154360Y-140835D01*
Y-142629D01*
X153774Y-142706D01*
X151865Y-142957D01*
X149000Y-144144D01*
X146540Y-146032D01*
X144652Y-148492D01*
X143465Y-151357D01*
X143060Y-154432D01*
X143465Y-157507D01*
X144652Y-160372D01*
X146540Y-162832D01*
X149000Y-164720D01*
X151865Y-165907D01*
X153774Y-166158D01*
X154360Y-166235D01*
Y-168029D01*
X153774Y-168106D01*
X151865Y-168357D01*
X149000Y-169544D01*
X148739Y-169744D01*
X145421Y-166426D01*
X144413Y-165752D01*
X143223Y-165516D01*
X134738D01*
X133610Y-164141D01*
X133664Y-163873D01*
X133312Y-162106D01*
X132311Y-160608D01*
X132983Y-159948D01*
X133007Y-159931D01*
X135801Y-157137D01*
X136475Y-156129D01*
X136712Y-154940D01*
Y-139205D01*
X138490Y-138309D01*
X139236Y-138807D01*
X139700Y-138899D01*
Y-134620D01*
X142240D01*
Y-138899D01*
D02*
G37*
G36*
X29806Y-129198D02*
X30815Y-129871D01*
X31276Y-129963D01*
X31435Y-130388D01*
X31443Y-132146D01*
X30224Y-132960D01*
X29411Y-134178D01*
X29125Y-135615D01*
X29411Y-137052D01*
X30224Y-138271D01*
X30708Y-138594D01*
Y-143664D01*
X30945Y-144853D01*
X31619Y-145861D01*
X31695Y-145938D01*
X31243Y-148000D01*
X31204Y-148026D01*
X39082Y-155904D01*
X46960Y-163782D01*
X47410Y-163109D01*
X47682Y-161737D01*
X48083Y-160004D01*
X49850Y-159653D01*
X51347Y-158652D01*
X52348Y-157154D01*
X52700Y-155387D01*
X54433Y-154987D01*
X55804Y-154714D01*
X56477Y-154264D01*
X48600Y-146386D01*
X50395Y-144590D01*
X58273Y-152468D01*
X58723Y-151795D01*
X58996Y-150423D01*
X59397Y-148690D01*
X61163Y-148339D01*
X62661Y-147338D01*
X63412Y-146214D01*
X65094Y-146898D01*
X64077Y-152381D01*
X51812Y-164646D01*
X51649Y-164679D01*
X50431Y-165493D01*
X49617Y-166711D01*
X49331Y-168148D01*
X49386Y-168426D01*
X49138Y-168648D01*
X47749Y-169308D01*
X46903Y-168743D01*
X45466Y-168457D01*
X44029Y-168743D01*
X42811Y-169557D01*
X41997Y-170775D01*
X41711Y-172212D01*
X41997Y-173649D01*
X42811Y-174867D01*
X44029Y-175681D01*
X45466Y-175967D01*
X46903Y-175681D01*
X48121Y-174867D01*
X48935Y-173649D01*
X49221Y-172212D01*
X49166Y-171934D01*
X49414Y-171712D01*
X50803Y-171052D01*
X51649Y-171617D01*
X53086Y-171903D01*
X54523Y-171617D01*
X55741Y-170803D01*
X56505Y-169660D01*
X57538Y-169466D01*
X58381Y-169522D01*
X59067Y-170549D01*
X60285Y-171363D01*
X61722Y-171649D01*
X63159Y-171363D01*
X64377Y-170549D01*
X65191Y-169331D01*
X65246Y-169055D01*
X67134Y-168680D01*
X67195Y-168771D01*
X68413Y-169585D01*
X68761Y-169655D01*
X98033Y-198927D01*
X98022Y-199118D01*
X97333Y-200741D01*
X96168Y-200973D01*
X94670Y-201974D01*
X93669Y-203472D01*
X93318Y-205238D01*
X92277Y-206279D01*
X90511Y-206630D01*
X89013Y-207631D01*
X88012Y-209129D01*
X87661Y-210895D01*
X85927Y-211296D01*
X84556Y-211569D01*
X83883Y-212019D01*
X91761Y-219897D01*
X99639Y-227774D01*
X99665Y-227736D01*
X101456Y-227343D01*
X102810Y-228531D01*
Y-241862D01*
X102449Y-242403D01*
X102163Y-243840D01*
X102449Y-245277D01*
X103263Y-246495D01*
X104481Y-247309D01*
X105918Y-247595D01*
X107355Y-247309D01*
X108573Y-246495D01*
X109387Y-245277D01*
X109673Y-243840D01*
X109387Y-242403D01*
X109026Y-241862D01*
Y-227080D01*
X108789Y-225890D01*
X108116Y-224882D01*
X104861Y-221628D01*
X104956Y-221255D01*
X105028Y-221147D01*
X105184Y-220365D01*
X105284Y-219971D01*
X106881Y-219292D01*
X107074Y-219281D01*
X119066Y-231273D01*
Y-243586D01*
X119303Y-244775D01*
X119977Y-245784D01*
X132845Y-258652D01*
Y-263287D01*
X131202Y-263967D01*
X127928Y-260693D01*
X126919Y-260019D01*
X125730Y-259782D01*
X116808D01*
Y-253318D01*
X109252D01*
Y-266874D01*
X116808D01*
Y-265998D01*
X124227D01*
X125390Y-267310D01*
X124780Y-268871D01*
X123423Y-269141D01*
X121953Y-270123D01*
X120334Y-269345D01*
X120061Y-269163D01*
X118872Y-268926D01*
X105410D01*
X104221Y-269163D01*
X103212Y-269837D01*
X100419Y-272631D01*
X99745Y-273639D01*
X99508Y-274828D01*
Y-290035D01*
X97730Y-290574D01*
X97462Y-290173D01*
X96243Y-289359D01*
X95577Y-289226D01*
X95752Y-287448D01*
X97250D01*
Y-281178D01*
X92710D01*
Y-278638D01*
X97250D01*
Y-273511D01*
X92710D01*
Y-270971D01*
X96989D01*
X96897Y-270506D01*
X95915Y-269036D01*
X94579Y-268144D01*
X94565Y-268015D01*
X95663Y-266366D01*
X96488D01*
Y-252810D01*
X95818D01*
Y-243786D01*
X96179Y-243245D01*
X96465Y-241808D01*
X96179Y-240371D01*
X95365Y-239153D01*
X94147Y-238339D01*
X92710Y-238053D01*
X91273Y-238339D01*
X90092Y-239128D01*
X89854Y-239084D01*
X88314Y-238557D01*
Y-236242D01*
X89449Y-235311D01*
X91216Y-234960D01*
X92713Y-233959D01*
X93714Y-232461D01*
X94066Y-230694D01*
X95799Y-230293D01*
X97170Y-230020D01*
X97843Y-229571D01*
X89965Y-221693D01*
X82087Y-213815D01*
X81637Y-214488D01*
X81364Y-215859D01*
X80964Y-217592D01*
X79197Y-217944D01*
X77699Y-218944D01*
X76768Y-220338D01*
X75943Y-220442D01*
X75731D01*
X74906Y-220338D01*
X73975Y-218944D01*
X72478Y-217944D01*
X71255Y-217701D01*
X70274Y-216989D01*
X69562Y-216008D01*
X69319Y-214785D01*
X68318Y-213288D01*
X66821Y-212287D01*
X65598Y-212043D01*
X64617Y-211333D01*
X63905Y-210351D01*
X63662Y-209129D01*
X62661Y-207631D01*
X61163Y-206630D01*
X60054Y-206409D01*
Y-204597D01*
X61127Y-204383D01*
X62345Y-203569D01*
X63159Y-202351D01*
X63445Y-200914D01*
X63159Y-199477D01*
X62345Y-198259D01*
X61127Y-197445D01*
X59690Y-197159D01*
X58253Y-197445D01*
X57035Y-198259D01*
X56221Y-199477D01*
X54246Y-200702D01*
X53303Y-200019D01*
X52591Y-199037D01*
X52348Y-197815D01*
X51347Y-196317D01*
X49850Y-195316D01*
X48628Y-195073D01*
X47043Y-193925D01*
X46692Y-192158D01*
X45691Y-190660D01*
X44193Y-189659D01*
X42970Y-189416D01*
X41990Y-188705D01*
X41278Y-187724D01*
X41035Y-186501D01*
X40034Y-185004D01*
X38536Y-184003D01*
X37314Y-183760D01*
X35729Y-182611D01*
X35378Y-180844D01*
X34377Y-179347D01*
X32984Y-178415D01*
X32880Y-177591D01*
Y-177379D01*
X32984Y-176554D01*
X34377Y-175623D01*
X35378Y-174125D01*
X35729Y-172358D01*
X37314Y-171209D01*
X38536Y-170966D01*
X40034Y-169965D01*
X41035Y-168468D01*
X41386Y-166701D01*
X43119Y-166300D01*
X44490Y-166028D01*
X45164Y-165578D01*
X37286Y-157700D01*
X29408Y-149822D01*
X28958Y-150495D01*
X28685Y-151866D01*
X28284Y-153599D01*
X26517Y-153951D01*
X26130Y-154210D01*
X21122Y-149202D01*
X20995Y-148564D01*
X20181Y-147346D01*
X18963Y-146532D01*
X17526Y-146246D01*
X16089Y-146532D01*
X14871Y-147346D01*
X14057Y-148564D01*
X13771Y-150001D01*
X14057Y-151438D01*
X14871Y-152656D01*
X16089Y-153470D01*
X16727Y-153597D01*
X21029Y-157899D01*
X20478Y-159863D01*
X19363Y-160608D01*
X18362Y-162106D01*
X18011Y-163873D01*
X16420Y-164987D01*
X15581Y-165154D01*
X14363Y-165968D01*
X13549Y-167187D01*
X13263Y-168624D01*
X13549Y-170061D01*
X14363Y-171279D01*
X15581Y-172093D01*
X17018Y-172379D01*
X18455Y-172093D01*
X18996Y-171731D01*
X23957D01*
X27848Y-175623D01*
X29242Y-176554D01*
X29346Y-177379D01*
Y-177591D01*
X29242Y-178415D01*
X27848Y-179347D01*
X22941Y-184254D01*
X18378D01*
X17189Y-184490D01*
X16181Y-185164D01*
X6201Y-195144D01*
X5940Y-194944D01*
X3075Y-193757D01*
X1166Y-193506D01*
X580Y-193429D01*
Y-191635D01*
X1166Y-191558D01*
X3075Y-191307D01*
X5940Y-190120D01*
X8400Y-188232D01*
X10288Y-185772D01*
X11475Y-182907D01*
X11880Y-179832D01*
X11475Y-176757D01*
X10288Y-173892D01*
X8400Y-171432D01*
X5940Y-169544D01*
X3075Y-168357D01*
X1166Y-168106D01*
X580Y-168029D01*
Y-166235D01*
X1166Y-166158D01*
X3075Y-165907D01*
X5940Y-164720D01*
X8400Y-162832D01*
X10288Y-160372D01*
X11475Y-157507D01*
X11880Y-154432D01*
X11475Y-151357D01*
X10288Y-148492D01*
X10220Y-148403D01*
Y-144035D01*
X16041Y-138215D01*
X16714Y-137206D01*
X16951Y-136017D01*
Y-135119D01*
X18288Y-134208D01*
Y-129540D01*
X19558D01*
Y-128270D01*
X23837D01*
X23745Y-127806D01*
X22763Y-126335D01*
X22326Y-126044D01*
X22866Y-124266D01*
X24875D01*
X29806Y-129198D01*
D02*
G37*
G36*
X126427Y-277995D02*
X127765Y-278907D01*
Y-295122D01*
X127139Y-295541D01*
X126325Y-296759D01*
X126039Y-298196D01*
X126325Y-299633D01*
X127139Y-300851D01*
X128357Y-301665D01*
X129794Y-301951D01*
X131067Y-301698D01*
X131347Y-301741D01*
X132845Y-302725D01*
Y-309323D01*
X131067Y-310060D01*
X121980Y-300973D01*
Y-278526D01*
X123758Y-277582D01*
X123888Y-277607D01*
Y-273328D01*
X126427D01*
Y-277995D01*
D02*
G37*
%LPC*%
G36*
X23837Y-130810D02*
X20828D01*
Y-133819D01*
X21292Y-133727D01*
X22763Y-132745D01*
X23745Y-131274D01*
X23837Y-130810D01*
D02*
G37*
G36*
X63880Y-184967D02*
X62443Y-185253D01*
X61225Y-186067D01*
X60411Y-187285D01*
X60125Y-188722D01*
X60411Y-190159D01*
X61225Y-191377D01*
X62443Y-192191D01*
X63880Y-192477D01*
X65317Y-192191D01*
X66535Y-191377D01*
X67349Y-190159D01*
X67635Y-188722D01*
X67349Y-187285D01*
X66535Y-186067D01*
X65317Y-185253D01*
X63880Y-184967D01*
D02*
G37*
G36*
X77470Y-193857D02*
X76033Y-194143D01*
X74815Y-194957D01*
X74001Y-196175D01*
X73715Y-197612D01*
X74001Y-199049D01*
X74815Y-200267D01*
X76033Y-201081D01*
X77470Y-201367D01*
X78907Y-201081D01*
X80125Y-200267D01*
X80939Y-199049D01*
X81225Y-197612D01*
X80939Y-196175D01*
X80125Y-194957D01*
X78907Y-194143D01*
X77470Y-193857D01*
D02*
G37*
%LPD*%
D15*
X53086Y-168148D02*
Y-167767D01*
X32512Y-135636D02*
X34798Y-133350D01*
X74676Y-262081D02*
X79756D01*
X69617Y-166116D02*
X107834Y-204332D01*
X20193Y-139319D02*
Y-129540D01*
X92710Y-272796D02*
X98552Y-266954D01*
X53340Y-243421D02*
X56642Y-246723D01*
Y-260096D02*
Y-246723D01*
X53086Y-167767D02*
X66957Y-153896D01*
X48895Y-164293D02*
X56642Y-156546D01*
X45167Y-164293D02*
X48895D01*
X38184Y-157310D02*
X45167Y-164293D01*
X49497Y-145996D02*
X56642Y-153141D01*
Y-156546D02*
Y-153141D01*
X66957Y-153896D02*
X69319Y-141155D01*
X56134Y-234188D02*
X56377Y-233945D01*
X58682D01*
X65667Y-226960D01*
X66468D01*
X55154Y-140339D02*
Y-138303D01*
X41805Y-151653D02*
X43840D01*
X20193Y-139319D02*
X38184Y-157310D01*
X19558Y-129540D02*
X20193D01*
X30491Y-162966D02*
X32527D01*
X34798Y-133350D02*
X48165D01*
X17526Y-150001D02*
X30491Y-162966D01*
X17018Y-168624D02*
X26870D01*
X115062Y-146461D02*
Y-132842D01*
X113491Y-157310D02*
Y-155274D01*
X60811Y-134682D02*
X62846D01*
X33816Y-143664D02*
X41805Y-151653D01*
X96520Y-217682D02*
X105918Y-227080D01*
X33816Y-143664D02*
Y-137055D01*
X96520Y-217682D02*
Y-215646D01*
X85206Y-129025D02*
Y-99960D01*
X100141Y-145996D02*
X102177D01*
X124380Y-157734D02*
X130810D01*
X131064Y-131780D02*
X133604Y-134320D01*
X109870Y-151653D02*
X115062Y-146461D01*
X131064Y-131780D02*
Y-101854D01*
X62846Y-134682D02*
X69319Y-141155D01*
X96391Y-149746D02*
X100141Y-145996D01*
X120809Y-147955D02*
X127762D01*
X133604Y-154940D02*
Y-134320D01*
X130810Y-157734D02*
X133604Y-154940D01*
X85791Y-151068D02*
X96520Y-140339D01*
X105918Y-243840D02*
Y-227080D01*
X85206Y-99960D02*
X86868Y-98298D01*
X90863Y-134682D02*
X98545Y-127000D01*
X87630Y-165862D02*
X96391Y-157101D01*
Y-149746D01*
X113491Y-155274D02*
X120809Y-147955D01*
X138594Y-187362D02*
X144526Y-193294D01*
X120629Y-193019D02*
X128778Y-201168D01*
X125984Y-139700D02*
Y-132461D01*
X107834Y-151653D02*
X109870D01*
X69617Y-166116D02*
X69850D01*
X98545Y-127000D02*
X120523D01*
X125984Y-132461D01*
X124804Y-187362D02*
X138594D01*
X48165Y-133350D02*
X55154Y-140339D01*
X119147Y-162966D02*
X124380Y-157734D01*
X119147Y-193019D02*
X120629D01*
X7112Y-154940D02*
Y-142748D01*
X32004Y-127000D02*
X48006D01*
X26162Y-121158D02*
X32004Y-127000D01*
X18542Y-121158D02*
X26162D01*
X13843Y-125857D02*
X18542Y-121158D01*
X13843Y-136017D02*
Y-125857D01*
X55209Y-120051D02*
X57493D01*
X64516Y-127074D01*
Y-127254D02*
Y-127074D01*
X48006Y-127254D02*
X55209Y-120051D01*
X64696Y-127254D02*
X66468Y-129025D01*
X92710Y-272796D02*
Y-272241D01*
Y-280416D02*
Y-272796D01*
X146209Y-297180D02*
X154940D01*
X58420Y-79756D02*
Y-66040D01*
Y-83820D02*
Y-79756D01*
X113030Y-262890D02*
X125730D01*
X74676Y-283464D02*
X79756D01*
X17780Y-60960D02*
X37846Y-40894D01*
X0Y-78740D02*
X17780Y-60960D01*
X26416Y-199129D02*
X32527Y-193019D01*
X26416Y-200660D02*
Y-199129D01*
X13810Y-213265D02*
X26416Y-200660D01*
X13810Y-217330D02*
Y-213265D01*
X0Y-231140D02*
X13810Y-217330D01*
X18891Y-217969D02*
X38184Y-198675D01*
X18891Y-219550D02*
Y-217969D01*
X13810Y-224631D02*
X18891Y-219550D01*
X13810Y-242729D02*
Y-224631D01*
X0Y-256540D02*
X13810Y-242729D01*
X29051Y-230436D02*
X49497Y-209989D01*
X29051Y-278290D02*
Y-230436D01*
X0Y-307340D02*
X29051Y-278290D01*
X34130Y-236670D02*
X55154Y-215646D01*
X34130Y-296587D02*
Y-236670D01*
X24254Y-306463D02*
X34130Y-296587D01*
X20620Y-306463D02*
X24254D01*
X18012Y-309071D02*
X20620Y-306463D01*
X18012Y-314728D02*
Y-309071D01*
X0Y-332740D02*
X18012Y-314728D01*
X47308Y-234806D02*
X60811Y-221303D01*
X39211Y-240045D02*
X47308Y-234806D01*
X39211Y-318930D02*
Y-240045D01*
X0Y-358140D02*
X39211Y-318930D01*
X44278Y-111295D02*
X68877D01*
X113030Y-262890D02*
Y-260604D01*
X125730Y-262890D02*
X130872Y-268032D01*
Y-297118D02*
Y-268032D01*
X129794Y-298196D02*
X130872Y-297118D01*
X116840Y-63500D02*
X139700D01*
X154940Y-78740D01*
X63500Y-370586D02*
Y-360680D01*
X74676Y-283464D02*
Y-280416D01*
X92710Y-260096D02*
Y-241808D01*
X85206Y-256148D02*
Y-226960D01*
Y-256148D02*
X85598Y-256540D01*
Y-292100D02*
Y-256540D01*
Y-292100D02*
X93980Y-300482D01*
X95250D01*
X102616Y-293116D01*
Y-274828D01*
X105410Y-272034D01*
X118872D01*
Y-302260D02*
Y-272034D01*
Y-302260D02*
X134874Y-318262D01*
Y-372110D02*
Y-318262D01*
Y-372110D02*
X140970Y-378206D01*
X149606D01*
X154940Y-383540D01*
X70000Y-360680D02*
Y-342646D01*
X59690Y-340868D02*
X65024Y-335534D01*
X72390D01*
X76500Y-339644D01*
Y-360680D02*
Y-339644D01*
X0Y-154940D02*
X7112D01*
Y-142748D02*
X13843Y-136017D01*
X14939Y-95739D02*
Y-90659D01*
Y-95739D02*
X28721D01*
X56642Y-287020D02*
Y-280416D01*
Y-287020D02*
X71120Y-301498D01*
X74676Y-262081D02*
Y-260096D01*
X98552Y-266954D02*
Y-228992D01*
X90863Y-221303D02*
X98552Y-228992D01*
X73976Y-95379D02*
Y-81596D01*
X37846Y-40894D02*
X104394D01*
X116840Y-53340D01*
Y-63500D02*
Y-53340D01*
X46604Y-312750D02*
X59182Y-325328D01*
X46604Y-312750D02*
Y-242560D01*
X154940Y-307340D02*
Y-297180D01*
X141130Y-292100D02*
X146209Y-297180D01*
X141130Y-292100D02*
Y-217330D01*
X130810Y-207010D02*
X141130Y-217330D01*
X123861Y-207010D02*
X130810D01*
X115526Y-198675D02*
X123861Y-207010D01*
X113491Y-198675D02*
X115526D01*
X154940Y-332740D02*
Y-321310D01*
X146050D02*
X154940D01*
X135953Y-311213D02*
X146050Y-321310D01*
X135953Y-311213D02*
Y-257365D01*
X122174Y-243586D02*
X135953Y-257365D01*
X122174Y-243586D02*
Y-229986D01*
X102177Y-209989D02*
X122174Y-229986D01*
X18891Y-229282D02*
X43840Y-204332D01*
X18891Y-263050D02*
Y-229282D01*
X0Y-281940D02*
X18891Y-263050D01*
X0Y-205740D02*
X18378Y-187362D01*
X26870D01*
X143223Y-168624D02*
X154940Y-180340D01*
X124804Y-168624D02*
X143223D01*
X17780Y-60960D02*
Y-5334D01*
X33020Y9906D01*
X113030Y-352209D02*
Y-280924D01*
X89500Y-370605D02*
Y-360680D01*
X123952Y-9014D02*
Y-7577D01*
X116840Y-465D02*
X123952Y-7577D01*
X116840Y-465D02*
Y10160D01*
D16*
X170180Y-406400D02*
Y25400D01*
X-15240Y-406400D02*
X170180D01*
X-15240Y25400D02*
X170180D01*
X-15240Y-406400D02*
Y25400D01*
D17*
X113030Y-260096D02*
D03*
Y-280416D02*
D03*
X92710Y-259588D02*
D03*
Y-279908D02*
D03*
X74676Y-259588D02*
D03*
Y-279908D02*
D03*
X56642Y-259588D02*
D03*
Y-279908D02*
D03*
D18*
X66468Y-128517D02*
D03*
X60811Y-134174D02*
D03*
X55154Y-139831D02*
D03*
X49497Y-145488D02*
D03*
X43840Y-151145D02*
D03*
X38184Y-156802D02*
D03*
X32527Y-162458D02*
D03*
X26870Y-168116D02*
D03*
X85206Y-226452D02*
D03*
X90863Y-220795D02*
D03*
X96520Y-215138D02*
D03*
X102177Y-209481D02*
D03*
X107834Y-203824D02*
D03*
X113491Y-198167D02*
D03*
X119147Y-192511D02*
D03*
X124804Y-186854D02*
D03*
D19*
X26870Y-186854D02*
D03*
X32527Y-192511D02*
D03*
X38184Y-198167D02*
D03*
X43840Y-203824D02*
D03*
X49497Y-209481D02*
D03*
X55154Y-215138D02*
D03*
X60811Y-220795D02*
D03*
X66468Y-226452D02*
D03*
X124804Y-168116D02*
D03*
X119147Y-162458D02*
D03*
X113491Y-156802D02*
D03*
X107834Y-151145D02*
D03*
X102177Y-145488D02*
D03*
D20*
X96520Y-139831D02*
D03*
X90863Y-134174D02*
D03*
X85206Y-128517D02*
D03*
D21*
X89500Y-360172D02*
D03*
X83000D02*
D03*
X76500D02*
D03*
X70000D02*
D03*
X63500D02*
D03*
D22*
X108700Y-386952D02*
D03*
X44400D02*
D03*
D23*
X86620D02*
D03*
X66380D02*
D03*
D24*
X116840Y10668D02*
D03*
Y-62992D02*
D03*
D25*
X28721Y-95231D02*
D03*
X58420Y-65532D02*
D03*
X73976Y-81088D02*
D03*
X44278Y-110787D02*
D03*
D41*
X51500Y-360172D02*
D03*
X101500D02*
D03*
D42*
X111500Y-386842D02*
D03*
X41500D02*
D03*
D03*
D43*
X154940Y-27432D02*
D03*
Y-52832D02*
D03*
Y-78232D02*
D03*
Y-103632D02*
D03*
Y-129032D02*
D03*
Y-154432D02*
D03*
Y-179832D02*
D03*
Y-205232D02*
D03*
Y-230632D02*
D03*
Y-256032D02*
D03*
Y-281432D02*
D03*
Y-306832D02*
D03*
Y-332232D02*
D03*
Y-357632D02*
D03*
Y-383032D02*
D03*
X0Y-27432D02*
D03*
Y-52832D02*
D03*
Y-78232D02*
D03*
Y-103632D02*
D03*
Y-129032D02*
D03*
Y-154432D02*
D03*
Y-179832D02*
D03*
Y-205232D02*
D03*
Y-230632D02*
D03*
Y-256032D02*
D03*
Y-281432D02*
D03*
Y-306832D02*
D03*
Y-332232D02*
D03*
Y-357632D02*
D03*
Y-383032D02*
D03*
D44*
X83820Y10414D02*
D03*
D45*
X58420D02*
D03*
X33020D02*
D03*
X83820Y-14986D02*
D03*
X58420D02*
D03*
X33020D02*
D03*
D46*
X53086Y-168148D02*
D03*
X53340Y-243421D02*
D03*
X45466Y-172212D02*
D03*
X61722Y-167894D02*
D03*
X17526Y-150001D02*
D03*
X17018Y-168624D02*
D03*
X87630Y-165862D02*
D03*
X127762Y-147955D02*
D03*
X85791Y-151068D02*
D03*
X115062Y-132842D02*
D03*
X69850Y-166116D02*
D03*
X131064Y-101854D02*
D03*
X128778Y-201168D02*
D03*
X125984Y-139700D02*
D03*
X105918Y-243840D02*
D03*
X86868Y-98298D02*
D03*
X144526Y-193294D02*
D03*
X56134Y-234188D02*
D03*
X32880Y-135615D02*
D03*
X19558Y-129540D02*
D03*
X74468Y-325374D02*
D03*
X14478Y-283718D02*
D03*
X121666Y-356362D02*
D03*
X68877Y-111295D02*
D03*
X58420Y-79756D02*
D03*
X129794Y-298196D02*
D03*
X77470Y-197612D02*
D03*
X128016Y-232908D02*
D03*
X58420Y-83820D02*
D03*
X69972Y-161164D02*
D03*
X63500Y-370586D02*
D03*
X78994Y-100584D02*
D03*
X85090Y-160020D02*
D03*
X79756Y-283464D02*
D03*
X63880Y-188722D02*
D03*
X92710Y-241808D02*
D03*
X59690Y-200914D02*
D03*
X71120Y-291408D02*
D03*
X59182Y-331828D02*
D03*
X70000Y-342646D02*
D03*
X59690Y-340868D02*
D03*
X14939Y-90659D02*
D03*
X65024Y-27178D02*
D03*
X71120Y-301498D02*
D03*
X79756Y-262081D02*
D03*
X18647Y-300748D02*
D03*
X55880Y-95525D02*
D03*
X140208Y-127000D02*
D03*
X73976Y-95379D02*
D03*
X36576Y-84131D02*
D03*
X59182Y-325328D02*
D03*
X46604Y-242560D02*
D03*
X146055Y-114300D02*
D03*
X142505Y-367782D02*
D03*
X17896Y-200660D02*
D03*
X62577Y-268392D02*
D03*
X23727Y-313748D02*
D03*
X54356Y-373370D02*
D03*
X40397Y-356870D02*
D03*
X140970Y-134620D02*
D03*
Y-2540D02*
D03*
X92710Y-272241D02*
D03*
X125157Y-273328D02*
D03*
X113030Y-352209D02*
D03*
X59158Y-299328D02*
D03*
X89500Y-370605D02*
D03*
X94806Y-292828D02*
D03*
X128027Y-216408D02*
D03*
X113475Y-114300D02*
D03*
X89397Y-63998D02*
D03*
X127508Y-95001D02*
D03*
X127000Y-34295D02*
D03*
X123952Y-9014D02*
D03*
M02*
