G04*
G04 #@! TF.GenerationSoftware,Altium Limited,Altium Designer,19.1.7 (138)*
G04*
G04 Layer_Color=32768*
%FSLAX44Y44*%
%MOMM*%
G71*
G01*
G75*
%ADD10C,0.1000*%
%ADD16C,0.1524*%
%ADD72C,0.0500*%
D10*
X38810Y-146812D02*
X48810D01*
X43810Y-151812D02*
Y-141812D01*
X34036Y-228642D02*
Y-218642D01*
X29036Y-223642D02*
X39036D01*
X50880Y-80772D02*
X60880D01*
X55880Y-85772D02*
Y-75772D01*
X108030Y-270256D02*
X118030D01*
X113030Y-275256D02*
Y-265256D01*
X87710Y-269748D02*
X97710D01*
X92710Y-274748D02*
Y-264748D01*
X69676Y-269748D02*
X79676D01*
X74676Y-274748D02*
Y-264748D01*
X51642Y-269748D02*
X61642D01*
X56642Y-274748D02*
Y-264748D01*
X76982Y-300570D02*
Y-290570D01*
X71982Y-295570D02*
X81982D01*
X76454Y-229028D02*
Y-219028D01*
X71454Y-224028D02*
X81454D01*
X117602Y-229150D02*
Y-219150D01*
X112602Y-224150D02*
X122602D01*
X72302Y-173949D02*
X79373Y-181020D01*
X72302D02*
X79373Y-173949D01*
X122000Y-7112D02*
X132000D01*
X127000Y-12112D02*
Y-2112D01*
X140970Y-32512D02*
Y18288D01*
X113030Y-32512D02*
Y18288D01*
Y-32512D02*
X140970D01*
X113030Y18288D02*
X140970D01*
X24892Y-369612D02*
Y-359612D01*
X19892Y-364612D02*
X29892D01*
X132080Y-369104D02*
Y-359104D01*
X127080Y-364104D02*
X137080D01*
X114300Y-118792D02*
Y-108792D01*
X109300Y-113792D02*
X119300D01*
X88900Y-127762D02*
X139700D01*
X88900Y-99822D02*
X139700D01*
X88900Y-127762D02*
Y-99822D01*
X139700Y-127762D02*
Y-99822D01*
X122508Y-67818D02*
X132508D01*
X127508Y-72818D02*
Y-62818D01*
X141478Y-93218D02*
Y-42418D01*
X113538Y-93218D02*
Y-42418D01*
Y-93218D02*
X141478D01*
X113538Y-42418D02*
X141478D01*
X99822Y-60240D02*
Y-50240D01*
X94822Y-55240D02*
X104822D01*
X111840Y-27432D02*
X121840D01*
X116840Y-32432D02*
Y-22432D01*
X53420Y-2286D02*
X63420D01*
X58420Y-7286D02*
Y2714D01*
D16*
X170180Y-406400D02*
Y25400D01*
X-15240Y-406400D02*
X170180D01*
X-15240Y25400D02*
X170180D01*
X-15240Y-406400D02*
Y25400D01*
D72*
X61310Y-156812D02*
Y-136812D01*
X26310Y-156812D02*
Y-136812D01*
X61310D01*
X26310Y-156812D02*
X61310D01*
X24036Y-241142D02*
X44036D01*
X24036Y-206142D02*
X44036D01*
Y-241142D02*
Y-206142D01*
X24036Y-241142D02*
Y-206142D01*
X19880Y-124272D02*
Y-37272D01*
X91880Y-124272D02*
Y-37272D01*
X19880D02*
X91880D01*
X19880Y-124272D02*
X91880D01*
X122030Y-287006D02*
Y-253506D01*
X104030Y-287006D02*
Y-253506D01*
X122030D01*
X104030Y-287006D02*
X122030D01*
X101710Y-286498D02*
Y-252998D01*
X83710Y-286498D02*
Y-252998D01*
X101710D01*
X83710Y-286498D02*
X101710D01*
X83676D02*
Y-252998D01*
X65676Y-286498D02*
Y-252998D01*
X83676D01*
X65676Y-286498D02*
X83676D01*
X65642D02*
Y-252998D01*
X47642Y-286498D02*
Y-252998D01*
X65642D01*
X47642Y-286498D02*
X65642D01*
X29482Y-350570D02*
X124482D01*
X29482Y-240570D02*
X124482D01*
X29482Y-350570D02*
Y-240570D01*
X124482Y-350570D02*
Y-240570D01*
X66454Y-241528D02*
X86454D01*
X66454Y-206528D02*
X86454D01*
Y-241528D02*
Y-206528D01*
X66454Y-241528D02*
Y-206528D01*
X107602Y-206650D02*
X127602D01*
X107602Y-241650D02*
X127602D01*
X107602D02*
Y-206650D01*
X127602Y-241650D02*
Y-206650D01*
X1591Y-177484D02*
X75837Y-103238D01*
Y-251731D02*
X150084Y-177484D01*
X75837Y-103238D02*
X150084Y-177484D01*
X1591D02*
X75837Y-251731D01*
X14892Y-382112D02*
X34892D01*
X14892Y-347112D02*
X34892D01*
Y-382112D02*
Y-347112D01*
X14892Y-382112D02*
Y-347112D01*
X122080Y-381604D02*
X142080D01*
X122080Y-346604D02*
X142080D01*
Y-381604D02*
Y-346604D01*
X122080Y-381604D02*
Y-346604D01*
X89822Y-37740D02*
X109822D01*
X89822Y-72740D02*
X109822D01*
X89822D02*
Y-37740D01*
X109822Y-72740D02*
Y-37740D01*
X137160Y-71882D02*
Y20068D01*
X97790Y-71882D02*
Y20068D01*
X137160D01*
X97790Y-71882D02*
X137160D01*
X97520Y-28686D02*
Y24114D01*
X19320D02*
X97520D01*
X19320Y-28686D02*
X97520D01*
X19320D02*
Y24114D01*
M02*
