G04*
G04 #@! TF.GenerationSoftware,Altium Limited,Altium Designer,19.1.7 (138)*
G04*
G04 Layer_Physical_Order=4*
G04 Layer_Color=16440176*
%FSLAX44Y44*%
%MOMM*%
G71*
G01*
G75*
%ADD15C,0.2540*%
%ADD16C,0.1524*%
%ADD43C,2.0000*%
%ADD45C,1.5500*%
%ADD46C,0.3810*%
D15*
X45466Y-172212D02*
X48768D01*
X59563Y-183007D01*
X34522Y-234188D02*
Y-155724D01*
Y-349018D02*
Y-234188D01*
X137414Y-172466D02*
X154940Y-154940D01*
X137414Y-186182D02*
Y-172466D01*
Y-186182D02*
X144526Y-193294D01*
X143902Y-256540D02*
X154940D01*
X133742Y-246380D02*
X143902Y-256540D01*
X133742Y-246380D02*
Y-213360D01*
X115062Y-199302D02*
X133742Y-213360D01*
X115062Y-199302D02*
Y-132842D01*
X0Y-358140D02*
X15748Y-342392D01*
Y-311589D01*
X20874Y-306463D01*
X23677D01*
X26162Y-303979D01*
Y-47752D01*
X58420Y-15494D01*
X34522Y-234188D02*
X56134D01*
X58420Y9906D02*
X70104Y-1778D01*
X95504D01*
X96250Y-148860D01*
X85090Y-160020D02*
X96250Y-148860D01*
X121666Y-356362D02*
Y-339344D01*
X99314Y-316992D02*
X121666Y-339344D01*
X59690Y-316992D02*
X99314D01*
X53340Y-310642D02*
X59690Y-316992D01*
X53340Y-310642D02*
Y-258064D01*
X61976Y-249428D01*
Y-228346D01*
X39878Y-206248D02*
X61976Y-228346D01*
X39878Y-206248D02*
Y-160274D01*
X68877Y-131275D01*
Y-111295D01*
X130048Y-78740D02*
X154940D01*
X106934Y-101854D02*
X130048Y-78740D01*
X106934Y-159733D02*
Y-101854D01*
X100805Y-165862D02*
X106934Y-159733D01*
X87630Y-165862D02*
X100805D01*
X63500Y-370586D02*
X70612Y-377698D01*
X102616D01*
X114300Y-366014D01*
X120650D01*
X127762Y-358902D01*
Y-336550D01*
X109728Y-318516D02*
X127762Y-336550D01*
X109728Y-318516D02*
Y-261112D01*
X100076Y-251460D02*
X109728Y-261112D01*
X100076Y-251460D02*
Y-211836D01*
X75687Y-187447D02*
X100076Y-211836D01*
X75687Y-187447D02*
Y-144780D01*
X78994Y-141473D01*
Y-100584D01*
X139700Y-383540D02*
X154940D01*
X134620Y-378460D02*
X139700Y-383540D01*
X134620Y-378460D02*
Y-335407D01*
X118618Y-319405D02*
X134620Y-335407D01*
X118618Y-319405D02*
Y-222830D01*
X80767Y-184979D02*
X118618Y-222830D01*
X80767Y-184979D02*
Y-164343D01*
X85090Y-160020D01*
X79756Y-283464D02*
Y-273511D01*
X74041Y-267796D02*
X79756Y-273511D01*
X74041Y-267796D02*
Y-214123D01*
X66651Y-206733D02*
X74041Y-214123D01*
X66651Y-206733D02*
Y-198706D01*
X64515Y-196570D02*
X66651Y-198706D01*
X64515Y-196570D02*
Y-189357D01*
X63880Y-188722D02*
X64515Y-189357D01*
X92710Y-261874D02*
Y-241808D01*
Y-261874D02*
X100838Y-270002D01*
Y-297180D02*
Y-270002D01*
X90678Y-307340D02*
X100838Y-297180D01*
X67818Y-307340D02*
X90678D01*
X65278Y-304800D02*
X67818Y-307340D01*
X65278Y-304800D02*
Y-275844D01*
X68326Y-272796D01*
Y-223520D01*
X59690Y-214884D02*
X68326Y-223520D01*
X59690Y-214884D02*
Y-200914D01*
X71120Y-291408D02*
X84258D01*
X85471Y-290195D01*
Y-218220D01*
X71731Y-204480D02*
X85471Y-218220D01*
X71731Y-204480D02*
Y-193626D01*
X69595Y-191490D02*
X71731Y-193626D01*
X69595Y-191490D02*
Y-183007D01*
X59563D02*
X69595D01*
X65024Y-98044D02*
Y-27178D01*
X43688Y-119380D02*
X65024Y-98044D01*
X43688Y-146558D02*
Y-119380D01*
X34522Y-155724D02*
X43688Y-146558D01*
X0Y-383540D02*
X34522Y-349018D01*
X142748Y-231140D02*
X154940D01*
X138902Y-227294D02*
X142748Y-231140D01*
X138902Y-227294D02*
Y-197464D01*
X127762Y-186324D02*
X138902Y-197464D01*
X127762Y-186324D02*
Y-147955D01*
X140208Y-127000D02*
Y-93472D01*
X154940Y-78740D01*
D16*
X170180Y-406400D02*
Y25400D01*
X-15240Y-406400D02*
X170180D01*
X-15240Y25400D02*
X170180D01*
X-15240Y-406400D02*
Y25400D01*
D43*
X154940Y-78232D02*
D03*
Y-154432D02*
D03*
Y-230632D02*
D03*
Y-256032D02*
D03*
Y-383032D02*
D03*
X0Y-357632D02*
D03*
Y-383032D02*
D03*
D45*
X58420Y10414D02*
D03*
Y-14986D02*
D03*
D46*
X45466Y-172212D02*
D03*
X87630Y-165862D02*
D03*
X127762Y-147955D02*
D03*
X115062Y-132842D02*
D03*
X144526Y-193294D02*
D03*
X56134Y-234188D02*
D03*
X121666Y-356362D02*
D03*
X68877Y-111295D02*
D03*
X63500Y-370586D02*
D03*
X78994Y-100584D02*
D03*
X85090Y-160020D02*
D03*
X79756Y-283464D02*
D03*
X63880Y-188722D02*
D03*
X92710Y-241808D02*
D03*
X59690Y-200914D02*
D03*
X71120Y-291408D02*
D03*
X65024Y-27178D02*
D03*
X140208Y-127000D02*
D03*
M02*
