G04*
G04 #@! TF.GenerationSoftware,Altium Limited,Altium Designer,19.1.7 (138)*
G04*
G04 Layer_Color=32896*
%FSLAX44Y44*%
%MOMM*%
G71*
G01*
G75*
%ADD11C,0.2500*%
%ADD12C,0.6000*%
%ADD14C,0.2000*%
%ADD16C,0.1524*%
G36*
X49956Y-237206D02*
X50034Y-237318D01*
X50125Y-237431D01*
X50209Y-237529D01*
X50294Y-237614D01*
X50357Y-237684D01*
X50385Y-237705D01*
X50406Y-237726D01*
X50413Y-237733D01*
X50420Y-237740D01*
X50568Y-237860D01*
X50716Y-237973D01*
X50857Y-238071D01*
X50998Y-238148D01*
X51117Y-238219D01*
X51166Y-238247D01*
X51209Y-238268D01*
X51244Y-238289D01*
X51272Y-238296D01*
X51286Y-238310D01*
X51293D01*
Y-238887D01*
X51187Y-238845D01*
X51082Y-238796D01*
X50976Y-238747D01*
X50878Y-238697D01*
X50793Y-238655D01*
X50723Y-238620D01*
X50681Y-238592D01*
X50674Y-238585D01*
X50667D01*
X50540Y-238507D01*
X50428Y-238430D01*
X50329Y-238360D01*
X50252Y-238296D01*
X50181Y-238247D01*
X50139Y-238205D01*
X50104Y-238177D01*
X50097Y-238170D01*
Y-241976D01*
X49499D01*
Y-237086D01*
X49886D01*
X49956Y-237206D01*
D02*
G37*
G36*
X56408Y-239921D02*
Y-240062D01*
X56401Y-240196D01*
X56394Y-240323D01*
X56380Y-240442D01*
X56366Y-240548D01*
X56352Y-240646D01*
X56331Y-240738D01*
X56316Y-240822D01*
X56302Y-240900D01*
X56281Y-240963D01*
X56267Y-241019D01*
X56253Y-241061D01*
X56239Y-241096D01*
X56232Y-241125D01*
X56225Y-241139D01*
Y-241146D01*
X56148Y-241301D01*
X56049Y-241441D01*
X55951Y-241554D01*
X55845Y-241652D01*
X55754Y-241730D01*
X55676Y-241786D01*
X55648Y-241800D01*
X55627Y-241814D01*
X55613Y-241828D01*
X55606D01*
X55430Y-241906D01*
X55247Y-241962D01*
X55057Y-242004D01*
X54881Y-242032D01*
X54804Y-242039D01*
X54726Y-242046D01*
X54656Y-242053D01*
X54600D01*
X54550Y-242060D01*
X54487D01*
X54234Y-242046D01*
X54121Y-242032D01*
X54016Y-242018D01*
X53910Y-241997D01*
X53819Y-241976D01*
X53734Y-241955D01*
X53657Y-241927D01*
X53587Y-241899D01*
X53530Y-241877D01*
X53474Y-241856D01*
X53432Y-241835D01*
X53397Y-241814D01*
X53376Y-241807D01*
X53362Y-241793D01*
X53355D01*
X53200Y-241688D01*
X53073Y-241568D01*
X52975Y-241455D01*
X52890Y-241343D01*
X52827Y-241244D01*
X52785Y-241167D01*
X52771Y-241139D01*
X52756Y-241118D01*
X52749Y-241104D01*
Y-241096D01*
X52721Y-241012D01*
X52693Y-240921D01*
X52651Y-240731D01*
X52623Y-240534D01*
X52602Y-240344D01*
X52595Y-240259D01*
X52588Y-240175D01*
Y-240105D01*
X52580Y-240041D01*
Y-239992D01*
Y-239957D01*
Y-239929D01*
Y-239921D01*
Y-237107D01*
X53228D01*
Y-239921D01*
Y-240083D01*
X53242Y-240238D01*
X53256Y-240372D01*
X53277Y-240499D01*
X53298Y-240611D01*
X53326Y-240717D01*
X53347Y-240808D01*
X53376Y-240885D01*
X53404Y-240949D01*
X53432Y-241012D01*
X53460Y-241054D01*
X53481Y-241096D01*
X53502Y-241125D01*
X53516Y-241146D01*
X53523Y-241153D01*
X53530Y-241160D01*
X53594Y-241216D01*
X53664Y-241265D01*
X53819Y-241343D01*
X53981Y-241399D01*
X54149Y-241434D01*
X54304Y-241462D01*
X54368Y-241469D01*
X54431D01*
X54473Y-241476D01*
X54543D01*
X54691Y-241469D01*
X54825Y-241448D01*
X54952Y-241427D01*
X55050Y-241392D01*
X55135Y-241364D01*
X55198Y-241343D01*
X55233Y-241322D01*
X55247Y-241315D01*
X55346Y-241251D01*
X55430Y-241174D01*
X55500Y-241096D01*
X55550Y-241026D01*
X55592Y-240956D01*
X55627Y-240907D01*
X55641Y-240871D01*
X55648Y-240857D01*
X55669Y-240794D01*
X55683Y-240731D01*
X55711Y-240583D01*
X55733Y-240428D01*
X55747Y-240273D01*
X55754Y-240140D01*
Y-240076D01*
X55761Y-240027D01*
Y-239985D01*
Y-239950D01*
Y-239929D01*
Y-239921D01*
Y-237107D01*
X56408D01*
Y-239921D01*
D02*
G37*
G36*
X49505Y-31552D02*
X49583Y-31664D01*
X49674Y-31777D01*
X49758Y-31875D01*
X49843Y-31960D01*
X49906Y-32030D01*
X49934Y-32051D01*
X49955Y-32072D01*
X49963Y-32079D01*
X49970Y-32086D01*
X50117Y-32206D01*
X50265Y-32319D01*
X50406Y-32417D01*
X50546Y-32494D01*
X50666Y-32565D01*
X50715Y-32593D01*
X50757Y-32614D01*
X50793Y-32635D01*
X50821Y-32642D01*
X50835Y-32656D01*
X50842D01*
Y-33233D01*
X50736Y-33191D01*
X50631Y-33142D01*
X50525Y-33093D01*
X50427Y-33043D01*
X50342Y-33001D01*
X50272Y-32966D01*
X50230Y-32938D01*
X50223Y-32931D01*
X50216D01*
X50089Y-32853D01*
X49977Y-32776D01*
X49878Y-32706D01*
X49801Y-32642D01*
X49730Y-32593D01*
X49688Y-32551D01*
X49653Y-32523D01*
X49646Y-32516D01*
Y-36322D01*
X49048D01*
Y-31432D01*
X49435D01*
X49505Y-31552D01*
D02*
G37*
G36*
X54339Y-31383D02*
X54585Y-31418D01*
X54698Y-31439D01*
X54803Y-31467D01*
X54902Y-31488D01*
X54993Y-31516D01*
X55078Y-31545D01*
X55148Y-31573D01*
X55211Y-31601D01*
X55268Y-31622D01*
X55310Y-31643D01*
X55338Y-31657D01*
X55359Y-31664D01*
X55366Y-31671D01*
X55465Y-31735D01*
X55563Y-31798D01*
X55732Y-31946D01*
X55880Y-32094D01*
X55999Y-32248D01*
X56098Y-32382D01*
X56133Y-32438D01*
X56161Y-32494D01*
X56189Y-32537D01*
X56203Y-32565D01*
X56210Y-32586D01*
X56217Y-32593D01*
X56316Y-32825D01*
X56386Y-33057D01*
X56442Y-33282D01*
X56456Y-33388D01*
X56478Y-33487D01*
X56485Y-33578D01*
X56499Y-33655D01*
X56506Y-33733D01*
Y-33796D01*
X56513Y-33845D01*
Y-33881D01*
Y-33909D01*
Y-33916D01*
X56499Y-34176D01*
X56464Y-34422D01*
X56442Y-34535D01*
X56421Y-34640D01*
X56393Y-34746D01*
X56365Y-34837D01*
X56337Y-34922D01*
X56309Y-34992D01*
X56288Y-35063D01*
X56267Y-35112D01*
X56245Y-35161D01*
X56231Y-35189D01*
X56217Y-35210D01*
Y-35217D01*
X56091Y-35421D01*
X55950Y-35597D01*
X55802Y-35752D01*
X55662Y-35879D01*
X55528Y-35977D01*
X55479Y-36012D01*
X55429Y-36048D01*
X55387Y-36069D01*
X55359Y-36090D01*
X55338Y-36097D01*
X55331Y-36104D01*
X55218Y-36160D01*
X55106Y-36202D01*
X54880Y-36280D01*
X54662Y-36329D01*
X54458Y-36371D01*
X54367Y-36378D01*
X54282Y-36392D01*
X54205Y-36399D01*
X54142D01*
X54092Y-36406D01*
X54022D01*
X53825Y-36399D01*
X53635Y-36378D01*
X53459Y-36343D01*
X53305Y-36308D01*
X53241Y-36294D01*
X53178Y-36280D01*
X53122Y-36259D01*
X53072Y-36245D01*
X53037Y-36230D01*
X53009Y-36223D01*
X52995Y-36216D01*
X52988D01*
X52798Y-36139D01*
X52622Y-36048D01*
X52453Y-35949D01*
X52305Y-35858D01*
X52242Y-35815D01*
X52179Y-35773D01*
X52130Y-35738D01*
X52087Y-35710D01*
X52052Y-35682D01*
X52024Y-35661D01*
X52010Y-35654D01*
X52003Y-35647D01*
Y-33838D01*
X54071D01*
Y-34415D01*
X52636D01*
Y-35330D01*
X52720Y-35400D01*
X52819Y-35464D01*
X52925Y-35520D01*
X53023Y-35569D01*
X53108Y-35611D01*
X53185Y-35647D01*
X53213Y-35661D01*
X53227Y-35668D01*
X53241Y-35675D01*
X53248D01*
X53396Y-35724D01*
X53544Y-35766D01*
X53677Y-35794D01*
X53804Y-35808D01*
X53910Y-35823D01*
X53952D01*
X53994Y-35830D01*
X54064D01*
X54240Y-35823D01*
X54409Y-35794D01*
X54564Y-35759D01*
X54705Y-35724D01*
X54817Y-35682D01*
X54866Y-35668D01*
X54902Y-35654D01*
X54937Y-35640D01*
X54958Y-35626D01*
X54972Y-35618D01*
X54979D01*
X55127Y-35527D01*
X55260Y-35429D01*
X55373Y-35323D01*
X55465Y-35217D01*
X55542Y-35119D01*
X55591Y-35041D01*
X55612Y-35013D01*
X55619Y-34992D01*
X55633Y-34978D01*
Y-34971D01*
X55704Y-34795D01*
X55760Y-34612D01*
X55795Y-34429D01*
X55823Y-34253D01*
X55830Y-34176D01*
X55837Y-34106D01*
X55844Y-34035D01*
Y-33979D01*
X55851Y-33937D01*
Y-33902D01*
Y-33881D01*
Y-33874D01*
X55844Y-33677D01*
X55823Y-33501D01*
X55795Y-33332D01*
X55760Y-33184D01*
X55746Y-33121D01*
X55725Y-33064D01*
X55711Y-33015D01*
X55697Y-32973D01*
X55683Y-32938D01*
X55676Y-32917D01*
X55669Y-32903D01*
Y-32896D01*
X55619Y-32797D01*
X55570Y-32706D01*
X55521Y-32621D01*
X55472Y-32551D01*
X55429Y-32494D01*
X55394Y-32445D01*
X55366Y-32417D01*
X55359Y-32410D01*
X55282Y-32333D01*
X55197Y-32262D01*
X55106Y-32206D01*
X55021Y-32150D01*
X54951Y-32115D01*
X54895Y-32079D01*
X54852Y-32065D01*
X54838Y-32058D01*
X54712Y-32009D01*
X54585Y-31974D01*
X54451Y-31953D01*
X54332Y-31932D01*
X54226Y-31925D01*
X54184D01*
X54149Y-31918D01*
X54071D01*
X53938Y-31925D01*
X53811Y-31939D01*
X53699Y-31960D01*
X53600Y-31981D01*
X53516Y-32009D01*
X53452Y-32030D01*
X53417Y-32044D01*
X53403Y-32051D01*
X53298Y-32101D01*
X53206Y-32157D01*
X53122Y-32213D01*
X53058Y-32269D01*
X53009Y-32319D01*
X52967Y-32354D01*
X52946Y-32382D01*
X52939Y-32389D01*
X52875Y-32473D01*
X52826Y-32572D01*
X52777Y-32663D01*
X52735Y-32762D01*
X52706Y-32846D01*
X52685Y-32910D01*
X52678Y-32938D01*
X52671Y-32959D01*
X52664Y-32966D01*
Y-32973D01*
X52080Y-32818D01*
X52130Y-32642D01*
X52193Y-32487D01*
X52256Y-32347D01*
X52312Y-32234D01*
X52369Y-32143D01*
X52411Y-32079D01*
X52439Y-32037D01*
X52453Y-32023D01*
X52552Y-31911D01*
X52657Y-31819D01*
X52770Y-31735D01*
X52875Y-31664D01*
X52974Y-31615D01*
X53051Y-31573D01*
X53079Y-31559D01*
X53101Y-31552D01*
X53115Y-31545D01*
X53122D01*
X53283Y-31488D01*
X53452Y-31446D01*
X53607Y-31411D01*
X53755Y-31390D01*
X53889Y-31376D01*
X53945D01*
X53987Y-31369D01*
X54212D01*
X54339Y-31383D01*
D02*
G37*
G36*
X65786Y-36322D02*
X65139D01*
Y-34162D01*
X64309D01*
X64231Y-34169D01*
X64175D01*
X64126Y-34176D01*
X64090Y-34183D01*
X64062D01*
X64048Y-34190D01*
X64041D01*
X63928Y-34225D01*
X63879Y-34246D01*
X63837Y-34267D01*
X63795Y-34289D01*
X63767Y-34303D01*
X63753Y-34310D01*
X63746Y-34317D01*
X63689Y-34359D01*
X63633Y-34408D01*
X63527Y-34514D01*
X63478Y-34563D01*
X63443Y-34605D01*
X63422Y-34633D01*
X63415Y-34640D01*
X63345Y-34739D01*
X63267Y-34845D01*
X63190Y-34957D01*
X63112Y-35063D01*
X63049Y-35161D01*
X63000Y-35238D01*
X62979Y-35267D01*
X62965Y-35288D01*
X62951Y-35302D01*
Y-35309D01*
X62310Y-36322D01*
X61508D01*
X62345Y-34999D01*
X62444Y-34859D01*
X62536Y-34732D01*
X62627Y-34626D01*
X62704Y-34528D01*
X62775Y-34457D01*
X62831Y-34401D01*
X62866Y-34366D01*
X62880Y-34352D01*
X62937Y-34310D01*
X63000Y-34260D01*
X63127Y-34183D01*
X63183Y-34155D01*
X63225Y-34127D01*
X63253Y-34113D01*
X63267Y-34106D01*
X63141Y-34085D01*
X63021Y-34063D01*
X62915Y-34028D01*
X62810Y-34000D01*
X62718Y-33965D01*
X62634Y-33923D01*
X62557Y-33888D01*
X62486Y-33852D01*
X62430Y-33810D01*
X62374Y-33775D01*
X62331Y-33747D01*
X62296Y-33719D01*
X62268Y-33698D01*
X62247Y-33677D01*
X62240Y-33670D01*
X62233Y-33663D01*
X62177Y-33592D01*
X62120Y-33522D01*
X62036Y-33374D01*
X61980Y-33226D01*
X61937Y-33085D01*
X61909Y-32966D01*
X61902Y-32917D01*
Y-32867D01*
X61895Y-32832D01*
Y-32804D01*
Y-32790D01*
Y-32783D01*
X61902Y-32635D01*
X61923Y-32502D01*
X61958Y-32375D01*
X61994Y-32269D01*
X62036Y-32178D01*
X62064Y-32108D01*
X62092Y-32065D01*
X62099Y-32058D01*
Y-32051D01*
X62184Y-31939D01*
X62268Y-31840D01*
X62360Y-31756D01*
X62444Y-31692D01*
X62521Y-31643D01*
X62585Y-31615D01*
X62627Y-31594D01*
X62634Y-31587D01*
X62641D01*
X62704Y-31566D01*
X62782Y-31545D01*
X62937Y-31509D01*
X63105Y-31488D01*
X63260Y-31467D01*
X63408Y-31460D01*
X63471D01*
X63527Y-31453D01*
X65786D01*
Y-36322D01*
D02*
G37*
G36*
X60875D02*
X57238D01*
Y-35745D01*
X60228D01*
Y-34092D01*
X57533D01*
Y-33515D01*
X60228D01*
Y-32030D01*
X57350D01*
Y-31453D01*
X60875D01*
Y-36322D01*
D02*
G37*
G36*
X38342Y-162757D02*
X38461Y-162764D01*
X38574Y-162785D01*
X38679Y-162806D01*
X38778Y-162834D01*
X38869Y-162863D01*
X38954Y-162898D01*
X39031Y-162933D01*
X39102Y-162968D01*
X39158Y-163003D01*
X39207Y-163032D01*
X39249Y-163060D01*
X39285Y-163081D01*
X39306Y-163102D01*
X39320Y-163109D01*
X39327Y-163116D01*
X39397Y-163186D01*
X39460Y-163264D01*
X39524Y-163348D01*
X39573Y-163433D01*
X39657Y-163601D01*
X39714Y-163770D01*
X39735Y-163848D01*
X39756Y-163925D01*
X39770Y-163988D01*
X39784Y-164045D01*
X39791Y-164094D01*
Y-164129D01*
X39798Y-164150D01*
Y-164157D01*
X39186Y-164221D01*
X39172Y-164059D01*
X39144Y-163918D01*
X39102Y-163791D01*
X39052Y-163693D01*
X39010Y-163608D01*
X38968Y-163552D01*
X38940Y-163517D01*
X38926Y-163503D01*
X38820Y-163419D01*
X38707Y-163355D01*
X38588Y-163306D01*
X38482Y-163278D01*
X38384Y-163257D01*
X38299Y-163250D01*
X38271Y-163243D01*
X38229D01*
X38081Y-163250D01*
X37948Y-163278D01*
X37835Y-163320D01*
X37737Y-163362D01*
X37659Y-163412D01*
X37610Y-163447D01*
X37575Y-163475D01*
X37561Y-163489D01*
X37476Y-163587D01*
X37413Y-163686D01*
X37364Y-163784D01*
X37336Y-163883D01*
X37314Y-163960D01*
X37307Y-164031D01*
X37300Y-164073D01*
Y-164080D01*
Y-164087D01*
X37314Y-164214D01*
X37343Y-164347D01*
X37392Y-164467D01*
X37441Y-164579D01*
X37497Y-164671D01*
X37547Y-164748D01*
X37561Y-164776D01*
X37575Y-164797D01*
X37589Y-164805D01*
Y-164812D01*
X37645Y-164889D01*
X37715Y-164966D01*
X37793Y-165051D01*
X37877Y-165135D01*
X38053Y-165304D01*
X38229Y-165473D01*
X38321Y-165550D01*
X38398Y-165621D01*
X38475Y-165684D01*
X38539Y-165740D01*
X38588Y-165783D01*
X38630Y-165818D01*
X38658Y-165839D01*
X38665Y-165846D01*
X38841Y-165994D01*
X39003Y-166134D01*
X39137Y-166261D01*
X39242Y-166367D01*
X39334Y-166458D01*
X39397Y-166521D01*
X39432Y-166563D01*
X39446Y-166571D01*
Y-166578D01*
X39545Y-166697D01*
X39622Y-166810D01*
X39692Y-166922D01*
X39749Y-167021D01*
X39791Y-167105D01*
X39819Y-167169D01*
X39833Y-167211D01*
X39840Y-167218D01*
Y-167225D01*
X39868Y-167302D01*
X39883Y-167373D01*
X39897Y-167443D01*
X39904Y-167506D01*
X39911Y-167563D01*
Y-167605D01*
Y-167633D01*
Y-167640D01*
X36681D01*
Y-167063D01*
X39080D01*
X38996Y-166943D01*
X38954Y-166894D01*
X38919Y-166845D01*
X38883Y-166803D01*
X38855Y-166775D01*
X38834Y-166754D01*
X38827Y-166747D01*
X38792Y-166711D01*
X38750Y-166676D01*
X38651Y-166585D01*
X38539Y-166479D01*
X38419Y-166374D01*
X38307Y-166282D01*
X38257Y-166240D01*
X38215Y-166198D01*
X38180Y-166169D01*
X38152Y-166148D01*
X38138Y-166134D01*
X38131Y-166127D01*
X38018Y-166029D01*
X37905Y-165937D01*
X37807Y-165846D01*
X37715Y-165769D01*
X37631Y-165691D01*
X37561Y-165621D01*
X37490Y-165557D01*
X37434Y-165501D01*
X37378Y-165445D01*
X37336Y-165403D01*
X37300Y-165367D01*
X37265Y-165332D01*
X37230Y-165290D01*
X37216Y-165276D01*
X37117Y-165156D01*
X37033Y-165051D01*
X36963Y-164945D01*
X36906Y-164861D01*
X36864Y-164783D01*
X36836Y-164727D01*
X36822Y-164692D01*
X36815Y-164678D01*
X36773Y-164572D01*
X36744Y-164467D01*
X36716Y-164368D01*
X36702Y-164284D01*
X36695Y-164207D01*
X36688Y-164150D01*
Y-164115D01*
Y-164101D01*
X36695Y-163995D01*
X36709Y-163897D01*
X36723Y-163799D01*
X36752Y-163714D01*
X36822Y-163545D01*
X36892Y-163412D01*
X36934Y-163348D01*
X36970Y-163299D01*
X37005Y-163250D01*
X37040Y-163214D01*
X37068Y-163186D01*
X37082Y-163158D01*
X37096Y-163151D01*
X37103Y-163144D01*
X37181Y-163074D01*
X37265Y-163010D01*
X37357Y-162961D01*
X37448Y-162919D01*
X37631Y-162849D01*
X37814Y-162799D01*
X37891Y-162785D01*
X37969Y-162771D01*
X38039Y-162764D01*
X38095Y-162757D01*
X38145Y-162750D01*
X38215D01*
X38342Y-162757D01*
D02*
G37*
G36*
X49022Y-167640D02*
X48375D01*
Y-165480D01*
X47544D01*
X47467Y-165487D01*
X47411D01*
X47362Y-165494D01*
X47326Y-165501D01*
X47298D01*
X47284Y-165508D01*
X47277D01*
X47165Y-165543D01*
X47115Y-165564D01*
X47073Y-165585D01*
X47031Y-165607D01*
X47003Y-165621D01*
X46989Y-165628D01*
X46982Y-165635D01*
X46925Y-165677D01*
X46869Y-165726D01*
X46764Y-165832D01*
X46714Y-165881D01*
X46679Y-165923D01*
X46658Y-165951D01*
X46651Y-165958D01*
X46581Y-166057D01*
X46503Y-166162D01*
X46426Y-166275D01*
X46348Y-166381D01*
X46285Y-166479D01*
X46236Y-166556D01*
X46215Y-166585D01*
X46201Y-166606D01*
X46187Y-166620D01*
Y-166627D01*
X45546Y-167640D01*
X44744D01*
X45581Y-166317D01*
X45680Y-166177D01*
X45771Y-166050D01*
X45863Y-165944D01*
X45940Y-165846D01*
X46011Y-165776D01*
X46067Y-165719D01*
X46102Y-165684D01*
X46116Y-165670D01*
X46172Y-165628D01*
X46236Y-165578D01*
X46363Y-165501D01*
X46419Y-165473D01*
X46461Y-165445D01*
X46489Y-165431D01*
X46503Y-165424D01*
X46377Y-165403D01*
X46257Y-165382D01*
X46151Y-165346D01*
X46046Y-165318D01*
X45954Y-165283D01*
X45870Y-165241D01*
X45793Y-165206D01*
X45722Y-165170D01*
X45666Y-165128D01*
X45610Y-165093D01*
X45567Y-165065D01*
X45532Y-165037D01*
X45504Y-165016D01*
X45483Y-164995D01*
X45476Y-164988D01*
X45469Y-164981D01*
X45413Y-164910D01*
X45356Y-164840D01*
X45272Y-164692D01*
X45216Y-164544D01*
X45173Y-164403D01*
X45145Y-164284D01*
X45138Y-164235D01*
Y-164185D01*
X45131Y-164150D01*
Y-164122D01*
Y-164108D01*
Y-164101D01*
X45138Y-163953D01*
X45159Y-163820D01*
X45195Y-163693D01*
X45230Y-163587D01*
X45272Y-163496D01*
X45300Y-163426D01*
X45328Y-163383D01*
X45335Y-163376D01*
Y-163369D01*
X45420Y-163257D01*
X45504Y-163158D01*
X45596Y-163074D01*
X45680Y-163010D01*
X45757Y-162961D01*
X45821Y-162933D01*
X45863Y-162912D01*
X45870Y-162905D01*
X45877D01*
X45940Y-162884D01*
X46018Y-162863D01*
X46172Y-162827D01*
X46341Y-162806D01*
X46496Y-162785D01*
X46644Y-162778D01*
X46707D01*
X46764Y-162771D01*
X49022D01*
Y-167640D01*
D02*
G37*
G36*
X44653D02*
X43970D01*
X43443Y-166162D01*
X41402D01*
X40832Y-167640D01*
X40101D01*
X42092Y-162771D01*
X42795D01*
X44653Y-167640D01*
D02*
G37*
G36*
X100008Y-163886D02*
X100085Y-163998D01*
X100177Y-164111D01*
X100261Y-164209D01*
X100346Y-164294D01*
X100409Y-164364D01*
X100437Y-164385D01*
X100458Y-164406D01*
X100465Y-164413D01*
X100472Y-164420D01*
X100620Y-164540D01*
X100768Y-164653D01*
X100909Y-164751D01*
X101049Y-164828D01*
X101169Y-164899D01*
X101218Y-164927D01*
X101260Y-164948D01*
X101296Y-164969D01*
X101324Y-164976D01*
X101338Y-164990D01*
X101345D01*
Y-165567D01*
X101239Y-165525D01*
X101134Y-165476D01*
X101028Y-165427D01*
X100930Y-165377D01*
X100845Y-165335D01*
X100775Y-165300D01*
X100733Y-165272D01*
X100726Y-165265D01*
X100719D01*
X100592Y-165187D01*
X100479Y-165110D01*
X100381Y-165040D01*
X100304Y-164976D01*
X100233Y-164927D01*
X100191Y-164885D01*
X100156Y-164857D01*
X100149Y-164850D01*
Y-168656D01*
X99551D01*
Y-163766D01*
X99938D01*
X100008Y-163886D01*
D02*
G37*
G36*
X110998Y-168656D02*
X110351D01*
Y-166496D01*
X109521D01*
X109443Y-166503D01*
X109387D01*
X109338Y-166510D01*
X109302Y-166517D01*
X109274D01*
X109260Y-166524D01*
X109253D01*
X109141Y-166559D01*
X109091Y-166580D01*
X109049Y-166602D01*
X109007Y-166623D01*
X108979Y-166637D01*
X108965Y-166644D01*
X108958Y-166651D01*
X108901Y-166693D01*
X108845Y-166742D01*
X108740Y-166848D01*
X108690Y-166897D01*
X108655Y-166939D01*
X108634Y-166967D01*
X108627Y-166974D01*
X108557Y-167073D01*
X108479Y-167178D01*
X108402Y-167291D01*
X108324Y-167397D01*
X108261Y-167495D01*
X108212Y-167572D01*
X108191Y-167601D01*
X108177Y-167622D01*
X108163Y-167636D01*
Y-167643D01*
X107522Y-168656D01*
X106720D01*
X107557Y-167333D01*
X107656Y-167193D01*
X107747Y-167066D01*
X107839Y-166960D01*
X107916Y-166862D01*
X107987Y-166791D01*
X108043Y-166735D01*
X108078Y-166700D01*
X108092Y-166686D01*
X108148Y-166644D01*
X108212Y-166595D01*
X108338Y-166517D01*
X108395Y-166489D01*
X108437Y-166461D01*
X108465Y-166447D01*
X108479Y-166440D01*
X108352Y-166419D01*
X108233Y-166397D01*
X108127Y-166362D01*
X108022Y-166334D01*
X107930Y-166299D01*
X107846Y-166257D01*
X107769Y-166222D01*
X107698Y-166186D01*
X107642Y-166144D01*
X107586Y-166109D01*
X107543Y-166081D01*
X107508Y-166053D01*
X107480Y-166032D01*
X107459Y-166010D01*
X107452Y-166003D01*
X107445Y-165996D01*
X107389Y-165926D01*
X107332Y-165856D01*
X107248Y-165708D01*
X107192Y-165560D01*
X107149Y-165420D01*
X107121Y-165300D01*
X107114Y-165251D01*
Y-165201D01*
X107107Y-165166D01*
Y-165138D01*
Y-165124D01*
Y-165117D01*
X107114Y-164969D01*
X107135Y-164836D01*
X107170Y-164709D01*
X107206Y-164603D01*
X107248Y-164512D01*
X107276Y-164442D01*
X107304Y-164399D01*
X107311Y-164392D01*
Y-164385D01*
X107396Y-164273D01*
X107480Y-164174D01*
X107572Y-164090D01*
X107656Y-164026D01*
X107733Y-163977D01*
X107797Y-163949D01*
X107839Y-163928D01*
X107846Y-163921D01*
X107853D01*
X107916Y-163900D01*
X107994Y-163879D01*
X108148Y-163843D01*
X108317Y-163822D01*
X108472Y-163801D01*
X108620Y-163794D01*
X108683D01*
X108740Y-163787D01*
X110998D01*
Y-168656D01*
D02*
G37*
G36*
X106629D02*
X105946D01*
X105419Y-167178D01*
X103378D01*
X102808Y-168656D01*
X102077D01*
X104068Y-163787D01*
X104771D01*
X106629Y-168656D01*
D02*
G37*
G36*
X119081Y-199700D02*
X119159Y-199812D01*
X119250Y-199925D01*
X119334Y-200023D01*
X119419Y-200108D01*
X119482Y-200178D01*
X119510Y-200199D01*
X119531Y-200220D01*
X119538Y-200227D01*
X119545Y-200234D01*
X119693Y-200354D01*
X119841Y-200467D01*
X119982Y-200565D01*
X120122Y-200643D01*
X120242Y-200713D01*
X120291Y-200741D01*
X120333Y-200762D01*
X120369Y-200783D01*
X120397Y-200790D01*
X120411Y-200804D01*
X120418D01*
Y-201381D01*
X120312Y-201339D01*
X120207Y-201290D01*
X120101Y-201241D01*
X120003Y-201191D01*
X119918Y-201149D01*
X119848Y-201114D01*
X119806Y-201086D01*
X119799Y-201079D01*
X119792D01*
X119665Y-201001D01*
X119553Y-200924D01*
X119454Y-200854D01*
X119377Y-200790D01*
X119306Y-200741D01*
X119264Y-200699D01*
X119229Y-200671D01*
X119222Y-200664D01*
Y-204470D01*
X118624D01*
Y-199580D01*
X119011D01*
X119081Y-199700D01*
D02*
G37*
G36*
X123668Y-199531D02*
X123894Y-199566D01*
X124091Y-199608D01*
X124182Y-199636D01*
X124267Y-199664D01*
X124344Y-199693D01*
X124414Y-199721D01*
X124471Y-199742D01*
X124527Y-199763D01*
X124562Y-199784D01*
X124590Y-199798D01*
X124611Y-199805D01*
X124618Y-199812D01*
X124808Y-199932D01*
X124970Y-200073D01*
X125111Y-200213D01*
X125231Y-200354D01*
X125322Y-200481D01*
X125357Y-200537D01*
X125385Y-200586D01*
X125413Y-200621D01*
X125428Y-200650D01*
X125435Y-200671D01*
X125442Y-200678D01*
X125540Y-200896D01*
X125610Y-201121D01*
X125660Y-201346D01*
X125695Y-201550D01*
X125709Y-201642D01*
X125716Y-201733D01*
X125723Y-201803D01*
Y-201874D01*
X125730Y-201923D01*
Y-201965D01*
Y-201993D01*
Y-202000D01*
X125716Y-202254D01*
X125688Y-202500D01*
X125653Y-202718D01*
X125625Y-202824D01*
X125603Y-202915D01*
X125582Y-202999D01*
X125554Y-203077D01*
X125533Y-203147D01*
X125519Y-203204D01*
X125498Y-203246D01*
X125491Y-203281D01*
X125477Y-203302D01*
Y-203309D01*
X125371Y-203520D01*
X125252Y-203710D01*
X125125Y-203872D01*
X125062Y-203935D01*
X125005Y-203999D01*
X124949Y-204055D01*
X124893Y-204104D01*
X124844Y-204146D01*
X124801Y-204174D01*
X124773Y-204203D01*
X124745Y-204224D01*
X124731Y-204231D01*
X124724Y-204238D01*
X124625Y-204294D01*
X124527Y-204343D01*
X124316Y-204421D01*
X124105Y-204477D01*
X123901Y-204512D01*
X123802Y-204526D01*
X123718Y-204540D01*
X123640Y-204547D01*
X123577D01*
X123521Y-204554D01*
X123443D01*
X123303Y-204547D01*
X123169Y-204533D01*
X123042Y-204519D01*
X122923Y-204491D01*
X122810Y-204456D01*
X122705Y-204421D01*
X122606Y-204386D01*
X122515Y-204343D01*
X122437Y-204308D01*
X122360Y-204273D01*
X122304Y-204238D01*
X122247Y-204203D01*
X122212Y-204174D01*
X122177Y-204160D01*
X122163Y-204146D01*
X122156Y-204139D01*
X122057Y-204055D01*
X121973Y-203971D01*
X121896Y-203872D01*
X121818Y-203773D01*
X121692Y-203577D01*
X121593Y-203379D01*
X121551Y-203288D01*
X121516Y-203204D01*
X121487Y-203126D01*
X121466Y-203063D01*
X121445Y-203007D01*
X121431Y-202964D01*
X121424Y-202936D01*
Y-202929D01*
X122071Y-202767D01*
X122100Y-202880D01*
X122135Y-202985D01*
X122170Y-203084D01*
X122205Y-203175D01*
X122247Y-203260D01*
X122289Y-203330D01*
X122339Y-203401D01*
X122381Y-203464D01*
X122416Y-203520D01*
X122458Y-203562D01*
X122493Y-203605D01*
X122522Y-203640D01*
X122550Y-203661D01*
X122571Y-203682D01*
X122578Y-203689D01*
X122585Y-203696D01*
X122655Y-203752D01*
X122733Y-203795D01*
X122887Y-203872D01*
X123035Y-203928D01*
X123183Y-203963D01*
X123310Y-203992D01*
X123359Y-203999D01*
X123408D01*
X123450Y-204006D01*
X123500D01*
X123661Y-203999D01*
X123816Y-203971D01*
X123957Y-203935D01*
X124084Y-203893D01*
X124182Y-203851D01*
X124224Y-203830D01*
X124260Y-203816D01*
X124288Y-203802D01*
X124309Y-203787D01*
X124323Y-203780D01*
X124330D01*
X124464Y-203682D01*
X124576Y-203577D01*
X124675Y-203457D01*
X124752Y-203344D01*
X124815Y-203246D01*
X124858Y-203161D01*
X124872Y-203126D01*
X124886Y-203105D01*
X124893Y-203091D01*
Y-203084D01*
X124949Y-202901D01*
X124991Y-202718D01*
X125026Y-202535D01*
X125048Y-202366D01*
X125055Y-202289D01*
X125062Y-202218D01*
Y-202155D01*
X125069Y-202106D01*
Y-202064D01*
Y-202029D01*
Y-202008D01*
Y-202000D01*
X125062Y-201817D01*
X125048Y-201649D01*
X125019Y-201494D01*
X124991Y-201353D01*
X124970Y-201234D01*
X124956Y-201184D01*
X124942Y-201142D01*
X124935Y-201107D01*
X124928Y-201086D01*
X124921Y-201072D01*
Y-201065D01*
X124851Y-200903D01*
X124773Y-200755D01*
X124689Y-200636D01*
X124597Y-200530D01*
X124520Y-200445D01*
X124457Y-200389D01*
X124407Y-200354D01*
X124400Y-200340D01*
X124393D01*
X124245Y-200249D01*
X124084Y-200178D01*
X123929Y-200129D01*
X123781Y-200101D01*
X123647Y-200080D01*
X123591Y-200073D01*
X123542D01*
X123507Y-200066D01*
X123450D01*
X123274Y-200073D01*
X123113Y-200101D01*
X122979Y-200143D01*
X122859Y-200185D01*
X122768Y-200234D01*
X122698Y-200270D01*
X122655Y-200298D01*
X122641Y-200312D01*
X122529Y-200417D01*
X122423Y-200537D01*
X122339Y-200664D01*
X122268Y-200790D01*
X122212Y-200903D01*
X122191Y-200959D01*
X122177Y-201001D01*
X122163Y-201036D01*
X122149Y-201065D01*
X122142Y-201079D01*
Y-201086D01*
X121509Y-200938D01*
X121551Y-200811D01*
X121593Y-200699D01*
X121649Y-200593D01*
X121699Y-200488D01*
X121755Y-200396D01*
X121818Y-200312D01*
X121874Y-200227D01*
X121931Y-200157D01*
X121987Y-200101D01*
X122036Y-200044D01*
X122086Y-199995D01*
X122121Y-199960D01*
X122156Y-199925D01*
X122184Y-199904D01*
X122198Y-199897D01*
X122205Y-199890D01*
X122304Y-199826D01*
X122402Y-199763D01*
X122501Y-199714D01*
X122606Y-199672D01*
X122817Y-199608D01*
X123007Y-199566D01*
X123099Y-199545D01*
X123176Y-199538D01*
X123253Y-199531D01*
X123317Y-199524D01*
X123366Y-199517D01*
X123436D01*
X123668Y-199531D01*
D02*
G37*
G36*
X115690Y-199594D02*
X115866Y-199622D01*
X116014Y-199672D01*
X116140Y-199721D01*
X116246Y-199777D01*
X116288Y-199798D01*
X116323Y-199826D01*
X116351Y-199840D01*
X116372Y-199855D01*
X116379Y-199869D01*
X116386D01*
X116513Y-199981D01*
X116619Y-200115D01*
X116710Y-200249D01*
X116781Y-200375D01*
X116837Y-200495D01*
X116865Y-200544D01*
X116879Y-200593D01*
X116893Y-200629D01*
X116907Y-200657D01*
X116914Y-200671D01*
Y-200678D01*
X116942Y-200783D01*
X116970Y-200889D01*
X117013Y-201121D01*
X117048Y-201353D01*
X117069Y-201571D01*
X117076Y-201677D01*
X117083Y-201768D01*
Y-201853D01*
X117090Y-201930D01*
Y-201986D01*
Y-202036D01*
Y-202064D01*
Y-202071D01*
X117083Y-202317D01*
X117069Y-202549D01*
X117048Y-202760D01*
X117013Y-202957D01*
X116978Y-203140D01*
X116935Y-203302D01*
X116893Y-203450D01*
X116851Y-203577D01*
X116809Y-203689D01*
X116759Y-203787D01*
X116724Y-203872D01*
X116689Y-203935D01*
X116654Y-203992D01*
X116633Y-204027D01*
X116619Y-204048D01*
X116612Y-204055D01*
X116534Y-204139D01*
X116450Y-204217D01*
X116358Y-204287D01*
X116267Y-204343D01*
X116175Y-204393D01*
X116084Y-204435D01*
X115992Y-204463D01*
X115908Y-204491D01*
X115824Y-204512D01*
X115746Y-204526D01*
X115676Y-204540D01*
X115620Y-204547D01*
X115570Y-204554D01*
X115500D01*
X115310Y-204540D01*
X115134Y-204512D01*
X114986Y-204463D01*
X114860Y-204414D01*
X114754Y-204364D01*
X114719Y-204336D01*
X114684Y-204315D01*
X114656Y-204301D01*
X114635Y-204287D01*
X114628Y-204273D01*
X114621D01*
X114494Y-204153D01*
X114388Y-204027D01*
X114297Y-203886D01*
X114227Y-203759D01*
X114170Y-203640D01*
X114142Y-203591D01*
X114128Y-203541D01*
X114114Y-203506D01*
X114100Y-203478D01*
X114093Y-203464D01*
Y-203457D01*
X114058Y-203351D01*
X114030Y-203246D01*
X113987Y-203021D01*
X113952Y-202788D01*
X113931Y-202563D01*
X113924Y-202465D01*
X113917Y-202373D01*
Y-202289D01*
X113910Y-202211D01*
Y-202155D01*
Y-202106D01*
Y-202078D01*
Y-202071D01*
Y-201937D01*
X113917Y-201810D01*
Y-201698D01*
X113924Y-201585D01*
X113938Y-201487D01*
X113945Y-201388D01*
X113952Y-201304D01*
X113966Y-201227D01*
X113973Y-201156D01*
X113987Y-201093D01*
X113994Y-201044D01*
X114001Y-201001D01*
X114008Y-200966D01*
X114015Y-200945D01*
X114022Y-200931D01*
Y-200924D01*
X114065Y-200769D01*
X114114Y-200629D01*
X114170Y-200509D01*
X114212Y-200403D01*
X114262Y-200312D01*
X114290Y-200249D01*
X114318Y-200213D01*
X114325Y-200199D01*
X114402Y-200094D01*
X114480Y-200002D01*
X114564Y-199925D01*
X114642Y-199855D01*
X114712Y-199805D01*
X114768Y-199770D01*
X114803Y-199749D01*
X114810Y-199742D01*
X114817D01*
X114930Y-199686D01*
X115050Y-199650D01*
X115162Y-199622D01*
X115268Y-199601D01*
X115359Y-199587D01*
X115437Y-199580D01*
X115500D01*
X115690Y-199594D01*
D02*
G37*
G36*
X129173Y-383199D02*
X129307Y-383213D01*
X129434Y-383227D01*
X129553Y-383255D01*
X129666Y-383290D01*
X129771Y-383325D01*
X129870Y-383360D01*
X129961Y-383403D01*
X130039Y-383438D01*
X130116Y-383473D01*
X130172Y-383508D01*
X130229Y-383543D01*
X130264Y-383572D01*
X130299Y-383586D01*
X130313Y-383600D01*
X130320Y-383607D01*
X130419Y-383691D01*
X130503Y-383775D01*
X130581Y-383874D01*
X130658Y-383973D01*
X130785Y-384170D01*
X130883Y-384366D01*
X130925Y-384458D01*
X130960Y-384542D01*
X130989Y-384620D01*
X131010Y-384683D01*
X131031Y-384739D01*
X131045Y-384782D01*
X131052Y-384810D01*
Y-384817D01*
X130405Y-384979D01*
X130377Y-384866D01*
X130341Y-384761D01*
X130306Y-384662D01*
X130271Y-384571D01*
X130229Y-384486D01*
X130187Y-384416D01*
X130137Y-384345D01*
X130095Y-384282D01*
X130060Y-384226D01*
X130018Y-384184D01*
X129983Y-384141D01*
X129954Y-384106D01*
X129926Y-384085D01*
X129905Y-384064D01*
X129898Y-384057D01*
X129891Y-384050D01*
X129821Y-383994D01*
X129743Y-383951D01*
X129588Y-383874D01*
X129441Y-383818D01*
X129293Y-383783D01*
X129166Y-383754D01*
X129117Y-383747D01*
X129068D01*
X129026Y-383740D01*
X128976D01*
X128814Y-383747D01*
X128660Y-383775D01*
X128519Y-383811D01*
X128392Y-383853D01*
X128294Y-383895D01*
X128252Y-383916D01*
X128216Y-383930D01*
X128188Y-383944D01*
X128167Y-383959D01*
X128153Y-383965D01*
X128146D01*
X128012Y-384064D01*
X127900Y-384170D01*
X127801Y-384289D01*
X127724Y-384402D01*
X127661Y-384500D01*
X127618Y-384585D01*
X127604Y-384620D01*
X127590Y-384641D01*
X127583Y-384655D01*
Y-384662D01*
X127527Y-384845D01*
X127485Y-385028D01*
X127450Y-385211D01*
X127429Y-385380D01*
X127421Y-385457D01*
X127414Y-385527D01*
Y-385591D01*
X127407Y-385640D01*
Y-385682D01*
Y-385717D01*
Y-385738D01*
Y-385746D01*
X127414Y-385928D01*
X127429Y-386097D01*
X127457Y-386252D01*
X127485Y-386393D01*
X127506Y-386512D01*
X127520Y-386562D01*
X127534Y-386604D01*
X127541Y-386639D01*
X127548Y-386660D01*
X127555Y-386674D01*
Y-386681D01*
X127626Y-386843D01*
X127703Y-386991D01*
X127787Y-387110D01*
X127879Y-387216D01*
X127956Y-387300D01*
X128020Y-387357D01*
X128069Y-387392D01*
X128076Y-387406D01*
X128083D01*
X128231Y-387497D01*
X128392Y-387568D01*
X128547Y-387617D01*
X128695Y-387645D01*
X128829Y-387666D01*
X128885Y-387673D01*
X128934D01*
X128969Y-387680D01*
X129026D01*
X129201Y-387673D01*
X129363Y-387645D01*
X129497Y-387603D01*
X129617Y-387561D01*
X129708Y-387511D01*
X129778Y-387476D01*
X129821Y-387448D01*
X129835Y-387434D01*
X129947Y-387329D01*
X130053Y-387209D01*
X130137Y-387082D01*
X130208Y-386956D01*
X130264Y-386843D01*
X130285Y-386787D01*
X130299Y-386745D01*
X130313Y-386710D01*
X130327Y-386681D01*
X130334Y-386667D01*
Y-386660D01*
X130968Y-386808D01*
X130925Y-386935D01*
X130883Y-387047D01*
X130827Y-387153D01*
X130778Y-387258D01*
X130721Y-387350D01*
X130658Y-387434D01*
X130602Y-387519D01*
X130545Y-387589D01*
X130489Y-387645D01*
X130440Y-387701D01*
X130391Y-387751D01*
X130355Y-387786D01*
X130320Y-387821D01*
X130292Y-387842D01*
X130278Y-387849D01*
X130271Y-387856D01*
X130172Y-387920D01*
X130074Y-387983D01*
X129975Y-388032D01*
X129870Y-388074D01*
X129659Y-388138D01*
X129469Y-388180D01*
X129377Y-388201D01*
X129300Y-388208D01*
X129223Y-388215D01*
X129159Y-388222D01*
X129110Y-388229D01*
X129040D01*
X128807Y-388215D01*
X128582Y-388180D01*
X128385Y-388138D01*
X128294Y-388110D01*
X128209Y-388081D01*
X128132Y-388053D01*
X128062Y-388025D01*
X128005Y-388004D01*
X127949Y-387983D01*
X127914Y-387962D01*
X127886Y-387948D01*
X127865Y-387941D01*
X127858Y-387934D01*
X127668Y-387814D01*
X127506Y-387673D01*
X127365Y-387533D01*
X127246Y-387392D01*
X127154Y-387265D01*
X127119Y-387209D01*
X127091Y-387160D01*
X127063Y-387125D01*
X127049Y-387096D01*
X127042Y-387075D01*
X127035Y-387068D01*
X126936Y-386850D01*
X126866Y-386625D01*
X126816Y-386400D01*
X126781Y-386196D01*
X126767Y-386104D01*
X126760Y-386013D01*
X126753Y-385943D01*
Y-385872D01*
X126746Y-385823D01*
Y-385781D01*
Y-385753D01*
Y-385746D01*
X126760Y-385492D01*
X126788Y-385246D01*
X126823Y-385028D01*
X126852Y-384922D01*
X126873Y-384831D01*
X126894Y-384747D01*
X126922Y-384669D01*
X126943Y-384599D01*
X126957Y-384542D01*
X126978Y-384500D01*
X126985Y-384465D01*
X126999Y-384444D01*
Y-384437D01*
X127105Y-384226D01*
X127224Y-384036D01*
X127351Y-383874D01*
X127414Y-383811D01*
X127471Y-383747D01*
X127527Y-383691D01*
X127583Y-383642D01*
X127633Y-383600D01*
X127675Y-383572D01*
X127703Y-383543D01*
X127731Y-383522D01*
X127745Y-383515D01*
X127752Y-383508D01*
X127851Y-383452D01*
X127949Y-383403D01*
X128160Y-383325D01*
X128371Y-383269D01*
X128575Y-383234D01*
X128674Y-383220D01*
X128758Y-383206D01*
X128836Y-383199D01*
X128899D01*
X128955Y-383192D01*
X129033D01*
X129173Y-383199D01*
D02*
G37*
G36*
X133254Y-383206D02*
X133430Y-383234D01*
X133592Y-383283D01*
X133726Y-383339D01*
X133782Y-383360D01*
X133838Y-383389D01*
X133880Y-383417D01*
X133923Y-383438D01*
X133951Y-383452D01*
X133972Y-383466D01*
X133986Y-383480D01*
X133993D01*
X134134Y-383600D01*
X134260Y-383733D01*
X134359Y-383874D01*
X134443Y-384008D01*
X134514Y-384127D01*
X134542Y-384184D01*
X134563Y-384226D01*
X134577Y-384268D01*
X134591Y-384296D01*
X134598Y-384310D01*
Y-384317D01*
X134633Y-384423D01*
X134668Y-384542D01*
X134718Y-384782D01*
X134753Y-385035D01*
X134774Y-385274D01*
X134788Y-385380D01*
X134795Y-385485D01*
Y-385577D01*
X134802Y-385654D01*
Y-385717D01*
Y-385767D01*
Y-385802D01*
Y-385809D01*
Y-385971D01*
X134795Y-386125D01*
X134781Y-386266D01*
X134767Y-386400D01*
X134753Y-386520D01*
X134739Y-386632D01*
X134718Y-386738D01*
X134697Y-386829D01*
X134675Y-386907D01*
X134661Y-386977D01*
X134640Y-387040D01*
X134626Y-387089D01*
X134612Y-387125D01*
X134598Y-387153D01*
X134591Y-387167D01*
Y-387174D01*
X134507Y-387343D01*
X134415Y-387490D01*
X134310Y-387617D01*
X134218Y-387723D01*
X134127Y-387800D01*
X134056Y-387856D01*
X134028Y-387877D01*
X134007Y-387892D01*
X134000Y-387906D01*
X133993D01*
X133845Y-387990D01*
X133697Y-388053D01*
X133550Y-388103D01*
X133416Y-388131D01*
X133296Y-388152D01*
X133247Y-388159D01*
X133212D01*
X133177Y-388166D01*
X133127D01*
X133008Y-388159D01*
X132895Y-388145D01*
X132783Y-388124D01*
X132684Y-388096D01*
X132494Y-388018D01*
X132410Y-387983D01*
X132339Y-387941D01*
X132269Y-387892D01*
X132213Y-387856D01*
X132156Y-387814D01*
X132114Y-387779D01*
X132079Y-387751D01*
X132058Y-387730D01*
X132044Y-387716D01*
X132037Y-387709D01*
X131959Y-387624D01*
X131896Y-387526D01*
X131833Y-387434D01*
X131784Y-387336D01*
X131741Y-387230D01*
X131706Y-387132D01*
X131657Y-386949D01*
X131636Y-386857D01*
X131622Y-386780D01*
X131615Y-386702D01*
X131608Y-386639D01*
X131601Y-386590D01*
Y-386555D01*
Y-386526D01*
Y-386520D01*
X131608Y-386386D01*
X131622Y-386266D01*
X131636Y-386147D01*
X131664Y-386034D01*
X131699Y-385936D01*
X131734Y-385837D01*
X131770Y-385753D01*
X131812Y-385675D01*
X131847Y-385605D01*
X131882Y-385541D01*
X131917Y-385492D01*
X131952Y-385443D01*
X131981Y-385408D01*
X131995Y-385387D01*
X132009Y-385373D01*
X132016Y-385366D01*
X132093Y-385288D01*
X132178Y-385225D01*
X132262Y-385162D01*
X132353Y-385112D01*
X132438Y-385070D01*
X132522Y-385035D01*
X132684Y-384986D01*
X132755Y-384965D01*
X132825Y-384950D01*
X132881Y-384944D01*
X132937Y-384936D01*
X132980Y-384929D01*
X133036D01*
X133170Y-384936D01*
X133296Y-384958D01*
X133409Y-384986D01*
X133514Y-385021D01*
X133592Y-385049D01*
X133655Y-385077D01*
X133697Y-385098D01*
X133711Y-385105D01*
X133824Y-385176D01*
X133923Y-385253D01*
X134007Y-385330D01*
X134077Y-385401D01*
X134127Y-385471D01*
X134169Y-385520D01*
X134197Y-385556D01*
X134204Y-385570D01*
Y-385513D01*
Y-385478D01*
Y-385457D01*
Y-385450D01*
X134197Y-385309D01*
X134190Y-385176D01*
X134176Y-385056D01*
X134162Y-384944D01*
X134141Y-384852D01*
X134127Y-384782D01*
X134120Y-384753D01*
Y-384732D01*
X134113Y-384725D01*
Y-384718D01*
X134077Y-384592D01*
X134042Y-384479D01*
X134007Y-384381D01*
X133972Y-384296D01*
X133944Y-384233D01*
X133916Y-384184D01*
X133901Y-384148D01*
X133894Y-384141D01*
X133838Y-384064D01*
X133782Y-384001D01*
X133726Y-383944D01*
X133669Y-383895D01*
X133627Y-383853D01*
X133585Y-383825D01*
X133557Y-383811D01*
X133550Y-383804D01*
X133472Y-383761D01*
X133388Y-383733D01*
X133310Y-383712D01*
X133233Y-383698D01*
X133170Y-383691D01*
X133120Y-383684D01*
X133071D01*
X132959Y-383691D01*
X132853Y-383712D01*
X132762Y-383740D01*
X132684Y-383775D01*
X132628Y-383804D01*
X132579Y-383832D01*
X132550Y-383853D01*
X132543Y-383860D01*
X132473Y-383937D01*
X132417Y-384029D01*
X132368Y-384127D01*
X132332Y-384226D01*
X132304Y-384310D01*
X132283Y-384388D01*
X132276Y-384416D01*
Y-384430D01*
X132269Y-384444D01*
Y-384451D01*
X131692Y-384402D01*
X131734Y-384198D01*
X131791Y-384022D01*
X131861Y-383867D01*
X131931Y-383740D01*
X132002Y-383642D01*
X132037Y-383600D01*
X132065Y-383564D01*
X132086Y-383543D01*
X132107Y-383522D01*
X132114Y-383515D01*
X132121Y-383508D01*
X132192Y-383452D01*
X132269Y-383403D01*
X132424Y-383325D01*
X132579Y-383269D01*
X132726Y-383234D01*
X132860Y-383206D01*
X132916Y-383199D01*
X132966D01*
X133001Y-383192D01*
X133057D01*
X133254Y-383206D01*
D02*
G37*
G36*
X23846Y-339739D02*
X24072Y-339774D01*
X24269Y-339816D01*
X24360Y-339844D01*
X24445Y-339873D01*
X24522Y-339901D01*
X24592Y-339929D01*
X24649Y-339950D01*
X24705Y-339971D01*
X24740Y-339992D01*
X24768Y-340006D01*
X24789Y-340013D01*
X24796Y-340020D01*
X24986Y-340140D01*
X25148Y-340280D01*
X25289Y-340421D01*
X25408Y-340562D01*
X25500Y-340689D01*
X25535Y-340745D01*
X25563Y-340794D01*
X25591Y-340829D01*
X25605Y-340858D01*
X25612Y-340879D01*
X25619Y-340886D01*
X25718Y-341104D01*
X25788Y-341329D01*
X25838Y-341554D01*
X25873Y-341758D01*
X25887Y-341850D01*
X25894Y-341941D01*
X25901Y-342011D01*
Y-342082D01*
X25908Y-342131D01*
Y-342173D01*
Y-342201D01*
Y-342208D01*
X25894Y-342462D01*
X25866Y-342708D01*
X25831Y-342926D01*
X25803Y-343032D01*
X25781Y-343123D01*
X25760Y-343207D01*
X25732Y-343285D01*
X25711Y-343355D01*
X25697Y-343411D01*
X25676Y-343454D01*
X25669Y-343489D01*
X25655Y-343510D01*
Y-343517D01*
X25549Y-343728D01*
X25430Y-343918D01*
X25303Y-344080D01*
X25240Y-344143D01*
X25183Y-344207D01*
X25127Y-344263D01*
X25071Y-344312D01*
X25022Y-344354D01*
X24979Y-344382D01*
X24951Y-344411D01*
X24923Y-344432D01*
X24909Y-344439D01*
X24902Y-344446D01*
X24803Y-344502D01*
X24705Y-344551D01*
X24494Y-344629D01*
X24283Y-344685D01*
X24079Y-344720D01*
X23980Y-344734D01*
X23896Y-344748D01*
X23818Y-344755D01*
X23755D01*
X23699Y-344762D01*
X23621D01*
X23481Y-344755D01*
X23347Y-344741D01*
X23220Y-344727D01*
X23101Y-344699D01*
X22988Y-344664D01*
X22883Y-344629D01*
X22784Y-344594D01*
X22693Y-344551D01*
X22615Y-344516D01*
X22538Y-344481D01*
X22482Y-344446D01*
X22425Y-344411D01*
X22390Y-344382D01*
X22355Y-344368D01*
X22341Y-344354D01*
X22334Y-344347D01*
X22235Y-344263D01*
X22151Y-344178D01*
X22074Y-344080D01*
X21996Y-343981D01*
X21869Y-343784D01*
X21771Y-343587D01*
X21729Y-343496D01*
X21694Y-343411D01*
X21665Y-343334D01*
X21644Y-343271D01*
X21623Y-343214D01*
X21609Y-343172D01*
X21602Y-343144D01*
Y-343137D01*
X22249Y-342975D01*
X22278Y-343088D01*
X22313Y-343193D01*
X22348Y-343292D01*
X22383Y-343383D01*
X22425Y-343468D01*
X22468Y-343538D01*
X22517Y-343609D01*
X22559Y-343672D01*
X22594Y-343728D01*
X22636Y-343770D01*
X22671Y-343812D01*
X22700Y-343848D01*
X22728Y-343869D01*
X22749Y-343890D01*
X22756Y-343897D01*
X22763Y-343904D01*
X22833Y-343960D01*
X22911Y-344002D01*
X23066Y-344080D01*
X23213Y-344136D01*
X23361Y-344171D01*
X23488Y-344199D01*
X23537Y-344207D01*
X23586D01*
X23628Y-344214D01*
X23678D01*
X23839Y-344207D01*
X23994Y-344178D01*
X24135Y-344143D01*
X24262Y-344101D01*
X24360Y-344059D01*
X24402Y-344038D01*
X24437Y-344024D01*
X24466Y-344010D01*
X24487Y-343996D01*
X24501Y-343988D01*
X24508D01*
X24642Y-343890D01*
X24754Y-343784D01*
X24853Y-343665D01*
X24930Y-343552D01*
X24993Y-343454D01*
X25036Y-343369D01*
X25050Y-343334D01*
X25064Y-343313D01*
X25071Y-343299D01*
Y-343292D01*
X25127Y-343109D01*
X25169Y-342926D01*
X25204Y-342743D01*
X25226Y-342574D01*
X25233Y-342497D01*
X25240Y-342426D01*
Y-342363D01*
X25247Y-342314D01*
Y-342272D01*
Y-342237D01*
Y-342215D01*
Y-342208D01*
X25240Y-342025D01*
X25226Y-341857D01*
X25197Y-341702D01*
X25169Y-341561D01*
X25148Y-341441D01*
X25134Y-341392D01*
X25120Y-341350D01*
X25113Y-341315D01*
X25106Y-341294D01*
X25099Y-341280D01*
Y-341273D01*
X25029Y-341111D01*
X24951Y-340963D01*
X24867Y-340843D01*
X24775Y-340738D01*
X24698Y-340653D01*
X24634Y-340597D01*
X24585Y-340562D01*
X24578Y-340548D01*
X24571D01*
X24423Y-340456D01*
X24262Y-340386D01*
X24107Y-340337D01*
X23959Y-340309D01*
X23825Y-340288D01*
X23769Y-340280D01*
X23720D01*
X23685Y-340274D01*
X23628D01*
X23452Y-340280D01*
X23291Y-340309D01*
X23157Y-340351D01*
X23037Y-340393D01*
X22946Y-340442D01*
X22876Y-340478D01*
X22833Y-340506D01*
X22819Y-340520D01*
X22707Y-340625D01*
X22601Y-340745D01*
X22517Y-340872D01*
X22446Y-340998D01*
X22390Y-341111D01*
X22369Y-341167D01*
X22355Y-341209D01*
X22341Y-341245D01*
X22327Y-341273D01*
X22320Y-341287D01*
Y-341294D01*
X21686Y-341146D01*
X21729Y-341019D01*
X21771Y-340907D01*
X21827Y-340801D01*
X21876Y-340696D01*
X21933Y-340604D01*
X21996Y-340520D01*
X22052Y-340435D01*
X22109Y-340365D01*
X22165Y-340309D01*
X22214Y-340252D01*
X22264Y-340203D01*
X22299Y-340168D01*
X22334Y-340133D01*
X22362Y-340112D01*
X22376Y-340105D01*
X22383Y-340098D01*
X22482Y-340034D01*
X22580Y-339971D01*
X22679Y-339922D01*
X22784Y-339879D01*
X22995Y-339816D01*
X23185Y-339774D01*
X23277Y-339753D01*
X23354Y-339746D01*
X23431Y-339739D01*
X23495Y-339732D01*
X23544Y-339725D01*
X23614D01*
X23846Y-339739D01*
D02*
G37*
G36*
X19583Y-339795D02*
X19695Y-339802D01*
X19892Y-339844D01*
X19984Y-339873D01*
X20068Y-339901D01*
X20146Y-339936D01*
X20216Y-339971D01*
X20272Y-340006D01*
X20329Y-340041D01*
X20378Y-340070D01*
X20413Y-340098D01*
X20441Y-340119D01*
X20462Y-340140D01*
X20476Y-340147D01*
X20483Y-340154D01*
X20547Y-340224D01*
X20610Y-340295D01*
X20659Y-340372D01*
X20701Y-340449D01*
X20772Y-340597D01*
X20814Y-340738D01*
X20842Y-340858D01*
X20849Y-340914D01*
X20856Y-340956D01*
X20863Y-340998D01*
Y-341026D01*
Y-341040D01*
Y-341048D01*
X20856Y-341174D01*
X20835Y-341294D01*
X20807Y-341399D01*
X20772Y-341491D01*
X20744Y-341561D01*
X20716Y-341617D01*
X20694Y-341646D01*
X20687Y-341660D01*
X20610Y-341744D01*
X20526Y-341821D01*
X20434Y-341892D01*
X20343Y-341948D01*
X20258Y-341990D01*
X20195Y-342018D01*
X20167Y-342033D01*
X20146Y-342039D01*
X20139Y-342047D01*
X20132D01*
X20293Y-342096D01*
X20427Y-342159D01*
X20547Y-342237D01*
X20645Y-342307D01*
X20723Y-342377D01*
X20779Y-342434D01*
X20807Y-342469D01*
X20821Y-342476D01*
Y-342483D01*
X20898Y-342609D01*
X20962Y-342743D01*
X21004Y-342870D01*
X21032Y-342996D01*
X21046Y-343109D01*
X21053Y-343158D01*
Y-343200D01*
X21060Y-343228D01*
Y-343257D01*
Y-343271D01*
Y-343278D01*
X21053Y-343390D01*
X21039Y-343503D01*
X21018Y-343609D01*
X20990Y-343714D01*
X20920Y-343890D01*
X20884Y-343974D01*
X20842Y-344045D01*
X20800Y-344115D01*
X20765Y-344171D01*
X20723Y-344221D01*
X20694Y-344263D01*
X20666Y-344298D01*
X20645Y-344319D01*
X20631Y-344333D01*
X20624Y-344340D01*
X20540Y-344418D01*
X20448Y-344481D01*
X20350Y-344537D01*
X20251Y-344586D01*
X20160Y-344622D01*
X20061Y-344657D01*
X19871Y-344706D01*
X19787Y-344727D01*
X19710Y-344741D01*
X19639Y-344748D01*
X19576Y-344755D01*
X19526Y-344762D01*
X19456D01*
X19323Y-344755D01*
X19203Y-344741D01*
X19083Y-344720D01*
X18971Y-344699D01*
X18872Y-344664D01*
X18774Y-344629D01*
X18682Y-344594D01*
X18605Y-344551D01*
X18534Y-344509D01*
X18471Y-344474D01*
X18422Y-344439D01*
X18373Y-344403D01*
X18338Y-344382D01*
X18316Y-344361D01*
X18302Y-344347D01*
X18295Y-344340D01*
X18218Y-344256D01*
X18147Y-344171D01*
X18091Y-344087D01*
X18042Y-343996D01*
X17993Y-343911D01*
X17958Y-343820D01*
X17908Y-343658D01*
X17887Y-343580D01*
X17873Y-343510D01*
X17866Y-343447D01*
X17859Y-343397D01*
X17852Y-343355D01*
Y-343320D01*
Y-343299D01*
Y-343292D01*
X17859Y-343130D01*
X17887Y-342982D01*
X17929Y-342849D01*
X17972Y-342736D01*
X18014Y-342645D01*
X18056Y-342574D01*
X18084Y-342532D01*
X18091Y-342525D01*
Y-342518D01*
X18190Y-342405D01*
X18295Y-342307D01*
X18408Y-342229D01*
X18513Y-342159D01*
X18612Y-342110D01*
X18696Y-342075D01*
X18724Y-342061D01*
X18746Y-342054D01*
X18760Y-342047D01*
X18767D01*
X18640Y-341990D01*
X18534Y-341927D01*
X18443Y-341864D01*
X18366Y-341800D01*
X18309Y-341744D01*
X18267Y-341702D01*
X18239Y-341674D01*
X18232Y-341660D01*
X18169Y-341561D01*
X18126Y-341463D01*
X18091Y-341364D01*
X18070Y-341266D01*
X18056Y-341188D01*
X18049Y-341125D01*
Y-341083D01*
Y-341076D01*
Y-341069D01*
X18056Y-340970D01*
X18063Y-340879D01*
X18112Y-340703D01*
X18176Y-340548D01*
X18246Y-340414D01*
X18316Y-340309D01*
X18352Y-340266D01*
X18380Y-340224D01*
X18408Y-340196D01*
X18429Y-340175D01*
X18436Y-340168D01*
X18443Y-340161D01*
X18520Y-340098D01*
X18598Y-340034D01*
X18682Y-339985D01*
X18767Y-339943D01*
X18936Y-339879D01*
X19104Y-339837D01*
X19175Y-339816D01*
X19245Y-339809D01*
X19308Y-339802D01*
X19365Y-339795D01*
X19407Y-339788D01*
X19470D01*
X19583Y-339795D01*
D02*
G37*
G36*
X34515Y-199531D02*
X34740Y-199566D01*
X34937Y-199608D01*
X35028Y-199636D01*
X35113Y-199664D01*
X35190Y-199693D01*
X35260Y-199721D01*
X35317Y-199742D01*
X35373Y-199763D01*
X35408Y-199784D01*
X35436Y-199798D01*
X35457Y-199805D01*
X35464Y-199812D01*
X35654Y-199932D01*
X35816Y-200073D01*
X35957Y-200213D01*
X36077Y-200354D01*
X36168Y-200481D01*
X36203Y-200537D01*
X36231Y-200586D01*
X36259Y-200621D01*
X36274Y-200650D01*
X36281Y-200671D01*
X36288Y-200678D01*
X36386Y-200896D01*
X36456Y-201121D01*
X36506Y-201346D01*
X36541Y-201550D01*
X36555Y-201642D01*
X36562Y-201733D01*
X36569Y-201803D01*
Y-201874D01*
X36576Y-201923D01*
Y-201965D01*
Y-201993D01*
Y-202000D01*
X36562Y-202254D01*
X36534Y-202500D01*
X36499Y-202718D01*
X36470Y-202824D01*
X36449Y-202915D01*
X36428Y-202999D01*
X36400Y-203077D01*
X36379Y-203147D01*
X36365Y-203204D01*
X36344Y-203246D01*
X36337Y-203281D01*
X36323Y-203302D01*
Y-203309D01*
X36217Y-203520D01*
X36098Y-203710D01*
X35971Y-203872D01*
X35908Y-203935D01*
X35851Y-203999D01*
X35795Y-204055D01*
X35739Y-204104D01*
X35689Y-204146D01*
X35647Y-204174D01*
X35619Y-204203D01*
X35591Y-204224D01*
X35577Y-204231D01*
X35570Y-204238D01*
X35471Y-204294D01*
X35373Y-204343D01*
X35162Y-204421D01*
X34951Y-204477D01*
X34747Y-204512D01*
X34648Y-204526D01*
X34564Y-204540D01*
X34486Y-204547D01*
X34423D01*
X34367Y-204554D01*
X34289D01*
X34149Y-204547D01*
X34015Y-204533D01*
X33888Y-204519D01*
X33769Y-204491D01*
X33656Y-204456D01*
X33551Y-204421D01*
X33452Y-204386D01*
X33361Y-204343D01*
X33283Y-204308D01*
X33206Y-204273D01*
X33150Y-204238D01*
X33093Y-204203D01*
X33058Y-204174D01*
X33023Y-204160D01*
X33009Y-204146D01*
X33002Y-204139D01*
X32903Y-204055D01*
X32819Y-203971D01*
X32741Y-203872D01*
X32664Y-203773D01*
X32538Y-203577D01*
X32439Y-203379D01*
X32397Y-203288D01*
X32362Y-203204D01*
X32333Y-203126D01*
X32312Y-203063D01*
X32291Y-203007D01*
X32277Y-202964D01*
X32270Y-202936D01*
Y-202929D01*
X32917Y-202767D01*
X32945Y-202880D01*
X32981Y-202985D01*
X33016Y-203084D01*
X33051Y-203175D01*
X33093Y-203260D01*
X33135Y-203330D01*
X33185Y-203401D01*
X33227Y-203464D01*
X33262Y-203520D01*
X33304Y-203562D01*
X33340Y-203605D01*
X33368Y-203640D01*
X33396Y-203661D01*
X33417Y-203682D01*
X33424Y-203689D01*
X33431Y-203696D01*
X33501Y-203752D01*
X33579Y-203795D01*
X33733Y-203872D01*
X33881Y-203928D01*
X34029Y-203963D01*
X34156Y-203992D01*
X34205Y-203999D01*
X34254D01*
X34296Y-204006D01*
X34346D01*
X34508Y-203999D01*
X34662Y-203971D01*
X34803Y-203935D01*
X34930Y-203893D01*
X35028Y-203851D01*
X35070Y-203830D01*
X35106Y-203816D01*
X35134Y-203802D01*
X35155Y-203787D01*
X35169Y-203780D01*
X35176D01*
X35310Y-203682D01*
X35422Y-203577D01*
X35521Y-203457D01*
X35598Y-203344D01*
X35661Y-203246D01*
X35704Y-203161D01*
X35718Y-203126D01*
X35732Y-203105D01*
X35739Y-203091D01*
Y-203084D01*
X35795Y-202901D01*
X35837Y-202718D01*
X35872Y-202535D01*
X35893Y-202366D01*
X35901Y-202289D01*
X35908Y-202218D01*
Y-202155D01*
X35915Y-202106D01*
Y-202064D01*
Y-202029D01*
Y-202008D01*
Y-202000D01*
X35908Y-201817D01*
X35893Y-201649D01*
X35865Y-201494D01*
X35837Y-201353D01*
X35816Y-201234D01*
X35802Y-201184D01*
X35788Y-201142D01*
X35781Y-201107D01*
X35774Y-201086D01*
X35767Y-201072D01*
Y-201065D01*
X35696Y-200903D01*
X35619Y-200755D01*
X35535Y-200636D01*
X35443Y-200530D01*
X35366Y-200445D01*
X35303Y-200389D01*
X35253Y-200354D01*
X35246Y-200340D01*
X35239D01*
X35091Y-200249D01*
X34930Y-200178D01*
X34775Y-200129D01*
X34627Y-200101D01*
X34493Y-200080D01*
X34437Y-200073D01*
X34388D01*
X34353Y-200066D01*
X34296D01*
X34121Y-200073D01*
X33959Y-200101D01*
X33825Y-200143D01*
X33705Y-200185D01*
X33614Y-200234D01*
X33544Y-200270D01*
X33501Y-200298D01*
X33487Y-200312D01*
X33375Y-200417D01*
X33269Y-200537D01*
X33185Y-200664D01*
X33114Y-200790D01*
X33058Y-200903D01*
X33037Y-200959D01*
X33023Y-201001D01*
X33009Y-201036D01*
X32995Y-201065D01*
X32988Y-201079D01*
Y-201086D01*
X32355Y-200938D01*
X32397Y-200811D01*
X32439Y-200699D01*
X32495Y-200593D01*
X32545Y-200488D01*
X32601Y-200396D01*
X32664Y-200312D01*
X32720Y-200227D01*
X32777Y-200157D01*
X32833Y-200101D01*
X32882Y-200044D01*
X32931Y-199995D01*
X32967Y-199960D01*
X33002Y-199925D01*
X33030Y-199904D01*
X33044Y-199897D01*
X33051Y-199890D01*
X33150Y-199826D01*
X33248Y-199763D01*
X33347Y-199714D01*
X33452Y-199672D01*
X33663Y-199608D01*
X33853Y-199566D01*
X33945Y-199545D01*
X34022Y-199538D01*
X34099Y-199531D01*
X34163Y-199524D01*
X34212Y-199517D01*
X34282D01*
X34515Y-199531D01*
D02*
G37*
G36*
X31679Y-200242D02*
X29294D01*
X29463Y-200445D01*
X29625Y-200664D01*
X29765Y-200875D01*
X29899Y-201079D01*
X29955Y-201170D01*
X30005Y-201255D01*
X30054Y-201332D01*
X30089Y-201395D01*
X30117Y-201452D01*
X30138Y-201487D01*
X30152Y-201515D01*
X30159Y-201522D01*
X30300Y-201803D01*
X30427Y-202085D01*
X30532Y-202352D01*
X30575Y-202472D01*
X30617Y-202591D01*
X30659Y-202697D01*
X30687Y-202796D01*
X30715Y-202880D01*
X30736Y-202950D01*
X30757Y-203014D01*
X30772Y-203056D01*
X30779Y-203084D01*
Y-203091D01*
X30849Y-203379D01*
X30877Y-203520D01*
X30898Y-203647D01*
X30919Y-203766D01*
X30940Y-203886D01*
X30954Y-203985D01*
X30968Y-204083D01*
X30975Y-204167D01*
X30982Y-204245D01*
X30990Y-204315D01*
Y-204371D01*
X30997Y-204414D01*
Y-204442D01*
Y-204463D01*
Y-204470D01*
X30385D01*
X30363Y-204203D01*
X30328Y-203956D01*
X30293Y-203731D01*
X30272Y-203626D01*
X30251Y-203527D01*
X30237Y-203443D01*
X30216Y-203365D01*
X30202Y-203295D01*
X30187Y-203239D01*
X30173Y-203197D01*
X30166Y-203161D01*
X30159Y-203140D01*
Y-203133D01*
X30054Y-202810D01*
X29941Y-202507D01*
X29885Y-202359D01*
X29829Y-202218D01*
X29765Y-202092D01*
X29709Y-201965D01*
X29660Y-201853D01*
X29611Y-201754D01*
X29568Y-201670D01*
X29533Y-201592D01*
X29498Y-201529D01*
X29477Y-201487D01*
X29463Y-201459D01*
X29456Y-201452D01*
X29371Y-201304D01*
X29287Y-201156D01*
X29202Y-201022D01*
X29118Y-200896D01*
X29041Y-200783D01*
X28963Y-200671D01*
X28886Y-200572D01*
X28823Y-200488D01*
X28759Y-200403D01*
X28703Y-200333D01*
X28647Y-200277D01*
X28604Y-200227D01*
X28576Y-200185D01*
X28548Y-200157D01*
X28534Y-200143D01*
X28527Y-200136D01*
Y-199664D01*
X31679D01*
Y-200242D01*
D02*
G37*
G36*
X91098Y-27497D02*
X91232Y-27511D01*
X91359Y-27539D01*
X91478Y-27575D01*
X91584Y-27624D01*
X91689Y-27666D01*
X91781Y-27722D01*
X91865Y-27771D01*
X91936Y-27821D01*
X92006Y-27877D01*
X92062Y-27919D01*
X92104Y-27961D01*
X92140Y-28004D01*
X92168Y-28032D01*
X92182Y-28046D01*
X92189Y-28053D01*
X92280Y-28180D01*
X92358Y-28327D01*
X92428Y-28482D01*
X92491Y-28644D01*
X92541Y-28813D01*
X92583Y-28982D01*
X92618Y-29158D01*
X92646Y-29319D01*
X92667Y-29481D01*
X92681Y-29629D01*
X92695Y-29763D01*
X92702Y-29875D01*
Y-29974D01*
X92709Y-30044D01*
Y-30072D01*
Y-30093D01*
Y-30100D01*
Y-30107D01*
X92702Y-30333D01*
X92688Y-30544D01*
X92667Y-30741D01*
X92632Y-30924D01*
X92597Y-31085D01*
X92562Y-31233D01*
X92520Y-31367D01*
X92470Y-31486D01*
X92428Y-31585D01*
X92386Y-31676D01*
X92351Y-31747D01*
X92308Y-31810D01*
X92280Y-31859D01*
X92259Y-31888D01*
X92245Y-31909D01*
X92238Y-31916D01*
X92147Y-32014D01*
X92048Y-32099D01*
X91950Y-32169D01*
X91851Y-32232D01*
X91746Y-32288D01*
X91647Y-32331D01*
X91549Y-32366D01*
X91450Y-32394D01*
X91366Y-32415D01*
X91281Y-32436D01*
X91211Y-32450D01*
X91147Y-32457D01*
X91091D01*
X91056Y-32464D01*
X91021D01*
X90859Y-32457D01*
X90711Y-32429D01*
X90578Y-32401D01*
X90458Y-32359D01*
X90366Y-32324D01*
X90296Y-32288D01*
X90268Y-32281D01*
X90247Y-32267D01*
X90240Y-32260D01*
X90233D01*
X90113Y-32176D01*
X90001Y-32078D01*
X89909Y-31979D01*
X89832Y-31881D01*
X89768Y-31789D01*
X89726Y-31719D01*
X89712Y-31690D01*
X89698Y-31669D01*
X89691Y-31662D01*
Y-31655D01*
X89621Y-31508D01*
X89572Y-31353D01*
X89536Y-31212D01*
X89515Y-31078D01*
X89494Y-30966D01*
Y-30924D01*
X89487Y-30881D01*
Y-30846D01*
Y-30825D01*
Y-30811D01*
Y-30804D01*
X89494Y-30677D01*
X89508Y-30558D01*
X89529Y-30438D01*
X89550Y-30333D01*
X89586Y-30234D01*
X89621Y-30136D01*
X89656Y-30051D01*
X89698Y-29974D01*
X89740Y-29903D01*
X89775Y-29840D01*
X89811Y-29791D01*
X89846Y-29742D01*
X89867Y-29706D01*
X89888Y-29685D01*
X89902Y-29671D01*
X89909Y-29664D01*
X89987Y-29587D01*
X90071Y-29516D01*
X90162Y-29460D01*
X90247Y-29411D01*
X90331Y-29362D01*
X90416Y-29327D01*
X90578Y-29277D01*
X90648Y-29256D01*
X90718Y-29242D01*
X90775Y-29235D01*
X90831Y-29228D01*
X90873Y-29221D01*
X90929D01*
X91056Y-29228D01*
X91176Y-29249D01*
X91288Y-29270D01*
X91387Y-29298D01*
X91471Y-29334D01*
X91535Y-29355D01*
X91577Y-29376D01*
X91584Y-29383D01*
X91591D01*
X91703Y-29453D01*
X91802Y-29530D01*
X91893Y-29608D01*
X91964Y-29692D01*
X92027Y-29763D01*
X92076Y-29819D01*
X92104Y-29861D01*
X92111Y-29868D01*
Y-29742D01*
X92104Y-29615D01*
X92097Y-29502D01*
X92083Y-29390D01*
X92076Y-29291D01*
X92062Y-29200D01*
X92048Y-29115D01*
X92027Y-29038D01*
X92013Y-28968D01*
X91999Y-28911D01*
X91985Y-28862D01*
X91978Y-28820D01*
X91964Y-28792D01*
X91957Y-28771D01*
X91950Y-28757D01*
Y-28749D01*
X91879Y-28609D01*
X91809Y-28482D01*
X91732Y-28384D01*
X91661Y-28299D01*
X91598Y-28229D01*
X91549Y-28180D01*
X91513Y-28152D01*
X91499Y-28144D01*
X91415Y-28088D01*
X91330Y-28053D01*
X91246Y-28025D01*
X91162Y-28004D01*
X91098Y-27990D01*
X91042Y-27983D01*
X90993D01*
X90866Y-27997D01*
X90746Y-28025D01*
X90648Y-28067D01*
X90556Y-28109D01*
X90486Y-28159D01*
X90437Y-28201D01*
X90409Y-28229D01*
X90395Y-28243D01*
X90345Y-28306D01*
X90296Y-28384D01*
X90254Y-28468D01*
X90226Y-28552D01*
X90198Y-28630D01*
X90177Y-28693D01*
X90169Y-28735D01*
X90162Y-28742D01*
Y-28749D01*
X89564Y-28700D01*
X89607Y-28503D01*
X89670Y-28327D01*
X89740Y-28173D01*
X89818Y-28046D01*
X89895Y-27947D01*
X89923Y-27905D01*
X89958Y-27870D01*
X89980Y-27849D01*
X90001Y-27828D01*
X90008Y-27821D01*
X90015Y-27814D01*
X90085Y-27757D01*
X90162Y-27708D01*
X90317Y-27624D01*
X90472Y-27568D01*
X90620Y-27532D01*
X90753Y-27504D01*
X90810Y-27497D01*
X90859D01*
X90901Y-27490D01*
X90957D01*
X91098Y-27497D01*
D02*
G37*
G36*
X95475Y-27441D02*
X95700Y-27476D01*
X95897Y-27518D01*
X95988Y-27546D01*
X96073Y-27575D01*
X96150Y-27603D01*
X96220Y-27631D01*
X96277Y-27652D01*
X96333Y-27673D01*
X96368Y-27694D01*
X96396Y-27708D01*
X96417Y-27715D01*
X96424Y-27722D01*
X96614Y-27842D01*
X96776Y-27983D01*
X96917Y-28123D01*
X97037Y-28264D01*
X97128Y-28391D01*
X97163Y-28447D01*
X97191Y-28496D01*
X97219Y-28531D01*
X97233Y-28560D01*
X97240Y-28581D01*
X97247Y-28588D01*
X97346Y-28806D01*
X97416Y-29031D01*
X97466Y-29256D01*
X97501Y-29460D01*
X97515Y-29552D01*
X97522Y-29643D01*
X97529Y-29713D01*
Y-29784D01*
X97536Y-29833D01*
Y-29875D01*
Y-29903D01*
Y-29910D01*
X97522Y-30164D01*
X97494Y-30410D01*
X97459Y-30628D01*
X97430Y-30734D01*
X97409Y-30825D01*
X97388Y-30910D01*
X97360Y-30987D01*
X97339Y-31057D01*
X97325Y-31114D01*
X97304Y-31156D01*
X97297Y-31191D01*
X97283Y-31212D01*
Y-31219D01*
X97177Y-31430D01*
X97058Y-31620D01*
X96931Y-31782D01*
X96868Y-31845D01*
X96811Y-31909D01*
X96755Y-31965D01*
X96699Y-32014D01*
X96650Y-32056D01*
X96607Y-32085D01*
X96579Y-32113D01*
X96551Y-32134D01*
X96537Y-32141D01*
X96530Y-32148D01*
X96431Y-32204D01*
X96333Y-32253D01*
X96122Y-32331D01*
X95911Y-32387D01*
X95707Y-32422D01*
X95608Y-32436D01*
X95524Y-32450D01*
X95446Y-32457D01*
X95383D01*
X95327Y-32464D01*
X95249D01*
X95109Y-32457D01*
X94975Y-32443D01*
X94848Y-32429D01*
X94729Y-32401D01*
X94616Y-32366D01*
X94511Y-32331D01*
X94412Y-32296D01*
X94321Y-32253D01*
X94243Y-32218D01*
X94166Y-32183D01*
X94110Y-32148D01*
X94053Y-32113D01*
X94018Y-32085D01*
X93983Y-32070D01*
X93969Y-32056D01*
X93962Y-32049D01*
X93863Y-31965D01*
X93779Y-31881D01*
X93701Y-31782D01*
X93624Y-31683D01*
X93497Y-31486D01*
X93399Y-31289D01*
X93357Y-31198D01*
X93322Y-31114D01*
X93293Y-31036D01*
X93272Y-30973D01*
X93251Y-30917D01*
X93237Y-30874D01*
X93230Y-30846D01*
Y-30839D01*
X93877Y-30677D01*
X93905Y-30790D01*
X93941Y-30895D01*
X93976Y-30994D01*
X94011Y-31085D01*
X94053Y-31170D01*
X94095Y-31240D01*
X94145Y-31311D01*
X94187Y-31374D01*
X94222Y-31430D01*
X94264Y-31472D01*
X94299Y-31515D01*
X94328Y-31550D01*
X94356Y-31571D01*
X94377Y-31592D01*
X94384Y-31599D01*
X94391Y-31606D01*
X94461Y-31662D01*
X94539Y-31705D01*
X94693Y-31782D01*
X94841Y-31838D01*
X94989Y-31873D01*
X95116Y-31902D01*
X95165Y-31909D01*
X95214D01*
X95256Y-31916D01*
X95306D01*
X95468Y-31909D01*
X95622Y-31881D01*
X95763Y-31845D01*
X95890Y-31803D01*
X95988Y-31761D01*
X96030Y-31740D01*
X96066Y-31726D01*
X96094Y-31712D01*
X96115Y-31697D01*
X96129Y-31690D01*
X96136D01*
X96270Y-31592D01*
X96382Y-31486D01*
X96481Y-31367D01*
X96558Y-31254D01*
X96621Y-31156D01*
X96664Y-31071D01*
X96678Y-31036D01*
X96692Y-31015D01*
X96699Y-31001D01*
Y-30994D01*
X96755Y-30811D01*
X96797Y-30628D01*
X96832Y-30445D01*
X96854Y-30276D01*
X96861Y-30199D01*
X96868Y-30129D01*
Y-30065D01*
X96875Y-30016D01*
Y-29974D01*
Y-29939D01*
Y-29918D01*
Y-29910D01*
X96868Y-29727D01*
X96854Y-29559D01*
X96825Y-29404D01*
X96797Y-29263D01*
X96776Y-29144D01*
X96762Y-29094D01*
X96748Y-29052D01*
X96741Y-29017D01*
X96734Y-28996D01*
X96727Y-28982D01*
Y-28975D01*
X96657Y-28813D01*
X96579Y-28665D01*
X96495Y-28545D01*
X96403Y-28440D01*
X96326Y-28356D01*
X96263Y-28299D01*
X96213Y-28264D01*
X96206Y-28250D01*
X96199D01*
X96051Y-28159D01*
X95890Y-28088D01*
X95735Y-28039D01*
X95587Y-28011D01*
X95453Y-27990D01*
X95397Y-27983D01*
X95348D01*
X95313Y-27976D01*
X95256D01*
X95080Y-27983D01*
X94919Y-28011D01*
X94785Y-28053D01*
X94665Y-28095D01*
X94574Y-28144D01*
X94504Y-28180D01*
X94461Y-28208D01*
X94447Y-28222D01*
X94335Y-28327D01*
X94229Y-28447D01*
X94145Y-28574D01*
X94074Y-28700D01*
X94018Y-28813D01*
X93997Y-28869D01*
X93983Y-28911D01*
X93969Y-28946D01*
X93955Y-28975D01*
X93948Y-28989D01*
Y-28996D01*
X93315Y-28848D01*
X93357Y-28721D01*
X93399Y-28609D01*
X93455Y-28503D01*
X93504Y-28398D01*
X93561Y-28306D01*
X93624Y-28222D01*
X93680Y-28137D01*
X93737Y-28067D01*
X93793Y-28011D01*
X93842Y-27954D01*
X93891Y-27905D01*
X93927Y-27870D01*
X93962Y-27835D01*
X93990Y-27814D01*
X94004Y-27807D01*
X94011Y-27800D01*
X94110Y-27736D01*
X94208Y-27673D01*
X94307Y-27624D01*
X94412Y-27582D01*
X94623Y-27518D01*
X94813Y-27476D01*
X94905Y-27455D01*
X94982Y-27448D01*
X95059Y-27441D01*
X95123Y-27434D01*
X95172Y-27427D01*
X95242D01*
X95475Y-27441D01*
D02*
G37*
G36*
X116198Y-34529D02*
X115635Y-34607D01*
X115586Y-34529D01*
X115522Y-34466D01*
X115466Y-34403D01*
X115410Y-34353D01*
X115353Y-34318D01*
X115311Y-34283D01*
X115283Y-34269D01*
X115276Y-34262D01*
X115185Y-34220D01*
X115093Y-34185D01*
X115009Y-34163D01*
X114924Y-34142D01*
X114854Y-34135D01*
X114798Y-34128D01*
X114664D01*
X114579Y-34142D01*
X114432Y-34177D01*
X114305Y-34227D01*
X114193Y-34276D01*
X114108Y-34332D01*
X114045Y-34381D01*
X114010Y-34417D01*
X113996Y-34424D01*
Y-34431D01*
X113897Y-34550D01*
X113827Y-34677D01*
X113777Y-34811D01*
X113742Y-34944D01*
X113721Y-35057D01*
X113714Y-35106D01*
Y-35148D01*
X113707Y-35184D01*
Y-35212D01*
Y-35226D01*
Y-35233D01*
Y-35331D01*
X113721Y-35423D01*
X113756Y-35599D01*
X113806Y-35747D01*
X113855Y-35866D01*
X113911Y-35965D01*
X113960Y-36042D01*
X113982Y-36063D01*
X113996Y-36084D01*
X114003Y-36091D01*
X114010Y-36098D01*
X114066Y-36155D01*
X114122Y-36204D01*
X114249Y-36288D01*
X114368Y-36344D01*
X114488Y-36380D01*
X114587Y-36408D01*
X114671Y-36415D01*
X114699Y-36422D01*
X114741D01*
X114875Y-36415D01*
X114995Y-36387D01*
X115100Y-36352D01*
X115185Y-36309D01*
X115262Y-36267D01*
X115318Y-36232D01*
X115346Y-36204D01*
X115360Y-36197D01*
X115445Y-36098D01*
X115515Y-35993D01*
X115572Y-35873D01*
X115614Y-35768D01*
X115642Y-35662D01*
X115663Y-35585D01*
X115670Y-35549D01*
X115677Y-35528D01*
Y-35514D01*
Y-35507D01*
X116303Y-35556D01*
X116289Y-35669D01*
X116268Y-35775D01*
X116205Y-35972D01*
X116127Y-36140D01*
X116085Y-36218D01*
X116043Y-36281D01*
X116008Y-36344D01*
X115966Y-36401D01*
X115930Y-36443D01*
X115895Y-36478D01*
X115867Y-36506D01*
X115853Y-36535D01*
X115839Y-36542D01*
X115832Y-36549D01*
X115747Y-36612D01*
X115663Y-36668D01*
X115572Y-36717D01*
X115480Y-36760D01*
X115304Y-36823D01*
X115128Y-36865D01*
X115051Y-36886D01*
X114973Y-36893D01*
X114910Y-36900D01*
X114854Y-36907D01*
X114805Y-36914D01*
X114741D01*
X114594Y-36907D01*
X114453Y-36886D01*
X114319Y-36858D01*
X114200Y-36823D01*
X114087Y-36774D01*
X113982Y-36725D01*
X113883Y-36675D01*
X113799Y-36619D01*
X113721Y-36563D01*
X113651Y-36513D01*
X113595Y-36457D01*
X113545Y-36415D01*
X113510Y-36380D01*
X113482Y-36352D01*
X113468Y-36330D01*
X113461Y-36323D01*
X113391Y-36232D01*
X113334Y-36133D01*
X113278Y-36042D01*
X113236Y-35944D01*
X113165Y-35754D01*
X113123Y-35571D01*
X113109Y-35493D01*
X113095Y-35416D01*
X113088Y-35352D01*
X113081Y-35296D01*
X113074Y-35247D01*
Y-35212D01*
Y-35191D01*
Y-35184D01*
X113081Y-35057D01*
X113095Y-34937D01*
X113116Y-34818D01*
X113144Y-34712D01*
X113179Y-34614D01*
X113215Y-34515D01*
X113257Y-34431D01*
X113292Y-34353D01*
X113334Y-34283D01*
X113376Y-34220D01*
X113412Y-34170D01*
X113447Y-34121D01*
X113475Y-34086D01*
X113496Y-34065D01*
X113510Y-34051D01*
X113517Y-34044D01*
X113602Y-33966D01*
X113686Y-33896D01*
X113777Y-33840D01*
X113869Y-33791D01*
X113960Y-33741D01*
X114052Y-33706D01*
X114221Y-33657D01*
X114298Y-33636D01*
X114368Y-33622D01*
X114432Y-33615D01*
X114488Y-33608D01*
X114530Y-33601D01*
X114685D01*
X114769Y-33615D01*
X114938Y-33650D01*
X115093Y-33699D01*
X115234Y-33755D01*
X115346Y-33812D01*
X115396Y-33840D01*
X115438Y-33861D01*
X115473Y-33882D01*
X115494Y-33896D01*
X115508Y-33903D01*
X115515Y-33910D01*
X115255Y-32594D01*
X113306D01*
Y-32025D01*
X115726D01*
X116198Y-34529D01*
D02*
G37*
G36*
X119096Y-31891D02*
X119322Y-31926D01*
X119519Y-31968D01*
X119610Y-31996D01*
X119695Y-32025D01*
X119772Y-32053D01*
X119842Y-32081D01*
X119899Y-32102D01*
X119955Y-32123D01*
X119990Y-32144D01*
X120018Y-32158D01*
X120039Y-32165D01*
X120046Y-32172D01*
X120236Y-32292D01*
X120398Y-32433D01*
X120539Y-32573D01*
X120659Y-32714D01*
X120750Y-32841D01*
X120785Y-32897D01*
X120813Y-32946D01*
X120841Y-32981D01*
X120856Y-33010D01*
X120863Y-33031D01*
X120870Y-33038D01*
X120968Y-33256D01*
X121038Y-33481D01*
X121088Y-33706D01*
X121123Y-33910D01*
X121137Y-34002D01*
X121144Y-34093D01*
X121151Y-34163D01*
Y-34234D01*
X121158Y-34283D01*
Y-34325D01*
Y-34353D01*
Y-34360D01*
X121144Y-34614D01*
X121116Y-34860D01*
X121081Y-35078D01*
X121053Y-35184D01*
X121031Y-35275D01*
X121010Y-35359D01*
X120982Y-35437D01*
X120961Y-35507D01*
X120947Y-35564D01*
X120926Y-35606D01*
X120919Y-35641D01*
X120905Y-35662D01*
Y-35669D01*
X120799Y-35880D01*
X120680Y-36070D01*
X120553Y-36232D01*
X120490Y-36295D01*
X120433Y-36359D01*
X120377Y-36415D01*
X120321Y-36464D01*
X120272Y-36506D01*
X120229Y-36535D01*
X120201Y-36563D01*
X120173Y-36584D01*
X120159Y-36591D01*
X120152Y-36598D01*
X120053Y-36654D01*
X119955Y-36703D01*
X119744Y-36781D01*
X119533Y-36837D01*
X119329Y-36872D01*
X119230Y-36886D01*
X119146Y-36900D01*
X119068Y-36907D01*
X119005D01*
X118949Y-36914D01*
X118871D01*
X118731Y-36907D01*
X118597Y-36893D01*
X118470Y-36879D01*
X118351Y-36851D01*
X118238Y-36816D01*
X118133Y-36781D01*
X118034Y-36746D01*
X117943Y-36703D01*
X117865Y-36668D01*
X117788Y-36633D01*
X117732Y-36598D01*
X117675Y-36563D01*
X117640Y-36535D01*
X117605Y-36520D01*
X117591Y-36506D01*
X117584Y-36499D01*
X117485Y-36415D01*
X117401Y-36330D01*
X117324Y-36232D01*
X117246Y-36133D01*
X117120Y-35937D01*
X117021Y-35740D01*
X116979Y-35648D01*
X116944Y-35564D01*
X116915Y-35486D01*
X116894Y-35423D01*
X116873Y-35367D01*
X116859Y-35324D01*
X116852Y-35296D01*
Y-35289D01*
X117499Y-35127D01*
X117528Y-35240D01*
X117563Y-35345D01*
X117598Y-35444D01*
X117633Y-35535D01*
X117675Y-35620D01*
X117718Y-35690D01*
X117767Y-35761D01*
X117809Y-35824D01*
X117844Y-35880D01*
X117886Y-35922D01*
X117921Y-35965D01*
X117950Y-36000D01*
X117978Y-36021D01*
X117999Y-36042D01*
X118006Y-36049D01*
X118013Y-36056D01*
X118083Y-36112D01*
X118161Y-36155D01*
X118315Y-36232D01*
X118463Y-36288D01*
X118611Y-36323D01*
X118738Y-36352D01*
X118787Y-36359D01*
X118836D01*
X118878Y-36366D01*
X118928D01*
X119089Y-36359D01*
X119244Y-36330D01*
X119385Y-36295D01*
X119512Y-36253D01*
X119610Y-36211D01*
X119652Y-36190D01*
X119688Y-36176D01*
X119716Y-36162D01*
X119737Y-36147D01*
X119751Y-36140D01*
X119758D01*
X119892Y-36042D01*
X120004Y-35937D01*
X120103Y-35817D01*
X120180Y-35704D01*
X120243Y-35606D01*
X120286Y-35521D01*
X120300Y-35486D01*
X120314Y-35465D01*
X120321Y-35451D01*
Y-35444D01*
X120377Y-35261D01*
X120419Y-35078D01*
X120454Y-34895D01*
X120476Y-34726D01*
X120483Y-34649D01*
X120490Y-34578D01*
Y-34515D01*
X120497Y-34466D01*
Y-34424D01*
Y-34389D01*
Y-34367D01*
Y-34360D01*
X120490Y-34177D01*
X120476Y-34009D01*
X120447Y-33854D01*
X120419Y-33713D01*
X120398Y-33593D01*
X120384Y-33544D01*
X120370Y-33502D01*
X120363Y-33467D01*
X120356Y-33446D01*
X120349Y-33432D01*
Y-33425D01*
X120279Y-33263D01*
X120201Y-33115D01*
X120117Y-32996D01*
X120025Y-32890D01*
X119948Y-32806D01*
X119885Y-32749D01*
X119835Y-32714D01*
X119828Y-32700D01*
X119821D01*
X119673Y-32608D01*
X119512Y-32538D01*
X119357Y-32489D01*
X119209Y-32461D01*
X119075Y-32440D01*
X119019Y-32433D01*
X118970D01*
X118935Y-32426D01*
X118878D01*
X118702Y-32433D01*
X118541Y-32461D01*
X118407Y-32503D01*
X118287Y-32545D01*
X118196Y-32594D01*
X118126Y-32630D01*
X118083Y-32658D01*
X118069Y-32672D01*
X117957Y-32777D01*
X117851Y-32897D01*
X117767Y-33024D01*
X117696Y-33150D01*
X117640Y-33263D01*
X117619Y-33319D01*
X117605Y-33361D01*
X117591Y-33396D01*
X117577Y-33425D01*
X117570Y-33439D01*
Y-33446D01*
X116937Y-33298D01*
X116979Y-33171D01*
X117021Y-33059D01*
X117077Y-32953D01*
X117127Y-32848D01*
X117183Y-32756D01*
X117246Y-32672D01*
X117302Y-32587D01*
X117359Y-32517D01*
X117415Y-32461D01*
X117464Y-32404D01*
X117514Y-32355D01*
X117549Y-32320D01*
X117584Y-32285D01*
X117612Y-32264D01*
X117626Y-32257D01*
X117633Y-32250D01*
X117732Y-32186D01*
X117830Y-32123D01*
X117929Y-32074D01*
X118034Y-32032D01*
X118245Y-31968D01*
X118435Y-31926D01*
X118527Y-31905D01*
X118604Y-31898D01*
X118681Y-31891D01*
X118745Y-31884D01*
X118794Y-31877D01*
X118864D01*
X119096Y-31891D01*
D02*
G37*
G36*
X42642Y-130951D02*
X42868Y-130986D01*
X43065Y-131028D01*
X43156Y-131056D01*
X43241Y-131084D01*
X43318Y-131113D01*
X43388Y-131141D01*
X43445Y-131162D01*
X43501Y-131183D01*
X43536Y-131204D01*
X43564Y-131218D01*
X43585Y-131225D01*
X43592Y-131232D01*
X43782Y-131352D01*
X43944Y-131493D01*
X44085Y-131633D01*
X44205Y-131774D01*
X44296Y-131901D01*
X44331Y-131957D01*
X44359Y-132006D01*
X44387Y-132041D01*
X44401Y-132070D01*
X44408Y-132091D01*
X44415Y-132098D01*
X44514Y-132316D01*
X44584Y-132541D01*
X44634Y-132766D01*
X44669Y-132970D01*
X44683Y-133062D01*
X44690Y-133153D01*
X44697Y-133223D01*
Y-133294D01*
X44704Y-133343D01*
Y-133385D01*
Y-133413D01*
Y-133420D01*
X44690Y-133674D01*
X44662Y-133920D01*
X44627Y-134138D01*
X44598Y-134244D01*
X44577Y-134335D01*
X44556Y-134419D01*
X44528Y-134497D01*
X44507Y-134567D01*
X44493Y-134624D01*
X44472Y-134666D01*
X44465Y-134701D01*
X44451Y-134722D01*
Y-134729D01*
X44345Y-134940D01*
X44226Y-135130D01*
X44099Y-135292D01*
X44036Y-135355D01*
X43979Y-135419D01*
X43923Y-135475D01*
X43867Y-135524D01*
X43818Y-135566D01*
X43775Y-135595D01*
X43747Y-135623D01*
X43719Y-135644D01*
X43705Y-135651D01*
X43698Y-135658D01*
X43599Y-135714D01*
X43501Y-135763D01*
X43290Y-135841D01*
X43079Y-135897D01*
X42875Y-135932D01*
X42776Y-135946D01*
X42692Y-135960D01*
X42614Y-135967D01*
X42551D01*
X42495Y-135974D01*
X42417D01*
X42277Y-135967D01*
X42143Y-135953D01*
X42016Y-135939D01*
X41897Y-135911D01*
X41784Y-135876D01*
X41679Y-135841D01*
X41580Y-135806D01*
X41489Y-135763D01*
X41411Y-135728D01*
X41334Y-135693D01*
X41278Y-135658D01*
X41221Y-135623D01*
X41186Y-135595D01*
X41151Y-135580D01*
X41137Y-135566D01*
X41130Y-135559D01*
X41031Y-135475D01*
X40947Y-135391D01*
X40869Y-135292D01*
X40792Y-135194D01*
X40665Y-134997D01*
X40567Y-134799D01*
X40525Y-134708D01*
X40490Y-134624D01*
X40461Y-134546D01*
X40440Y-134483D01*
X40419Y-134427D01*
X40405Y-134384D01*
X40398Y-134356D01*
Y-134349D01*
X41045Y-134187D01*
X41073Y-134300D01*
X41109Y-134405D01*
X41144Y-134504D01*
X41179Y-134595D01*
X41221Y-134680D01*
X41263Y-134750D01*
X41313Y-134821D01*
X41355Y-134884D01*
X41390Y-134940D01*
X41432Y-134982D01*
X41467Y-135025D01*
X41496Y-135060D01*
X41524Y-135081D01*
X41545Y-135102D01*
X41552Y-135109D01*
X41559Y-135116D01*
X41629Y-135172D01*
X41707Y-135215D01*
X41862Y-135292D01*
X42009Y-135348D01*
X42157Y-135383D01*
X42284Y-135412D01*
X42333Y-135419D01*
X42382D01*
X42424Y-135426D01*
X42474D01*
X42635Y-135419D01*
X42790Y-135391D01*
X42931Y-135355D01*
X43058Y-135313D01*
X43156Y-135271D01*
X43198Y-135250D01*
X43233Y-135236D01*
X43262Y-135222D01*
X43283Y-135208D01*
X43297Y-135201D01*
X43304D01*
X43438Y-135102D01*
X43550Y-134997D01*
X43649Y-134877D01*
X43726Y-134764D01*
X43789Y-134666D01*
X43832Y-134581D01*
X43846Y-134546D01*
X43860Y-134525D01*
X43867Y-134511D01*
Y-134504D01*
X43923Y-134321D01*
X43965Y-134138D01*
X44000Y-133955D01*
X44022Y-133786D01*
X44029Y-133709D01*
X44036Y-133638D01*
Y-133575D01*
X44043Y-133526D01*
Y-133484D01*
Y-133449D01*
Y-133427D01*
Y-133420D01*
X44036Y-133237D01*
X44022Y-133069D01*
X43993Y-132914D01*
X43965Y-132773D01*
X43944Y-132654D01*
X43930Y-132604D01*
X43916Y-132562D01*
X43909Y-132527D01*
X43902Y-132506D01*
X43895Y-132492D01*
Y-132485D01*
X43825Y-132323D01*
X43747Y-132175D01*
X43663Y-132056D01*
X43571Y-131950D01*
X43494Y-131866D01*
X43431Y-131809D01*
X43381Y-131774D01*
X43374Y-131760D01*
X43367D01*
X43219Y-131669D01*
X43058Y-131598D01*
X42903Y-131549D01*
X42755Y-131521D01*
X42621Y-131500D01*
X42565Y-131493D01*
X42516D01*
X42481Y-131486D01*
X42424D01*
X42249Y-131493D01*
X42087Y-131521D01*
X41953Y-131563D01*
X41833Y-131605D01*
X41742Y-131654D01*
X41672Y-131690D01*
X41629Y-131718D01*
X41615Y-131732D01*
X41503Y-131837D01*
X41397Y-131957D01*
X41313Y-132084D01*
X41242Y-132210D01*
X41186Y-132323D01*
X41165Y-132379D01*
X41151Y-132421D01*
X41137Y-132457D01*
X41123Y-132485D01*
X41116Y-132499D01*
Y-132506D01*
X40483Y-132358D01*
X40525Y-132231D01*
X40567Y-132119D01*
X40623Y-132013D01*
X40672Y-131908D01*
X40729Y-131816D01*
X40792Y-131732D01*
X40848Y-131647D01*
X40905Y-131577D01*
X40961Y-131521D01*
X41010Y-131465D01*
X41059Y-131415D01*
X41095Y-131380D01*
X41130Y-131345D01*
X41158Y-131324D01*
X41172Y-131317D01*
X41179Y-131310D01*
X41278Y-131246D01*
X41376Y-131183D01*
X41475Y-131134D01*
X41580Y-131092D01*
X41791Y-131028D01*
X41981Y-130986D01*
X42073Y-130965D01*
X42150Y-130958D01*
X42227Y-130951D01*
X42291Y-130944D01*
X42340Y-130937D01*
X42410D01*
X42642Y-130951D01*
D02*
G37*
G36*
X40053Y-134173D02*
Y-134722D01*
X37936D01*
Y-135890D01*
X37338D01*
Y-134722D01*
X36676D01*
Y-134173D01*
X37338D01*
Y-131021D01*
X37823D01*
X40053Y-134173D01*
D02*
G37*
G36*
X90343Y-89358D02*
X90533Y-89393D01*
X90694Y-89450D01*
X90835Y-89506D01*
X90898Y-89541D01*
X90948Y-89569D01*
X90997Y-89597D01*
X91032Y-89626D01*
X91060Y-89647D01*
X91081Y-89661D01*
X91095Y-89668D01*
X91102Y-89675D01*
X91236Y-89809D01*
X91342Y-89956D01*
X91426Y-90111D01*
X91496Y-90266D01*
X91539Y-90400D01*
X91560Y-90456D01*
X91574Y-90505D01*
X91581Y-90547D01*
X91588Y-90575D01*
X91595Y-90597D01*
Y-90604D01*
X90997Y-90709D01*
X90969Y-90554D01*
X90927Y-90421D01*
X90877Y-90308D01*
X90828Y-90217D01*
X90779Y-90146D01*
X90737Y-90097D01*
X90708Y-90062D01*
X90701Y-90055D01*
X90610Y-89984D01*
X90511Y-89928D01*
X90420Y-89893D01*
X90329Y-89865D01*
X90244Y-89851D01*
X90181Y-89837D01*
X90125D01*
X89998Y-89844D01*
X89885Y-89872D01*
X89787Y-89907D01*
X89702Y-89942D01*
X89639Y-89984D01*
X89590Y-90020D01*
X89555Y-90048D01*
X89548Y-90055D01*
X89470Y-90139D01*
X89414Y-90231D01*
X89379Y-90322D01*
X89351Y-90407D01*
X89336Y-90484D01*
X89322Y-90540D01*
Y-90582D01*
Y-90590D01*
Y-90597D01*
Y-90674D01*
X89336Y-90744D01*
X89372Y-90864D01*
X89421Y-90969D01*
X89477Y-91061D01*
X89534Y-91124D01*
X89583Y-91173D01*
X89618Y-91202D01*
X89625Y-91209D01*
X89632D01*
X89752Y-91272D01*
X89864Y-91321D01*
X89984Y-91356D01*
X90089Y-91377D01*
X90181Y-91391D01*
X90258Y-91406D01*
X90350D01*
X90378Y-91399D01*
X90413D01*
X90483Y-91926D01*
X90392Y-91905D01*
X90307Y-91891D01*
X90237Y-91877D01*
X90174Y-91870D01*
X90125Y-91863D01*
X90061D01*
X89913Y-91877D01*
X89780Y-91905D01*
X89660Y-91947D01*
X89562Y-91997D01*
X89484Y-92046D01*
X89428Y-92088D01*
X89393Y-92116D01*
X89379Y-92130D01*
X89287Y-92236D01*
X89217Y-92348D01*
X89168Y-92461D01*
X89139Y-92574D01*
X89118Y-92665D01*
X89111Y-92742D01*
X89104Y-92771D01*
Y-92792D01*
Y-92806D01*
Y-92813D01*
X89118Y-92968D01*
X89153Y-93108D01*
X89196Y-93228D01*
X89252Y-93333D01*
X89308Y-93418D01*
X89351Y-93481D01*
X89386Y-93523D01*
X89400Y-93538D01*
X89512Y-93636D01*
X89632Y-93706D01*
X89752Y-93756D01*
X89864Y-93791D01*
X89963Y-93812D01*
X90040Y-93819D01*
X90068Y-93826D01*
X90110D01*
X90237Y-93819D01*
X90357Y-93791D01*
X90462Y-93756D01*
X90547Y-93713D01*
X90617Y-93678D01*
X90673Y-93643D01*
X90701Y-93615D01*
X90716Y-93608D01*
X90800Y-93509D01*
X90870Y-93397D01*
X90934Y-93277D01*
X90983Y-93151D01*
X91018Y-93045D01*
X91032Y-92996D01*
X91039Y-92954D01*
X91046Y-92918D01*
X91053Y-92890D01*
X91060Y-92876D01*
Y-92869D01*
X91658Y-92946D01*
X91644Y-93059D01*
X91623Y-93165D01*
X91560Y-93362D01*
X91482Y-93530D01*
X91440Y-93601D01*
X91398Y-93671D01*
X91356Y-93735D01*
X91313Y-93784D01*
X91278Y-93833D01*
X91243Y-93868D01*
X91222Y-93896D01*
X91201Y-93917D01*
X91187Y-93932D01*
X91180Y-93939D01*
X91095Y-94002D01*
X91011Y-94065D01*
X90927Y-94114D01*
X90835Y-94157D01*
X90659Y-94227D01*
X90490Y-94269D01*
X90413Y-94283D01*
X90343Y-94297D01*
X90279Y-94304D01*
X90223Y-94311D01*
X90181Y-94318D01*
X90117D01*
X89984Y-94311D01*
X89864Y-94297D01*
X89745Y-94276D01*
X89632Y-94248D01*
X89526Y-94213D01*
X89435Y-94178D01*
X89344Y-94136D01*
X89266Y-94093D01*
X89189Y-94058D01*
X89125Y-94016D01*
X89069Y-93981D01*
X89027Y-93946D01*
X88992Y-93917D01*
X88964Y-93896D01*
X88949Y-93882D01*
X88942Y-93875D01*
X88858Y-93791D01*
X88788Y-93699D01*
X88724Y-93608D01*
X88668Y-93516D01*
X88626Y-93432D01*
X88584Y-93341D01*
X88527Y-93172D01*
X88513Y-93094D01*
X88499Y-93024D01*
X88485Y-92961D01*
X88478Y-92904D01*
X88471Y-92862D01*
Y-92827D01*
Y-92806D01*
Y-92799D01*
X88478Y-92630D01*
X88506Y-92475D01*
X88548Y-92341D01*
X88591Y-92229D01*
X88633Y-92137D01*
X88675Y-92067D01*
X88703Y-92025D01*
X88710Y-92011D01*
X88809Y-91905D01*
X88914Y-91814D01*
X89027Y-91743D01*
X89139Y-91687D01*
X89238Y-91645D01*
X89315Y-91617D01*
X89344Y-91610D01*
X89365Y-91603D01*
X89379Y-91596D01*
X89386D01*
X89266Y-91532D01*
X89168Y-91469D01*
X89083Y-91399D01*
X89013Y-91335D01*
X88956Y-91279D01*
X88914Y-91230D01*
X88893Y-91202D01*
X88886Y-91187D01*
X88830Y-91089D01*
X88788Y-90990D01*
X88752Y-90892D01*
X88731Y-90801D01*
X88717Y-90723D01*
X88710Y-90667D01*
Y-90625D01*
Y-90611D01*
X88717Y-90491D01*
X88738Y-90371D01*
X88766Y-90266D01*
X88802Y-90174D01*
X88837Y-90097D01*
X88865Y-90034D01*
X88886Y-89998D01*
X88893Y-89984D01*
X88964Y-89879D01*
X89048Y-89787D01*
X89132Y-89710D01*
X89217Y-89640D01*
X89287Y-89590D01*
X89351Y-89548D01*
X89393Y-89527D01*
X89400Y-89520D01*
X89407D01*
X89534Y-89464D01*
X89660Y-89422D01*
X89787Y-89386D01*
X89899Y-89365D01*
X89991Y-89351D01*
X90068Y-89344D01*
X90244D01*
X90343Y-89358D01*
D02*
G37*
G36*
X94459Y-89295D02*
X94684Y-89330D01*
X94881Y-89372D01*
X94972Y-89400D01*
X95057Y-89429D01*
X95134Y-89457D01*
X95204Y-89485D01*
X95261Y-89506D01*
X95317Y-89527D01*
X95352Y-89548D01*
X95380Y-89562D01*
X95401Y-89569D01*
X95408Y-89576D01*
X95598Y-89696D01*
X95760Y-89837D01*
X95901Y-89977D01*
X96020Y-90118D01*
X96112Y-90245D01*
X96147Y-90301D01*
X96175Y-90350D01*
X96203Y-90385D01*
X96217Y-90414D01*
X96224Y-90435D01*
X96231Y-90442D01*
X96330Y-90660D01*
X96400Y-90885D01*
X96450Y-91110D01*
X96485Y-91314D01*
X96499Y-91406D01*
X96506Y-91497D01*
X96513Y-91567D01*
Y-91638D01*
X96520Y-91687D01*
Y-91729D01*
Y-91757D01*
Y-91764D01*
X96506Y-92018D01*
X96478Y-92264D01*
X96443Y-92482D01*
X96414Y-92588D01*
X96393Y-92679D01*
X96372Y-92764D01*
X96344Y-92841D01*
X96323Y-92911D01*
X96309Y-92968D01*
X96288Y-93010D01*
X96281Y-93045D01*
X96267Y-93066D01*
Y-93073D01*
X96161Y-93284D01*
X96042Y-93474D01*
X95915Y-93636D01*
X95852Y-93699D01*
X95795Y-93763D01*
X95739Y-93819D01*
X95683Y-93868D01*
X95633Y-93910D01*
X95591Y-93939D01*
X95563Y-93967D01*
X95535Y-93988D01*
X95521Y-93995D01*
X95514Y-94002D01*
X95415Y-94058D01*
X95317Y-94107D01*
X95106Y-94185D01*
X94895Y-94241D01*
X94691Y-94276D01*
X94592Y-94290D01*
X94508Y-94304D01*
X94430Y-94311D01*
X94367D01*
X94311Y-94318D01*
X94233D01*
X94093Y-94311D01*
X93959Y-94297D01*
X93832Y-94283D01*
X93713Y-94255D01*
X93600Y-94220D01*
X93495Y-94185D01*
X93396Y-94150D01*
X93305Y-94107D01*
X93227Y-94072D01*
X93150Y-94037D01*
X93094Y-94002D01*
X93037Y-93967D01*
X93002Y-93939D01*
X92967Y-93924D01*
X92953Y-93910D01*
X92946Y-93903D01*
X92847Y-93819D01*
X92763Y-93735D01*
X92685Y-93636D01*
X92608Y-93538D01*
X92481Y-93341D01*
X92383Y-93144D01*
X92341Y-93052D01*
X92306Y-92968D01*
X92277Y-92890D01*
X92256Y-92827D01*
X92235Y-92771D01*
X92221Y-92728D01*
X92214Y-92700D01*
Y-92693D01*
X92861Y-92531D01*
X92889Y-92644D01*
X92925Y-92749D01*
X92960Y-92848D01*
X92995Y-92939D01*
X93037Y-93024D01*
X93080Y-93094D01*
X93129Y-93165D01*
X93171Y-93228D01*
X93206Y-93284D01*
X93248Y-93326D01*
X93284Y-93369D01*
X93312Y-93404D01*
X93340Y-93425D01*
X93361Y-93446D01*
X93368Y-93453D01*
X93375Y-93460D01*
X93445Y-93516D01*
X93523Y-93559D01*
X93678Y-93636D01*
X93825Y-93692D01*
X93973Y-93727D01*
X94100Y-93756D01*
X94149Y-93763D01*
X94198D01*
X94240Y-93770D01*
X94290D01*
X94452Y-93763D01*
X94606Y-93735D01*
X94747Y-93699D01*
X94874Y-93657D01*
X94972Y-93615D01*
X95014Y-93594D01*
X95049Y-93580D01*
X95078Y-93566D01*
X95099Y-93552D01*
X95113Y-93545D01*
X95120D01*
X95254Y-93446D01*
X95366Y-93341D01*
X95465Y-93221D01*
X95542Y-93108D01*
X95605Y-93010D01*
X95648Y-92925D01*
X95662Y-92890D01*
X95676Y-92869D01*
X95683Y-92855D01*
Y-92848D01*
X95739Y-92665D01*
X95781Y-92482D01*
X95816Y-92299D01*
X95837Y-92130D01*
X95845Y-92053D01*
X95852Y-91982D01*
Y-91919D01*
X95859Y-91870D01*
Y-91828D01*
Y-91793D01*
Y-91771D01*
Y-91764D01*
X95852Y-91581D01*
X95837Y-91413D01*
X95809Y-91258D01*
X95781Y-91117D01*
X95760Y-90997D01*
X95746Y-90948D01*
X95732Y-90906D01*
X95725Y-90871D01*
X95718Y-90850D01*
X95711Y-90836D01*
Y-90829D01*
X95640Y-90667D01*
X95563Y-90519D01*
X95479Y-90400D01*
X95387Y-90294D01*
X95310Y-90210D01*
X95246Y-90153D01*
X95197Y-90118D01*
X95190Y-90104D01*
X95183D01*
X95035Y-90013D01*
X94874Y-89942D01*
X94719Y-89893D01*
X94571Y-89865D01*
X94437Y-89844D01*
X94381Y-89837D01*
X94332D01*
X94297Y-89830D01*
X94240D01*
X94065Y-89837D01*
X93903Y-89865D01*
X93769Y-89907D01*
X93649Y-89949D01*
X93558Y-89998D01*
X93488Y-90034D01*
X93445Y-90062D01*
X93431Y-90076D01*
X93319Y-90181D01*
X93213Y-90301D01*
X93129Y-90428D01*
X93058Y-90554D01*
X93002Y-90667D01*
X92981Y-90723D01*
X92967Y-90765D01*
X92953Y-90801D01*
X92939Y-90829D01*
X92932Y-90843D01*
Y-90850D01*
X92298Y-90702D01*
X92341Y-90575D01*
X92383Y-90463D01*
X92439Y-90357D01*
X92488Y-90252D01*
X92545Y-90160D01*
X92608Y-90076D01*
X92664Y-89991D01*
X92721Y-89921D01*
X92777Y-89865D01*
X92826Y-89809D01*
X92875Y-89759D01*
X92911Y-89724D01*
X92946Y-89689D01*
X92974Y-89668D01*
X92988Y-89661D01*
X92995Y-89654D01*
X93094Y-89590D01*
X93192Y-89527D01*
X93291Y-89478D01*
X93396Y-89436D01*
X93607Y-89372D01*
X93797Y-89330D01*
X93889Y-89309D01*
X93966Y-89302D01*
X94043Y-89295D01*
X94107Y-89288D01*
X94156Y-89281D01*
X94226D01*
X94459Y-89295D01*
D02*
G37*
G36*
X118375Y24695D02*
X118494Y24688D01*
X118607Y24667D01*
X118713Y24646D01*
X118811Y24618D01*
X118902Y24589D01*
X118987Y24554D01*
X119064Y24519D01*
X119135Y24484D01*
X119191Y24449D01*
X119240Y24420D01*
X119282Y24392D01*
X119318Y24371D01*
X119339Y24350D01*
X119353Y24343D01*
X119360Y24336D01*
X119430Y24266D01*
X119493Y24188D01*
X119557Y24104D01*
X119606Y24019D01*
X119690Y23851D01*
X119747Y23682D01*
X119768Y23604D01*
X119789Y23527D01*
X119803Y23464D01*
X119817Y23407D01*
X119824Y23358D01*
Y23323D01*
X119831Y23302D01*
Y23295D01*
X119219Y23231D01*
X119205Y23393D01*
X119177Y23534D01*
X119135Y23661D01*
X119085Y23759D01*
X119043Y23844D01*
X119001Y23900D01*
X118973Y23935D01*
X118959Y23949D01*
X118853Y24034D01*
X118741Y24097D01*
X118621Y24146D01*
X118516Y24174D01*
X118417Y24195D01*
X118333Y24202D01*
X118304Y24209D01*
X118262D01*
X118114Y24202D01*
X117981Y24174D01*
X117868Y24132D01*
X117770Y24090D01*
X117692Y24041D01*
X117643Y24005D01*
X117608Y23977D01*
X117594Y23963D01*
X117509Y23865D01*
X117446Y23766D01*
X117397Y23668D01*
X117369Y23569D01*
X117347Y23492D01*
X117340Y23421D01*
X117333Y23379D01*
Y23372D01*
Y23365D01*
X117347Y23238D01*
X117376Y23105D01*
X117425Y22985D01*
X117474Y22873D01*
X117530Y22781D01*
X117580Y22704D01*
X117594Y22676D01*
X117608Y22655D01*
X117622Y22647D01*
Y22640D01*
X117678Y22563D01*
X117749Y22486D01*
X117826Y22401D01*
X117910Y22317D01*
X118086Y22148D01*
X118262Y21979D01*
X118354Y21902D01*
X118431Y21831D01*
X118508Y21768D01*
X118572Y21712D01*
X118621Y21669D01*
X118663Y21634D01*
X118691Y21613D01*
X118698Y21606D01*
X118874Y21458D01*
X119036Y21318D01*
X119170Y21191D01*
X119275Y21086D01*
X119367Y20994D01*
X119430Y20931D01*
X119465Y20889D01*
X119479Y20881D01*
Y20874D01*
X119578Y20755D01*
X119655Y20642D01*
X119726Y20530D01*
X119782Y20431D01*
X119824Y20347D01*
X119852Y20283D01*
X119866Y20241D01*
X119873Y20234D01*
Y20227D01*
X119902Y20150D01*
X119916Y20079D01*
X119930Y20009D01*
X119937Y19946D01*
X119944Y19889D01*
Y19847D01*
Y19819D01*
Y19812D01*
X116714D01*
Y20389D01*
X119114D01*
X119029Y20508D01*
X118987Y20558D01*
X118952Y20607D01*
X118917Y20649D01*
X118888Y20677D01*
X118867Y20698D01*
X118860Y20705D01*
X118825Y20741D01*
X118783Y20776D01*
X118684Y20867D01*
X118572Y20973D01*
X118452Y21078D01*
X118340Y21170D01*
X118290Y21212D01*
X118248Y21254D01*
X118213Y21282D01*
X118185Y21304D01*
X118171Y21318D01*
X118164Y21325D01*
X118051Y21423D01*
X117938Y21515D01*
X117840Y21606D01*
X117749Y21683D01*
X117664Y21761D01*
X117594Y21831D01*
X117523Y21895D01*
X117467Y21951D01*
X117411Y22007D01*
X117369Y22049D01*
X117333Y22085D01*
X117298Y22120D01*
X117263Y22162D01*
X117249Y22176D01*
X117150Y22296D01*
X117066Y22401D01*
X116996Y22507D01*
X116939Y22591D01*
X116897Y22668D01*
X116869Y22725D01*
X116855Y22760D01*
X116848Y22774D01*
X116806Y22880D01*
X116778Y22985D01*
X116749Y23084D01*
X116735Y23168D01*
X116728Y23245D01*
X116721Y23302D01*
Y23337D01*
Y23351D01*
X116728Y23456D01*
X116742Y23555D01*
X116756Y23654D01*
X116785Y23738D01*
X116855Y23907D01*
X116925Y24041D01*
X116968Y24104D01*
X117003Y24153D01*
X117038Y24202D01*
X117073Y24237D01*
X117101Y24266D01*
X117115Y24294D01*
X117129Y24301D01*
X117136Y24308D01*
X117214Y24378D01*
X117298Y24442D01*
X117390Y24491D01*
X117481Y24533D01*
X117664Y24603D01*
X117847Y24653D01*
X117924Y24667D01*
X118002Y24681D01*
X118072Y24688D01*
X118128Y24695D01*
X118178Y24702D01*
X118248D01*
X118375Y24695D01*
D02*
G37*
G36*
X122653Y24751D02*
X122878Y24716D01*
X123075Y24674D01*
X123166Y24646D01*
X123251Y24618D01*
X123328Y24589D01*
X123398Y24561D01*
X123455Y24540D01*
X123511Y24519D01*
X123546Y24498D01*
X123574Y24484D01*
X123595Y24477D01*
X123602Y24470D01*
X123792Y24350D01*
X123954Y24209D01*
X124095Y24069D01*
X124214Y23928D01*
X124306Y23801D01*
X124341Y23745D01*
X124369Y23696D01*
X124397Y23661D01*
X124411Y23632D01*
X124418Y23611D01*
X124425Y23604D01*
X124524Y23386D01*
X124594Y23161D01*
X124644Y22936D01*
X124679Y22732D01*
X124693Y22640D01*
X124700Y22549D01*
X124707Y22479D01*
Y22408D01*
X124714Y22359D01*
Y22317D01*
Y22289D01*
Y22282D01*
X124700Y22028D01*
X124672Y21782D01*
X124637Y21564D01*
X124608Y21458D01*
X124587Y21367D01*
X124566Y21282D01*
X124538Y21205D01*
X124517Y21135D01*
X124503Y21078D01*
X124482Y21036D01*
X124475Y21001D01*
X124461Y20980D01*
Y20973D01*
X124355Y20762D01*
X124236Y20572D01*
X124109Y20410D01*
X124046Y20347D01*
X123989Y20283D01*
X123933Y20227D01*
X123877Y20178D01*
X123827Y20136D01*
X123785Y20108D01*
X123757Y20079D01*
X123729Y20058D01*
X123715Y20051D01*
X123708Y20044D01*
X123609Y19988D01*
X123511Y19939D01*
X123300Y19861D01*
X123089Y19805D01*
X122885Y19770D01*
X122786Y19756D01*
X122702Y19742D01*
X122624Y19735D01*
X122561D01*
X122505Y19728D01*
X122427D01*
X122287Y19735D01*
X122153Y19749D01*
X122026Y19763D01*
X121907Y19791D01*
X121794Y19826D01*
X121689Y19861D01*
X121590Y19896D01*
X121499Y19939D01*
X121421Y19974D01*
X121344Y20009D01*
X121288Y20044D01*
X121231Y20079D01*
X121196Y20108D01*
X121161Y20122D01*
X121147Y20136D01*
X121140Y20143D01*
X121041Y20227D01*
X120957Y20312D01*
X120879Y20410D01*
X120802Y20508D01*
X120675Y20705D01*
X120577Y20903D01*
X120535Y20994D01*
X120500Y21078D01*
X120471Y21156D01*
X120450Y21219D01*
X120429Y21275D01*
X120415Y21318D01*
X120408Y21346D01*
Y21353D01*
X121055Y21515D01*
X121083Y21402D01*
X121119Y21297D01*
X121154Y21198D01*
X121189Y21107D01*
X121231Y21022D01*
X121273Y20952D01*
X121323Y20881D01*
X121365Y20818D01*
X121400Y20762D01*
X121442Y20720D01*
X121477Y20677D01*
X121506Y20642D01*
X121534Y20621D01*
X121555Y20600D01*
X121562Y20593D01*
X121569Y20586D01*
X121639Y20530D01*
X121717Y20487D01*
X121872Y20410D01*
X122019Y20354D01*
X122167Y20319D01*
X122294Y20290D01*
X122343Y20283D01*
X122392D01*
X122434Y20276D01*
X122484D01*
X122646Y20283D01*
X122800Y20312D01*
X122941Y20347D01*
X123068Y20389D01*
X123166Y20431D01*
X123208Y20452D01*
X123244Y20466D01*
X123272Y20480D01*
X123293Y20494D01*
X123307Y20501D01*
X123314D01*
X123448Y20600D01*
X123560Y20705D01*
X123659Y20825D01*
X123736Y20938D01*
X123799Y21036D01*
X123842Y21121D01*
X123856Y21156D01*
X123870Y21177D01*
X123877Y21191D01*
Y21198D01*
X123933Y21381D01*
X123975Y21564D01*
X124010Y21747D01*
X124031Y21916D01*
X124039Y21993D01*
X124046Y22064D01*
Y22127D01*
X124053Y22176D01*
Y22218D01*
Y22253D01*
Y22274D01*
Y22282D01*
X124046Y22464D01*
X124031Y22633D01*
X124003Y22788D01*
X123975Y22929D01*
X123954Y23049D01*
X123940Y23098D01*
X123926Y23140D01*
X123919Y23175D01*
X123912Y23196D01*
X123905Y23210D01*
Y23217D01*
X123834Y23379D01*
X123757Y23527D01*
X123673Y23647D01*
X123581Y23752D01*
X123504Y23837D01*
X123441Y23893D01*
X123391Y23928D01*
X123384Y23942D01*
X123377D01*
X123229Y24034D01*
X123068Y24104D01*
X122913Y24153D01*
X122765Y24181D01*
X122631Y24202D01*
X122575Y24209D01*
X122526D01*
X122491Y24216D01*
X122434D01*
X122259Y24209D01*
X122097Y24181D01*
X121963Y24139D01*
X121843Y24097D01*
X121752Y24048D01*
X121682Y24012D01*
X121639Y23984D01*
X121625Y23970D01*
X121513Y23865D01*
X121407Y23745D01*
X121323Y23618D01*
X121252Y23492D01*
X121196Y23379D01*
X121175Y23323D01*
X121161Y23281D01*
X121147Y23245D01*
X121133Y23217D01*
X121126Y23203D01*
Y23196D01*
X120492Y23344D01*
X120535Y23471D01*
X120577Y23583D01*
X120633Y23689D01*
X120682Y23794D01*
X120739Y23886D01*
X120802Y23970D01*
X120858Y24055D01*
X120915Y24125D01*
X120971Y24181D01*
X121020Y24237D01*
X121069Y24287D01*
X121105Y24322D01*
X121140Y24357D01*
X121168Y24378D01*
X121182Y24385D01*
X121189Y24392D01*
X121288Y24456D01*
X121386Y24519D01*
X121485Y24568D01*
X121590Y24610D01*
X121801Y24674D01*
X121991Y24716D01*
X122083Y24737D01*
X122160Y24744D01*
X122237Y24751D01*
X122301Y24758D01*
X122350Y24765D01*
X122420D01*
X122653Y24751D01*
D02*
G37*
G36*
X73615Y-199192D02*
X73693Y-199304D01*
X73784Y-199417D01*
X73868Y-199515D01*
X73953Y-199600D01*
X74016Y-199670D01*
X74044Y-199691D01*
X74065Y-199712D01*
X74072Y-199719D01*
X74079Y-199726D01*
X74227Y-199846D01*
X74375Y-199959D01*
X74516Y-200057D01*
X74657Y-200135D01*
X74776Y-200205D01*
X74825Y-200233D01*
X74868Y-200254D01*
X74903Y-200275D01*
X74931Y-200282D01*
X74945Y-200296D01*
X74952D01*
Y-200873D01*
X74846Y-200831D01*
X74741Y-200782D01*
X74635Y-200733D01*
X74537Y-200683D01*
X74452Y-200641D01*
X74382Y-200606D01*
X74340Y-200578D01*
X74333Y-200571D01*
X74326D01*
X74199Y-200493D01*
X74087Y-200416D01*
X73988Y-200346D01*
X73911Y-200282D01*
X73840Y-200233D01*
X73798Y-200191D01*
X73763Y-200163D01*
X73756Y-200156D01*
Y-203962D01*
X73158D01*
Y-199072D01*
X73545D01*
X73615Y-199192D01*
D02*
G37*
G36*
X78203Y-199023D02*
X78428Y-199058D01*
X78625Y-199100D01*
X78716Y-199128D01*
X78801Y-199156D01*
X78878Y-199185D01*
X78948Y-199213D01*
X79005Y-199234D01*
X79061Y-199255D01*
X79096Y-199276D01*
X79124Y-199290D01*
X79145Y-199297D01*
X79152Y-199304D01*
X79342Y-199424D01*
X79504Y-199565D01*
X79645Y-199705D01*
X79764Y-199846D01*
X79856Y-199973D01*
X79891Y-200029D01*
X79919Y-200078D01*
X79947Y-200113D01*
X79962Y-200142D01*
X79969Y-200163D01*
X79976Y-200170D01*
X80074Y-200388D01*
X80144Y-200613D01*
X80194Y-200838D01*
X80229Y-201042D01*
X80243Y-201134D01*
X80250Y-201225D01*
X80257Y-201295D01*
Y-201366D01*
X80264Y-201415D01*
Y-201457D01*
Y-201485D01*
Y-201492D01*
X80250Y-201746D01*
X80222Y-201992D01*
X80187Y-202210D01*
X80159Y-202316D01*
X80137Y-202407D01*
X80116Y-202491D01*
X80088Y-202569D01*
X80067Y-202639D01*
X80053Y-202696D01*
X80032Y-202738D01*
X80025Y-202773D01*
X80011Y-202794D01*
Y-202801D01*
X79905Y-203012D01*
X79786Y-203202D01*
X79659Y-203364D01*
X79596Y-203427D01*
X79539Y-203491D01*
X79483Y-203547D01*
X79427Y-203596D01*
X79377Y-203638D01*
X79335Y-203666D01*
X79307Y-203695D01*
X79279Y-203716D01*
X79265Y-203723D01*
X79258Y-203730D01*
X79159Y-203786D01*
X79061Y-203835D01*
X78850Y-203913D01*
X78639Y-203969D01*
X78435Y-204004D01*
X78336Y-204018D01*
X78252Y-204032D01*
X78174Y-204039D01*
X78111D01*
X78055Y-204046D01*
X77977D01*
X77837Y-204039D01*
X77703Y-204025D01*
X77576Y-204011D01*
X77457Y-203983D01*
X77344Y-203948D01*
X77239Y-203913D01*
X77140Y-203878D01*
X77049Y-203835D01*
X76971Y-203800D01*
X76894Y-203765D01*
X76838Y-203730D01*
X76781Y-203695D01*
X76746Y-203666D01*
X76711Y-203652D01*
X76697Y-203638D01*
X76690Y-203631D01*
X76591Y-203547D01*
X76507Y-203463D01*
X76430Y-203364D01*
X76352Y-203265D01*
X76226Y-203069D01*
X76127Y-202871D01*
X76085Y-202780D01*
X76050Y-202696D01*
X76021Y-202618D01*
X76000Y-202555D01*
X75979Y-202499D01*
X75965Y-202456D01*
X75958Y-202428D01*
Y-202421D01*
X76605Y-202259D01*
X76634Y-202372D01*
X76669Y-202477D01*
X76704Y-202576D01*
X76739Y-202667D01*
X76781Y-202752D01*
X76824Y-202822D01*
X76873Y-202893D01*
X76915Y-202956D01*
X76950Y-203012D01*
X76992Y-203054D01*
X77028Y-203097D01*
X77056Y-203132D01*
X77084Y-203153D01*
X77105Y-203174D01*
X77112Y-203181D01*
X77119Y-203188D01*
X77189Y-203244D01*
X77267Y-203287D01*
X77421Y-203364D01*
X77569Y-203420D01*
X77717Y-203455D01*
X77844Y-203484D01*
X77893Y-203491D01*
X77942D01*
X77984Y-203498D01*
X78034D01*
X78196Y-203491D01*
X78350Y-203463D01*
X78491Y-203427D01*
X78618Y-203385D01*
X78716Y-203343D01*
X78758Y-203322D01*
X78794Y-203308D01*
X78822Y-203294D01*
X78843Y-203279D01*
X78857Y-203272D01*
X78864D01*
X78998Y-203174D01*
X79110Y-203069D01*
X79209Y-202949D01*
X79286Y-202836D01*
X79349Y-202738D01*
X79392Y-202653D01*
X79406Y-202618D01*
X79420Y-202597D01*
X79427Y-202583D01*
Y-202576D01*
X79483Y-202393D01*
X79525Y-202210D01*
X79560Y-202027D01*
X79581Y-201858D01*
X79589Y-201781D01*
X79596Y-201710D01*
Y-201647D01*
X79603Y-201598D01*
Y-201556D01*
Y-201521D01*
Y-201500D01*
Y-201492D01*
X79596Y-201310D01*
X79581Y-201141D01*
X79553Y-200986D01*
X79525Y-200845D01*
X79504Y-200725D01*
X79490Y-200676D01*
X79476Y-200634D01*
X79469Y-200599D01*
X79462Y-200578D01*
X79455Y-200564D01*
Y-200557D01*
X79384Y-200395D01*
X79307Y-200247D01*
X79223Y-200128D01*
X79131Y-200022D01*
X79054Y-199937D01*
X78991Y-199881D01*
X78941Y-199846D01*
X78934Y-199832D01*
X78927D01*
X78779Y-199741D01*
X78618Y-199670D01*
X78463Y-199621D01*
X78315Y-199593D01*
X78181Y-199572D01*
X78125Y-199565D01*
X78076D01*
X78041Y-199558D01*
X77984D01*
X77808Y-199565D01*
X77647Y-199593D01*
X77513Y-199635D01*
X77393Y-199677D01*
X77302Y-199726D01*
X77232Y-199762D01*
X77189Y-199790D01*
X77175Y-199804D01*
X77063Y-199909D01*
X76957Y-200029D01*
X76873Y-200156D01*
X76802Y-200282D01*
X76746Y-200395D01*
X76725Y-200451D01*
X76711Y-200493D01*
X76697Y-200529D01*
X76683Y-200557D01*
X76676Y-200571D01*
Y-200578D01*
X76042Y-200430D01*
X76085Y-200303D01*
X76127Y-200191D01*
X76183Y-200085D01*
X76233Y-199980D01*
X76289Y-199888D01*
X76352Y-199804D01*
X76408Y-199719D01*
X76465Y-199649D01*
X76521Y-199593D01*
X76570Y-199536D01*
X76620Y-199487D01*
X76655Y-199452D01*
X76690Y-199417D01*
X76718Y-199396D01*
X76732Y-199389D01*
X76739Y-199382D01*
X76838Y-199318D01*
X76936Y-199255D01*
X77035Y-199206D01*
X77140Y-199164D01*
X77351Y-199100D01*
X77541Y-199058D01*
X77633Y-199037D01*
X77710Y-199030D01*
X77787Y-199023D01*
X77851Y-199016D01*
X77900Y-199009D01*
X77970D01*
X78203Y-199023D01*
D02*
G37*
%LPC*%
G36*
X65139Y-31995D02*
X63605D01*
X63415Y-32002D01*
X63253Y-32030D01*
X63112Y-32065D01*
X63007Y-32108D01*
X62915Y-32150D01*
X62859Y-32185D01*
X62824Y-32213D01*
X62810Y-32220D01*
X62725Y-32312D01*
X62662Y-32403D01*
X62620Y-32502D01*
X62585Y-32586D01*
X62571Y-32670D01*
X62564Y-32734D01*
X62557Y-32776D01*
Y-32783D01*
Y-32790D01*
X62564Y-32875D01*
X62578Y-32959D01*
X62599Y-33029D01*
X62620Y-33093D01*
X62648Y-33149D01*
X62669Y-33191D01*
X62683Y-33219D01*
X62690Y-33226D01*
X62740Y-33297D01*
X62803Y-33360D01*
X62866Y-33409D01*
X62930Y-33451D01*
X62986Y-33479D01*
X63028Y-33501D01*
X63056Y-33515D01*
X63070Y-33522D01*
X63169Y-33550D01*
X63281Y-33571D01*
X63394Y-33585D01*
X63506Y-33592D01*
X63605Y-33599D01*
X63689Y-33606D01*
X65139D01*
Y-31995D01*
D02*
G37*
G36*
X48375Y-163313D02*
X46841D01*
X46651Y-163320D01*
X46489Y-163348D01*
X46348Y-163383D01*
X46243Y-163426D01*
X46151Y-163468D01*
X46095Y-163503D01*
X46060Y-163531D01*
X46046Y-163538D01*
X45961Y-163630D01*
X45898Y-163721D01*
X45856Y-163820D01*
X45821Y-163904D01*
X45807Y-163988D01*
X45800Y-164052D01*
X45793Y-164094D01*
Y-164101D01*
Y-164108D01*
X45800Y-164193D01*
X45814Y-164277D01*
X45835Y-164347D01*
X45856Y-164411D01*
X45884Y-164467D01*
X45905Y-164509D01*
X45919Y-164537D01*
X45926Y-164544D01*
X45975Y-164615D01*
X46039Y-164678D01*
X46102Y-164727D01*
X46165Y-164769D01*
X46222Y-164797D01*
X46264Y-164819D01*
X46292Y-164833D01*
X46306Y-164840D01*
X46405Y-164868D01*
X46517Y-164889D01*
X46630Y-164903D01*
X46742Y-164910D01*
X46841Y-164917D01*
X46925Y-164924D01*
X48375D01*
Y-163313D01*
D02*
G37*
G36*
X42458Y-163278D02*
X42408Y-163440D01*
X42352Y-163608D01*
X42296Y-163777D01*
X42239Y-163939D01*
X42211Y-164009D01*
X42190Y-164080D01*
X42169Y-164143D01*
X42148Y-164193D01*
X42134Y-164235D01*
X42120Y-164270D01*
X42113Y-164291D01*
Y-164298D01*
X41606Y-165635D01*
X43253D01*
X42725Y-164214D01*
X42662Y-164038D01*
X42612Y-163869D01*
X42563Y-163714D01*
X42528Y-163573D01*
X42500Y-163454D01*
X42486Y-163404D01*
X42479Y-163355D01*
X42465Y-163327D01*
Y-163299D01*
X42458Y-163285D01*
Y-163278D01*
D02*
G37*
G36*
X110351Y-164329D02*
X108817D01*
X108627Y-164336D01*
X108465Y-164364D01*
X108324Y-164399D01*
X108219Y-164442D01*
X108127Y-164484D01*
X108071Y-164519D01*
X108036Y-164547D01*
X108022Y-164554D01*
X107937Y-164646D01*
X107874Y-164737D01*
X107832Y-164836D01*
X107797Y-164920D01*
X107783Y-165004D01*
X107776Y-165068D01*
X107769Y-165110D01*
Y-165117D01*
Y-165124D01*
X107776Y-165208D01*
X107790Y-165293D01*
X107811Y-165363D01*
X107832Y-165427D01*
X107860Y-165483D01*
X107881Y-165525D01*
X107895Y-165553D01*
X107902Y-165560D01*
X107951Y-165631D01*
X108015Y-165694D01*
X108078Y-165743D01*
X108141Y-165785D01*
X108198Y-165814D01*
X108240Y-165835D01*
X108268Y-165849D01*
X108282Y-165856D01*
X108381Y-165884D01*
X108493Y-165905D01*
X108606Y-165919D01*
X108718Y-165926D01*
X108817Y-165933D01*
X108901Y-165940D01*
X110351D01*
Y-164329D01*
D02*
G37*
G36*
X104434Y-164294D02*
X104384Y-164456D01*
X104328Y-164625D01*
X104272Y-164793D01*
X104215Y-164955D01*
X104187Y-165026D01*
X104166Y-165096D01*
X104145Y-165159D01*
X104124Y-165208D01*
X104110Y-165251D01*
X104096Y-165286D01*
X104089Y-165307D01*
Y-165314D01*
X103582Y-166651D01*
X105229D01*
X104701Y-165230D01*
X104638Y-165054D01*
X104588Y-164885D01*
X104539Y-164730D01*
X104504Y-164589D01*
X104476Y-164470D01*
X104462Y-164420D01*
X104455Y-164371D01*
X104441Y-164343D01*
Y-164315D01*
X104434Y-164301D01*
Y-164294D01*
D02*
G37*
G36*
X115549Y-200073D02*
X115507D01*
X115430Y-200080D01*
X115352Y-200087D01*
X115282Y-200108D01*
X115218Y-200136D01*
X115099Y-200199D01*
X114993Y-200270D01*
X114916Y-200347D01*
X114853Y-200410D01*
X114831Y-200438D01*
X114817Y-200460D01*
X114803Y-200467D01*
Y-200474D01*
X114754Y-200558D01*
X114712Y-200657D01*
X114670Y-200769D01*
X114642Y-200889D01*
X114613Y-201015D01*
X114592Y-201149D01*
X114557Y-201416D01*
X114543Y-201550D01*
X114536Y-201670D01*
X114529Y-201782D01*
Y-201874D01*
X114522Y-201958D01*
Y-202022D01*
Y-202057D01*
Y-202064D01*
Y-202071D01*
Y-202289D01*
X114536Y-202486D01*
X114550Y-202662D01*
X114564Y-202831D01*
X114585Y-202971D01*
X114613Y-203105D01*
X114642Y-203218D01*
X114663Y-203323D01*
X114691Y-203408D01*
X114719Y-203478D01*
X114740Y-203541D01*
X114768Y-203591D01*
X114782Y-203626D01*
X114796Y-203647D01*
X114810Y-203661D01*
Y-203668D01*
X114867Y-203738D01*
X114923Y-203795D01*
X114979Y-203851D01*
X115036Y-203893D01*
X115155Y-203963D01*
X115261Y-204013D01*
X115359Y-204041D01*
X115430Y-204055D01*
X115458Y-204062D01*
X115500D01*
X115577Y-204055D01*
X115648Y-204048D01*
X115781Y-203999D01*
X115901Y-203935D01*
X116006Y-203865D01*
X116084Y-203795D01*
X116147Y-203731D01*
X116182Y-203682D01*
X116196Y-203675D01*
Y-203668D01*
X116246Y-203584D01*
X116288Y-203485D01*
X116330Y-203372D01*
X116358Y-203253D01*
X116386Y-203126D01*
X116408Y-202992D01*
X116443Y-202718D01*
X116457Y-202591D01*
X116464Y-202472D01*
X116471Y-202359D01*
Y-202268D01*
X116478Y-202183D01*
Y-202120D01*
Y-202085D01*
Y-202071D01*
X116471Y-201853D01*
X116464Y-201656D01*
X116450Y-201473D01*
X116429Y-201304D01*
X116408Y-201156D01*
X116379Y-201022D01*
X116351Y-200903D01*
X116323Y-200797D01*
X116295Y-200706D01*
X116274Y-200629D01*
X116246Y-200565D01*
X116225Y-200509D01*
X116203Y-200474D01*
X116189Y-200445D01*
X116175Y-200431D01*
Y-200424D01*
X116126Y-200361D01*
X116077Y-200305D01*
X116021Y-200263D01*
X115964Y-200220D01*
X115852Y-200157D01*
X115746Y-200115D01*
X115655Y-200094D01*
X115577Y-200080D01*
X115549Y-200073D01*
D02*
G37*
G36*
X133226Y-385457D02*
X133184D01*
X133036Y-385471D01*
X132902Y-385499D01*
X132783Y-385549D01*
X132677Y-385605D01*
X132600Y-385654D01*
X132536Y-385703D01*
X132501Y-385732D01*
X132487Y-385746D01*
X132396Y-385858D01*
X132325Y-385985D01*
X132283Y-386111D01*
X132248Y-386231D01*
X132227Y-386337D01*
X132220Y-386379D01*
Y-386421D01*
X132213Y-386456D01*
Y-386477D01*
Y-386491D01*
Y-386498D01*
X132227Y-386681D01*
X132255Y-386850D01*
X132304Y-386998D01*
X132361Y-387118D01*
X132410Y-387216D01*
X132459Y-387286D01*
X132473Y-387308D01*
X132487Y-387329D01*
X132501Y-387336D01*
Y-387343D01*
X132558Y-387399D01*
X132614Y-387455D01*
X132733Y-387533D01*
X132853Y-387596D01*
X132966Y-387631D01*
X133057Y-387659D01*
X133134Y-387666D01*
X133163Y-387673D01*
X133275D01*
X133346Y-387659D01*
X133472Y-387624D01*
X133585Y-387575D01*
X133683Y-387526D01*
X133761Y-387469D01*
X133817Y-387420D01*
X133852Y-387385D01*
X133866Y-387378D01*
Y-387371D01*
X133958Y-387251D01*
X134028Y-387118D01*
X134077Y-386977D01*
X134105Y-386843D01*
X134127Y-386731D01*
X134134Y-386681D01*
Y-386632D01*
X134141Y-386597D01*
Y-386569D01*
Y-386555D01*
Y-386548D01*
X134127Y-386365D01*
X134098Y-386203D01*
X134056Y-386069D01*
X134007Y-385957D01*
X133951Y-385865D01*
X133908Y-385802D01*
X133880Y-385760D01*
X133866Y-385746D01*
X133761Y-385647D01*
X133648Y-385577D01*
X133535Y-385527D01*
X133423Y-385492D01*
X133331Y-385471D01*
X133254Y-385464D01*
X133226Y-385457D01*
D02*
G37*
G36*
X19512Y-340280D02*
X19456D01*
X19337Y-340288D01*
X19224Y-340316D01*
X19132Y-340351D01*
X19048Y-340393D01*
X18985Y-340435D01*
X18936Y-340471D01*
X18900Y-340499D01*
X18893Y-340506D01*
X18816Y-340597D01*
X18760Y-340689D01*
X18717Y-340780D01*
X18689Y-340864D01*
X18675Y-340942D01*
X18661Y-341005D01*
Y-341048D01*
Y-341054D01*
Y-341062D01*
X18668Y-341174D01*
X18696Y-341280D01*
X18731Y-341371D01*
X18774Y-341449D01*
X18816Y-341512D01*
X18851Y-341554D01*
X18879Y-341589D01*
X18886Y-341596D01*
X18971Y-341667D01*
X19069Y-341723D01*
X19161Y-341758D01*
X19252Y-341786D01*
X19337Y-341800D01*
X19400Y-341807D01*
X19442Y-341814D01*
X19456D01*
X19583Y-341807D01*
X19695Y-341779D01*
X19794Y-341744D01*
X19878Y-341702D01*
X19942Y-341667D01*
X19991Y-341631D01*
X20026Y-341603D01*
X20033Y-341596D01*
X20103Y-341512D01*
X20160Y-341413D01*
X20195Y-341322D01*
X20223Y-341230D01*
X20237Y-341153D01*
X20244Y-341090D01*
X20251Y-341048D01*
Y-341040D01*
Y-341033D01*
X20244Y-340921D01*
X20216Y-340822D01*
X20181Y-340731D01*
X20139Y-340653D01*
X20103Y-340590D01*
X20068Y-340541D01*
X20040Y-340513D01*
X20033Y-340506D01*
X19942Y-340428D01*
X19850Y-340372D01*
X19752Y-340337D01*
X19660Y-340309D01*
X19576Y-340295D01*
X19512Y-340280D01*
D02*
G37*
G36*
X19519Y-342300D02*
X19477D01*
X19323Y-342314D01*
X19182Y-342342D01*
X19055Y-342391D01*
X18950Y-342440D01*
X18865Y-342497D01*
X18802Y-342546D01*
X18767Y-342574D01*
X18753Y-342588D01*
X18654Y-342701D01*
X18584Y-342821D01*
X18534Y-342940D01*
X18499Y-343046D01*
X18478Y-343151D01*
X18471Y-343228D01*
X18464Y-343257D01*
Y-343278D01*
Y-343292D01*
Y-343299D01*
X18478Y-343447D01*
X18506Y-343587D01*
X18556Y-343707D01*
X18605Y-343806D01*
X18654Y-343883D01*
X18703Y-343946D01*
X18731Y-343981D01*
X18746Y-343996D01*
X18858Y-344087D01*
X18971Y-344157D01*
X19090Y-344199D01*
X19203Y-344235D01*
X19301Y-344256D01*
X19386Y-344263D01*
X19414Y-344270D01*
X19456D01*
X19555Y-344263D01*
X19653Y-344249D01*
X19745Y-344228D01*
X19822Y-344207D01*
X19885Y-344185D01*
X19935Y-344164D01*
X19963Y-344150D01*
X19977Y-344143D01*
X20061Y-344087D01*
X20132Y-344031D01*
X20195Y-343967D01*
X20244Y-343904D01*
X20286Y-343855D01*
X20315Y-343812D01*
X20329Y-343777D01*
X20336Y-343770D01*
X20371Y-343679D01*
X20399Y-343594D01*
X20420Y-343510D01*
X20434Y-343433D01*
X20441Y-343369D01*
X20448Y-343320D01*
Y-343292D01*
Y-343278D01*
X20434Y-343130D01*
X20406Y-342996D01*
X20364Y-342877D01*
X20308Y-342771D01*
X20258Y-342694D01*
X20216Y-342631D01*
X20188Y-342595D01*
X20174Y-342581D01*
X20068Y-342490D01*
X19949Y-342419D01*
X19836Y-342370D01*
X19724Y-342335D01*
X19625Y-342314D01*
X19548Y-342307D01*
X19519Y-342300D01*
D02*
G37*
G36*
X91091Y-29749D02*
X91049D01*
X90901Y-29763D01*
X90768Y-29798D01*
X90655Y-29840D01*
X90556Y-29896D01*
X90479Y-29953D01*
X90423Y-29995D01*
X90388Y-30030D01*
X90374Y-30044D01*
X90282Y-30164D01*
X90212Y-30290D01*
X90162Y-30424D01*
X90134Y-30551D01*
X90113Y-30663D01*
X90106Y-30712D01*
Y-30755D01*
X90099Y-30790D01*
Y-30818D01*
Y-30832D01*
Y-30839D01*
X90113Y-31029D01*
X90141Y-31191D01*
X90184Y-31332D01*
X90233Y-31451D01*
X90289Y-31543D01*
X90331Y-31613D01*
X90359Y-31655D01*
X90374Y-31662D01*
Y-31669D01*
X90423Y-31726D01*
X90479Y-31768D01*
X90592Y-31845D01*
X90704Y-31895D01*
X90803Y-31937D01*
X90894Y-31958D01*
X90965Y-31965D01*
X90993Y-31972D01*
X91028D01*
X91126Y-31965D01*
X91218Y-31951D01*
X91302Y-31923D01*
X91373Y-31895D01*
X91436Y-31873D01*
X91485Y-31845D01*
X91513Y-31831D01*
X91527Y-31824D01*
X91612Y-31761D01*
X91682Y-31697D01*
X91746Y-31620D01*
X91795Y-31557D01*
X91837Y-31493D01*
X91865Y-31444D01*
X91886Y-31409D01*
X91893Y-31395D01*
X91936Y-31289D01*
X91964Y-31184D01*
X91992Y-31085D01*
X92006Y-30994D01*
X92013Y-30917D01*
X92020Y-30853D01*
Y-30818D01*
Y-30804D01*
X92006Y-30635D01*
X91978Y-30487D01*
X91929Y-30354D01*
X91879Y-30248D01*
X91830Y-30157D01*
X91781Y-30093D01*
X91753Y-30058D01*
X91739Y-30044D01*
X91626Y-29946D01*
X91513Y-29875D01*
X91394Y-29819D01*
X91288Y-29784D01*
X91190Y-29763D01*
X91119Y-29756D01*
X91091Y-29749D01*
D02*
G37*
G36*
X37936Y-131992D02*
Y-134173D01*
X39469D01*
X37936Y-131992D01*
D02*
G37*
%LPD*%
D11*
X90630Y-112522D02*
G03*
X90630Y-112522I-1250J0D01*
G01*
X111232Y-245570D02*
G03*
X111232Y-245570I-1250J0D01*
G01*
X116820Y14458D02*
G03*
X116820Y14458I-1250J0D01*
G01*
X137120Y-102362D02*
G03*
X137120Y-102362I-1250J0D01*
G01*
X117328Y-46248D02*
G03*
X117328Y-46248I-1250J0D01*
G01*
D12*
X86982Y-253070D02*
G03*
X86982Y-253070I-3000J0D01*
G01*
D14*
X22380Y-100272D02*
Y-61272D01*
X89380Y-100272D02*
Y-61272D01*
X22380D02*
X89380D01*
X22380Y-100272D02*
X89380D01*
X59982Y-348070D02*
X93982D01*
X59982Y-243070D02*
X93982D01*
X59982Y-348070D02*
Y-243070D01*
X93982Y-348070D02*
Y-243070D01*
X136680Y-22352D02*
X138430D01*
X136680Y8128D02*
X138430D01*
Y-22352D02*
Y8128D01*
X115570D02*
X116840D01*
X115570Y-22352D02*
X116840D01*
X115570D02*
Y8128D01*
X99060Y-125222D02*
Y-123472D01*
X129540Y-125222D02*
Y-123472D01*
X99060Y-125222D02*
X129540D01*
Y-103632D02*
Y-102362D01*
X99060Y-103632D02*
Y-102362D01*
X129540D01*
X137188Y-83058D02*
X138938D01*
X137188Y-52578D02*
X138938D01*
Y-83058D02*
Y-52578D01*
X116078D02*
X117348D01*
X116078Y-83058D02*
X117348D01*
X116078D02*
Y-52578D01*
D16*
X26542Y-175928D02*
X57784D01*
X26542Y-185928D02*
X57784D01*
X25780D02*
Y-175928D01*
X57784Y-185928D02*
Y-175928D01*
X90802D02*
X122044D01*
X90802Y-185928D02*
X122044D01*
X90040D02*
Y-175928D01*
X122044Y-185928D02*
Y-175928D01*
X170180Y-406400D02*
Y25400D01*
X-15240Y-406400D02*
X170180D01*
X-15240Y25400D02*
X170180D01*
X-15240Y-406400D02*
Y25400D01*
M02*
