G04*
G04 #@! TF.GenerationSoftware,Altium Limited,Altium Designer,19.1.7 (138)*
G04*
G04 Layer_Physical_Order=6*
G04 Layer_Color=16711680*
%FSLAX44Y44*%
%MOMM*%
G71*
G01*
G75*
%ADD15C,0.2540*%
%ADD16C,0.1524*%
%ADD41C,1.4500*%
G04:AMPARAMS|DCode=42|XSize=0.6mm|YSize=1.3mm|CornerRadius=0.15mm|HoleSize=0mm|Usage=FLASHONLY|Rotation=0.000|XOffset=0mm|YOffset=0mm|HoleType=Round|Shape=RoundedRectangle|*
%AMROUNDEDRECTD42*
21,1,0.6000,1.0000,0,0,0.0*
21,1,0.3000,1.3000,0,0,0.0*
1,1,0.3000,0.1500,-0.5000*
1,1,0.3000,-0.1500,-0.5000*
1,1,0.3000,-0.1500,0.5000*
1,1,0.3000,0.1500,0.5000*
%
%ADD42ROUNDEDRECTD42*%
%ADD43C,2.0000*%
%ADD44R,1.5500X1.5500*%
%ADD45C,1.5500*%
%ADD46C,0.3810*%
%ADD53R,1.3500X1.4500*%
%ADD54R,0.5000X0.5746*%
%ADD55R,0.5000X0.6000*%
%ADD56R,1.4500X1.3500*%
%ADD57R,3.2000X1.8500*%
%ADD58R,1.0000X1.8500*%
%ADD59O,2.4000X0.4500*%
%ADD60R,1.5000X1.9500*%
%ADD61R,1.9500X1.5000*%
G36*
X170180Y25654D02*
Y-406908D01*
X-15240D01*
X-15748Y-406400D01*
Y25908D01*
X-13839D01*
X-12192Y25908D01*
X-12192Y25908D01*
X170075D01*
X170180Y25654D01*
D02*
G37*
%LPC*%
G36*
X58420Y20024D02*
X55933Y19697D01*
X53615Y18737D01*
X51625Y17209D01*
X50097Y15219D01*
X49137Y12901D01*
X48810Y10414D01*
X49137Y7927D01*
X50097Y5609D01*
X51625Y3619D01*
X53615Y2091D01*
X55933Y1131D01*
X58420Y804D01*
X60907Y1131D01*
X63225Y2091D01*
X65215Y3619D01*
X66743Y5609D01*
X67703Y7927D01*
X68030Y10414D01*
X67703Y12901D01*
X66743Y15219D01*
X65215Y17209D01*
X63225Y18737D01*
X60907Y19697D01*
X58420Y20024D01*
D02*
G37*
G36*
X33020D02*
X30533Y19697D01*
X28215Y18737D01*
X26225Y17209D01*
X24697Y15219D01*
X23737Y12901D01*
X23410Y10414D01*
X23737Y7927D01*
X24697Y5609D01*
X26225Y3619D01*
X28215Y2091D01*
X30533Y1131D01*
X33020Y804D01*
X35507Y1131D01*
X37825Y2091D01*
X39815Y3619D01*
X41343Y5609D01*
X42303Y7927D01*
X42630Y10414D01*
X42303Y12901D01*
X41343Y15219D01*
X39815Y17209D01*
X37825Y18737D01*
X35507Y19697D01*
X33020Y20024D01*
D02*
G37*
G36*
X136278Y18166D02*
X117722D01*
Y-4890D01*
X119224D01*
X120174Y-6668D01*
X119765Y-7280D01*
X119508Y-8572D01*
X116960D01*
Y-19592D01*
X127000D01*
X137040D01*
Y-8572D01*
X129416D01*
X128874Y-7964D01*
X128590Y-7179D01*
X129629Y-5648D01*
X138992D01*
X139533Y-6009D01*
X140970Y-6295D01*
X142407Y-6009D01*
X143625Y-5195D01*
X144439Y-3977D01*
X144725Y-2540D01*
X144439Y-1103D01*
X143625Y115D01*
X142407Y929D01*
X140970Y1215D01*
X139533Y929D01*
X138992Y568D01*
X136278D01*
Y18166D01*
D02*
G37*
G36*
X93348Y19942D02*
X74292D01*
Y4773D01*
X69939Y419D01*
X69265Y-589D01*
X69028Y-1778D01*
Y-11053D01*
X67250Y-11406D01*
X66743Y-10181D01*
X65215Y-8191D01*
X63225Y-6663D01*
X60907Y-5703D01*
X58420Y-5376D01*
X55933Y-5703D01*
X53615Y-6663D01*
X51625Y-8191D01*
X50097Y-10181D01*
X49137Y-12499D01*
X48810Y-14986D01*
X49137Y-17473D01*
X50097Y-19791D01*
X51625Y-21781D01*
X53615Y-23309D01*
X55933Y-24269D01*
X58420Y-24596D01*
X60351Y-24342D01*
X61306Y-25452D01*
X61401Y-25591D01*
X61521Y-25911D01*
X61269Y-27178D01*
X61555Y-28615D01*
X62369Y-29833D01*
X63587Y-30647D01*
X65024Y-30933D01*
X66461Y-30647D01*
X67679Y-29833D01*
X68493Y-28615D01*
X68620Y-27977D01*
X74334Y-22264D01*
X74715Y-21692D01*
X76247Y-21400D01*
X76779Y-21461D01*
X77025Y-21781D01*
X79015Y-23309D01*
X81333Y-24269D01*
X83820Y-24596D01*
X86307Y-24269D01*
X88625Y-23309D01*
X90615Y-21781D01*
X92143Y-19791D01*
X93103Y-17473D01*
X93430Y-14986D01*
X93103Y-12499D01*
X92143Y-10181D01*
X90615Y-8191D01*
X88625Y-6663D01*
X86307Y-5703D01*
X83820Y-5376D01*
X81333Y-5703D01*
X79015Y-6663D01*
X77025Y-8191D01*
X77022Y-8194D01*
X75244Y-7591D01*
Y-3065D01*
X79195Y886D01*
X93348D01*
Y19942D01*
D02*
G37*
G36*
X34290Y-4774D02*
Y-13716D01*
X43232D01*
X43045Y-12300D01*
X42008Y-9797D01*
X40359Y-7647D01*
X38209Y-5998D01*
X35706Y-4961D01*
X34290Y-4774D01*
D02*
G37*
G36*
X31750D02*
X30334Y-4961D01*
X27831Y-5998D01*
X25681Y-7647D01*
X24032Y-9797D01*
X22995Y-12300D01*
X22808Y-13716D01*
X31750D01*
Y-4774D01*
D02*
G37*
G36*
X43232Y-16256D02*
X34290D01*
Y-25198D01*
X35706Y-25011D01*
X38209Y-23974D01*
X40359Y-22325D01*
X42008Y-20175D01*
X43045Y-17672D01*
X43232Y-16256D01*
D02*
G37*
G36*
X31750D02*
X22808D01*
X22995Y-17672D01*
X24032Y-20175D01*
X25681Y-22325D01*
X27831Y-23974D01*
X30334Y-25011D01*
X31750Y-25198D01*
Y-16256D01*
D02*
G37*
G36*
X154940Y-15552D02*
X151865Y-15957D01*
X149000Y-17144D01*
X146540Y-19032D01*
X144652Y-21492D01*
X143465Y-24357D01*
X143060Y-27432D01*
X143465Y-30507D01*
X144652Y-33372D01*
X144852Y-33633D01*
X139937Y-38548D01*
X131592D01*
X130692Y-36770D01*
X131187Y-36029D01*
X131532Y-34295D01*
X132470Y-33152D01*
X137040D01*
Y-22132D01*
X127000D01*
X116960D01*
Y-33152D01*
X121530D01*
X122468Y-34295D01*
X122813Y-36029D01*
X123795Y-37500D01*
X124418Y-37916D01*
X124571Y-38180D01*
X124879Y-39998D01*
X124835Y-40170D01*
X124637Y-40467D01*
X124400Y-41656D01*
Y-42540D01*
X118230D01*
Y-49028D01*
X116587Y-49708D01*
X112179Y-45300D01*
X111171Y-44627D01*
X109982Y-44390D01*
X108850D01*
Y-38462D01*
X90794D01*
Y-44390D01*
X90170D01*
X88981Y-44627D01*
X87972Y-45300D01*
X77494Y-55779D01*
X76820Y-56787D01*
X76584Y-57976D01*
Y-89799D01*
X75247Y-90711D01*
Y-95379D01*
X73976D01*
Y-96649D01*
X69697D01*
X69789Y-97113D01*
X70772Y-98583D01*
X72242Y-99566D01*
X72998Y-99716D01*
X72823Y-101494D01*
X72102D01*
Y-106882D01*
X70324Y-107832D01*
X70314Y-107825D01*
X68877Y-107540D01*
X67440Y-107825D01*
X66221Y-108639D01*
X65407Y-109858D01*
X65121Y-111295D01*
X65407Y-112732D01*
X66221Y-113950D01*
X67440Y-114764D01*
X68877Y-115050D01*
X70314Y-114764D01*
X70324Y-114757D01*
X72102Y-115707D01*
X72102Y-123550D01*
X70676Y-124400D01*
X64084D01*
X62658Y-123550D01*
Y-101494D01*
X58988D01*
Y-97503D01*
X59349Y-96962D01*
X59635Y-95525D01*
X59349Y-94088D01*
X58535Y-92870D01*
X57317Y-92056D01*
X55880Y-91770D01*
X54443Y-92056D01*
X53225Y-92870D01*
X52411Y-94088D01*
X52125Y-95525D01*
X52411Y-96962D01*
X52772Y-97503D01*
Y-101494D01*
X50098D01*
Y-76962D01*
X49861Y-75773D01*
X49187Y-74764D01*
X25566Y-51143D01*
X24557Y-50469D01*
X23368Y-50232D01*
X11537D01*
X11475Y-49757D01*
X10288Y-46892D01*
X8400Y-44432D01*
X5940Y-42544D01*
X3075Y-41357D01*
X1166Y-41106D01*
X580Y-41029D01*
Y-39235D01*
X1166Y-39158D01*
X3075Y-38907D01*
X5940Y-37720D01*
X8400Y-35832D01*
X10288Y-33372D01*
X11475Y-30507D01*
X11880Y-27432D01*
X11475Y-24357D01*
X10288Y-21492D01*
X8400Y-19032D01*
X5940Y-17144D01*
X3075Y-15957D01*
X0Y-15552D01*
X-3075Y-15957D01*
X-5940Y-17144D01*
X-8400Y-19032D01*
X-10288Y-21492D01*
X-11475Y-24357D01*
X-11880Y-27432D01*
X-11475Y-30507D01*
X-10288Y-33372D01*
X-8400Y-35832D01*
X-5940Y-37720D01*
X-3075Y-38907D01*
X-1166Y-39158D01*
X-580Y-39235D01*
Y-41029D01*
X-1166Y-41106D01*
X-3075Y-41357D01*
X-5940Y-42544D01*
X-8400Y-44432D01*
X-10288Y-46892D01*
X-11475Y-49757D01*
X-11880Y-52832D01*
X-11475Y-55907D01*
X-10288Y-58772D01*
X-8400Y-61232D01*
X-5940Y-63120D01*
X-3075Y-64307D01*
X-1166Y-64558D01*
X-580Y-64635D01*
Y-66429D01*
X-1166Y-66506D01*
X-3075Y-66757D01*
X-5940Y-67944D01*
X-8400Y-69832D01*
X-10288Y-72292D01*
X-11475Y-75157D01*
X-11880Y-78232D01*
X-11475Y-81307D01*
X-10288Y-84172D01*
X-8400Y-86632D01*
X-5940Y-88520D01*
X-3279Y-89622D01*
X-3126Y-90149D01*
X-3274Y-91415D01*
X-6324Y-92678D01*
X-8944Y-94688D01*
X-10954Y-97308D01*
X-12217Y-100358D01*
X-12481Y-102362D01*
X0D01*
X12481D01*
X12217Y-100358D01*
X10954Y-97308D01*
X8944Y-94688D01*
X6324Y-92678D01*
X3274Y-91415D01*
X3126Y-90149D01*
X3279Y-89622D01*
X5940Y-88520D01*
X8400Y-86632D01*
X10288Y-84172D01*
X11475Y-81307D01*
X11880Y-78232D01*
X11475Y-75157D01*
X10288Y-72292D01*
X8400Y-69832D01*
X5940Y-67944D01*
X3075Y-66757D01*
X1166Y-66506D01*
X580Y-66429D01*
Y-64635D01*
X1166Y-64558D01*
X3075Y-64307D01*
X5940Y-63120D01*
X8400Y-61232D01*
X10288Y-58772D01*
X11251Y-56448D01*
X22081D01*
X43882Y-78249D01*
Y-124968D01*
X44119Y-126157D01*
X44792Y-127165D01*
X47333Y-129705D01*
X48341Y-130379D01*
X49530Y-130616D01*
X88883D01*
X98872Y-140605D01*
Y-157432D01*
X97230Y-158113D01*
X89387Y-150270D01*
X89260Y-149632D01*
X88446Y-148413D01*
X87228Y-147599D01*
X85791Y-147313D01*
X84354Y-147599D01*
X83135Y-148413D01*
X82321Y-149632D01*
X82035Y-151068D01*
X82321Y-152506D01*
X83135Y-153724D01*
X84354Y-154538D01*
X84309Y-156282D01*
X84245Y-156433D01*
X83653Y-156551D01*
X82435Y-157365D01*
X81621Y-158583D01*
X81494Y-159221D01*
X76723Y-163992D01*
X74609Y-163681D01*
X74159Y-162899D01*
X74251Y-162435D01*
X65693D01*
X65785Y-162899D01*
X65164Y-163969D01*
X63171Y-164433D01*
X63159Y-164425D01*
X62521Y-164298D01*
X57189Y-158966D01*
X56312Y-158380D01*
X56297Y-158251D01*
X57386Y-156602D01*
X61350D01*
Y-148082D01*
X52060D01*
Y-146812D01*
X50790D01*
Y-137022D01*
X42770D01*
Y-137784D01*
X38752D01*
X38035Y-136885D01*
X32880D01*
Y-135615D01*
X31610D01*
Y-131336D01*
X31146Y-131428D01*
X29675Y-132410D01*
X28891Y-133584D01*
X27534Y-133447D01*
X27113Y-133289D01*
Y-124312D01*
X31610D01*
Y-112522D01*
Y-100732D01*
X27113D01*
Y-91134D01*
X31007Y-87239D01*
X34598D01*
X35139Y-87601D01*
X36576Y-87887D01*
X38013Y-87601D01*
X39231Y-86787D01*
X40045Y-85568D01*
X40331Y-84131D01*
X40045Y-82694D01*
X39231Y-81476D01*
X38013Y-80662D01*
X36576Y-80376D01*
X35139Y-80662D01*
X34598Y-81024D01*
X29720D01*
X28531Y-81260D01*
X27523Y-81934D01*
X21808Y-87649D01*
X21134Y-88657D01*
X21010Y-89280D01*
X19197D01*
X19126Y-88924D01*
X18144Y-87454D01*
X16674Y-86472D01*
X16209Y-86379D01*
Y-90659D01*
Y-94938D01*
X16674Y-94846D01*
X18144Y-93863D01*
X19126Y-92393D01*
X20897Y-92604D01*
Y-124686D01*
X19558Y-125785D01*
X18121Y-126071D01*
X16903Y-126885D01*
X16089Y-128103D01*
X15803Y-129540D01*
X16089Y-130977D01*
X16903Y-132195D01*
X18121Y-133009D01*
X19558Y-133295D01*
X20897Y-134394D01*
Y-145686D01*
X19119Y-146636D01*
X18963Y-146532D01*
X17526Y-146246D01*
X16089Y-146532D01*
X14871Y-147346D01*
X14057Y-148564D01*
X13771Y-150001D01*
X14057Y-151438D01*
X14871Y-152656D01*
X16089Y-153470D01*
X17526Y-153756D01*
X18963Y-153470D01*
X19119Y-153366D01*
X20897Y-154317D01*
Y-162953D01*
X21134Y-164142D01*
X21808Y-165150D01*
X25026Y-168368D01*
X25442Y-169974D01*
X25442D01*
Y-179530D01*
X49998D01*
Y-179403D01*
X57998D01*
Y-178368D01*
X69850D01*
X71039Y-178131D01*
X72048Y-177458D01*
X82324Y-167181D01*
X82977Y-167223D01*
X84385Y-167635D01*
X84522Y-167840D01*
Y-198357D01*
X75629Y-207250D01*
X67426D01*
Y-211330D01*
X65783Y-212010D01*
X60161Y-206388D01*
X60746Y-204459D01*
X61127Y-204383D01*
X62345Y-203569D01*
X63159Y-202351D01*
X63445Y-200914D01*
X63242Y-199894D01*
X63969Y-198581D01*
X64388Y-198116D01*
X73579D01*
X73874Y-198411D01*
X74001Y-199049D01*
X74815Y-200267D01*
X76033Y-201081D01*
X77470Y-201367D01*
X78907Y-201081D01*
X80125Y-200267D01*
X80939Y-199049D01*
X81225Y-197612D01*
X80939Y-196175D01*
X80125Y-194957D01*
X78907Y-194143D01*
X78269Y-194016D01*
X77064Y-192811D01*
X76056Y-192137D01*
X74866Y-191901D01*
X68324D01*
X67349Y-190159D01*
X67357Y-190123D01*
X67635Y-188722D01*
X67349Y-187285D01*
X66535Y-186067D01*
X65317Y-185253D01*
X64408Y-185072D01*
X64053Y-184835D01*
X62864Y-184598D01*
X57998D01*
Y-182420D01*
X25442D01*
Y-191976D01*
X26612D01*
Y-195580D01*
X26849Y-196769D01*
X27523Y-197778D01*
X34204Y-204459D01*
X33524Y-206102D01*
X24246D01*
Y-214122D01*
X43826D01*
Y-208276D01*
X53259D01*
X62170Y-217187D01*
Y-256540D01*
X62407Y-257729D01*
X63081Y-258738D01*
X81638Y-277295D01*
X81768Y-277812D01*
X81434Y-279488D01*
X80712Y-279899D01*
X79756Y-279709D01*
X78319Y-279995D01*
X77101Y-280809D01*
X76287Y-282027D01*
X76001Y-283464D01*
X76287Y-284901D01*
X77101Y-286119D01*
X78319Y-286933D01*
X78699Y-287009D01*
X79285Y-288938D01*
X76594Y-291629D01*
X76127Y-291569D01*
X74780Y-290929D01*
X74589Y-289971D01*
X73775Y-288753D01*
X72557Y-287939D01*
X71919Y-287812D01*
X68238Y-284131D01*
X67229Y-283457D01*
X66040Y-283220D01*
X58101D01*
X57193Y-281507D01*
X57304Y-281224D01*
X57526Y-280891D01*
X57839Y-279320D01*
X57526Y-277748D01*
X56740Y-276571D01*
X57186Y-276273D01*
X58244Y-274689D01*
X58544Y-273181D01*
X59627Y-272463D01*
X60310Y-272223D01*
X60843Y-272579D01*
X61307Y-272671D01*
Y-268392D01*
Y-264112D01*
X60843Y-264205D01*
X59372Y-265187D01*
X57527Y-264749D01*
X57526Y-264748D01*
X56636Y-263416D01*
Y-262724D01*
X57526Y-261392D01*
X57839Y-259820D01*
X57526Y-258249D01*
X57304Y-257916D01*
X56773Y-256570D01*
X57304Y-255224D01*
X57526Y-254891D01*
X57839Y-253320D01*
X57526Y-251748D01*
X56636Y-250416D01*
X55304Y-249526D01*
X54927Y-249451D01*
Y-247638D01*
X55074Y-247609D01*
X56545Y-246626D01*
X57527Y-245156D01*
X57619Y-244691D01*
X53340D01*
Y-242151D01*
X57619D01*
X57527Y-241687D01*
X56545Y-240217D01*
X55737Y-239677D01*
X56030Y-238400D01*
X56294Y-237911D01*
X57571Y-237657D01*
X58789Y-236843D01*
X59603Y-235625D01*
X59889Y-234188D01*
X59603Y-232751D01*
X58789Y-231533D01*
X57571Y-230719D01*
X56134Y-230433D01*
X54697Y-230719D01*
X53479Y-231533D01*
X52665Y-232751D01*
X52379Y-234188D01*
X52665Y-235625D01*
X53479Y-236843D01*
X54035Y-237215D01*
X53341Y-238890D01*
X53340Y-238889D01*
X51606Y-239234D01*
X51490Y-239312D01*
X49712Y-238361D01*
Y-236220D01*
X49475Y-235031D01*
X48801Y-234023D01*
X44981Y-230202D01*
X43973Y-229529D01*
X43064Y-229348D01*
Y-224682D01*
X43826D01*
Y-216662D01*
X24246D01*
Y-224682D01*
X25008D01*
Y-240420D01*
X41600D01*
X41643Y-240440D01*
X42921Y-242198D01*
X42849Y-242560D01*
X43135Y-243997D01*
X43949Y-245215D01*
X45167Y-246029D01*
X46604Y-246315D01*
X48041Y-246029D01*
X48168Y-245944D01*
X49912Y-246291D01*
X50135Y-246626D01*
X51346Y-247435D01*
X51288Y-248526D01*
X51050Y-249213D01*
X34232D01*
X32661Y-249526D01*
X31328Y-250416D01*
X30438Y-251748D01*
X30125Y-253320D01*
X30438Y-254891D01*
X30660Y-255224D01*
X31191Y-256570D01*
X30660Y-257916D01*
X30438Y-258249D01*
X30125Y-259820D01*
X30438Y-261392D01*
X31328Y-262724D01*
Y-263416D01*
X30438Y-264748D01*
X30125Y-266320D01*
X30438Y-267892D01*
X31224Y-269069D01*
X30779Y-269366D01*
X29720Y-270951D01*
X29601Y-271550D01*
X43982D01*
Y-274090D01*
X29601D01*
X29720Y-274689D01*
X30779Y-276273D01*
X31224Y-276571D01*
X30438Y-277748D01*
X30125Y-279320D01*
X30438Y-280891D01*
X30660Y-281224D01*
X31191Y-282570D01*
X30660Y-283916D01*
X30438Y-284249D01*
X30125Y-285820D01*
X30438Y-287392D01*
X30806Y-287942D01*
X29862Y-289720D01*
X24875D01*
X18074Y-282919D01*
X17947Y-282281D01*
X17133Y-281063D01*
X15915Y-280249D01*
X14478Y-279963D01*
X13505Y-280156D01*
X11591Y-279242D01*
X11475Y-278357D01*
X10288Y-275492D01*
X8400Y-273032D01*
X5940Y-271144D01*
X3075Y-269957D01*
X1166Y-269706D01*
X580Y-269629D01*
Y-267835D01*
X1166Y-267758D01*
X3075Y-267507D01*
X5940Y-266320D01*
X8400Y-264432D01*
X10288Y-261972D01*
X11475Y-259107D01*
X11880Y-256032D01*
X11475Y-252957D01*
X10288Y-250092D01*
X8400Y-247632D01*
X5940Y-245744D01*
X3075Y-244557D01*
X1166Y-244306D01*
X580Y-244229D01*
Y-242435D01*
X1166Y-242358D01*
X3075Y-242107D01*
X5940Y-240920D01*
X8400Y-239032D01*
X10288Y-236572D01*
X11475Y-233707D01*
X11880Y-230632D01*
X11475Y-227557D01*
X10288Y-224692D01*
X8400Y-222232D01*
X5940Y-220344D01*
X3075Y-219157D01*
X1166Y-218906D01*
X580Y-218829D01*
Y-217035D01*
X1166Y-216958D01*
X3075Y-216707D01*
X5940Y-215520D01*
X8400Y-213632D01*
X10288Y-211172D01*
X11475Y-208307D01*
X11880Y-205232D01*
X11475Y-202157D01*
X10288Y-199292D01*
X8400Y-196832D01*
X5940Y-194944D01*
X3075Y-193757D01*
X1166Y-193506D01*
X580Y-193429D01*
Y-191635D01*
X1166Y-191558D01*
X3075Y-191307D01*
X5940Y-190120D01*
X8400Y-188232D01*
X10288Y-185772D01*
X11475Y-182907D01*
X11880Y-179832D01*
X11475Y-176757D01*
X10288Y-173892D01*
X8400Y-171432D01*
X5940Y-169544D01*
X3075Y-168357D01*
X1166Y-168106D01*
X580Y-168029D01*
Y-166235D01*
X1166Y-166158D01*
X3075Y-165907D01*
X5940Y-164720D01*
X8400Y-162832D01*
X10288Y-160372D01*
X11475Y-157507D01*
X11880Y-154432D01*
X11475Y-151357D01*
X10288Y-148492D01*
X8400Y-146032D01*
X5940Y-144144D01*
X3075Y-142957D01*
X1166Y-142706D01*
X580Y-142629D01*
Y-140835D01*
X1166Y-140758D01*
X3075Y-140507D01*
X5940Y-139320D01*
X8400Y-137432D01*
X10288Y-134972D01*
X11475Y-132107D01*
X11880Y-129032D01*
X11475Y-125957D01*
X10288Y-123092D01*
X8400Y-120632D01*
X5940Y-118744D01*
X3279Y-117642D01*
X3126Y-117115D01*
X3274Y-115849D01*
X6324Y-114586D01*
X8944Y-112576D01*
X10954Y-109956D01*
X12217Y-106906D01*
X12481Y-104902D01*
X0D01*
X-12481D01*
X-12217Y-106906D01*
X-10954Y-109956D01*
X-8944Y-112576D01*
X-6324Y-114586D01*
X-3274Y-115849D01*
X-3126Y-117115D01*
X-3279Y-117642D01*
X-5940Y-118744D01*
X-8400Y-120632D01*
X-10288Y-123092D01*
X-11475Y-125957D01*
X-11880Y-129032D01*
X-11475Y-132107D01*
X-10288Y-134972D01*
X-8400Y-137432D01*
X-5940Y-139320D01*
X-3075Y-140507D01*
X-1166Y-140758D01*
X-580Y-140835D01*
Y-142629D01*
X-1166Y-142706D01*
X-3075Y-142957D01*
X-5940Y-144144D01*
X-8400Y-146032D01*
X-10288Y-148492D01*
X-11475Y-151357D01*
X-11880Y-154432D01*
X-11475Y-157507D01*
X-10288Y-160372D01*
X-8400Y-162832D01*
X-5940Y-164720D01*
X-3075Y-165907D01*
X-1166Y-166158D01*
X-580Y-166235D01*
Y-168029D01*
X-1166Y-168106D01*
X-3075Y-168357D01*
X-5940Y-169544D01*
X-8400Y-171432D01*
X-10288Y-173892D01*
X-11475Y-176757D01*
X-11880Y-179832D01*
X-11475Y-182907D01*
X-10288Y-185772D01*
X-8400Y-188232D01*
X-5940Y-190120D01*
X-3075Y-191307D01*
X-1166Y-191558D01*
X-580Y-191635D01*
Y-193429D01*
X-1166Y-193506D01*
X-3075Y-193757D01*
X-5940Y-194944D01*
X-8400Y-196832D01*
X-10288Y-199292D01*
X-11475Y-202157D01*
X-11880Y-205232D01*
X-11475Y-208307D01*
X-10288Y-211172D01*
X-8400Y-213632D01*
X-5940Y-215520D01*
X-3075Y-216707D01*
X-1166Y-216958D01*
X-580Y-217035D01*
Y-218829D01*
X-1166Y-218906D01*
X-3075Y-219157D01*
X-5940Y-220344D01*
X-8400Y-222232D01*
X-10288Y-224692D01*
X-11475Y-227557D01*
X-11880Y-230632D01*
X-11475Y-233707D01*
X-10288Y-236572D01*
X-8400Y-239032D01*
X-5940Y-240920D01*
X-3075Y-242107D01*
X-1166Y-242358D01*
X-580Y-242435D01*
Y-244229D01*
X-1166Y-244306D01*
X-3075Y-244557D01*
X-5940Y-245744D01*
X-8400Y-247632D01*
X-10288Y-250092D01*
X-11475Y-252957D01*
X-11880Y-256032D01*
X-11475Y-259107D01*
X-10288Y-261972D01*
X-8400Y-264432D01*
X-5940Y-266320D01*
X-3075Y-267507D01*
X-1166Y-267758D01*
X-580Y-267835D01*
Y-269629D01*
X-1166Y-269706D01*
X-3075Y-269957D01*
X-5940Y-271144D01*
X-8400Y-273032D01*
X-10288Y-275492D01*
X-11475Y-278357D01*
X-11880Y-281432D01*
X-11475Y-284507D01*
X-10288Y-287372D01*
X-8400Y-289832D01*
X-5940Y-291720D01*
X-3075Y-292907D01*
X-1166Y-293158D01*
X-580Y-293235D01*
Y-295029D01*
X-1166Y-295106D01*
X-3075Y-295357D01*
X-5940Y-296544D01*
X-8400Y-298432D01*
X-10288Y-300892D01*
X-11475Y-303757D01*
X-11880Y-306832D01*
X-11475Y-309907D01*
X-10288Y-312772D01*
X-8400Y-315232D01*
X-5940Y-317120D01*
X-3075Y-318307D01*
X-1166Y-318558D01*
X-580Y-318635D01*
Y-320429D01*
X-1166Y-320506D01*
X-3075Y-320757D01*
X-5940Y-321944D01*
X-8400Y-323832D01*
X-10288Y-326292D01*
X-11475Y-329157D01*
X-11880Y-332232D01*
X-11475Y-335307D01*
X-10288Y-338172D01*
X-8400Y-340632D01*
X-5940Y-342520D01*
X-3075Y-343707D01*
X-1166Y-343958D01*
X-580Y-344035D01*
Y-345829D01*
X-1166Y-345906D01*
X-3075Y-346157D01*
X-5940Y-347344D01*
X-8400Y-349232D01*
X-10288Y-351692D01*
X-11475Y-354557D01*
X-11880Y-357632D01*
X-11475Y-360707D01*
X-10288Y-363572D01*
X-8400Y-366032D01*
X-5940Y-367920D01*
X-3075Y-369107D01*
X-1166Y-369358D01*
X-580Y-369435D01*
Y-371229D01*
X-1166Y-371306D01*
X-3075Y-371557D01*
X-5940Y-372744D01*
X-8400Y-374632D01*
X-10288Y-377092D01*
X-11475Y-379957D01*
X-11880Y-383032D01*
X-11475Y-386107D01*
X-10288Y-388972D01*
X-8400Y-391432D01*
X-5940Y-393320D01*
X-3075Y-394507D01*
X0Y-394912D01*
X3075Y-394507D01*
X5940Y-393320D01*
X8400Y-391432D01*
X10288Y-388972D01*
X11475Y-386107D01*
X11880Y-383032D01*
X11475Y-379957D01*
X10288Y-377092D01*
X8400Y-374632D01*
X5940Y-372744D01*
X3075Y-371557D01*
X1166Y-371306D01*
X580Y-371229D01*
Y-369435D01*
X1166Y-369358D01*
X3075Y-369107D01*
X5940Y-367920D01*
X8400Y-366032D01*
X10288Y-363572D01*
X11475Y-360707D01*
X11880Y-357632D01*
X11475Y-354557D01*
X10288Y-351692D01*
X8400Y-349232D01*
X5940Y-347344D01*
X3075Y-346157D01*
X1166Y-345906D01*
X580Y-345829D01*
Y-344035D01*
X1166Y-343958D01*
X3075Y-343707D01*
X5940Y-342520D01*
X8400Y-340632D01*
X10288Y-338172D01*
X11475Y-335307D01*
X11880Y-332232D01*
X11475Y-329157D01*
X10288Y-326292D01*
X8400Y-323832D01*
X5940Y-321944D01*
X3075Y-320757D01*
X1166Y-320506D01*
X580Y-320429D01*
Y-318635D01*
X1166Y-318558D01*
X3075Y-318307D01*
X5940Y-317120D01*
X8400Y-315232D01*
X10288Y-312772D01*
X11475Y-309907D01*
X11880Y-306832D01*
X11475Y-303757D01*
X10288Y-300892D01*
X8400Y-298432D01*
X5940Y-296544D01*
X3075Y-295357D01*
X1166Y-295106D01*
X580Y-295029D01*
Y-293235D01*
X1166Y-293158D01*
X3075Y-292907D01*
X5940Y-291720D01*
X8400Y-289832D01*
X10288Y-287372D01*
X10375Y-287163D01*
X12452Y-286794D01*
X13041Y-287187D01*
X13679Y-287314D01*
X21391Y-295025D01*
X22399Y-295699D01*
X23588Y-295936D01*
X28423D01*
X29463Y-297550D01*
X43982D01*
Y-300090D01*
X29601D01*
X29720Y-300689D01*
X29890Y-300942D01*
X28939Y-302721D01*
X23646D01*
X22317Y-301175D01*
X22402Y-300748D01*
X22116Y-299311D01*
X21302Y-298093D01*
X20084Y-297279D01*
X18647Y-296993D01*
X17210Y-297279D01*
X15991Y-298093D01*
X15177Y-299311D01*
X14892Y-300748D01*
X15177Y-302185D01*
X15539Y-302726D01*
Y-302885D01*
X15776Y-304074D01*
X16449Y-305082D01*
X19392Y-308026D01*
X20241Y-308593D01*
X20455Y-309471D01*
X20530Y-310538D01*
X20522Y-310543D01*
X19540Y-312014D01*
X19447Y-312478D01*
X28006D01*
X27914Y-312014D01*
X27045Y-310714D01*
X27242Y-309916D01*
X27692Y-309004D01*
X29369Y-308988D01*
X30345Y-310714D01*
X30125Y-311820D01*
X30438Y-313392D01*
X31224Y-314569D01*
X30779Y-314867D01*
X29720Y-316451D01*
X29601Y-317050D01*
X43982D01*
X58363D01*
X58244Y-316451D01*
X57186Y-314867D01*
X56740Y-314569D01*
X57526Y-313392D01*
X57839Y-311820D01*
X57526Y-310248D01*
X56636Y-308916D01*
Y-308224D01*
X57526Y-306892D01*
X57839Y-305320D01*
X59062Y-303966D01*
X59354Y-303821D01*
X60892Y-303515D01*
X62362Y-302533D01*
X63345Y-301062D01*
X63437Y-300598D01*
X59158D01*
Y-298058D01*
X63437D01*
X63345Y-297593D01*
X62362Y-296123D01*
X60892Y-295141D01*
X59158Y-294796D01*
X59016Y-294824D01*
X58665Y-294604D01*
X57647Y-293283D01*
X57839Y-292320D01*
X57619Y-291214D01*
X58625Y-289436D01*
X64753D01*
X67524Y-292207D01*
X67651Y-292845D01*
X68465Y-294063D01*
X69683Y-294877D01*
X70641Y-295068D01*
X71281Y-296415D01*
X71341Y-296882D01*
X70321Y-297902D01*
X69683Y-298029D01*
X68465Y-298843D01*
X67651Y-300061D01*
X67365Y-301498D01*
X67651Y-302935D01*
X68465Y-304153D01*
X69683Y-304967D01*
X71120Y-305253D01*
X72557Y-304967D01*
X73775Y-304153D01*
X74589Y-302935D01*
X74716Y-302297D01*
X87795Y-289217D01*
X88469Y-288209D01*
X88706Y-287020D01*
Y-276860D01*
X88506Y-275856D01*
X89894Y-274846D01*
X90054Y-274896D01*
X90055Y-274896D01*
X90299Y-275059D01*
X91273Y-275710D01*
X92710Y-275996D01*
X94147Y-275710D01*
X94571Y-275427D01*
X95921Y-275749D01*
X96551Y-276142D01*
X96859Y-277118D01*
X96438Y-277748D01*
X96125Y-279320D01*
X96438Y-280891D01*
X96660Y-281224D01*
X97191Y-282570D01*
X96660Y-283916D01*
X96438Y-284249D01*
X96125Y-285820D01*
X96317Y-286783D01*
X95300Y-288104D01*
X94948Y-288324D01*
X94806Y-288296D01*
X93072Y-288641D01*
X91602Y-289623D01*
X90619Y-291094D01*
X90527Y-291558D01*
X94806D01*
Y-294098D01*
X90527D01*
X90619Y-294562D01*
X91602Y-296033D01*
X93072Y-297015D01*
X94610Y-297321D01*
X94902Y-297466D01*
X96125Y-298820D01*
X96438Y-300392D01*
X96660Y-300724D01*
X97191Y-302070D01*
X96660Y-303416D01*
X96438Y-303748D01*
X96125Y-305320D01*
X96438Y-306892D01*
X97328Y-308224D01*
Y-308916D01*
X96438Y-310248D01*
X96125Y-311820D01*
X96438Y-313392D01*
X97328Y-314724D01*
Y-315416D01*
X96438Y-316748D01*
X96125Y-318320D01*
X96438Y-319892D01*
X97328Y-321224D01*
Y-321916D01*
X96438Y-323248D01*
X96125Y-324820D01*
X96438Y-326391D01*
X96660Y-326724D01*
X97191Y-328070D01*
X96660Y-329416D01*
X96438Y-329748D01*
X96125Y-331320D01*
X96438Y-332892D01*
X97328Y-334224D01*
Y-334916D01*
X96438Y-336248D01*
X96125Y-337820D01*
X96438Y-339392D01*
X97328Y-340724D01*
X98660Y-341614D01*
X100232Y-341927D01*
X119732D01*
X121304Y-341614D01*
X122636Y-340724D01*
X123526Y-339392D01*
X123839Y-337820D01*
X123526Y-336248D01*
X122636Y-334916D01*
Y-334224D01*
X123526Y-332892D01*
X123839Y-331320D01*
X123526Y-329748D01*
X123304Y-329416D01*
X122773Y-328070D01*
X123304Y-326724D01*
X123526Y-326391D01*
X123839Y-324820D01*
X123526Y-323248D01*
X122636Y-321916D01*
Y-321224D01*
X123526Y-319892D01*
X123839Y-318320D01*
X123526Y-316748D01*
X122636Y-315416D01*
Y-314724D01*
X123526Y-313392D01*
X123839Y-311820D01*
X123526Y-310248D01*
X122636Y-308916D01*
Y-308224D01*
X123526Y-306892D01*
X123839Y-305320D01*
X123526Y-303748D01*
X123304Y-303416D01*
X122773Y-302070D01*
X123304Y-300724D01*
X123526Y-300392D01*
X123839Y-298820D01*
X123526Y-297248D01*
X122740Y-296071D01*
X123185Y-295773D01*
X124244Y-294189D01*
X124363Y-293590D01*
X109982D01*
Y-291050D01*
X124363D01*
X124244Y-290451D01*
X123185Y-288867D01*
X122740Y-288569D01*
X123526Y-287392D01*
X123839Y-285820D01*
X123619Y-284713D01*
X124625Y-282936D01*
X130890D01*
X132079Y-282699D01*
X133088Y-282025D01*
X136691Y-278423D01*
X137364Y-277414D01*
X137601Y-276225D01*
Y-195453D01*
X137364Y-194264D01*
X136691Y-193256D01*
X135801Y-192367D01*
X134793Y-191693D01*
X133820Y-191499D01*
X133417Y-190709D01*
X133233Y-189678D01*
X141641Y-181270D01*
X143325Y-181841D01*
X143465Y-182907D01*
X144652Y-185772D01*
X146540Y-188232D01*
X146563Y-188250D01*
X145601Y-189753D01*
X144526Y-189539D01*
X143089Y-189825D01*
X141871Y-190639D01*
X141057Y-191857D01*
X140771Y-193294D01*
X141057Y-194731D01*
X141871Y-195949D01*
X143089Y-196763D01*
X144184Y-196981D01*
X144832Y-198020D01*
X145064Y-198755D01*
X144652Y-199292D01*
X143465Y-202157D01*
X143060Y-205232D01*
X143465Y-208307D01*
X144652Y-211172D01*
X146540Y-213632D01*
X149000Y-215520D01*
X151865Y-216707D01*
X153774Y-216958D01*
X154360Y-217035D01*
Y-218829D01*
X153774Y-218906D01*
X151865Y-219157D01*
X149000Y-220344D01*
X146540Y-222232D01*
X144652Y-224692D01*
X143465Y-227557D01*
X143060Y-230632D01*
X143465Y-233707D01*
X144652Y-236572D01*
X146540Y-239032D01*
X149000Y-240920D01*
X151865Y-242107D01*
X153774Y-242358D01*
X154360Y-242435D01*
Y-244229D01*
X153774Y-244306D01*
X151865Y-244557D01*
X149000Y-245744D01*
X146540Y-247632D01*
X144652Y-250092D01*
X143465Y-252957D01*
X143060Y-256032D01*
X143465Y-259107D01*
X144652Y-261972D01*
X146540Y-264432D01*
X149000Y-266320D01*
X151865Y-267507D01*
X153774Y-267758D01*
X154360Y-267835D01*
Y-269629D01*
X153774Y-269706D01*
X151865Y-269957D01*
X149000Y-271144D01*
X146540Y-273032D01*
X144652Y-275492D01*
X143465Y-278357D01*
X143060Y-281432D01*
X143465Y-284507D01*
X144652Y-287372D01*
X146540Y-289832D01*
X149000Y-291720D01*
X151865Y-292907D01*
X153774Y-293158D01*
X154360Y-293235D01*
Y-295029D01*
X153774Y-295106D01*
X151865Y-295357D01*
X149000Y-296544D01*
X146540Y-298432D01*
X144652Y-300892D01*
X143465Y-303757D01*
X143060Y-306832D01*
X143465Y-309907D01*
X144652Y-312772D01*
X146540Y-315232D01*
X149000Y-317120D01*
X151865Y-318307D01*
X153774Y-318558D01*
X154360Y-318635D01*
Y-320429D01*
X153774Y-320506D01*
X151865Y-320757D01*
X149000Y-321944D01*
X146540Y-323832D01*
X144652Y-326292D01*
X143465Y-329157D01*
X143060Y-332232D01*
X143465Y-335307D01*
X144652Y-338172D01*
X146540Y-340632D01*
X149000Y-342520D01*
X151865Y-343707D01*
X153774Y-343958D01*
X154360Y-344035D01*
Y-345829D01*
X153774Y-345906D01*
X151865Y-346157D01*
X149000Y-347344D01*
X146540Y-349232D01*
X144652Y-351692D01*
X143465Y-354557D01*
X143060Y-357632D01*
X143394Y-360169D01*
X142600Y-361536D01*
X142493Y-361639D01*
X141108Y-360334D01*
Y-347326D01*
X123052D01*
Y-351481D01*
X121678Y-352609D01*
X121666Y-352607D01*
X120229Y-352893D01*
X119011Y-353707D01*
X118197Y-354925D01*
X117911Y-356362D01*
X118197Y-357799D01*
X119011Y-359017D01*
X120229Y-359831D01*
X121666Y-360117D01*
X121678Y-360115D01*
X123052Y-361243D01*
Y-363064D01*
X122290D01*
Y-371084D01*
X132080D01*
Y-372354D01*
X133350D01*
Y-381644D01*
X141450D01*
X143075Y-382923D01*
X143060Y-383032D01*
X143465Y-386107D01*
X144652Y-388972D01*
X146540Y-391432D01*
X149000Y-393320D01*
X151865Y-394507D01*
X154940Y-394912D01*
X158015Y-394507D01*
X160880Y-393320D01*
X163340Y-391432D01*
X165228Y-388972D01*
X166415Y-386107D01*
X166820Y-383032D01*
X166415Y-379957D01*
X165228Y-377092D01*
X163340Y-374632D01*
X160880Y-372744D01*
X158015Y-371557D01*
X156106Y-371306D01*
X155520Y-371229D01*
Y-369435D01*
X156106Y-369358D01*
X158015Y-369107D01*
X160880Y-367920D01*
X163340Y-366032D01*
X165228Y-363572D01*
X166415Y-360707D01*
X166820Y-357632D01*
X166415Y-354557D01*
X165228Y-351692D01*
X163340Y-349232D01*
X160880Y-347344D01*
X158015Y-346157D01*
X156106Y-345906D01*
X155520Y-345829D01*
Y-344035D01*
X156106Y-343958D01*
X158015Y-343707D01*
X160880Y-342520D01*
X163340Y-340632D01*
X165228Y-338172D01*
X166415Y-335307D01*
X166820Y-332232D01*
X166415Y-329157D01*
X165228Y-326292D01*
X163340Y-323832D01*
X160880Y-321944D01*
X158015Y-320757D01*
X156106Y-320506D01*
X155520Y-320429D01*
Y-318635D01*
X156106Y-318558D01*
X158015Y-318307D01*
X160880Y-317120D01*
X163340Y-315232D01*
X165228Y-312772D01*
X166415Y-309907D01*
X166820Y-306832D01*
X166415Y-303757D01*
X165228Y-300892D01*
X163340Y-298432D01*
X160880Y-296544D01*
X158015Y-295357D01*
X156106Y-295106D01*
X155520Y-295029D01*
Y-293235D01*
X156106Y-293158D01*
X158015Y-292907D01*
X160880Y-291720D01*
X163340Y-289832D01*
X165228Y-287372D01*
X166415Y-284507D01*
X166820Y-281432D01*
X166415Y-278357D01*
X165228Y-275492D01*
X163340Y-273032D01*
X160880Y-271144D01*
X158015Y-269957D01*
X156106Y-269706D01*
X155520Y-269629D01*
Y-267835D01*
X156106Y-267758D01*
X158015Y-267507D01*
X160880Y-266320D01*
X163340Y-264432D01*
X165228Y-261972D01*
X166415Y-259107D01*
X166820Y-256032D01*
X166415Y-252957D01*
X165228Y-250092D01*
X163340Y-247632D01*
X160880Y-245744D01*
X158015Y-244557D01*
X156106Y-244306D01*
X155520Y-244229D01*
Y-242435D01*
X156106Y-242358D01*
X158015Y-242107D01*
X160880Y-240920D01*
X163340Y-239032D01*
X165228Y-236572D01*
X166415Y-233707D01*
X166820Y-230632D01*
X166415Y-227557D01*
X165228Y-224692D01*
X163340Y-222232D01*
X160880Y-220344D01*
X158015Y-219157D01*
X156106Y-218906D01*
X155520Y-218829D01*
Y-217035D01*
X156106Y-216958D01*
X158015Y-216707D01*
X160880Y-215520D01*
X163340Y-213632D01*
X165228Y-211172D01*
X166415Y-208307D01*
X166820Y-205232D01*
X166415Y-202157D01*
X165228Y-199292D01*
X163340Y-196832D01*
X160880Y-194944D01*
X158015Y-193757D01*
X156106Y-193506D01*
X155520Y-193429D01*
Y-191635D01*
X156106Y-191558D01*
X158015Y-191307D01*
X160880Y-190120D01*
X163340Y-188232D01*
X165228Y-185772D01*
X166415Y-182907D01*
X166820Y-179832D01*
X166415Y-176757D01*
X165228Y-173892D01*
X163340Y-171432D01*
X160880Y-169544D01*
X158015Y-168357D01*
X156106Y-168106D01*
X155520Y-168029D01*
Y-166235D01*
X156106Y-166158D01*
X158015Y-165907D01*
X160880Y-164720D01*
X163340Y-162832D01*
X165228Y-160372D01*
X166415Y-157507D01*
X166820Y-154432D01*
X166415Y-151357D01*
X165228Y-148492D01*
X163340Y-146032D01*
X160880Y-144144D01*
X158015Y-142957D01*
X156106Y-142706D01*
X155520Y-142629D01*
Y-140835D01*
X156106Y-140758D01*
X158015Y-140507D01*
X160880Y-139320D01*
X163340Y-137432D01*
X165228Y-134972D01*
X166415Y-132107D01*
X166820Y-129032D01*
X166415Y-125957D01*
X165228Y-123092D01*
X163340Y-120632D01*
X160880Y-118744D01*
X158015Y-117557D01*
X156106Y-117306D01*
X155520Y-117229D01*
Y-115435D01*
X156106Y-115358D01*
X158015Y-115107D01*
X160880Y-113920D01*
X163340Y-112032D01*
X165228Y-109572D01*
X166415Y-106707D01*
X166820Y-103632D01*
X166415Y-100557D01*
X165228Y-97692D01*
X163340Y-95232D01*
X160880Y-93344D01*
X158015Y-92157D01*
X156106Y-91906D01*
X155520Y-91829D01*
Y-90035D01*
X156106Y-89958D01*
X158015Y-89707D01*
X160880Y-88520D01*
X163340Y-86632D01*
X165228Y-84172D01*
X166415Y-81307D01*
X166820Y-78232D01*
X166415Y-75157D01*
X165228Y-72292D01*
X163340Y-69832D01*
X160880Y-67944D01*
X158219Y-66842D01*
X158066Y-66315D01*
X158214Y-65049D01*
X161264Y-63786D01*
X163884Y-61776D01*
X165894Y-59156D01*
X167157Y-56106D01*
X167421Y-54102D01*
X154940D01*
X142459D01*
X142723Y-56106D01*
X143986Y-59156D01*
X145996Y-61776D01*
X148616Y-63786D01*
X151666Y-65049D01*
X151814Y-66315D01*
X151661Y-66842D01*
X149000Y-67944D01*
X146540Y-69832D01*
X144652Y-72292D01*
X143465Y-75157D01*
X143060Y-78232D01*
X143465Y-81307D01*
X144652Y-84172D01*
X146540Y-86632D01*
X149000Y-88520D01*
X151865Y-89707D01*
X153774Y-89958D01*
X154360Y-90035D01*
Y-91829D01*
X153774Y-91906D01*
X151865Y-92157D01*
X149000Y-93344D01*
X146540Y-95232D01*
X144652Y-97692D01*
X143465Y-100557D01*
X143060Y-103632D01*
X143465Y-106707D01*
X144437Y-109054D01*
X144510Y-109769D01*
X143342Y-111192D01*
X139578D01*
Y-104514D01*
X135855D01*
X135496Y-104182D01*
X134644Y-102736D01*
X134819Y-101854D01*
X134533Y-100417D01*
X133719Y-99199D01*
X132501Y-98385D01*
X131695Y-96735D01*
X132040Y-95001D01*
X132978Y-93858D01*
X137548D01*
Y-82838D01*
X127508D01*
X117468D01*
Y-93858D01*
X122038D01*
X122976Y-95001D01*
X123321Y-96735D01*
X124303Y-98206D01*
X125774Y-99188D01*
X126218Y-99277D01*
X126456Y-99474D01*
X127434Y-101223D01*
X127309Y-101854D01*
X127484Y-102736D01*
X126632Y-104182D01*
X126273Y-104514D01*
X116522D01*
Y-109014D01*
X114744Y-110020D01*
X113475Y-109768D01*
X112840Y-109247D01*
Y-103752D01*
X101820D01*
Y-113792D01*
Y-123832D01*
X112840D01*
Y-119353D01*
X113475Y-118832D01*
X114744Y-118580D01*
X116522Y-119586D01*
Y-123070D01*
X136429D01*
X136566Y-123226D01*
X137216Y-124848D01*
X136739Y-125563D01*
X136612Y-126201D01*
X131406Y-131406D01*
X130733Y-132415D01*
X130496Y-133604D01*
Y-136624D01*
X128718Y-137163D01*
X128639Y-137045D01*
X127421Y-136231D01*
X125984Y-135945D01*
X124547Y-136231D01*
X123329Y-137045D01*
X122515Y-138263D01*
X122388Y-138901D01*
X107782Y-153507D01*
X107109Y-154515D01*
X106872Y-155704D01*
Y-169974D01*
X105088D01*
Y-167258D01*
Y-139318D01*
X104851Y-138129D01*
X104178Y-137121D01*
X92667Y-125610D01*
X92944Y-124448D01*
X93355Y-123832D01*
X99280D01*
Y-115062D01*
X88260D01*
X88260Y-123236D01*
X87143Y-123786D01*
X85658Y-122831D01*
Y-103046D01*
X86868Y-102053D01*
X88305Y-101767D01*
X89523Y-100953D01*
X90337Y-99735D01*
X90623Y-98298D01*
X90337Y-96861D01*
X89523Y-95643D01*
X88305Y-94829D01*
X86868Y-94543D01*
X85431Y-94829D01*
X84577Y-95399D01*
X83282Y-94964D01*
X82799Y-94612D01*
Y-59264D01*
X88530Y-53533D01*
X90032Y-54545D01*
Y-58945D01*
X89397Y-59466D01*
X87662Y-59811D01*
X86192Y-60793D01*
X85210Y-62263D01*
X85117Y-62728D01*
X89397D01*
Y-65268D01*
X85117D01*
X85210Y-65732D01*
X86192Y-67203D01*
X87662Y-68185D01*
X89397Y-68530D01*
X90032Y-69051D01*
Y-72780D01*
X98552D01*
Y-63490D01*
X99822D01*
Y-62220D01*
X109612D01*
Y-54200D01*
X109612D01*
X109646Y-54071D01*
X111623Y-53534D01*
X114862Y-56773D01*
X115871Y-57447D01*
X117060Y-57684D01*
X118230D01*
Y-65596D01*
X136786D01*
Y-44764D01*
X141224D01*
X142413Y-44527D01*
X143421Y-43854D01*
X149392Y-37882D01*
X151661Y-38822D01*
X151814Y-39349D01*
X151666Y-40615D01*
X148616Y-41878D01*
X145996Y-43888D01*
X143986Y-46508D01*
X142723Y-49558D01*
X142459Y-51562D01*
X154940D01*
X167421D01*
X167157Y-49558D01*
X165894Y-46508D01*
X163884Y-43888D01*
X161264Y-41878D01*
X158214Y-40615D01*
X158066Y-39349D01*
X158219Y-38822D01*
X160880Y-37720D01*
X163340Y-35832D01*
X165228Y-33372D01*
X166415Y-30507D01*
X166820Y-27432D01*
X166415Y-24357D01*
X165228Y-21492D01*
X163340Y-19032D01*
X160880Y-17144D01*
X158015Y-15957D01*
X154940Y-15552D01*
D02*
G37*
G36*
X73658Y-37994D02*
X38102D01*
Y-60050D01*
X73658D01*
Y-37994D01*
D02*
G37*
G36*
X109612Y-64760D02*
X101092D01*
Y-72780D01*
X109612D01*
Y-64760D01*
D02*
G37*
G36*
X137548Y-69278D02*
X128778D01*
Y-80298D01*
X137548D01*
Y-69278D01*
D02*
G37*
G36*
X126238D02*
X117468D01*
Y-80298D01*
X126238D01*
Y-69278D01*
D02*
G37*
G36*
X58420Y-76001D02*
X56983Y-76287D01*
X55765Y-77101D01*
X54951Y-78319D01*
X54665Y-79756D01*
X54951Y-81193D01*
X55348Y-81788D01*
X54951Y-82383D01*
X54665Y-83820D01*
X54951Y-85257D01*
X55765Y-86475D01*
X56983Y-87289D01*
X58420Y-87575D01*
X59857Y-87289D01*
X61075Y-86475D01*
X61889Y-85257D01*
X62175Y-83820D01*
X61889Y-82383D01*
X61492Y-81788D01*
X61889Y-81193D01*
X62175Y-79756D01*
X61889Y-78319D01*
X61075Y-77101D01*
X59857Y-76287D01*
X58420Y-76001D01*
D02*
G37*
G36*
X13669Y-86379D02*
X13205Y-86472D01*
X11735Y-87454D01*
X10752Y-88924D01*
X10660Y-89389D01*
X13669D01*
Y-86379D01*
D02*
G37*
G36*
X72706Y-91099D02*
X72242Y-91191D01*
X70772Y-92174D01*
X69789Y-93644D01*
X69697Y-94108D01*
X72706D01*
Y-91099D01*
D02*
G37*
G36*
X13669Y-91929D02*
X10660D01*
X10752Y-92393D01*
X11735Y-93863D01*
X13205Y-94846D01*
X13669Y-94938D01*
Y-91929D01*
D02*
G37*
G36*
X40420Y-100732D02*
X34150D01*
Y-111252D01*
X40420D01*
Y-100732D01*
D02*
G37*
G36*
X99280Y-103752D02*
X88260D01*
Y-112522D01*
X99280D01*
Y-103752D01*
D02*
G37*
G36*
X40420Y-113792D02*
X34150D01*
Y-124312D01*
X40420D01*
Y-113792D01*
D02*
G37*
G36*
X34150Y-131336D02*
Y-134345D01*
X37159D01*
X37067Y-133881D01*
X36084Y-132410D01*
X34614Y-131428D01*
X34150Y-131336D01*
D02*
G37*
G36*
X115062Y-129087D02*
X113625Y-129373D01*
X112407Y-130187D01*
X111593Y-131405D01*
X111307Y-132842D01*
X111593Y-134279D01*
X112407Y-135497D01*
X113625Y-136311D01*
X115062Y-136597D01*
X116499Y-136311D01*
X117717Y-135497D01*
X118531Y-134279D01*
X118817Y-132842D01*
X118531Y-131405D01*
X117717Y-130187D01*
X116499Y-129373D01*
X115062Y-129087D01*
D02*
G37*
G36*
X61350Y-137022D02*
X53330D01*
Y-145542D01*
X61350D01*
Y-137022D01*
D02*
G37*
G36*
X71242Y-156885D02*
Y-159895D01*
X74251D01*
X74159Y-159430D01*
X73177Y-157960D01*
X71706Y-156977D01*
X71242Y-156885D01*
D02*
G37*
G36*
X68702D02*
X68238Y-156977D01*
X66767Y-157960D01*
X65785Y-159430D01*
X65693Y-159895D01*
X68702D01*
Y-156885D01*
D02*
G37*
G36*
X17018Y-164868D02*
X15581Y-165154D01*
X14363Y-165968D01*
X13549Y-167187D01*
X13263Y-168624D01*
X13549Y-170061D01*
X14363Y-171279D01*
X15581Y-172093D01*
X17018Y-172379D01*
X18455Y-172093D01*
X19673Y-171279D01*
X20487Y-170061D01*
X20773Y-168624D01*
X20487Y-167187D01*
X19673Y-165968D01*
X18455Y-165154D01*
X17018Y-164868D01*
D02*
G37*
G36*
X19166Y-196381D02*
Y-199390D01*
X22175D01*
X22083Y-198926D01*
X21100Y-197455D01*
X19630Y-196473D01*
X19166Y-196381D01*
D02*
G37*
G36*
X16626D02*
X16162Y-196473D01*
X14691Y-197455D01*
X13709Y-198926D01*
X13616Y-199390D01*
X16626D01*
Y-196381D01*
D02*
G37*
G36*
X22175Y-201930D02*
X19166D01*
Y-204939D01*
X19630Y-204847D01*
X21100Y-203865D01*
X22083Y-202394D01*
X22175Y-201930D01*
D02*
G37*
G36*
X16626D02*
X13616D01*
X13709Y-202394D01*
X14691Y-203865D01*
X16162Y-204847D01*
X16626Y-204939D01*
Y-201930D01*
D02*
G37*
G36*
X63847Y-264112D02*
Y-267122D01*
X66856D01*
X66764Y-266657D01*
X65782Y-265187D01*
X64311Y-264205D01*
X63847Y-264112D01*
D02*
G37*
G36*
X66856Y-269662D02*
X63847D01*
Y-272671D01*
X64311Y-272579D01*
X65782Y-271596D01*
X66764Y-270126D01*
X66856Y-269662D01*
D02*
G37*
G36*
X129794Y-294441D02*
X128357Y-294727D01*
X127139Y-295541D01*
X126325Y-296759D01*
X126039Y-298196D01*
X126325Y-299633D01*
X127139Y-300851D01*
X128357Y-301665D01*
X129794Y-301951D01*
X131231Y-301665D01*
X132449Y-300851D01*
X133263Y-299633D01*
X133549Y-298196D01*
X133263Y-296759D01*
X132449Y-295541D01*
X131231Y-294727D01*
X129794Y-294441D01*
D02*
G37*
G36*
X28006Y-315018D02*
X24997D01*
Y-318027D01*
X25461Y-317935D01*
X26931Y-316953D01*
X27914Y-315482D01*
X28006Y-315018D01*
D02*
G37*
G36*
X22457D02*
X19447D01*
X19540Y-315482D01*
X20522Y-316953D01*
X21992Y-317935D01*
X22457Y-318027D01*
Y-315018D01*
D02*
G37*
G36*
X58363Y-319590D02*
X43982D01*
X29601D01*
X29720Y-320189D01*
X30779Y-321773D01*
X31224Y-322071D01*
X30438Y-323248D01*
X30125Y-324820D01*
X30438Y-326391D01*
X30660Y-326724D01*
X31191Y-328070D01*
X30660Y-329416D01*
X30438Y-329748D01*
X30125Y-331320D01*
X30438Y-332892D01*
X31328Y-334224D01*
Y-334916D01*
X30438Y-336248D01*
X30125Y-337820D01*
X30438Y-339392D01*
X31328Y-340724D01*
X32661Y-341614D01*
X34232Y-341927D01*
X53732D01*
X55304Y-341614D01*
X56593Y-342863D01*
X57035Y-343523D01*
X58253Y-344337D01*
X59690Y-344623D01*
X61127Y-344337D01*
X62345Y-343523D01*
X63159Y-342305D01*
X63445Y-340868D01*
X63159Y-339431D01*
X62345Y-338213D01*
X61127Y-337399D01*
X60724Y-335550D01*
X60865Y-335133D01*
X61837Y-334483D01*
X62651Y-333265D01*
X62937Y-331828D01*
X62651Y-330391D01*
X62533Y-330214D01*
X63483Y-328436D01*
X72421D01*
X73031Y-328843D01*
X74468Y-329129D01*
X75905Y-328843D01*
X77123Y-328029D01*
X77937Y-326811D01*
X78223Y-325374D01*
X77937Y-323937D01*
X77123Y-322719D01*
X75905Y-321905D01*
X74468Y-321619D01*
X73031Y-321905D01*
X72559Y-322220D01*
X61160D01*
X60619Y-321858D01*
X59426Y-321621D01*
X58791Y-320852D01*
X58295Y-319936D01*
X58363Y-319590D01*
D02*
G37*
G36*
X70000Y-338891D02*
X68563Y-339177D01*
X67345Y-339991D01*
X66531Y-341209D01*
X66245Y-342646D01*
X66531Y-344083D01*
X67345Y-345301D01*
X68563Y-346115D01*
X70000Y-346401D01*
X71437Y-346115D01*
X72655Y-345301D01*
X73469Y-344083D01*
X73755Y-342646D01*
X73469Y-341209D01*
X72655Y-339991D01*
X71437Y-339177D01*
X70000Y-338891D01*
D02*
G37*
G36*
X113030Y-348453D02*
X111593Y-348739D01*
X110375Y-349553D01*
X109561Y-350772D01*
X109275Y-352209D01*
X109368Y-352674D01*
X108444Y-353359D01*
X107734Y-353576D01*
X106053Y-352286D01*
X103857Y-351376D01*
X101500Y-351066D01*
X99143Y-351376D01*
X96947Y-352286D01*
X95061Y-353733D01*
X93614Y-355619D01*
X92704Y-357815D01*
X92394Y-360172D01*
X92704Y-362529D01*
X93614Y-364725D01*
X95061Y-366611D01*
X96947Y-368058D01*
X99143Y-368968D01*
X101500Y-369278D01*
X103857Y-368968D01*
X106053Y-368058D01*
X107939Y-366611D01*
X109386Y-364725D01*
X110295Y-362529D01*
X110606Y-360172D01*
X110295Y-357815D01*
X109800Y-356618D01*
X111236Y-355439D01*
X111593Y-355678D01*
X113030Y-355964D01*
X114467Y-355678D01*
X115685Y-354864D01*
X116499Y-353646D01*
X116785Y-352209D01*
X116499Y-350772D01*
X115685Y-349553D01*
X114467Y-348739D01*
X113030Y-348453D01*
D02*
G37*
G36*
X23622Y-347072D02*
X15102D01*
Y-355092D01*
X23622D01*
Y-347072D01*
D02*
G37*
G36*
X90770Y-366326D02*
Y-369335D01*
X93779D01*
X93687Y-368871D01*
X92705Y-367401D01*
X91234Y-366418D01*
X90770Y-366326D01*
D02*
G37*
G36*
X88230D02*
X87766Y-366418D01*
X86295Y-367401D01*
X85313Y-368871D01*
X85220Y-369335D01*
X88230D01*
Y-366326D01*
D02*
G37*
G36*
X63500Y-366831D02*
X62063Y-367117D01*
X60845Y-367931D01*
X60031Y-369149D01*
X59745Y-370586D01*
X60031Y-372023D01*
X60845Y-373241D01*
X62063Y-374055D01*
X63500Y-374341D01*
X64937Y-374055D01*
X66155Y-373241D01*
X66969Y-372023D01*
X67255Y-370586D01*
X66969Y-369149D01*
X66155Y-367931D01*
X64937Y-367117D01*
X63500Y-366831D01*
D02*
G37*
G36*
X93779Y-371875D02*
X90770D01*
Y-374885D01*
X91234Y-374792D01*
X92705Y-373810D01*
X93687Y-372340D01*
X93779Y-371875D01*
D02*
G37*
G36*
X88230D02*
X85220D01*
X85313Y-372340D01*
X86295Y-373810D01*
X87766Y-374792D01*
X88230Y-374885D01*
Y-371875D01*
D02*
G37*
G36*
X34682Y-347072D02*
X26162D01*
Y-356362D01*
X24892D01*
Y-357632D01*
X15102D01*
Y-365652D01*
X15864D01*
Y-381390D01*
X32634Y-381390D01*
X33008Y-381390D01*
X33452Y-381839D01*
X34091Y-383097D01*
X33435Y-384681D01*
X33151Y-386842D01*
X33435Y-389003D01*
X34269Y-391017D01*
X35596Y-392746D01*
X37325Y-394073D01*
X37634Y-394201D01*
X37637Y-394205D01*
X38721Y-394930D01*
X40000Y-395184D01*
X41445D01*
X41500Y-395191D01*
X41555Y-395184D01*
X43000D01*
X44279Y-394930D01*
X45363Y-394205D01*
X45367Y-394201D01*
X45675Y-394073D01*
X47404Y-392746D01*
X48731Y-391017D01*
X49565Y-389003D01*
X49850Y-386842D01*
X49565Y-384681D01*
X48731Y-382667D01*
X47404Y-380938D01*
X45675Y-379611D01*
X45367Y-379483D01*
X45363Y-379479D01*
X44279Y-378754D01*
X43000Y-378500D01*
X41555D01*
X41500Y-378493D01*
X41445Y-378500D01*
X40000D01*
X38721Y-378754D01*
X37637Y-379479D01*
X37634Y-379483D01*
X37325Y-379611D01*
X35698Y-380860D01*
X35240Y-380782D01*
X33920Y-380202D01*
X33920Y-379992D01*
X33920Y-379992D01*
X33920Y-379990D01*
Y-376478D01*
X52378D01*
X52919Y-376839D01*
X54356Y-377125D01*
X55793Y-376839D01*
X57011Y-376025D01*
X57825Y-374807D01*
X58111Y-373370D01*
X57825Y-371933D01*
X57011Y-370714D01*
X55968Y-370018D01*
X55844Y-369191D01*
X55920Y-368113D01*
X56053Y-368058D01*
X57939Y-366611D01*
X59386Y-364725D01*
X60296Y-362529D01*
X60606Y-360172D01*
X60296Y-357815D01*
X59386Y-355619D01*
X57939Y-353733D01*
X56053Y-352286D01*
X53857Y-351376D01*
X51500Y-351066D01*
X49143Y-351376D01*
X46947Y-352286D01*
X45540Y-353366D01*
X43602Y-353665D01*
X42132Y-352683D01*
X41667Y-352591D01*
Y-356870D01*
X39127D01*
Y-352591D01*
X38663Y-352683D01*
X37192Y-353665D01*
X36460Y-354762D01*
X34682Y-354398D01*
Y-347072D01*
D02*
G37*
G36*
X130810Y-373624D02*
X122290D01*
Y-381644D01*
X130810D01*
Y-373624D01*
D02*
G37*
G36*
X111500Y-378493D02*
X111445Y-378500D01*
X110000D01*
X108721Y-378754D01*
X107637Y-379479D01*
X107633Y-379483D01*
X107325Y-379611D01*
X105596Y-380938D01*
X104269Y-382667D01*
X103435Y-384681D01*
X103151Y-386842D01*
X103435Y-389003D01*
X104269Y-391017D01*
X105596Y-392746D01*
X107325Y-394073D01*
X107633Y-394201D01*
X107637Y-394205D01*
X108721Y-394930D01*
X110000Y-395184D01*
X111445D01*
X111500Y-395191D01*
X111555Y-395184D01*
X113000D01*
X114279Y-394930D01*
X115363Y-394205D01*
X115366Y-394201D01*
X115675Y-394073D01*
X117404Y-392746D01*
X118731Y-391017D01*
X119565Y-389003D01*
X119849Y-386842D01*
X119565Y-384681D01*
X118731Y-382667D01*
X117404Y-380938D01*
X115675Y-379611D01*
X115366Y-379483D01*
X115363Y-379479D01*
X114279Y-378754D01*
X113000Y-378500D01*
X111555D01*
X111500Y-378493D01*
D02*
G37*
G36*
X102099Y-396720D02*
X47932D01*
Y-403405D01*
X102099D01*
Y-396720D01*
D02*
G37*
%LPD*%
G36*
X107109Y-192703D02*
X107782Y-193711D01*
X110833Y-196761D01*
X111841Y-197435D01*
X113030Y-197672D01*
X124546D01*
X125497Y-199450D01*
X125309Y-199731D01*
X125023Y-201168D01*
X125309Y-202605D01*
X126123Y-203823D01*
X127341Y-204637D01*
X128778Y-204923D01*
X129607Y-204758D01*
X131385Y-205831D01*
Y-211168D01*
X129858Y-212158D01*
X129607Y-212190D01*
X128027Y-211876D01*
X127392Y-211355D01*
Y-206610D01*
X118872D01*
Y-215900D01*
X117602D01*
Y-217170D01*
X107812D01*
Y-225190D01*
X108574D01*
Y-239047D01*
X108245Y-239403D01*
X106796Y-240259D01*
X105918Y-240085D01*
X104962Y-240275D01*
X103580Y-239488D01*
X103184Y-239099D01*
Y-219599D01*
X104178Y-218605D01*
X104851Y-217597D01*
X105088Y-216408D01*
Y-191976D01*
X106964D01*
X107109Y-192703D01*
D02*
G37*
G36*
X73346Y-241532D02*
X73583Y-242721D01*
X74257Y-243730D01*
X93053Y-262526D01*
X94061Y-263199D01*
X95250Y-263436D01*
X95339D01*
X96345Y-265214D01*
X96125Y-266320D01*
X96438Y-267892D01*
X96504Y-267991D01*
X96393Y-268166D01*
X94147Y-268771D01*
X92710Y-268486D01*
X91273Y-268771D01*
X90055Y-269585D01*
X89241Y-270804D01*
X88955Y-272241D01*
X89150Y-273223D01*
X89241Y-273678D01*
X87795Y-274662D01*
X87434Y-274301D01*
X81260Y-268127D01*
X81359Y-267329D01*
X81745Y-266098D01*
X82961Y-265285D01*
X83943Y-263815D01*
X84035Y-263351D01*
X79756D01*
Y-262081D01*
X78486D01*
Y-257801D01*
X78022Y-257894D01*
X76551Y-258876D01*
X75739Y-260092D01*
X74507Y-260478D01*
X73710Y-260577D01*
X68386Y-255253D01*
Y-240806D01*
X73346D01*
Y-241532D01*
D02*
G37*
%LPC*%
G36*
X116332Y-206610D02*
X107812D01*
Y-214630D01*
X116332D01*
Y-206610D01*
D02*
G37*
G36*
X81026Y-257801D02*
Y-260811D01*
X84035D01*
X83943Y-260346D01*
X82961Y-258876D01*
X81490Y-257894D01*
X81026Y-257801D01*
D02*
G37*
%LPD*%
G36*
X66935Y-398929D02*
X66557D01*
Y-398498D01*
X66935D01*
Y-398929D01*
D02*
G37*
G36*
X64783D02*
X64405D01*
Y-398498D01*
X64783D01*
Y-398929D01*
D02*
G37*
G36*
X61676D02*
X61298D01*
Y-398498D01*
X61676D01*
Y-398929D01*
D02*
G37*
G36*
X54026Y-401574D02*
X53649D01*
Y-400356D01*
X53644Y-400263D01*
X53640Y-400183D01*
X53631Y-400112D01*
X53618Y-400054D01*
X53604Y-400009D01*
X53595Y-399974D01*
X53591Y-399956D01*
X53586Y-399947D01*
X53560Y-399894D01*
X53529Y-399845D01*
X53493Y-399805D01*
X53457Y-399769D01*
X53426Y-399743D01*
X53400Y-399725D01*
X53382Y-399711D01*
X53377Y-399707D01*
X53320Y-399676D01*
X53266Y-399654D01*
X53213Y-399640D01*
X53169Y-399627D01*
X53124Y-399623D01*
X53093Y-399618D01*
X53066D01*
X52986Y-399623D01*
X52915Y-399640D01*
X52857Y-399658D01*
X52808Y-399685D01*
X52769Y-399707D01*
X52742Y-399729D01*
X52724Y-399747D01*
X52720Y-399752D01*
X52680Y-399805D01*
X52649Y-399872D01*
X52626Y-399938D01*
X52608Y-400005D01*
X52600Y-400067D01*
X52595Y-400116D01*
Y-400134D01*
Y-400147D01*
Y-400156D01*
Y-400160D01*
Y-401574D01*
X52217D01*
Y-400165D01*
X52222Y-400049D01*
X52231Y-399947D01*
X52244Y-399863D01*
X52257Y-399792D01*
X52271Y-399734D01*
X52284Y-399694D01*
X52293Y-399672D01*
X52297Y-399663D01*
X52333Y-399600D01*
X52373Y-399547D01*
X52417Y-399503D01*
X52457Y-399463D01*
X52497Y-399431D01*
X52529Y-399409D01*
X52551Y-399396D01*
X52560Y-399392D01*
X52631Y-399360D01*
X52702Y-399334D01*
X52773Y-399316D01*
X52840Y-399307D01*
X52897Y-399298D01*
X52946Y-399294D01*
X52986D01*
X53057Y-399298D01*
X53128Y-399307D01*
X53195Y-399320D01*
X53257Y-399343D01*
X53373Y-399392D01*
X53422Y-399418D01*
X53466Y-399445D01*
X53506Y-399476D01*
X53546Y-399503D01*
X53577Y-399529D01*
X53600Y-399552D01*
X53622Y-399574D01*
X53635Y-399587D01*
X53644Y-399596D01*
X53649Y-399600D01*
Y-398498D01*
X54026D01*
Y-401574D01*
D02*
G37*
G36*
X77954Y-399298D02*
X78029Y-399311D01*
X78096Y-399325D01*
X78154Y-399343D01*
X78203Y-399365D01*
X78238Y-399378D01*
X78261Y-399392D01*
X78270Y-399396D01*
X78332Y-399436D01*
X78385Y-399480D01*
X78434Y-399525D01*
X78474Y-399569D01*
X78505Y-399605D01*
X78532Y-399636D01*
X78545Y-399654D01*
X78549Y-399663D01*
Y-399343D01*
X78887D01*
Y-401574D01*
X78509D01*
Y-400418D01*
X78505Y-400312D01*
X78501Y-400218D01*
X78492Y-400138D01*
X78478Y-400072D01*
X78465Y-400023D01*
X78456Y-399987D01*
X78452Y-399965D01*
X78447Y-399956D01*
X78421Y-399898D01*
X78390Y-399849D01*
X78358Y-399805D01*
X78327Y-399769D01*
X78296Y-399743D01*
X78274Y-399725D01*
X78256Y-399711D01*
X78252Y-399707D01*
X78198Y-399680D01*
X78149Y-399658D01*
X78096Y-399645D01*
X78052Y-399632D01*
X78016Y-399627D01*
X77985Y-399623D01*
X77958D01*
X77883Y-399627D01*
X77821Y-399640D01*
X77767Y-399663D01*
X77727Y-399685D01*
X77696Y-399711D01*
X77674Y-399729D01*
X77660Y-399747D01*
X77656Y-399752D01*
X77625Y-399805D01*
X77603Y-399863D01*
X77585Y-399925D01*
X77576Y-399987D01*
X77567Y-400041D01*
X77563Y-400089D01*
Y-400107D01*
Y-400116D01*
Y-400125D01*
Y-400129D01*
Y-401574D01*
X77185D01*
Y-400280D01*
X77176Y-400160D01*
X77158Y-400058D01*
X77136Y-399974D01*
X77105Y-399903D01*
X77078Y-399849D01*
X77052Y-399814D01*
X77034Y-399792D01*
X77029Y-399783D01*
X76967Y-399729D01*
X76900Y-399689D01*
X76834Y-399663D01*
X76771Y-399640D01*
X76718Y-399632D01*
X76674Y-399627D01*
X76656Y-399623D01*
X76634D01*
X76585Y-399627D01*
X76545Y-399632D01*
X76505Y-399640D01*
X76474Y-399654D01*
X76443Y-399667D01*
X76425Y-399676D01*
X76411Y-399680D01*
X76407Y-399685D01*
X76371Y-399711D01*
X76345Y-399738D01*
X76323Y-399765D01*
X76305Y-399792D01*
X76291Y-399814D01*
X76283Y-399832D01*
X76274Y-399845D01*
Y-399849D01*
X76260Y-399889D01*
X76251Y-399943D01*
X76247Y-399996D01*
X76242Y-400049D01*
X76238Y-400098D01*
Y-400138D01*
Y-400165D01*
Y-400169D01*
Y-400174D01*
Y-401574D01*
X75860D01*
Y-400045D01*
Y-399974D01*
X75869Y-399912D01*
X75878Y-399849D01*
X75887Y-399796D01*
X75900Y-399743D01*
X75918Y-399698D01*
X75931Y-399658D01*
X75949Y-399618D01*
X75967Y-399587D01*
X75980Y-399556D01*
X76011Y-399516D01*
X76029Y-399489D01*
X76038Y-399480D01*
X76109Y-399418D01*
X76194Y-399374D01*
X76278Y-399338D01*
X76358Y-399316D01*
X76434Y-399303D01*
X76465Y-399298D01*
X76496D01*
X76518Y-399294D01*
X76549D01*
X76629Y-399298D01*
X76700Y-399311D01*
X76771Y-399329D01*
X76838Y-399356D01*
X76900Y-399387D01*
X76958Y-399418D01*
X77007Y-399454D01*
X77056Y-399489D01*
X77100Y-399529D01*
X77136Y-399565D01*
X77167Y-399596D01*
X77194Y-399627D01*
X77216Y-399654D01*
X77229Y-399672D01*
X77238Y-399685D01*
X77243Y-399689D01*
X77269Y-399623D01*
X77305Y-399565D01*
X77345Y-399516D01*
X77380Y-399476D01*
X77416Y-399440D01*
X77443Y-399418D01*
X77460Y-399405D01*
X77469Y-399400D01*
X77532Y-399365D01*
X77598Y-399338D01*
X77665Y-399320D01*
X77732Y-399307D01*
X77785Y-399298D01*
X77834Y-399294D01*
X77874D01*
X77954Y-399298D01*
D02*
G37*
G36*
X90480D02*
X90573Y-399307D01*
X90662Y-399320D01*
X90733Y-399334D01*
X90795Y-399347D01*
X90840Y-399360D01*
X90858Y-399365D01*
X90871Y-399369D01*
X90876Y-399374D01*
X90880D01*
X90955Y-399405D01*
X91022Y-399445D01*
X91080Y-399480D01*
X91129Y-399516D01*
X91164Y-399552D01*
X91191Y-399578D01*
X91209Y-399596D01*
X91213Y-399600D01*
X91253Y-399658D01*
X91289Y-399720D01*
X91315Y-399783D01*
X91338Y-399841D01*
X91355Y-399898D01*
X91369Y-399938D01*
X91373Y-399956D01*
Y-399969D01*
X91378Y-399974D01*
Y-399978D01*
X91009Y-400027D01*
X90982Y-399947D01*
X90955Y-399876D01*
X90924Y-399818D01*
X90898Y-399774D01*
X90871Y-399738D01*
X90849Y-399716D01*
X90831Y-399703D01*
X90827Y-399698D01*
X90773Y-399667D01*
X90711Y-399645D01*
X90644Y-399627D01*
X90582Y-399618D01*
X90520Y-399609D01*
X90475Y-399605D01*
X90431D01*
X90329Y-399609D01*
X90240Y-399623D01*
X90169Y-399645D01*
X90106Y-399667D01*
X90062Y-399694D01*
X90027Y-399711D01*
X90004Y-399729D01*
X90000Y-399734D01*
X89964Y-399774D01*
X89938Y-399823D01*
X89915Y-399876D01*
X89902Y-399929D01*
X89893Y-399978D01*
X89889Y-400023D01*
Y-400049D01*
Y-400054D01*
Y-400058D01*
Y-400067D01*
Y-400085D01*
Y-400116D01*
X89893Y-400143D01*
Y-400152D01*
Y-400156D01*
X89938Y-400169D01*
X89986Y-400183D01*
X90089Y-400209D01*
X90204Y-400232D01*
X90311Y-400254D01*
X90364Y-400263D01*
X90413Y-400267D01*
X90458Y-400276D01*
X90493Y-400280D01*
X90524Y-400285D01*
X90547D01*
X90564Y-400289D01*
X90569D01*
X90649Y-400298D01*
X90716Y-400312D01*
X90773Y-400321D01*
X90818Y-400329D01*
X90853Y-400334D01*
X90880Y-400343D01*
X90898Y-400347D01*
X90902D01*
X90960Y-400365D01*
X91009Y-400383D01*
X91058Y-400405D01*
X91098Y-400423D01*
X91133Y-400440D01*
X91156Y-400458D01*
X91173Y-400467D01*
X91178Y-400472D01*
X91222Y-400503D01*
X91258Y-400538D01*
X91293Y-400574D01*
X91320Y-400609D01*
X91342Y-400640D01*
X91360Y-400667D01*
X91369Y-400685D01*
X91373Y-400689D01*
X91396Y-400738D01*
X91413Y-400792D01*
X91427Y-400841D01*
X91436Y-400890D01*
X91440Y-400929D01*
X91444Y-400961D01*
Y-400978D01*
Y-400987D01*
X91440Y-401041D01*
X91436Y-401085D01*
X91413Y-401178D01*
X91382Y-401254D01*
X91347Y-401321D01*
X91311Y-401374D01*
X91280Y-401414D01*
X91258Y-401436D01*
X91249Y-401445D01*
X91169Y-401503D01*
X91080Y-401547D01*
X90982Y-401578D01*
X90893Y-401601D01*
X90813Y-401614D01*
X90778Y-401618D01*
X90747D01*
X90720Y-401623D01*
X90684D01*
X90604Y-401618D01*
X90524Y-401610D01*
X90453Y-401601D01*
X90391Y-401587D01*
X90342Y-401574D01*
X90302Y-401561D01*
X90275Y-401556D01*
X90267Y-401552D01*
X90191Y-401521D01*
X90120Y-401481D01*
X90053Y-401436D01*
X89986Y-401396D01*
X89933Y-401356D01*
X89893Y-401325D01*
X89867Y-401303D01*
X89862Y-401294D01*
X89858D01*
X89849Y-401352D01*
X89840Y-401405D01*
X89831Y-401454D01*
X89818Y-401494D01*
X89804Y-401530D01*
X89795Y-401552D01*
X89791Y-401570D01*
X89787Y-401574D01*
X89391D01*
X89413Y-401525D01*
X89435Y-401476D01*
X89453Y-401432D01*
X89462Y-401392D01*
X89475Y-401356D01*
X89480Y-401329D01*
X89484Y-401312D01*
Y-401307D01*
X89489Y-401276D01*
X89493Y-401236D01*
Y-401192D01*
X89497Y-401143D01*
X89502Y-401032D01*
Y-400921D01*
X89506Y-400814D01*
Y-400765D01*
Y-400725D01*
Y-400689D01*
Y-400663D01*
Y-400645D01*
Y-400640D01*
Y-400134D01*
Y-400049D01*
X89511Y-399974D01*
X89515Y-399916D01*
Y-399867D01*
X89520Y-399832D01*
X89524Y-399805D01*
X89529Y-399792D01*
Y-399787D01*
X89542Y-399729D01*
X89560Y-399680D01*
X89578Y-399640D01*
X89600Y-399600D01*
X89618Y-399574D01*
X89631Y-399552D01*
X89640Y-399538D01*
X89644Y-399534D01*
X89680Y-399498D01*
X89720Y-399463D01*
X89764Y-399436D01*
X89809Y-399409D01*
X89849Y-399392D01*
X89880Y-399378D01*
X89902Y-399369D01*
X89911Y-399365D01*
X89982Y-399343D01*
X90058Y-399325D01*
X90133Y-399311D01*
X90209Y-399303D01*
X90275Y-399298D01*
X90324Y-399294D01*
X90373D01*
X90480Y-399298D01*
D02*
G37*
G36*
X85697D02*
X85790Y-399307D01*
X85879Y-399320D01*
X85950Y-399334D01*
X86013Y-399347D01*
X86057Y-399360D01*
X86075Y-399365D01*
X86088Y-399369D01*
X86093Y-399374D01*
X86097D01*
X86173Y-399405D01*
X86239Y-399445D01*
X86297Y-399480D01*
X86346Y-399516D01*
X86382Y-399552D01*
X86408Y-399578D01*
X86426Y-399596D01*
X86431Y-399600D01*
X86470Y-399658D01*
X86506Y-399720D01*
X86533Y-399783D01*
X86555Y-399841D01*
X86573Y-399898D01*
X86586Y-399938D01*
X86590Y-399956D01*
Y-399969D01*
X86595Y-399974D01*
Y-399978D01*
X86226Y-400027D01*
X86199Y-399947D01*
X86173Y-399876D01*
X86142Y-399818D01*
X86115Y-399774D01*
X86088Y-399738D01*
X86066Y-399716D01*
X86048Y-399703D01*
X86044Y-399698D01*
X85990Y-399667D01*
X85928Y-399645D01*
X85862Y-399627D01*
X85799Y-399618D01*
X85737Y-399609D01*
X85693Y-399605D01*
X85648D01*
X85546Y-399609D01*
X85457Y-399623D01*
X85386Y-399645D01*
X85324Y-399667D01*
X85279Y-399694D01*
X85244Y-399711D01*
X85221Y-399729D01*
X85217Y-399734D01*
X85181Y-399774D01*
X85155Y-399823D01*
X85133Y-399876D01*
X85119Y-399929D01*
X85110Y-399978D01*
X85106Y-400023D01*
Y-400049D01*
Y-400054D01*
Y-400058D01*
Y-400067D01*
Y-400085D01*
Y-400116D01*
X85110Y-400143D01*
Y-400152D01*
Y-400156D01*
X85155Y-400169D01*
X85204Y-400183D01*
X85306Y-400209D01*
X85421Y-400232D01*
X85528Y-400254D01*
X85582Y-400263D01*
X85630Y-400267D01*
X85675Y-400276D01*
X85710Y-400280D01*
X85742Y-400285D01*
X85764D01*
X85781Y-400289D01*
X85786D01*
X85866Y-400298D01*
X85933Y-400312D01*
X85990Y-400321D01*
X86035Y-400329D01*
X86070Y-400334D01*
X86097Y-400343D01*
X86115Y-400347D01*
X86119D01*
X86177Y-400365D01*
X86226Y-400383D01*
X86275Y-400405D01*
X86315Y-400423D01*
X86350Y-400440D01*
X86373Y-400458D01*
X86390Y-400467D01*
X86395Y-400472D01*
X86439Y-400503D01*
X86475Y-400538D01*
X86510Y-400574D01*
X86537Y-400609D01*
X86559Y-400640D01*
X86577Y-400667D01*
X86586Y-400685D01*
X86590Y-400689D01*
X86613Y-400738D01*
X86630Y-400792D01*
X86644Y-400841D01*
X86653Y-400890D01*
X86657Y-400929D01*
X86662Y-400961D01*
Y-400978D01*
Y-400987D01*
X86657Y-401041D01*
X86653Y-401085D01*
X86630Y-401178D01*
X86599Y-401254D01*
X86564Y-401321D01*
X86528Y-401374D01*
X86497Y-401414D01*
X86475Y-401436D01*
X86466Y-401445D01*
X86386Y-401503D01*
X86297Y-401547D01*
X86199Y-401578D01*
X86110Y-401601D01*
X86030Y-401614D01*
X85995Y-401618D01*
X85964D01*
X85937Y-401623D01*
X85901D01*
X85822Y-401618D01*
X85742Y-401610D01*
X85670Y-401601D01*
X85608Y-401587D01*
X85559Y-401574D01*
X85519Y-401561D01*
X85493Y-401556D01*
X85484Y-401552D01*
X85408Y-401521D01*
X85337Y-401481D01*
X85270Y-401436D01*
X85204Y-401396D01*
X85150Y-401356D01*
X85110Y-401325D01*
X85084Y-401303D01*
X85079Y-401294D01*
X85075D01*
X85066Y-401352D01*
X85057Y-401405D01*
X85048Y-401454D01*
X85035Y-401494D01*
X85021Y-401530D01*
X85013Y-401552D01*
X85008Y-401570D01*
X85004Y-401574D01*
X84608D01*
X84630Y-401525D01*
X84653Y-401476D01*
X84670Y-401432D01*
X84679Y-401392D01*
X84692Y-401356D01*
X84697Y-401329D01*
X84701Y-401312D01*
Y-401307D01*
X84706Y-401276D01*
X84710Y-401236D01*
Y-401192D01*
X84715Y-401143D01*
X84719Y-401032D01*
Y-400921D01*
X84724Y-400814D01*
Y-400765D01*
Y-400725D01*
Y-400689D01*
Y-400663D01*
Y-400645D01*
Y-400640D01*
Y-400134D01*
Y-400049D01*
X84728Y-399974D01*
X84733Y-399916D01*
Y-399867D01*
X84737Y-399832D01*
X84741Y-399805D01*
X84746Y-399792D01*
Y-399787D01*
X84759Y-399729D01*
X84777Y-399680D01*
X84795Y-399640D01*
X84817Y-399600D01*
X84835Y-399574D01*
X84848Y-399552D01*
X84857Y-399538D01*
X84861Y-399534D01*
X84897Y-399498D01*
X84937Y-399463D01*
X84981Y-399436D01*
X85026Y-399409D01*
X85066Y-399392D01*
X85097Y-399378D01*
X85119Y-399369D01*
X85128Y-399365D01*
X85199Y-399343D01*
X85275Y-399325D01*
X85350Y-399311D01*
X85426Y-399303D01*
X85493Y-399298D01*
X85541Y-399294D01*
X85590D01*
X85697Y-399298D01*
D02*
G37*
G36*
X57734D02*
X57827Y-399307D01*
X57916Y-399320D01*
X57987Y-399334D01*
X58049Y-399347D01*
X58094Y-399360D01*
X58111Y-399365D01*
X58125Y-399369D01*
X58129Y-399374D01*
X58134D01*
X58209Y-399405D01*
X58276Y-399445D01*
X58334Y-399480D01*
X58383Y-399516D01*
X58418Y-399552D01*
X58445Y-399578D01*
X58463Y-399596D01*
X58467Y-399600D01*
X58507Y-399658D01*
X58543Y-399720D01*
X58569Y-399783D01*
X58591Y-399841D01*
X58609Y-399898D01*
X58623Y-399938D01*
X58627Y-399956D01*
Y-399969D01*
X58632Y-399974D01*
Y-399978D01*
X58263Y-400027D01*
X58236Y-399947D01*
X58209Y-399876D01*
X58178Y-399818D01*
X58151Y-399774D01*
X58125Y-399738D01*
X58102Y-399716D01*
X58085Y-399703D01*
X58080Y-399698D01*
X58027Y-399667D01*
X57965Y-399645D01*
X57898Y-399627D01*
X57836Y-399618D01*
X57774Y-399609D01*
X57729Y-399605D01*
X57685D01*
X57582Y-399609D01*
X57494Y-399623D01*
X57422Y-399645D01*
X57360Y-399667D01*
X57316Y-399694D01*
X57280Y-399711D01*
X57258Y-399729D01*
X57253Y-399734D01*
X57218Y-399774D01*
X57191Y-399823D01*
X57169Y-399876D01*
X57156Y-399929D01*
X57147Y-399978D01*
X57142Y-400023D01*
Y-400049D01*
Y-400054D01*
Y-400058D01*
Y-400067D01*
Y-400085D01*
Y-400116D01*
X57147Y-400143D01*
Y-400152D01*
Y-400156D01*
X57191Y-400169D01*
X57240Y-400183D01*
X57342Y-400209D01*
X57458Y-400232D01*
X57565Y-400254D01*
X57618Y-400263D01*
X57667Y-400267D01*
X57711Y-400276D01*
X57747Y-400280D01*
X57778Y-400285D01*
X57800D01*
X57818Y-400289D01*
X57822D01*
X57902Y-400298D01*
X57969Y-400312D01*
X58027Y-400321D01*
X58071Y-400329D01*
X58107Y-400334D01*
X58134Y-400343D01*
X58151Y-400347D01*
X58156D01*
X58214Y-400365D01*
X58263Y-400383D01*
X58311Y-400405D01*
X58351Y-400423D01*
X58387Y-400440D01*
X58409Y-400458D01*
X58427Y-400467D01*
X58431Y-400472D01*
X58476Y-400503D01*
X58511Y-400538D01*
X58547Y-400574D01*
X58574Y-400609D01*
X58596Y-400640D01*
X58614Y-400667D01*
X58623Y-400685D01*
X58627Y-400689D01*
X58649Y-400738D01*
X58667Y-400792D01*
X58680Y-400841D01*
X58689Y-400890D01*
X58694Y-400929D01*
X58698Y-400961D01*
Y-400978D01*
Y-400987D01*
X58694Y-401041D01*
X58689Y-401085D01*
X58667Y-401178D01*
X58636Y-401254D01*
X58600Y-401321D01*
X58565Y-401374D01*
X58534Y-401414D01*
X58511Y-401436D01*
X58502Y-401445D01*
X58422Y-401503D01*
X58334Y-401547D01*
X58236Y-401578D01*
X58147Y-401601D01*
X58067Y-401614D01*
X58031Y-401618D01*
X58000D01*
X57974Y-401623D01*
X57938D01*
X57858Y-401618D01*
X57778Y-401610D01*
X57707Y-401601D01*
X57645Y-401587D01*
X57596Y-401574D01*
X57556Y-401561D01*
X57529Y-401556D01*
X57520Y-401552D01*
X57445Y-401521D01*
X57373Y-401481D01*
X57307Y-401436D01*
X57240Y-401396D01*
X57187Y-401356D01*
X57147Y-401325D01*
X57120Y-401303D01*
X57116Y-401294D01*
X57111D01*
X57102Y-401352D01*
X57094Y-401405D01*
X57085Y-401454D01*
X57071Y-401494D01*
X57058Y-401530D01*
X57049Y-401552D01*
X57045Y-401570D01*
X57040Y-401574D01*
X56645D01*
X56667Y-401525D01*
X56689Y-401476D01*
X56707Y-401432D01*
X56716Y-401392D01*
X56729Y-401356D01*
X56733Y-401329D01*
X56738Y-401312D01*
Y-401307D01*
X56742Y-401276D01*
X56747Y-401236D01*
Y-401192D01*
X56751Y-401143D01*
X56756Y-401032D01*
Y-400921D01*
X56760Y-400814D01*
Y-400765D01*
Y-400725D01*
Y-400689D01*
Y-400663D01*
Y-400645D01*
Y-400640D01*
Y-400134D01*
Y-400049D01*
X56765Y-399974D01*
X56769Y-399916D01*
Y-399867D01*
X56773Y-399832D01*
X56778Y-399805D01*
X56782Y-399792D01*
Y-399787D01*
X56796Y-399729D01*
X56813Y-399680D01*
X56831Y-399640D01*
X56853Y-399600D01*
X56871Y-399574D01*
X56885Y-399552D01*
X56894Y-399538D01*
X56898Y-399534D01*
X56933Y-399498D01*
X56974Y-399463D01*
X57018Y-399436D01*
X57062Y-399409D01*
X57102Y-399392D01*
X57133Y-399378D01*
X57156Y-399369D01*
X57165Y-399365D01*
X57236Y-399343D01*
X57311Y-399325D01*
X57387Y-399311D01*
X57462Y-399303D01*
X57529Y-399298D01*
X57578Y-399294D01*
X57627D01*
X57734Y-399298D01*
D02*
G37*
G36*
X50799D02*
X50893Y-399307D01*
X50982Y-399320D01*
X51053Y-399334D01*
X51115Y-399347D01*
X51159Y-399360D01*
X51177Y-399365D01*
X51191Y-399369D01*
X51195Y-399374D01*
X51199D01*
X51275Y-399405D01*
X51342Y-399445D01*
X51399Y-399480D01*
X51448Y-399516D01*
X51484Y-399552D01*
X51511Y-399578D01*
X51528Y-399596D01*
X51533Y-399600D01*
X51573Y-399658D01*
X51608Y-399720D01*
X51635Y-399783D01*
X51657Y-399841D01*
X51675Y-399898D01*
X51688Y-399938D01*
X51693Y-399956D01*
Y-399969D01*
X51697Y-399974D01*
Y-399978D01*
X51328Y-400027D01*
X51302Y-399947D01*
X51275Y-399876D01*
X51244Y-399818D01*
X51217Y-399774D01*
X51191Y-399738D01*
X51168Y-399716D01*
X51150Y-399703D01*
X51146Y-399698D01*
X51093Y-399667D01*
X51031Y-399645D01*
X50964Y-399627D01*
X50902Y-399618D01*
X50839Y-399609D01*
X50795Y-399605D01*
X50750D01*
X50648Y-399609D01*
X50559Y-399623D01*
X50488Y-399645D01*
X50426Y-399667D01*
X50381Y-399694D01*
X50346Y-399711D01*
X50324Y-399729D01*
X50319Y-399734D01*
X50284Y-399774D01*
X50257Y-399823D01*
X50235Y-399876D01*
X50222Y-399929D01*
X50213Y-399978D01*
X50208Y-400023D01*
Y-400049D01*
Y-400054D01*
Y-400058D01*
Y-400067D01*
Y-400085D01*
Y-400116D01*
X50213Y-400143D01*
Y-400152D01*
Y-400156D01*
X50257Y-400169D01*
X50306Y-400183D01*
X50408Y-400209D01*
X50524Y-400232D01*
X50630Y-400254D01*
X50684Y-400263D01*
X50733Y-400267D01*
X50777Y-400276D01*
X50813Y-400280D01*
X50844Y-400285D01*
X50866D01*
X50884Y-400289D01*
X50888D01*
X50968Y-400298D01*
X51035Y-400312D01*
X51093Y-400321D01*
X51137Y-400329D01*
X51173Y-400334D01*
X51199Y-400343D01*
X51217Y-400347D01*
X51222D01*
X51279Y-400365D01*
X51328Y-400383D01*
X51377Y-400405D01*
X51417Y-400423D01*
X51453Y-400440D01*
X51475Y-400458D01*
X51493Y-400467D01*
X51497Y-400472D01*
X51542Y-400503D01*
X51577Y-400538D01*
X51613Y-400574D01*
X51639Y-400609D01*
X51662Y-400640D01*
X51680Y-400667D01*
X51688Y-400685D01*
X51693Y-400689D01*
X51715Y-400738D01*
X51733Y-400792D01*
X51746Y-400841D01*
X51755Y-400890D01*
X51760Y-400929D01*
X51764Y-400961D01*
Y-400978D01*
Y-400987D01*
X51760Y-401041D01*
X51755Y-401085D01*
X51733Y-401178D01*
X51702Y-401254D01*
X51666Y-401321D01*
X51631Y-401374D01*
X51599Y-401414D01*
X51577Y-401436D01*
X51568Y-401445D01*
X51488Y-401503D01*
X51399Y-401547D01*
X51302Y-401578D01*
X51213Y-401601D01*
X51133Y-401614D01*
X51097Y-401618D01*
X51066D01*
X51039Y-401623D01*
X51004D01*
X50924Y-401618D01*
X50844Y-401610D01*
X50773Y-401601D01*
X50711Y-401587D01*
X50662Y-401574D01*
X50622Y-401561D01*
X50595Y-401556D01*
X50586Y-401552D01*
X50510Y-401521D01*
X50439Y-401481D01*
X50373Y-401436D01*
X50306Y-401396D01*
X50253Y-401356D01*
X50213Y-401325D01*
X50186Y-401303D01*
X50181Y-401294D01*
X50177D01*
X50168Y-401352D01*
X50159Y-401405D01*
X50150Y-401454D01*
X50137Y-401494D01*
X50124Y-401530D01*
X50115Y-401552D01*
X50110Y-401570D01*
X50106Y-401574D01*
X49710D01*
X49733Y-401525D01*
X49755Y-401476D01*
X49773Y-401432D01*
X49781Y-401392D01*
X49795Y-401356D01*
X49799Y-401329D01*
X49804Y-401312D01*
Y-401307D01*
X49808Y-401276D01*
X49813Y-401236D01*
Y-401192D01*
X49817Y-401143D01*
X49822Y-401032D01*
Y-400921D01*
X49826Y-400814D01*
Y-400765D01*
Y-400725D01*
Y-400689D01*
Y-400663D01*
Y-400645D01*
Y-400640D01*
Y-400134D01*
Y-400049D01*
X49830Y-399974D01*
X49835Y-399916D01*
Y-399867D01*
X49839Y-399832D01*
X49844Y-399805D01*
X49848Y-399792D01*
Y-399787D01*
X49861Y-399729D01*
X49879Y-399680D01*
X49897Y-399640D01*
X49919Y-399600D01*
X49937Y-399574D01*
X49950Y-399552D01*
X49959Y-399538D01*
X49964Y-399534D01*
X49999Y-399498D01*
X50039Y-399463D01*
X50084Y-399436D01*
X50128Y-399409D01*
X50168Y-399392D01*
X50199Y-399378D01*
X50222Y-399369D01*
X50230Y-399365D01*
X50301Y-399343D01*
X50377Y-399325D01*
X50453Y-399311D01*
X50528Y-399303D01*
X50595Y-399298D01*
X50644Y-399294D01*
X50693D01*
X50799Y-399298D01*
D02*
G37*
G36*
X63828Y-401574D02*
X63450D01*
Y-400689D01*
X63188Y-400436D01*
X62445Y-401574D01*
X61979D01*
X62921Y-400174D01*
X62063Y-399343D01*
X62556D01*
X63450Y-400254D01*
Y-398498D01*
X63828D01*
Y-401574D01*
D02*
G37*
G36*
X68482D02*
X68122D01*
X67273Y-399343D01*
X67664D01*
X68157Y-400707D01*
X68188Y-400796D01*
X68219Y-400876D01*
X68242Y-400952D01*
X68264Y-401009D01*
X68277Y-401063D01*
X68290Y-401098D01*
X68295Y-401121D01*
X68299Y-401129D01*
X68326Y-401045D01*
X68348Y-400961D01*
X68375Y-400885D01*
X68397Y-400818D01*
X68415Y-400761D01*
X68428Y-400716D01*
X68433Y-400703D01*
X68437Y-400689D01*
X68442Y-400685D01*
Y-400681D01*
X68922Y-399343D01*
X69322D01*
X68482Y-401574D01*
D02*
G37*
G36*
X60116D02*
X59756D01*
X58907Y-399343D01*
X59298D01*
X59792Y-400707D01*
X59823Y-400796D01*
X59854Y-400876D01*
X59876Y-400952D01*
X59898Y-401009D01*
X59912Y-401063D01*
X59925Y-401098D01*
X59929Y-401121D01*
X59934Y-401129D01*
X59960Y-401045D01*
X59983Y-400961D01*
X60009Y-400885D01*
X60032Y-400818D01*
X60049Y-400761D01*
X60063Y-400716D01*
X60067Y-400703D01*
X60072Y-400689D01*
X60076Y-400685D01*
Y-400681D01*
X60556Y-399343D01*
X60956D01*
X60116Y-401574D01*
D02*
G37*
G36*
X65917Y-398791D02*
Y-399343D01*
X66197D01*
Y-399636D01*
X65917D01*
Y-400925D01*
Y-400987D01*
Y-401041D01*
X65912Y-401090D01*
X65908Y-401138D01*
Y-401178D01*
X65904Y-401214D01*
X65895Y-401272D01*
X65886Y-401316D01*
X65881Y-401347D01*
X65872Y-401365D01*
Y-401370D01*
X65855Y-401409D01*
X65828Y-401441D01*
X65801Y-401472D01*
X65779Y-401494D01*
X65752Y-401516D01*
X65735Y-401530D01*
X65721Y-401538D01*
X65717Y-401543D01*
X65668Y-401565D01*
X65619Y-401578D01*
X65566Y-401592D01*
X65512Y-401596D01*
X65468Y-401601D01*
X65432Y-401605D01*
X65397D01*
X65299Y-401601D01*
X65250Y-401596D01*
X65206Y-401587D01*
X65166Y-401583D01*
X65135Y-401578D01*
X65117Y-401574D01*
X65108D01*
X65157Y-401241D01*
X65192Y-401245D01*
X65228Y-401250D01*
X65259D01*
X65281Y-401254D01*
X65326D01*
X65383Y-401250D01*
X65423Y-401241D01*
X65446Y-401232D01*
X65455Y-401227D01*
X65486Y-401205D01*
X65503Y-401183D01*
X65517Y-401165D01*
X65521Y-401156D01*
X65526Y-401134D01*
X65530Y-401103D01*
X65535Y-401032D01*
X65539Y-401001D01*
Y-400974D01*
Y-400956D01*
Y-400947D01*
Y-399636D01*
X65157D01*
Y-399343D01*
X65539D01*
Y-398565D01*
X65917Y-398791D01*
D02*
G37*
G36*
X97183Y-399298D02*
X97263Y-399307D01*
X97338Y-399320D01*
X97410Y-399343D01*
X97476Y-399365D01*
X97538Y-399392D01*
X97596Y-399418D01*
X97645Y-399449D01*
X97694Y-399476D01*
X97734Y-399507D01*
X97770Y-399534D01*
X97796Y-399556D01*
X97819Y-399578D01*
X97836Y-399591D01*
X97845Y-399600D01*
X97850Y-399605D01*
X97899Y-399667D01*
X97943Y-399734D01*
X97983Y-399800D01*
X98019Y-399872D01*
X98045Y-399947D01*
X98068Y-400018D01*
X98103Y-400160D01*
X98116Y-400223D01*
X98125Y-400285D01*
X98130Y-400338D01*
X98134Y-400387D01*
X98139Y-400427D01*
Y-400454D01*
Y-400476D01*
Y-400480D01*
X98134Y-400578D01*
X98125Y-400672D01*
X98112Y-400761D01*
X98094Y-400841D01*
X98072Y-400916D01*
X98050Y-400987D01*
X98023Y-401049D01*
X97996Y-401107D01*
X97970Y-401156D01*
X97943Y-401201D01*
X97921Y-401236D01*
X97899Y-401267D01*
X97881Y-401294D01*
X97867Y-401312D01*
X97859Y-401321D01*
X97854Y-401325D01*
X97796Y-401378D01*
X97739Y-401423D01*
X97676Y-401463D01*
X97610Y-401498D01*
X97547Y-401525D01*
X97481Y-401552D01*
X97356Y-401587D01*
X97298Y-401596D01*
X97245Y-401605D01*
X97196Y-401614D01*
X97156Y-401618D01*
X97125Y-401623D01*
X97076D01*
X96938Y-401614D01*
X96814Y-401592D01*
X96703Y-401565D01*
X96658Y-401547D01*
X96614Y-401530D01*
X96574Y-401512D01*
X96538Y-401494D01*
X96512Y-401481D01*
X96485Y-401467D01*
X96467Y-401454D01*
X96454Y-401445D01*
X96445Y-401436D01*
X96441D01*
X96352Y-401356D01*
X96281Y-401272D01*
X96218Y-401183D01*
X96174Y-401098D01*
X96138Y-401023D01*
X96125Y-400987D01*
X96112Y-400961D01*
X96103Y-400934D01*
X96098Y-400916D01*
X96094Y-400907D01*
Y-400903D01*
X96485Y-400854D01*
X96521Y-400938D01*
X96561Y-401009D01*
X96601Y-401072D01*
X96636Y-401121D01*
X96667Y-401156D01*
X96694Y-401183D01*
X96716Y-401201D01*
X96721Y-401205D01*
X96778Y-401241D01*
X96836Y-401267D01*
X96898Y-401285D01*
X96952Y-401298D01*
X97001Y-401307D01*
X97041Y-401312D01*
X97076D01*
X97130Y-401307D01*
X97178Y-401303D01*
X97267Y-401281D01*
X97347Y-401250D01*
X97418Y-401214D01*
X97472Y-401183D01*
X97512Y-401152D01*
X97538Y-401129D01*
X97543Y-401121D01*
X97547D01*
X97610Y-401041D01*
X97659Y-400952D01*
X97694Y-400854D01*
X97721Y-400765D01*
X97734Y-400685D01*
X97743Y-400649D01*
X97747Y-400618D01*
Y-400592D01*
X97752Y-400574D01*
Y-400560D01*
Y-400556D01*
X96085D01*
X96081Y-400512D01*
Y-400480D01*
Y-400463D01*
Y-400458D01*
X96085Y-400356D01*
X96094Y-400263D01*
X96107Y-400174D01*
X96125Y-400089D01*
X96147Y-400014D01*
X96170Y-399943D01*
X96196Y-399880D01*
X96223Y-399823D01*
X96250Y-399769D01*
X96276Y-399725D01*
X96298Y-399689D01*
X96321Y-399658D01*
X96338Y-399632D01*
X96352Y-399614D01*
X96361Y-399605D01*
X96365Y-399600D01*
X96418Y-399547D01*
X96476Y-399498D01*
X96538Y-399458D01*
X96601Y-399423D01*
X96663Y-399392D01*
X96721Y-399369D01*
X96783Y-399347D01*
X96836Y-399334D01*
X96894Y-399320D01*
X96943Y-399311D01*
X96987Y-399303D01*
X97023Y-399298D01*
X97054Y-399294D01*
X97099D01*
X97183Y-399298D01*
D02*
G37*
G36*
X55382D02*
X55480Y-399316D01*
X55573Y-399338D01*
X55649Y-399360D01*
X55715Y-399387D01*
X55742Y-399400D01*
X55764Y-399409D01*
X55782Y-399418D01*
X55795Y-399427D01*
X55804Y-399431D01*
X55809D01*
X55893Y-399485D01*
X55969Y-399552D01*
X56031Y-399618D01*
X56084Y-399685D01*
X56125Y-399743D01*
X56151Y-399792D01*
X56160Y-399809D01*
X56169Y-399823D01*
X56173Y-399832D01*
Y-399836D01*
X56213Y-399943D01*
X56240Y-400049D01*
X56262Y-400156D01*
X56276Y-400254D01*
X56280Y-400298D01*
X56284Y-400338D01*
Y-400374D01*
X56289Y-400405D01*
Y-400432D01*
Y-400449D01*
Y-400463D01*
Y-400467D01*
X56284Y-400569D01*
X56276Y-400663D01*
X56262Y-400756D01*
X56245Y-400836D01*
X56227Y-400916D01*
X56200Y-400983D01*
X56178Y-401049D01*
X56151Y-401107D01*
X56125Y-401156D01*
X56102Y-401201D01*
X56076Y-401241D01*
X56058Y-401272D01*
X56040Y-401294D01*
X56027Y-401312D01*
X56018Y-401321D01*
X56013Y-401325D01*
X55960Y-401378D01*
X55902Y-401423D01*
X55844Y-401463D01*
X55782Y-401498D01*
X55720Y-401525D01*
X55662Y-401552D01*
X55542Y-401587D01*
X55489Y-401596D01*
X55440Y-401605D01*
X55395Y-401614D01*
X55356Y-401618D01*
X55324Y-401623D01*
X55280D01*
X55213Y-401618D01*
X55147Y-401614D01*
X55031Y-401587D01*
X54924Y-401556D01*
X54835Y-401516D01*
X54800Y-401494D01*
X54764Y-401476D01*
X54733Y-401458D01*
X54711Y-401441D01*
X54693Y-401427D01*
X54680Y-401418D01*
X54671Y-401414D01*
X54667Y-401409D01*
X54622Y-401365D01*
X54582Y-401321D01*
X54511Y-401223D01*
X54453Y-401121D01*
X54413Y-401027D01*
X54382Y-400938D01*
X54373Y-400903D01*
X54364Y-400867D01*
X54360Y-400841D01*
X54355Y-400823D01*
X54351Y-400810D01*
Y-400805D01*
X54724Y-400756D01*
X54742Y-400854D01*
X54769Y-400943D01*
X54804Y-401014D01*
X54835Y-401072D01*
X54866Y-401121D01*
X54893Y-401152D01*
X54907Y-401174D01*
X54915Y-401178D01*
X54973Y-401223D01*
X55035Y-401254D01*
X55098Y-401281D01*
X55156Y-401294D01*
X55204Y-401303D01*
X55249Y-401307D01*
X55276Y-401312D01*
X55284D01*
X55333Y-401307D01*
X55382Y-401303D01*
X55471Y-401281D01*
X55547Y-401250D01*
X55613Y-401209D01*
X55662Y-401174D01*
X55702Y-401143D01*
X55724Y-401121D01*
X55733Y-401112D01*
X55764Y-401072D01*
X55791Y-401023D01*
X55831Y-400925D01*
X55862Y-400814D01*
X55880Y-400707D01*
X55893Y-400609D01*
X55898Y-400569D01*
Y-400529D01*
X55902Y-400503D01*
Y-400476D01*
Y-400463D01*
Y-400458D01*
Y-400378D01*
X55893Y-400303D01*
X55884Y-400232D01*
X55876Y-400169D01*
X55862Y-400112D01*
X55844Y-400058D01*
X55831Y-400009D01*
X55813Y-399965D01*
X55795Y-399929D01*
X55782Y-399898D01*
X55764Y-399872D01*
X55751Y-399849D01*
X55742Y-399832D01*
X55733Y-399818D01*
X55724Y-399814D01*
Y-399809D01*
X55689Y-399774D01*
X55653Y-399743D01*
X55578Y-399689D01*
X55498Y-399654D01*
X55427Y-399632D01*
X55360Y-399614D01*
X55311Y-399609D01*
X55289Y-399605D01*
X55262D01*
X55195Y-399609D01*
X55133Y-399623D01*
X55080Y-399640D01*
X55031Y-399663D01*
X54995Y-399685D01*
X54964Y-399703D01*
X54946Y-399716D01*
X54942Y-399720D01*
X54898Y-399765D01*
X54858Y-399818D01*
X54822Y-399876D01*
X54800Y-399929D01*
X54778Y-399978D01*
X54764Y-400018D01*
X54760Y-400045D01*
X54755Y-400049D01*
Y-400054D01*
X54387Y-399996D01*
X54418Y-399876D01*
X54462Y-399774D01*
X54511Y-399685D01*
X54560Y-399614D01*
X54609Y-399556D01*
X54649Y-399516D01*
X54675Y-399489D01*
X54680Y-399480D01*
X54684D01*
X54778Y-399418D01*
X54875Y-399374D01*
X54973Y-399338D01*
X55067Y-399316D01*
X55151Y-399303D01*
X55187Y-399298D01*
X55213D01*
X55240Y-399294D01*
X55276D01*
X55382Y-399298D01*
D02*
G37*
G36*
X82039Y-401574D02*
X81608D01*
X81274Y-400640D01*
X79985D01*
X79625Y-401574D01*
X79163D01*
X80421Y-398498D01*
X80865D01*
X82039Y-401574D01*
D02*
G37*
G36*
X72140Y-399298D02*
X72184Y-399307D01*
X72229Y-399320D01*
X72264Y-399334D01*
X72291Y-399347D01*
X72318Y-399360D01*
X72331Y-399369D01*
X72335Y-399374D01*
X72375Y-399409D01*
X72415Y-399454D01*
X72455Y-399507D01*
X72491Y-399556D01*
X72526Y-399605D01*
X72549Y-399645D01*
X72566Y-399676D01*
X72571Y-399680D01*
Y-399343D01*
X72913D01*
Y-401574D01*
X72535D01*
Y-400409D01*
X72531Y-400321D01*
X72526Y-400241D01*
X72518Y-400165D01*
X72504Y-400098D01*
X72491Y-400045D01*
X72482Y-400005D01*
X72478Y-399978D01*
X72473Y-399969D01*
X72455Y-399921D01*
X72433Y-399880D01*
X72411Y-399845D01*
X72389Y-399814D01*
X72366Y-399792D01*
X72353Y-399774D01*
X72340Y-399765D01*
X72335Y-399760D01*
X72300Y-399734D01*
X72260Y-399716D01*
X72220Y-399703D01*
X72189Y-399694D01*
X72158Y-399689D01*
X72135Y-399685D01*
X72113D01*
X72064Y-399689D01*
X72015Y-399698D01*
X71967Y-399711D01*
X71926Y-399725D01*
X71891Y-399738D01*
X71864Y-399752D01*
X71846Y-399760D01*
X71842Y-399765D01*
X71704Y-399418D01*
X71780Y-399378D01*
X71851Y-399347D01*
X71913Y-399325D01*
X71971Y-399307D01*
X72020Y-399298D01*
X72060Y-399294D01*
X72091D01*
X72140Y-399298D01*
D02*
G37*
G36*
X70517D02*
X70597Y-399311D01*
X70669Y-399329D01*
X70740Y-399352D01*
X70802Y-399378D01*
X70860Y-399409D01*
X70913Y-399445D01*
X70957Y-399476D01*
X71002Y-399511D01*
X71037Y-399547D01*
X71069Y-399578D01*
X71095Y-399605D01*
X71113Y-399627D01*
X71126Y-399645D01*
X71135Y-399658D01*
X71140Y-399663D01*
Y-399343D01*
X71477D01*
Y-401574D01*
X71100D01*
Y-400360D01*
Y-400285D01*
X71091Y-400209D01*
X71082Y-400147D01*
X71073Y-400089D01*
X71060Y-400036D01*
X71046Y-399987D01*
X71029Y-399943D01*
X71011Y-399907D01*
X70997Y-399876D01*
X70980Y-399849D01*
X70966Y-399827D01*
X70953Y-399809D01*
X70935Y-399787D01*
X70926Y-399778D01*
X70860Y-399725D01*
X70788Y-399689D01*
X70717Y-399663D01*
X70655Y-399640D01*
X70597Y-399632D01*
X70553Y-399627D01*
X70535Y-399623D01*
X70513D01*
X70460Y-399627D01*
X70406Y-399632D01*
X70362Y-399645D01*
X70326Y-399658D01*
X70295Y-399672D01*
X70269Y-399680D01*
X70255Y-399689D01*
X70251Y-399694D01*
X70211Y-399720D01*
X70175Y-399752D01*
X70148Y-399783D01*
X70126Y-399809D01*
X70113Y-399836D01*
X70100Y-399858D01*
X70091Y-399872D01*
Y-399876D01*
X70077Y-399925D01*
X70064Y-399978D01*
X70055Y-400036D01*
X70051Y-400094D01*
X70046Y-400143D01*
Y-400183D01*
Y-400214D01*
Y-400218D01*
Y-400223D01*
Y-401574D01*
X69668D01*
Y-400205D01*
Y-400112D01*
X69673Y-400036D01*
X69677Y-399974D01*
Y-399921D01*
X69682Y-399885D01*
X69686Y-399858D01*
X69691Y-399841D01*
Y-399836D01*
X69704Y-399778D01*
X69726Y-399725D01*
X69744Y-399680D01*
X69762Y-399636D01*
X69784Y-399605D01*
X69797Y-399583D01*
X69806Y-399565D01*
X69811Y-399560D01*
X69846Y-399516D01*
X69886Y-399480D01*
X69926Y-399445D01*
X69971Y-399418D01*
X70006Y-399396D01*
X70037Y-399383D01*
X70055Y-399374D01*
X70064Y-399369D01*
X70126Y-399343D01*
X70193Y-399325D01*
X70255Y-399311D01*
X70313Y-399303D01*
X70362Y-399298D01*
X70397Y-399294D01*
X70433D01*
X70517Y-399298D01*
D02*
G37*
G36*
X66935Y-401574D02*
X66557D01*
Y-399343D01*
X66935D01*
Y-401574D01*
D02*
G37*
G36*
X64783D02*
X64405D01*
Y-399343D01*
X64783D01*
Y-401574D01*
D02*
G37*
G36*
X61676D02*
X61298D01*
Y-399343D01*
X61676D01*
Y-401574D01*
D02*
G37*
G36*
X95014Y-399303D02*
X95067Y-399307D01*
X95116Y-399316D01*
X95156Y-399325D01*
X95187Y-399334D01*
X95205Y-399338D01*
X95214Y-399343D01*
X95267Y-399360D01*
X95316Y-399378D01*
X95356Y-399396D01*
X95392Y-399414D01*
X95418Y-399427D01*
X95436Y-399440D01*
X95449Y-399445D01*
X95454Y-399449D01*
X95498Y-399480D01*
X95534Y-399516D01*
X95565Y-399556D01*
X95592Y-399587D01*
X95614Y-399618D01*
X95627Y-399640D01*
X95636Y-399658D01*
X95640Y-399663D01*
X95663Y-399711D01*
X95681Y-399756D01*
X95689Y-399805D01*
X95698Y-399845D01*
X95703Y-399885D01*
X95707Y-399912D01*
Y-399929D01*
Y-399938D01*
X95703Y-400000D01*
X95694Y-400054D01*
X95681Y-400107D01*
X95667Y-400152D01*
X95654Y-400187D01*
X95640Y-400218D01*
X95632Y-400236D01*
X95627Y-400241D01*
X95592Y-400289D01*
X95552Y-400329D01*
X95512Y-400365D01*
X95472Y-400396D01*
X95436Y-400418D01*
X95409Y-400436D01*
X95392Y-400445D01*
X95383Y-400449D01*
X95352Y-400463D01*
X95312Y-400480D01*
X95223Y-400512D01*
X95129Y-400538D01*
X95032Y-400569D01*
X94947Y-400592D01*
X94907Y-400605D01*
X94872Y-400614D01*
X94845Y-400623D01*
X94823Y-400627D01*
X94809Y-400632D01*
X94805D01*
X94747Y-400645D01*
X94698Y-400658D01*
X94654Y-400672D01*
X94614Y-400685D01*
X94578Y-400694D01*
X94547Y-400707D01*
X94494Y-400725D01*
X94458Y-400738D01*
X94436Y-400752D01*
X94423Y-400756D01*
X94418Y-400761D01*
X94378Y-400787D01*
X94352Y-400823D01*
X94329Y-400854D01*
X94316Y-400885D01*
X94307Y-400916D01*
X94303Y-400938D01*
Y-400956D01*
Y-400961D01*
X94307Y-401014D01*
X94320Y-401058D01*
X94343Y-401103D01*
X94365Y-401138D01*
X94391Y-401170D01*
X94409Y-401192D01*
X94427Y-401205D01*
X94431Y-401209D01*
X94485Y-401245D01*
X94543Y-401267D01*
X94609Y-401285D01*
X94671Y-401298D01*
X94729Y-401307D01*
X94774Y-401312D01*
X94818D01*
X94911Y-401307D01*
X94992Y-401294D01*
X95058Y-401276D01*
X95116Y-401254D01*
X95161Y-401232D01*
X95196Y-401214D01*
X95214Y-401201D01*
X95223Y-401196D01*
X95272Y-401147D01*
X95312Y-401090D01*
X95338Y-401032D01*
X95360Y-400978D01*
X95378Y-400929D01*
X95387Y-400885D01*
X95396Y-400858D01*
Y-400854D01*
Y-400849D01*
X95769Y-400907D01*
X95738Y-401032D01*
X95698Y-401143D01*
X95649Y-401232D01*
X95601Y-401307D01*
X95556Y-401370D01*
X95516Y-401409D01*
X95489Y-401436D01*
X95485Y-401441D01*
X95480Y-401445D01*
X95436Y-401476D01*
X95387Y-401503D01*
X95281Y-401547D01*
X95169Y-401578D01*
X95063Y-401601D01*
X95014Y-401610D01*
X94969Y-401614D01*
X94925Y-401618D01*
X94889D01*
X94858Y-401623D01*
X94818D01*
X94720Y-401618D01*
X94636Y-401610D01*
X94556Y-401596D01*
X94485Y-401578D01*
X94427Y-401561D01*
X94383Y-401547D01*
X94356Y-401538D01*
X94352Y-401534D01*
X94347D01*
X94271Y-401494D01*
X94209Y-401454D01*
X94156Y-401409D01*
X94107Y-401370D01*
X94071Y-401334D01*
X94049Y-401303D01*
X94031Y-401285D01*
X94027Y-401276D01*
X93991Y-401214D01*
X93965Y-401147D01*
X93942Y-401090D01*
X93929Y-401036D01*
X93920Y-400987D01*
X93916Y-400952D01*
Y-400929D01*
Y-400921D01*
X93920Y-400849D01*
X93929Y-400787D01*
X93947Y-400734D01*
X93960Y-400685D01*
X93978Y-400645D01*
X93996Y-400618D01*
X94005Y-400601D01*
X94009Y-400596D01*
X94045Y-400552D01*
X94085Y-400512D01*
X94125Y-400476D01*
X94165Y-400449D01*
X94205Y-400427D01*
X94232Y-400414D01*
X94249Y-400405D01*
X94258Y-400401D01*
X94289Y-400387D01*
X94325Y-400374D01*
X94409Y-400343D01*
X94503Y-400312D01*
X94596Y-400285D01*
X94680Y-400258D01*
X94720Y-400249D01*
X94752Y-400241D01*
X94778Y-400232D01*
X94800Y-400227D01*
X94814Y-400223D01*
X94818D01*
X94867Y-400209D01*
X94911Y-400196D01*
X94952Y-400187D01*
X94987Y-400174D01*
X95045Y-400160D01*
X95089Y-400147D01*
X95120Y-400134D01*
X95138Y-400129D01*
X95147Y-400125D01*
X95152D01*
X95187Y-400107D01*
X95218Y-400094D01*
X95245Y-400076D01*
X95263Y-400063D01*
X95281Y-400049D01*
X95289Y-400036D01*
X95294Y-400032D01*
X95298Y-400027D01*
X95325Y-399983D01*
X95338Y-399938D01*
Y-399921D01*
X95343Y-399907D01*
Y-399898D01*
Y-399894D01*
X95338Y-399854D01*
X95325Y-399814D01*
X95307Y-399778D01*
X95285Y-399752D01*
X95267Y-399725D01*
X95249Y-399707D01*
X95236Y-399698D01*
X95232Y-399694D01*
X95183Y-399663D01*
X95125Y-399640D01*
X95063Y-399627D01*
X95005Y-399614D01*
X94947Y-399609D01*
X94903Y-399605D01*
X94858D01*
X94783Y-399609D01*
X94712Y-399618D01*
X94654Y-399636D01*
X94609Y-399654D01*
X94569Y-399672D01*
X94543Y-399689D01*
X94525Y-399698D01*
X94520Y-399703D01*
X94476Y-399743D01*
X94445Y-399787D01*
X94418Y-399832D01*
X94396Y-399872D01*
X94383Y-399912D01*
X94374Y-399943D01*
X94369Y-399961D01*
Y-399969D01*
X94000Y-399921D01*
X94018Y-399845D01*
X94036Y-399778D01*
X94058Y-399720D01*
X94080Y-399667D01*
X94103Y-399632D01*
X94120Y-399600D01*
X94129Y-399583D01*
X94134Y-399578D01*
X94174Y-399534D01*
X94218Y-399494D01*
X94267Y-399458D01*
X94316Y-399427D01*
X94360Y-399405D01*
X94396Y-399387D01*
X94418Y-399378D01*
X94423Y-399374D01*
X94427D01*
X94503Y-399347D01*
X94583Y-399329D01*
X94658Y-399311D01*
X94729Y-399303D01*
X94796Y-399298D01*
X94845Y-399294D01*
X94952D01*
X95014Y-399303D01*
D02*
G37*
G36*
X92862D02*
X92916Y-399307D01*
X92965Y-399316D01*
X93005Y-399325D01*
X93036Y-399334D01*
X93054Y-399338D01*
X93062Y-399343D01*
X93116Y-399360D01*
X93165Y-399378D01*
X93205Y-399396D01*
X93240Y-399414D01*
X93267Y-399427D01*
X93285Y-399440D01*
X93298Y-399445D01*
X93302Y-399449D01*
X93347Y-399480D01*
X93383Y-399516D01*
X93414Y-399556D01*
X93440Y-399587D01*
X93462Y-399618D01*
X93476Y-399640D01*
X93485Y-399658D01*
X93489Y-399663D01*
X93511Y-399711D01*
X93529Y-399756D01*
X93538Y-399805D01*
X93547Y-399845D01*
X93551Y-399885D01*
X93556Y-399912D01*
Y-399929D01*
Y-399938D01*
X93551Y-400000D01*
X93542Y-400054D01*
X93529Y-400107D01*
X93516Y-400152D01*
X93503Y-400187D01*
X93489Y-400218D01*
X93480Y-400236D01*
X93476Y-400241D01*
X93440Y-400289D01*
X93400Y-400329D01*
X93360Y-400365D01*
X93320Y-400396D01*
X93285Y-400418D01*
X93258Y-400436D01*
X93240Y-400445D01*
X93231Y-400449D01*
X93200Y-400463D01*
X93160Y-400480D01*
X93071Y-400512D01*
X92978Y-400538D01*
X92880Y-400569D01*
X92796Y-400592D01*
X92756Y-400605D01*
X92720Y-400614D01*
X92694Y-400623D01*
X92671Y-400627D01*
X92658Y-400632D01*
X92654D01*
X92596Y-400645D01*
X92547Y-400658D01*
X92502Y-400672D01*
X92462Y-400685D01*
X92427Y-400694D01*
X92396Y-400707D01*
X92342Y-400725D01*
X92307Y-400738D01*
X92285Y-400752D01*
X92271Y-400756D01*
X92267Y-400761D01*
X92227Y-400787D01*
X92200Y-400823D01*
X92178Y-400854D01*
X92164Y-400885D01*
X92156Y-400916D01*
X92151Y-400938D01*
Y-400956D01*
Y-400961D01*
X92156Y-401014D01*
X92169Y-401058D01*
X92191Y-401103D01*
X92213Y-401138D01*
X92240Y-401170D01*
X92258Y-401192D01*
X92276Y-401205D01*
X92280Y-401209D01*
X92333Y-401245D01*
X92391Y-401267D01*
X92458Y-401285D01*
X92520Y-401298D01*
X92578Y-401307D01*
X92622Y-401312D01*
X92667D01*
X92760Y-401307D01*
X92840Y-401294D01*
X92907Y-401276D01*
X92965Y-401254D01*
X93009Y-401232D01*
X93045Y-401214D01*
X93062Y-401201D01*
X93071Y-401196D01*
X93120Y-401147D01*
X93160Y-401090D01*
X93187Y-401032D01*
X93209Y-400978D01*
X93227Y-400929D01*
X93236Y-400885D01*
X93245Y-400858D01*
Y-400854D01*
Y-400849D01*
X93618Y-400907D01*
X93587Y-401032D01*
X93547Y-401143D01*
X93498Y-401232D01*
X93449Y-401307D01*
X93405Y-401370D01*
X93365Y-401409D01*
X93338Y-401436D01*
X93334Y-401441D01*
X93329Y-401445D01*
X93285Y-401476D01*
X93236Y-401503D01*
X93129Y-401547D01*
X93018Y-401578D01*
X92911Y-401601D01*
X92862Y-401610D01*
X92818Y-401614D01*
X92774Y-401618D01*
X92738D01*
X92707Y-401623D01*
X92667D01*
X92569Y-401618D01*
X92485Y-401610D01*
X92405Y-401596D01*
X92333Y-401578D01*
X92276Y-401561D01*
X92231Y-401547D01*
X92205Y-401538D01*
X92200Y-401534D01*
X92196D01*
X92120Y-401494D01*
X92058Y-401454D01*
X92004Y-401409D01*
X91956Y-401370D01*
X91920Y-401334D01*
X91898Y-401303D01*
X91880Y-401285D01*
X91876Y-401276D01*
X91840Y-401214D01*
X91813Y-401147D01*
X91791Y-401090D01*
X91778Y-401036D01*
X91769Y-400987D01*
X91764Y-400952D01*
Y-400929D01*
Y-400921D01*
X91769Y-400849D01*
X91778Y-400787D01*
X91796Y-400734D01*
X91809Y-400685D01*
X91827Y-400645D01*
X91845Y-400618D01*
X91853Y-400601D01*
X91858Y-400596D01*
X91893Y-400552D01*
X91933Y-400512D01*
X91973Y-400476D01*
X92013Y-400449D01*
X92053Y-400427D01*
X92080Y-400414D01*
X92098Y-400405D01*
X92107Y-400401D01*
X92138Y-400387D01*
X92173Y-400374D01*
X92258Y-400343D01*
X92351Y-400312D01*
X92445Y-400285D01*
X92529Y-400258D01*
X92569Y-400249D01*
X92600Y-400241D01*
X92627Y-400232D01*
X92649Y-400227D01*
X92662Y-400223D01*
X92667D01*
X92716Y-400209D01*
X92760Y-400196D01*
X92800Y-400187D01*
X92836Y-400174D01*
X92893Y-400160D01*
X92938Y-400147D01*
X92969Y-400134D01*
X92987Y-400129D01*
X92996Y-400125D01*
X93000D01*
X93036Y-400107D01*
X93067Y-400094D01*
X93094Y-400076D01*
X93111Y-400063D01*
X93129Y-400049D01*
X93138Y-400036D01*
X93142Y-400032D01*
X93147Y-400027D01*
X93174Y-399983D01*
X93187Y-399938D01*
Y-399921D01*
X93191Y-399907D01*
Y-399898D01*
Y-399894D01*
X93187Y-399854D01*
X93174Y-399814D01*
X93156Y-399778D01*
X93133Y-399752D01*
X93116Y-399725D01*
X93098Y-399707D01*
X93085Y-399698D01*
X93080Y-399694D01*
X93031Y-399663D01*
X92973Y-399640D01*
X92911Y-399627D01*
X92853Y-399614D01*
X92796Y-399609D01*
X92751Y-399605D01*
X92707D01*
X92631Y-399609D01*
X92560Y-399618D01*
X92502Y-399636D01*
X92458Y-399654D01*
X92418Y-399672D01*
X92391Y-399689D01*
X92373Y-399698D01*
X92369Y-399703D01*
X92325Y-399743D01*
X92293Y-399787D01*
X92267Y-399832D01*
X92245Y-399872D01*
X92231Y-399912D01*
X92222Y-399943D01*
X92218Y-399961D01*
Y-399969D01*
X91849Y-399921D01*
X91867Y-399845D01*
X91884Y-399778D01*
X91907Y-399720D01*
X91929Y-399667D01*
X91951Y-399632D01*
X91969Y-399600D01*
X91978Y-399583D01*
X91982Y-399578D01*
X92022Y-399534D01*
X92067Y-399494D01*
X92116Y-399458D01*
X92164Y-399427D01*
X92209Y-399405D01*
X92245Y-399387D01*
X92267Y-399378D01*
X92271Y-399374D01*
X92276D01*
X92351Y-399347D01*
X92431Y-399329D01*
X92507Y-399311D01*
X92578Y-399303D01*
X92645Y-399298D01*
X92694Y-399294D01*
X92800D01*
X92862Y-399303D01*
D02*
G37*
G36*
X87511Y-399600D02*
X87551Y-399552D01*
X87595Y-399511D01*
X87635Y-399472D01*
X87680Y-399440D01*
X87715Y-399418D01*
X87742Y-399396D01*
X87760Y-399387D01*
X87768Y-399383D01*
X87826Y-399352D01*
X87888Y-399329D01*
X87951Y-399316D01*
X88008Y-399303D01*
X88057Y-399298D01*
X88093Y-399294D01*
X88128D01*
X88226Y-399298D01*
X88320Y-399316D01*
X88404Y-399338D01*
X88475Y-399365D01*
X88537Y-399396D01*
X88582Y-399418D01*
X88600Y-399427D01*
X88613Y-399436D01*
X88617Y-399440D01*
X88622D01*
X88702Y-399498D01*
X88769Y-399569D01*
X88826Y-399636D01*
X88871Y-399703D01*
X88906Y-399765D01*
X88933Y-399814D01*
X88942Y-399832D01*
X88951Y-399845D01*
X88955Y-399854D01*
Y-399858D01*
X88991Y-399961D01*
X89017Y-400067D01*
X89040Y-400169D01*
X89053Y-400263D01*
X89062Y-400343D01*
Y-400378D01*
X89066Y-400405D01*
Y-400432D01*
Y-400449D01*
Y-400458D01*
Y-400463D01*
X89062Y-400587D01*
X89049Y-400703D01*
X89026Y-400805D01*
X89004Y-400894D01*
X88995Y-400934D01*
X88986Y-400965D01*
X88973Y-400996D01*
X88964Y-401023D01*
X88955Y-401041D01*
X88951Y-401054D01*
X88946Y-401063D01*
Y-401067D01*
X88897Y-401161D01*
X88840Y-401241D01*
X88782Y-401312D01*
X88724Y-401370D01*
X88675Y-401414D01*
X88635Y-401450D01*
X88609Y-401467D01*
X88604Y-401476D01*
X88600D01*
X88515Y-401525D01*
X88431Y-401561D01*
X88346Y-401587D01*
X88271Y-401605D01*
X88209Y-401614D01*
X88155Y-401618D01*
X88137Y-401623D01*
X88111D01*
X88035Y-401618D01*
X87964Y-401610D01*
X87897Y-401592D01*
X87840Y-401570D01*
X87782Y-401547D01*
X87728Y-401521D01*
X87684Y-401489D01*
X87644Y-401458D01*
X87604Y-401427D01*
X87573Y-401396D01*
X87546Y-401370D01*
X87524Y-401347D01*
X87506Y-401325D01*
X87493Y-401307D01*
X87488Y-401298D01*
X87484Y-401294D01*
Y-401574D01*
X87133D01*
Y-398498D01*
X87511D01*
Y-399600D01*
D02*
G37*
G36*
X74473Y-399298D02*
X74545Y-399303D01*
X74682Y-399334D01*
X74802Y-399374D01*
X74856Y-399396D01*
X74905Y-399418D01*
X74949Y-399440D01*
X74985Y-399463D01*
X75020Y-399485D01*
X75047Y-399503D01*
X75069Y-399520D01*
X75087Y-399534D01*
X75096Y-399538D01*
X75100Y-399543D01*
X75162Y-399600D01*
X75211Y-399667D01*
X75260Y-399738D01*
X75296Y-399809D01*
X75331Y-399885D01*
X75358Y-399965D01*
X75380Y-400041D01*
X75398Y-400112D01*
X75416Y-400183D01*
X75425Y-400245D01*
X75434Y-400307D01*
X75438Y-400356D01*
Y-400401D01*
X75442Y-400432D01*
Y-400449D01*
Y-400458D01*
X75438Y-400560D01*
X75429Y-400658D01*
X75416Y-400747D01*
X75398Y-400832D01*
X75376Y-400907D01*
X75353Y-400978D01*
X75327Y-401045D01*
X75300Y-401103D01*
X75273Y-401156D01*
X75247Y-401201D01*
X75225Y-401236D01*
X75202Y-401267D01*
X75185Y-401294D01*
X75171Y-401312D01*
X75162Y-401321D01*
X75158Y-401325D01*
X75100Y-401378D01*
X75042Y-401423D01*
X74980Y-401463D01*
X74918Y-401498D01*
X74856Y-401525D01*
X74789Y-401552D01*
X74669Y-401587D01*
X74616Y-401596D01*
X74562Y-401605D01*
X74518Y-401614D01*
X74478Y-401618D01*
X74442Y-401623D01*
X74398D01*
X74291Y-401618D01*
X74193Y-401601D01*
X74100Y-401578D01*
X74025Y-401556D01*
X73958Y-401530D01*
X73931Y-401521D01*
X73909Y-401512D01*
X73887Y-401503D01*
X73873Y-401494D01*
X73869Y-401489D01*
X73864D01*
X73776Y-401432D01*
X73700Y-401370D01*
X73633Y-401307D01*
X73580Y-401245D01*
X73540Y-401192D01*
X73509Y-401147D01*
X73500Y-401129D01*
X73491Y-401116D01*
X73487Y-401112D01*
Y-401107D01*
X73442Y-401005D01*
X73411Y-400894D01*
X73384Y-400783D01*
X73371Y-400672D01*
X73362Y-400623D01*
Y-400578D01*
X73358Y-400534D01*
X73353Y-400498D01*
Y-400467D01*
Y-400445D01*
Y-400432D01*
Y-400427D01*
X73358Y-400329D01*
X73367Y-400241D01*
X73380Y-400156D01*
X73398Y-400076D01*
X73420Y-400000D01*
X73447Y-399934D01*
X73473Y-399867D01*
X73500Y-399814D01*
X73527Y-399765D01*
X73553Y-399720D01*
X73580Y-399680D01*
X73602Y-399649D01*
X73620Y-399627D01*
X73633Y-399609D01*
X73642Y-399600D01*
X73647Y-399596D01*
X73705Y-399543D01*
X73762Y-399498D01*
X73825Y-399454D01*
X73887Y-399423D01*
X73949Y-399392D01*
X74011Y-399369D01*
X74131Y-399329D01*
X74189Y-399320D01*
X74238Y-399311D01*
X74282Y-399303D01*
X74322Y-399298D01*
X74353Y-399294D01*
X74398D01*
X74473Y-399298D01*
D02*
G37*
G36*
X99037Y-400618D02*
Y-400712D01*
X99045Y-400792D01*
X99050Y-400858D01*
X99059Y-400912D01*
X99068Y-400952D01*
X99072Y-400983D01*
X99081Y-401001D01*
Y-401005D01*
X99099Y-401049D01*
X99121Y-401085D01*
X99148Y-401116D01*
X99170Y-401147D01*
X99197Y-401165D01*
X99214Y-401183D01*
X99228Y-401192D01*
X99232Y-401196D01*
X99277Y-401218D01*
X99321Y-401236D01*
X99365Y-401245D01*
X99405Y-401254D01*
X99445Y-401258D01*
X99472Y-401263D01*
X99499D01*
X99570Y-401258D01*
X99637Y-401241D01*
X99690Y-401223D01*
X99739Y-401196D01*
X99774Y-401174D01*
X99801Y-401152D01*
X99819Y-401138D01*
X99823Y-401134D01*
X99846Y-401107D01*
X99863Y-401076D01*
X99890Y-401005D01*
X99917Y-400925D01*
X99930Y-400845D01*
X99943Y-400770D01*
Y-400738D01*
X99948Y-400712D01*
X99952Y-400685D01*
Y-400667D01*
Y-400658D01*
Y-400654D01*
X100321Y-400707D01*
Y-400792D01*
X100317Y-400867D01*
X100303Y-400943D01*
X100294Y-401009D01*
X100277Y-401072D01*
X100259Y-401125D01*
X100241Y-401178D01*
X100223Y-401223D01*
X100201Y-401263D01*
X100183Y-401298D01*
X100166Y-401329D01*
X100148Y-401352D01*
X100134Y-401370D01*
X100126Y-401387D01*
X100121Y-401392D01*
X100117Y-401396D01*
X100072Y-401436D01*
X100028Y-401472D01*
X99979Y-401503D01*
X99925Y-401530D01*
X99823Y-401570D01*
X99726Y-401596D01*
X99632Y-401614D01*
X99597Y-401618D01*
X99561Y-401623D01*
X99534Y-401627D01*
X99494D01*
X99397Y-401623D01*
X99308Y-401610D01*
X99228Y-401592D01*
X99157Y-401570D01*
X99099Y-401552D01*
X99059Y-401534D01*
X99032Y-401521D01*
X99023Y-401516D01*
X98952Y-401472D01*
X98890Y-401418D01*
X98841Y-401365D01*
X98797Y-401316D01*
X98765Y-401267D01*
X98743Y-401232D01*
X98730Y-401205D01*
X98725Y-401201D01*
Y-401196D01*
X98694Y-401107D01*
X98668Y-401014D01*
X98650Y-400912D01*
X98641Y-400814D01*
X98632Y-400729D01*
Y-400694D01*
X98628Y-400658D01*
Y-400632D01*
Y-400614D01*
Y-400601D01*
Y-400596D01*
Y-398498D01*
X99037D01*
Y-400618D01*
D02*
G37*
%LPC*%
G36*
X89893Y-400454D02*
X89889D01*
X89893Y-400596D01*
X89898Y-400685D01*
X89902Y-400761D01*
X89911Y-400823D01*
X89924Y-400876D01*
X89938Y-400916D01*
X89946Y-400947D01*
X89951Y-400965D01*
X89955Y-400970D01*
X89991Y-401027D01*
X90027Y-401081D01*
X90071Y-401125D01*
X90111Y-401161D01*
X90147Y-401192D01*
X90178Y-401214D01*
X90195Y-401227D01*
X90204Y-401232D01*
X90271Y-401263D01*
X90338Y-401285D01*
X90400Y-401303D01*
X90462Y-401312D01*
X90511Y-401321D01*
X90555Y-401325D01*
X90591D01*
X90671Y-401321D01*
X90738Y-401312D01*
X90795Y-401294D01*
X90844Y-401276D01*
X90880Y-401258D01*
X90907Y-401241D01*
X90924Y-401232D01*
X90929Y-401227D01*
X90964Y-401187D01*
X90991Y-401143D01*
X91013Y-401103D01*
X91027Y-401063D01*
X91035Y-401027D01*
X91040Y-401001D01*
Y-400978D01*
Y-400974D01*
X91035Y-400938D01*
X91031Y-400903D01*
X91022Y-400876D01*
X91013Y-400849D01*
X91004Y-400827D01*
X91000Y-400810D01*
X90991Y-400801D01*
Y-400796D01*
X90947Y-400743D01*
X90893Y-400707D01*
X90876Y-400694D01*
X90858Y-400685D01*
X90844Y-400676D01*
X90840D01*
X90795Y-400658D01*
X90747Y-400645D01*
X90693Y-400632D01*
X90640Y-400623D01*
X90591Y-400614D01*
X90547Y-400605D01*
X90520Y-400601D01*
X90511D01*
X90435Y-400587D01*
X90364Y-400578D01*
X90302Y-400565D01*
X90240Y-400552D01*
X90182Y-400538D01*
X90133Y-400525D01*
X90084Y-400516D01*
X90044Y-400503D01*
X90009Y-400494D01*
X89978Y-400485D01*
X89951Y-400476D01*
X89929Y-400467D01*
X89911Y-400463D01*
X89898Y-400458D01*
X89893Y-400454D01*
D02*
G37*
G36*
X85110D02*
X85106D01*
X85110Y-400596D01*
X85115Y-400685D01*
X85119Y-400761D01*
X85128Y-400823D01*
X85141Y-400876D01*
X85155Y-400916D01*
X85164Y-400947D01*
X85168Y-400965D01*
X85173Y-400970D01*
X85208Y-401027D01*
X85244Y-401081D01*
X85288Y-401125D01*
X85328Y-401161D01*
X85364Y-401192D01*
X85395Y-401214D01*
X85413Y-401227D01*
X85421Y-401232D01*
X85488Y-401263D01*
X85555Y-401285D01*
X85617Y-401303D01*
X85679Y-401312D01*
X85728Y-401321D01*
X85773Y-401325D01*
X85808D01*
X85888Y-401321D01*
X85955Y-401312D01*
X86013Y-401294D01*
X86062Y-401276D01*
X86097Y-401258D01*
X86124Y-401241D01*
X86142Y-401232D01*
X86146Y-401227D01*
X86182Y-401187D01*
X86208Y-401143D01*
X86230Y-401103D01*
X86244Y-401063D01*
X86253Y-401027D01*
X86257Y-401001D01*
Y-400978D01*
Y-400974D01*
X86253Y-400938D01*
X86248Y-400903D01*
X86239Y-400876D01*
X86230Y-400849D01*
X86222Y-400827D01*
X86217Y-400810D01*
X86208Y-400801D01*
Y-400796D01*
X86164Y-400743D01*
X86110Y-400707D01*
X86093Y-400694D01*
X86075Y-400685D01*
X86062Y-400676D01*
X86057D01*
X86013Y-400658D01*
X85964Y-400645D01*
X85910Y-400632D01*
X85857Y-400623D01*
X85808Y-400614D01*
X85764Y-400605D01*
X85737Y-400601D01*
X85728D01*
X85653Y-400587D01*
X85582Y-400578D01*
X85519Y-400565D01*
X85457Y-400552D01*
X85399Y-400538D01*
X85350Y-400525D01*
X85302Y-400516D01*
X85261Y-400503D01*
X85226Y-400494D01*
X85195Y-400485D01*
X85168Y-400476D01*
X85146Y-400467D01*
X85128Y-400463D01*
X85115Y-400458D01*
X85110Y-400454D01*
D02*
G37*
G36*
X57147D02*
X57142D01*
X57147Y-400596D01*
X57151Y-400685D01*
X57156Y-400761D01*
X57165Y-400823D01*
X57178Y-400876D01*
X57191Y-400916D01*
X57200Y-400947D01*
X57205Y-400965D01*
X57209Y-400970D01*
X57245Y-401027D01*
X57280Y-401081D01*
X57325Y-401125D01*
X57365Y-401161D01*
X57400Y-401192D01*
X57431Y-401214D01*
X57449Y-401227D01*
X57458Y-401232D01*
X57525Y-401263D01*
X57591Y-401285D01*
X57654Y-401303D01*
X57716Y-401312D01*
X57765Y-401321D01*
X57809Y-401325D01*
X57845D01*
X57925Y-401321D01*
X57991Y-401312D01*
X58049Y-401294D01*
X58098Y-401276D01*
X58134Y-401258D01*
X58160Y-401241D01*
X58178Y-401232D01*
X58183Y-401227D01*
X58218Y-401187D01*
X58245Y-401143D01*
X58267Y-401103D01*
X58280Y-401063D01*
X58289Y-401027D01*
X58294Y-401001D01*
Y-400978D01*
Y-400974D01*
X58289Y-400938D01*
X58285Y-400903D01*
X58276Y-400876D01*
X58267Y-400849D01*
X58258Y-400827D01*
X58254Y-400810D01*
X58245Y-400801D01*
Y-400796D01*
X58200Y-400743D01*
X58147Y-400707D01*
X58129Y-400694D01*
X58111Y-400685D01*
X58098Y-400676D01*
X58094D01*
X58049Y-400658D01*
X58000Y-400645D01*
X57947Y-400632D01*
X57894Y-400623D01*
X57845Y-400614D01*
X57800Y-400605D01*
X57774Y-400601D01*
X57765D01*
X57689Y-400587D01*
X57618Y-400578D01*
X57556Y-400565D01*
X57494Y-400552D01*
X57436Y-400538D01*
X57387Y-400525D01*
X57338Y-400516D01*
X57298Y-400503D01*
X57262Y-400494D01*
X57231Y-400485D01*
X57205Y-400476D01*
X57182Y-400467D01*
X57165Y-400463D01*
X57151Y-400458D01*
X57147Y-400454D01*
D02*
G37*
G36*
X50213D02*
X50208D01*
X50213Y-400596D01*
X50217Y-400685D01*
X50222Y-400761D01*
X50230Y-400823D01*
X50244Y-400876D01*
X50257Y-400916D01*
X50266Y-400947D01*
X50270Y-400965D01*
X50275Y-400970D01*
X50310Y-401027D01*
X50346Y-401081D01*
X50390Y-401125D01*
X50430Y-401161D01*
X50466Y-401192D01*
X50497Y-401214D01*
X50515Y-401227D01*
X50524Y-401232D01*
X50590Y-401263D01*
X50657Y-401285D01*
X50719Y-401303D01*
X50782Y-401312D01*
X50830Y-401321D01*
X50875Y-401325D01*
X50911D01*
X50991Y-401321D01*
X51057Y-401312D01*
X51115Y-401294D01*
X51164Y-401276D01*
X51199Y-401258D01*
X51226Y-401241D01*
X51244Y-401232D01*
X51248Y-401227D01*
X51284Y-401187D01*
X51311Y-401143D01*
X51333Y-401103D01*
X51346Y-401063D01*
X51355Y-401027D01*
X51359Y-401001D01*
Y-400978D01*
Y-400974D01*
X51355Y-400938D01*
X51350Y-400903D01*
X51342Y-400876D01*
X51333Y-400849D01*
X51324Y-400827D01*
X51319Y-400810D01*
X51311Y-400801D01*
Y-400796D01*
X51266Y-400743D01*
X51213Y-400707D01*
X51195Y-400694D01*
X51177Y-400685D01*
X51164Y-400676D01*
X51159D01*
X51115Y-400658D01*
X51066Y-400645D01*
X51013Y-400632D01*
X50959Y-400623D01*
X50911Y-400614D01*
X50866Y-400605D01*
X50839Y-400601D01*
X50830D01*
X50755Y-400587D01*
X50684Y-400578D01*
X50622Y-400565D01*
X50559Y-400552D01*
X50501Y-400538D01*
X50453Y-400525D01*
X50404Y-400516D01*
X50364Y-400503D01*
X50328Y-400494D01*
X50297Y-400485D01*
X50270Y-400476D01*
X50248Y-400467D01*
X50230Y-400463D01*
X50217Y-400458D01*
X50213Y-400454D01*
D02*
G37*
G36*
X97121Y-399605D02*
X97094D01*
X97041Y-399609D01*
X96992Y-399614D01*
X96898Y-399640D01*
X96818Y-399676D01*
X96752Y-399716D01*
X96698Y-399756D01*
X96658Y-399792D01*
X96636Y-399818D01*
X96627Y-399823D01*
Y-399827D01*
X96587Y-399885D01*
X96552Y-399952D01*
X96530Y-400018D01*
X96507Y-400089D01*
X96494Y-400147D01*
X96485Y-400201D01*
Y-400218D01*
X96481Y-400232D01*
Y-400241D01*
Y-400245D01*
X97730D01*
X97716Y-400143D01*
X97690Y-400049D01*
X97659Y-399969D01*
X97623Y-399907D01*
X97592Y-399854D01*
X97561Y-399814D01*
X97543Y-399792D01*
X97534Y-399783D01*
X97463Y-399725D01*
X97392Y-399680D01*
X97316Y-399649D01*
X97245Y-399627D01*
X97187Y-399614D01*
X97139Y-399609D01*
X97121Y-399605D01*
D02*
G37*
G36*
X80652Y-398818D02*
X80621Y-398920D01*
X80585Y-399027D01*
X80550Y-399134D01*
X80514Y-399236D01*
X80496Y-399280D01*
X80483Y-399325D01*
X80470Y-399365D01*
X80456Y-399396D01*
X80448Y-399423D01*
X80439Y-399445D01*
X80434Y-399458D01*
Y-399463D01*
X80114Y-400307D01*
X81154D01*
X80821Y-399409D01*
X80781Y-399298D01*
X80750Y-399192D01*
X80719Y-399094D01*
X80696Y-399005D01*
X80679Y-398929D01*
X80670Y-398898D01*
X80665Y-398867D01*
X80656Y-398849D01*
Y-398831D01*
X80652Y-398823D01*
Y-398818D01*
D02*
G37*
G36*
X88111Y-399605D02*
X88089D01*
X88040Y-399609D01*
X87995Y-399614D01*
X87911Y-399640D01*
X87835Y-399672D01*
X87773Y-399711D01*
X87724Y-399752D01*
X87684Y-399787D01*
X87662Y-399814D01*
X87653Y-399818D01*
Y-399823D01*
X87622Y-399867D01*
X87595Y-399912D01*
X87551Y-400018D01*
X87520Y-400129D01*
X87497Y-400236D01*
X87488Y-400289D01*
X87484Y-400338D01*
X87479Y-400383D01*
Y-400418D01*
X87475Y-400449D01*
Y-400472D01*
Y-400489D01*
Y-400494D01*
Y-400569D01*
X87484Y-400640D01*
X87493Y-400703D01*
X87502Y-400765D01*
X87515Y-400818D01*
X87533Y-400872D01*
X87546Y-400916D01*
X87564Y-400956D01*
X87582Y-400992D01*
X87595Y-401027D01*
X87613Y-401049D01*
X87626Y-401072D01*
X87635Y-401090D01*
X87644Y-401103D01*
X87653Y-401107D01*
Y-401112D01*
X87684Y-401147D01*
X87719Y-401178D01*
X87791Y-401227D01*
X87862Y-401263D01*
X87928Y-401285D01*
X87986Y-401303D01*
X88035Y-401307D01*
X88053Y-401312D01*
X88075D01*
X88120Y-401307D01*
X88164Y-401303D01*
X88244Y-401281D01*
X88320Y-401245D01*
X88382Y-401205D01*
X88431Y-401170D01*
X88471Y-401134D01*
X88493Y-401112D01*
X88497Y-401103D01*
X88502D01*
X88533Y-401058D01*
X88560Y-401014D01*
X88604Y-400912D01*
X88635Y-400805D01*
X88657Y-400703D01*
X88671Y-400609D01*
X88675Y-400569D01*
Y-400534D01*
X88680Y-400503D01*
Y-400480D01*
Y-400467D01*
Y-400463D01*
Y-400383D01*
X88671Y-400307D01*
X88662Y-400236D01*
X88653Y-400174D01*
X88640Y-400116D01*
X88626Y-400063D01*
X88613Y-400014D01*
X88595Y-399969D01*
X88577Y-399934D01*
X88564Y-399903D01*
X88551Y-399876D01*
X88537Y-399854D01*
X88524Y-399836D01*
X88520Y-399823D01*
X88511Y-399818D01*
Y-399814D01*
X88480Y-399778D01*
X88444Y-399743D01*
X88373Y-399694D01*
X88302Y-399654D01*
X88235Y-399632D01*
X88177Y-399614D01*
X88128Y-399609D01*
X88111Y-399605D01*
D02*
G37*
G36*
X74425D02*
X74398D01*
X74345Y-399609D01*
X74296Y-399614D01*
X74207Y-399636D01*
X74127Y-399672D01*
X74060Y-399711D01*
X74007Y-399752D01*
X73967Y-399783D01*
X73940Y-399809D01*
X73931Y-399814D01*
Y-399818D01*
X73896Y-399858D01*
X73869Y-399907D01*
X73820Y-400005D01*
X73784Y-400112D01*
X73762Y-400209D01*
X73749Y-400303D01*
X73745Y-400343D01*
Y-400378D01*
X73740Y-400405D01*
Y-400427D01*
Y-400440D01*
Y-400445D01*
Y-400525D01*
X73749Y-400601D01*
X73758Y-400667D01*
X73771Y-400734D01*
X73784Y-400792D01*
X73802Y-400845D01*
X73816Y-400894D01*
X73833Y-400938D01*
X73851Y-400974D01*
X73869Y-401009D01*
X73887Y-401036D01*
X73900Y-401058D01*
X73913Y-401076D01*
X73922Y-401090D01*
X73927Y-401094D01*
X73931Y-401098D01*
X73967Y-401134D01*
X74007Y-401170D01*
X74082Y-401223D01*
X74162Y-401258D01*
X74233Y-401285D01*
X74300Y-401298D01*
X74349Y-401307D01*
X74371Y-401312D01*
X74398D01*
X74451Y-401307D01*
X74500Y-401303D01*
X74593Y-401281D01*
X74674Y-401245D01*
X74740Y-401205D01*
X74794Y-401170D01*
X74833Y-401134D01*
X74860Y-401112D01*
X74865Y-401103D01*
X74869D01*
X74900Y-401058D01*
X74931Y-401014D01*
X74976Y-400912D01*
X75011Y-400805D01*
X75033Y-400698D01*
X75047Y-400605D01*
X75051Y-400565D01*
Y-400529D01*
X75056Y-400498D01*
Y-400476D01*
Y-400463D01*
Y-400458D01*
X75051Y-400383D01*
X75047Y-400307D01*
X75038Y-400241D01*
X75025Y-400178D01*
X75011Y-400121D01*
X74998Y-400067D01*
X74980Y-400023D01*
X74962Y-399978D01*
X74945Y-399943D01*
X74927Y-399907D01*
X74914Y-399880D01*
X74900Y-399858D01*
X74887Y-399841D01*
X74878Y-399827D01*
X74869Y-399823D01*
Y-399818D01*
X74833Y-399783D01*
X74794Y-399747D01*
X74718Y-399694D01*
X74638Y-399658D01*
X74562Y-399632D01*
X74496Y-399614D01*
X74447Y-399609D01*
X74425Y-399605D01*
D02*
G37*
%LPD*%
D15*
X127000Y-2540D02*
X140970D01*
X45466Y-175006D02*
Y-172212D01*
Y-175006D02*
X45720Y-175260D01*
X44521Y-161163D02*
X54991D01*
X37720Y-167964D02*
X44521Y-161163D01*
X37720Y-175260D02*
Y-167964D01*
X54991Y-161163D02*
X61722Y-167894D01*
X32880Y-135615D02*
Y-113030D01*
X59182Y-325328D02*
X74422D01*
X43982D02*
X59182D01*
X100076Y-253828D02*
Y-218312D01*
X79692Y-101094D02*
Y-57976D01*
X78880Y-101905D02*
X79692Y-101094D01*
X78880Y-101905D02*
Y-100698D01*
Y-113030D02*
Y-101905D01*
X74422Y-325328D02*
X74468Y-325374D01*
X101980Y-167258D02*
Y-139318D01*
X90170Y-127508D02*
X101980Y-139318D01*
X49530Y-127508D02*
X90170D01*
X46990Y-124968D02*
X49530Y-127508D01*
X46990Y-124968D02*
Y-76962D01*
X23368Y-53340D02*
X46990Y-76962D01*
X0Y-53340D02*
X23368D01*
X101980Y-175260D02*
Y-167258D01*
X85791Y-151068D02*
X101980Y-167258D01*
X109980Y-155704D02*
X125984Y-139700D01*
X53720Y-175260D02*
X69850D01*
X23588Y-292828D02*
X43982D01*
X14478Y-283718D02*
X23588Y-292828D01*
X121666Y-356362D02*
X132080D01*
X74866Y-195009D02*
X77470Y-197612D01*
X49530Y-195009D02*
X74866D01*
X45720Y-191199D02*
X49530Y-195009D01*
X45720Y-191199D02*
Y-187706D01*
X117602Y-232908D02*
X128016D01*
X87630Y-199644D02*
Y-165862D01*
X76454Y-210820D02*
X87630Y-199644D01*
X76454Y-216286D02*
Y-210820D01*
X66167Y-157360D02*
X69972Y-161164D01*
X66167Y-157360D02*
Y-153797D01*
X59690Y-147320D02*
X66167Y-153797D01*
X52060Y-147320D02*
X59690D01*
X78880Y-100698D02*
X78994Y-100584D01*
X69850Y-175260D02*
X85090Y-160020D01*
X62864Y-187706D02*
X63880Y-188722D01*
X53720Y-187706D02*
X62864D01*
X58864Y-200089D02*
X59690Y-200914D01*
X44450Y-200089D02*
X58864D01*
X37720Y-193358D02*
X44450Y-200089D01*
X37720Y-193358D02*
Y-187706D01*
X95250Y-260328D02*
X109982D01*
X76454Y-241532D02*
X95250Y-260328D01*
X76454Y-241532D02*
Y-232786D01*
X43982Y-286328D02*
X66040D01*
X71120Y-291408D01*
X43982Y-331828D02*
X59182D01*
X43982Y-338328D02*
X57150D01*
X59690Y-340868D01*
X72136Y-1778D02*
X83820Y9906D01*
X72136Y-20066D02*
Y-1778D01*
X65024Y-27178D02*
X72136Y-20066D01*
X109980Y-175260D02*
Y-155704D01*
X109982Y-279828D02*
X130890D01*
X134493Y-276225D01*
Y-195453D01*
X133604Y-194564D02*
X134493Y-195453D01*
X113030Y-194564D02*
X133604D01*
X109980Y-191514D02*
X113030Y-194564D01*
X109980Y-191514D02*
Y-187706D01*
X71120Y-301498D02*
X85598Y-287020D01*
Y-276860D01*
X65278Y-256540D02*
X85598Y-276860D01*
X65278Y-256540D02*
Y-215900D01*
X54546Y-205168D02*
X65278Y-215900D01*
X39309Y-205168D02*
X54546D01*
X29720Y-195580D02*
X39309Y-205168D01*
X29720Y-195580D02*
Y-187706D01*
X100076Y-253828D02*
X109982D01*
X100076Y-218312D02*
X101980Y-216408D01*
Y-187706D01*
X18647Y-302885D02*
Y-300748D01*
Y-302885D02*
X21590Y-305828D01*
X43982D01*
X55880Y-113030D02*
Y-95525D01*
X117980Y-175260D02*
X123444D01*
X133604Y-165100D01*
Y-133604D01*
X140208Y-127000D01*
X79692Y-57976D02*
X90170Y-47498D01*
X99822D01*
X29720Y-84131D02*
X36576D01*
X24005Y-89846D02*
X29720Y-84131D01*
X24005Y-162953D02*
Y-89846D01*
Y-162953D02*
X29720Y-168668D01*
Y-175260D02*
Y-168668D01*
X46604Y-242560D02*
Y-236220D01*
X42784Y-232400D02*
X46604Y-236220D01*
X34036Y-232400D02*
X42784D01*
X128050Y-114300D02*
X146055D01*
X142505Y-372862D02*
Y-367782D01*
X132080Y-372862D02*
X142505D01*
X17896Y-210820D02*
Y-200660D01*
Y-210820D02*
X22976Y-215900D01*
X34036D01*
X57641Y-273328D02*
X62577Y-268392D01*
X43982Y-273328D02*
X57641D01*
X23727Y-315885D02*
Y-313748D01*
Y-315885D02*
X26670Y-318828D01*
X43982D01*
X127508Y-54576D02*
Y-41656D01*
X141224D01*
X154940Y-27940D01*
X24892Y-373370D02*
X54356D01*
X24892Y-356870D02*
X40397D01*
X117060Y-54576D02*
X127508D01*
X109982Y-47498D02*
X117060Y-54576D01*
X99822Y-47498D02*
X109982D01*
X140970Y-177546D02*
Y-134620D01*
X130810Y-187706D02*
X140970Y-177546D01*
X117980Y-187706D02*
X130810D01*
X127000Y-2540D02*
Y6130D01*
X109982Y-273328D02*
X125157D01*
X43982Y-299328D02*
X59158D01*
X94806Y-292828D02*
X109982D01*
X117602Y-216408D02*
X128027D01*
X100550Y-114300D02*
X113475D01*
X89397Y-63998D02*
X99822D01*
X127508Y-95001D02*
Y-82076D01*
X127000Y-34295D02*
Y-21370D01*
D16*
X170180Y-406400D02*
Y25400D01*
X-15240Y-406400D02*
X170180D01*
X-15240Y25400D02*
X170180D01*
X-15240Y-406400D02*
Y25400D01*
D41*
X51500Y-360172D02*
D03*
X101500D02*
D03*
D42*
X111500Y-386842D02*
D03*
X41500D02*
D03*
D03*
D43*
X154940Y-27432D02*
D03*
Y-52832D02*
D03*
Y-78232D02*
D03*
Y-103632D02*
D03*
Y-129032D02*
D03*
Y-154432D02*
D03*
Y-179832D02*
D03*
Y-205232D02*
D03*
Y-230632D02*
D03*
Y-256032D02*
D03*
Y-281432D02*
D03*
Y-306832D02*
D03*
Y-332232D02*
D03*
Y-357632D02*
D03*
Y-383032D02*
D03*
X0Y-27432D02*
D03*
Y-52832D02*
D03*
Y-78232D02*
D03*
Y-103632D02*
D03*
Y-129032D02*
D03*
Y-154432D02*
D03*
Y-179832D02*
D03*
Y-205232D02*
D03*
Y-230632D02*
D03*
Y-256032D02*
D03*
Y-281432D02*
D03*
Y-306832D02*
D03*
Y-332232D02*
D03*
Y-357632D02*
D03*
Y-383032D02*
D03*
D44*
X83820Y10414D02*
D03*
D45*
X58420D02*
D03*
X33020D02*
D03*
X83820Y-14986D02*
D03*
X58420D02*
D03*
X33020D02*
D03*
D46*
X53086Y-168148D02*
D03*
X53340Y-243421D02*
D03*
X45466Y-172212D02*
D03*
X61722Y-167894D02*
D03*
X17526Y-150001D02*
D03*
X17018Y-168624D02*
D03*
X87630Y-165862D02*
D03*
X127762Y-147955D02*
D03*
X85791Y-151068D02*
D03*
X115062Y-132842D02*
D03*
X69850Y-166116D02*
D03*
X131064Y-101854D02*
D03*
X128778Y-201168D02*
D03*
X125984Y-139700D02*
D03*
X105918Y-243840D02*
D03*
X86868Y-98298D02*
D03*
X144526Y-193294D02*
D03*
X56134Y-234188D02*
D03*
X32880Y-135615D02*
D03*
X19558Y-129540D02*
D03*
X74468Y-325374D02*
D03*
X14478Y-283718D02*
D03*
X121666Y-356362D02*
D03*
X68877Y-111295D02*
D03*
X58420Y-79756D02*
D03*
X129794Y-298196D02*
D03*
X77470Y-197612D02*
D03*
X128016Y-232908D02*
D03*
X58420Y-83820D02*
D03*
X69972Y-161164D02*
D03*
X63500Y-370586D02*
D03*
X78994Y-100584D02*
D03*
X85090Y-160020D02*
D03*
X79756Y-283464D02*
D03*
X63880Y-188722D02*
D03*
X92710Y-241808D02*
D03*
X59690Y-200914D02*
D03*
X71120Y-291408D02*
D03*
X59182Y-331828D02*
D03*
X70000Y-342646D02*
D03*
X59690Y-340868D02*
D03*
X14939Y-90659D02*
D03*
X65024Y-27178D02*
D03*
X71120Y-301498D02*
D03*
X79756Y-262081D02*
D03*
X18647Y-300748D02*
D03*
X55880Y-95525D02*
D03*
X140208Y-127000D02*
D03*
X73976Y-95379D02*
D03*
X36576Y-84131D02*
D03*
X59182Y-325328D02*
D03*
X46604Y-242560D02*
D03*
X146055Y-114300D02*
D03*
X142505Y-367782D02*
D03*
X17896Y-200660D02*
D03*
X62577Y-268392D02*
D03*
X23727Y-313748D02*
D03*
X54356Y-373370D02*
D03*
X40397Y-356870D02*
D03*
X140970Y-134620D02*
D03*
Y-2540D02*
D03*
X92710Y-272241D02*
D03*
X125157Y-273328D02*
D03*
X113030Y-352209D02*
D03*
X59158Y-299328D02*
D03*
X89500Y-370605D02*
D03*
X94806Y-292828D02*
D03*
X128027Y-216408D02*
D03*
X113475Y-114300D02*
D03*
X89397Y-63998D02*
D03*
X127508Y-95001D02*
D03*
X127000Y-34295D02*
D03*
X123952Y-9014D02*
D03*
D53*
X52060Y-146812D02*
D03*
X35560D02*
D03*
D54*
X53720Y-174752D02*
D03*
D55*
X45720D02*
D03*
X37720D02*
D03*
X29720D02*
D03*
X53720Y-187198D02*
D03*
X45720D02*
D03*
X37720D02*
D03*
X29720D02*
D03*
X117980Y-174752D02*
D03*
X109980D02*
D03*
X101980D02*
D03*
X93980D02*
D03*
X117980Y-187198D02*
D03*
X109980D02*
D03*
X101980D02*
D03*
X93980D02*
D03*
D56*
X34036Y-231892D02*
D03*
Y-215392D02*
D03*
X76454Y-232278D02*
D03*
Y-215778D02*
D03*
X117602Y-215900D02*
D03*
Y-232400D02*
D03*
X24892Y-372862D02*
D03*
Y-356362D02*
D03*
X132080Y-372354D02*
D03*
Y-355854D02*
D03*
X99822Y-46990D02*
D03*
Y-63490D02*
D03*
D57*
X55880Y-49022D02*
D03*
D58*
X32880Y-112522D02*
D03*
X55880D02*
D03*
X78880D02*
D03*
D59*
X43982Y-337820D02*
D03*
Y-331320D02*
D03*
Y-324820D02*
D03*
Y-318320D02*
D03*
Y-311820D02*
D03*
Y-305320D02*
D03*
Y-298820D02*
D03*
Y-292320D02*
D03*
Y-285820D02*
D03*
Y-279320D02*
D03*
Y-272820D02*
D03*
Y-266320D02*
D03*
Y-259820D02*
D03*
Y-253320D02*
D03*
X109982Y-337820D02*
D03*
Y-331320D02*
D03*
Y-324820D02*
D03*
Y-318320D02*
D03*
Y-311820D02*
D03*
Y-305320D02*
D03*
Y-298820D02*
D03*
Y-292320D02*
D03*
Y-285820D02*
D03*
Y-279320D02*
D03*
Y-272820D02*
D03*
Y-266320D02*
D03*
Y-259820D02*
D03*
Y-253320D02*
D03*
D60*
X127000Y-20862D02*
D03*
Y6638D02*
D03*
X127508Y-81568D02*
D03*
Y-54068D02*
D03*
D61*
X100550Y-113792D02*
D03*
X128050D02*
D03*
M02*
