G04*
G04 #@! TF.GenerationSoftware,Altium Limited,Altium Designer,19.1.7 (138)*
G04*
G04 Layer_Physical_Order=2*
G04 Layer_Color=32768*
%FSLAX44Y44*%
%MOMM*%
G71*
G01*
G75*
%ADD16C,0.1524*%
%ADD47C,1.0160*%
%ADD48C,1.8660*%
%ADD49C,2.3160*%
%ADD50C,2.1160*%
%ADD51C,2.0360*%
%ADD52C,1.2700*%
D16*
X170180Y-406400D02*
Y25400D01*
X-15240Y-406400D02*
X170180D01*
X-15240Y25400D02*
X170180D01*
X-15240Y-406400D02*
Y25400D01*
D47*
X-15240Y-406400D02*
X-15240Y25400D01*
X170180D01*
X170180Y-406400D02*
X170180Y25400D01*
X-15240Y-406400D02*
X170180Y-406400D01*
D48*
X51500Y-360172D02*
D03*
X101500D02*
D03*
D49*
X111500Y-386842D02*
D03*
X41500D02*
D03*
D03*
D50*
X154940Y-27432D02*
D03*
Y-52832D02*
D03*
Y-78232D02*
D03*
Y-129032D02*
D03*
Y-154432D02*
D03*
Y-179832D02*
D03*
Y-205232D02*
D03*
Y-230632D02*
D03*
Y-256032D02*
D03*
Y-281432D02*
D03*
Y-306832D02*
D03*
Y-332232D02*
D03*
Y-357632D02*
D03*
Y-383032D02*
D03*
X0Y-27432D02*
D03*
Y-52832D02*
D03*
Y-78232D02*
D03*
Y-103632D02*
D03*
Y-129032D02*
D03*
Y-154432D02*
D03*
Y-179832D02*
D03*
Y-205232D02*
D03*
Y-230632D02*
D03*
Y-256032D02*
D03*
Y-281432D02*
D03*
Y-306832D02*
D03*
Y-332232D02*
D03*
Y-357632D02*
D03*
Y-383032D02*
D03*
D51*
X83820Y10414D02*
D03*
X58420D02*
D03*
X33020D02*
D03*
X58420Y-14986D02*
D03*
X33020D02*
D03*
D52*
X53086Y-168148D02*
D03*
X53340Y-243421D02*
D03*
X45466Y-172212D02*
D03*
X61722Y-167894D02*
D03*
X17526Y-150001D02*
D03*
X17018Y-168624D02*
D03*
X87630Y-165862D02*
D03*
X127762Y-147955D02*
D03*
X85791Y-151068D02*
D03*
X115062Y-132842D02*
D03*
X69850Y-166116D02*
D03*
X131064Y-101854D02*
D03*
X128778Y-201168D02*
D03*
X125984Y-139700D02*
D03*
X105918Y-243840D02*
D03*
X86868Y-98298D02*
D03*
X144526Y-193294D02*
D03*
X56134Y-234188D02*
D03*
X32880Y-135615D02*
D03*
X74468Y-325374D02*
D03*
X14478Y-283718D02*
D03*
X121666Y-356362D02*
D03*
X68877Y-111295D02*
D03*
X58420Y-79756D02*
D03*
X129794Y-298196D02*
D03*
X77470Y-197612D02*
D03*
X128016Y-232908D02*
D03*
X58420Y-83820D02*
D03*
X69972Y-161164D02*
D03*
X63500Y-370586D02*
D03*
X78994Y-100584D02*
D03*
X85090Y-160020D02*
D03*
X79756Y-283464D02*
D03*
X63880Y-188722D02*
D03*
X92710Y-241808D02*
D03*
X59690Y-200914D02*
D03*
X71120Y-291408D02*
D03*
X59182Y-331828D02*
D03*
X70000Y-342646D02*
D03*
X59690Y-340868D02*
D03*
X14939Y-90659D02*
D03*
X65024Y-27178D02*
D03*
X71120Y-301498D02*
D03*
X79756Y-262081D02*
D03*
X140208Y-127000D02*
D03*
X73976Y-95379D02*
D03*
X59182Y-325328D02*
D03*
X46604Y-242560D02*
D03*
X142505Y-367782D02*
D03*
X17896Y-200660D02*
D03*
X62577Y-268392D02*
D03*
X23727Y-313748D02*
D03*
X54356Y-373370D02*
D03*
X40397Y-356870D02*
D03*
X59158Y-299328D02*
D03*
X89500Y-370605D02*
D03*
X94806Y-292828D02*
D03*
X128027Y-216408D02*
D03*
X113475Y-114300D02*
D03*
X89397Y-63998D02*
D03*
X127508Y-95001D02*
D03*
X127000Y-34295D02*
D03*
X123952Y-9014D02*
D03*
M02*
