G04*
G04 #@! TF.GenerationSoftware,Altium Limited,Altium Designer,19.1.7 (138)*
G04*
G04 Layer_Color=65535*
%FSLAX44Y44*%
%MOMM*%
G71*
G01*
G75*
%ADD10C,0.1000*%
%ADD11C,0.2500*%
%ADD12C,0.6000*%
%ADD13C,0.2540*%
%ADD14C,0.2000*%
%ADD15C,0.2540*%
%ADD16C,0.1524*%
G36*
X30832Y-70598D02*
X32655Y-73152D01*
X31860D01*
X30628Y-71421D01*
X30621Y-71414D01*
X30607Y-71393D01*
X30593Y-71365D01*
X30565Y-71330D01*
X30502Y-71231D01*
X30431Y-71126D01*
X30424Y-71133D01*
X30403Y-71161D01*
X30375Y-71203D01*
X30340Y-71259D01*
X30262Y-71372D01*
X30227Y-71421D01*
X30199Y-71463D01*
X28968Y-73152D01*
X28194D01*
X30073Y-70633D01*
X28412Y-68283D01*
X29179D01*
X30066Y-69536D01*
Y-69543D01*
X30080Y-69550D01*
X30094Y-69571D01*
X30115Y-69599D01*
X30157Y-69669D01*
X30220Y-69754D01*
X30284Y-69852D01*
X30347Y-69951D01*
X30403Y-70042D01*
X30452Y-70127D01*
X30459Y-70113D01*
X30481Y-70084D01*
X30516Y-70028D01*
X30565Y-69958D01*
X30621Y-69880D01*
X30692Y-69782D01*
X30762Y-69683D01*
X30847Y-69578D01*
X31817Y-68283D01*
X32521D01*
X30832Y-70598D01*
D02*
G37*
G36*
X35237Y-73152D02*
X34639D01*
Y-69346D01*
X34632Y-69353D01*
X34597Y-69381D01*
X34554Y-69423D01*
X34484Y-69472D01*
X34407Y-69536D01*
X34308Y-69606D01*
X34195Y-69683D01*
X34069Y-69761D01*
X34062D01*
X34055Y-69768D01*
X34013Y-69796D01*
X33942Y-69831D01*
X33858Y-69873D01*
X33759Y-69923D01*
X33654Y-69972D01*
X33548Y-70021D01*
X33443Y-70063D01*
Y-69486D01*
X33450D01*
X33464Y-69472D01*
X33492Y-69465D01*
X33527Y-69444D01*
X33569Y-69423D01*
X33619Y-69395D01*
X33738Y-69324D01*
X33879Y-69247D01*
X34020Y-69149D01*
X34167Y-69036D01*
X34315Y-68916D01*
X34322Y-68909D01*
X34329Y-68902D01*
X34350Y-68881D01*
X34378Y-68860D01*
X34442Y-68790D01*
X34526Y-68705D01*
X34611Y-68607D01*
X34702Y-68494D01*
X34780Y-68382D01*
X34850Y-68262D01*
X35237D01*
Y-73152D01*
D02*
G37*
G36*
X76979Y-116055D02*
Y-116063D01*
Y-116091D01*
Y-116126D01*
Y-116175D01*
X76972Y-116238D01*
Y-116309D01*
X76965Y-116393D01*
X76958Y-116478D01*
X76937Y-116668D01*
X76909Y-116865D01*
X76867Y-117055D01*
X76839Y-117146D01*
X76811Y-117231D01*
Y-117238D01*
X76804Y-117252D01*
X76789Y-117273D01*
X76775Y-117301D01*
X76733Y-117378D01*
X76670Y-117477D01*
X76585Y-117589D01*
X76487Y-117702D01*
X76360Y-117822D01*
X76206Y-117927D01*
X76199D01*
X76184Y-117941D01*
X76163Y-117948D01*
X76128Y-117969D01*
X76086Y-117990D01*
X76030Y-118012D01*
X75973Y-118033D01*
X75903Y-118061D01*
X75826Y-118089D01*
X75741Y-118110D01*
X75650Y-118131D01*
X75544Y-118152D01*
X75439Y-118166D01*
X75326Y-118180D01*
X75073Y-118194D01*
X75009D01*
X74960Y-118187D01*
X74904D01*
X74834Y-118180D01*
X74756Y-118173D01*
X74679Y-118166D01*
X74503Y-118138D01*
X74313Y-118096D01*
X74130Y-118040D01*
X73954Y-117962D01*
X73947D01*
X73933Y-117948D01*
X73912Y-117934D01*
X73884Y-117920D01*
X73806Y-117864D01*
X73715Y-117786D01*
X73609Y-117688D01*
X73511Y-117575D01*
X73412Y-117435D01*
X73335Y-117280D01*
Y-117273D01*
X73328Y-117259D01*
X73321Y-117231D01*
X73307Y-117195D01*
X73293Y-117153D01*
X73279Y-117097D01*
X73257Y-117034D01*
X73243Y-116956D01*
X73229Y-116872D01*
X73208Y-116780D01*
X73194Y-116682D01*
X73180Y-116576D01*
X73166Y-116457D01*
X73159Y-116330D01*
X73152Y-116196D01*
Y-116055D01*
Y-113241D01*
X73799D01*
Y-116055D01*
Y-116063D01*
Y-116084D01*
Y-116119D01*
Y-116161D01*
X73806Y-116210D01*
Y-116274D01*
X73813Y-116407D01*
X73827Y-116562D01*
X73849Y-116717D01*
X73877Y-116865D01*
X73891Y-116928D01*
X73912Y-116991D01*
X73919Y-117005D01*
X73933Y-117041D01*
X73968Y-117090D01*
X74010Y-117160D01*
X74060Y-117231D01*
X74130Y-117308D01*
X74214Y-117385D01*
X74313Y-117449D01*
X74327Y-117456D01*
X74362Y-117477D01*
X74426Y-117498D01*
X74510Y-117526D01*
X74608Y-117561D01*
X74735Y-117582D01*
X74869Y-117603D01*
X75016Y-117611D01*
X75087D01*
X75129Y-117603D01*
X75192D01*
X75256Y-117596D01*
X75410Y-117568D01*
X75579Y-117533D01*
X75741Y-117477D01*
X75896Y-117399D01*
X75966Y-117350D01*
X76030Y-117294D01*
X76037Y-117287D01*
X76044Y-117280D01*
X76058Y-117259D01*
X76079Y-117231D01*
X76100Y-117188D01*
X76128Y-117146D01*
X76156Y-117083D01*
X76184Y-117020D01*
X76213Y-116942D01*
X76234Y-116851D01*
X76262Y-116745D01*
X76283Y-116632D01*
X76304Y-116506D01*
X76318Y-116372D01*
X76332Y-116217D01*
Y-116055D01*
Y-113241D01*
X76979D01*
Y-116055D01*
D02*
G37*
G36*
X79541Y-113227D02*
X79597Y-113234D01*
X79667Y-113241D01*
X79745Y-113255D01*
X79822Y-113269D01*
X80005Y-113319D01*
X80188Y-113389D01*
X80279Y-113431D01*
X80371Y-113480D01*
X80455Y-113544D01*
X80533Y-113614D01*
X80540Y-113621D01*
X80554Y-113628D01*
X80568Y-113656D01*
X80596Y-113685D01*
X80631Y-113720D01*
X80666Y-113769D01*
X80701Y-113818D01*
X80744Y-113882D01*
X80814Y-114015D01*
X80884Y-114184D01*
X80913Y-114269D01*
X80927Y-114367D01*
X80941Y-114466D01*
X80948Y-114571D01*
Y-114585D01*
Y-114620D01*
X80941Y-114677D01*
X80934Y-114754D01*
X80920Y-114838D01*
X80891Y-114937D01*
X80863Y-115042D01*
X80821Y-115148D01*
X80814Y-115162D01*
X80800Y-115197D01*
X80772Y-115253D01*
X80730Y-115331D01*
X80673Y-115415D01*
X80603Y-115521D01*
X80519Y-115626D01*
X80420Y-115746D01*
X80406Y-115760D01*
X80371Y-115802D01*
X80336Y-115837D01*
X80300Y-115873D01*
X80258Y-115915D01*
X80202Y-115971D01*
X80146Y-116027D01*
X80075Y-116091D01*
X80005Y-116161D01*
X79920Y-116238D01*
X79829Y-116316D01*
X79731Y-116407D01*
X79618Y-116499D01*
X79505Y-116597D01*
X79498Y-116604D01*
X79484Y-116618D01*
X79456Y-116639D01*
X79421Y-116668D01*
X79379Y-116710D01*
X79329Y-116752D01*
X79217Y-116844D01*
X79097Y-116949D01*
X78985Y-117055D01*
X78886Y-117146D01*
X78844Y-117181D01*
X78809Y-117217D01*
X78802Y-117224D01*
X78781Y-117245D01*
X78752Y-117273D01*
X78717Y-117315D01*
X78682Y-117364D01*
X78640Y-117414D01*
X78555Y-117533D01*
X80955D01*
Y-118110D01*
X77725D01*
Y-118103D01*
Y-118075D01*
Y-118033D01*
X77732Y-117976D01*
X77739Y-117913D01*
X77753Y-117843D01*
X77768Y-117772D01*
X77796Y-117695D01*
Y-117688D01*
X77803Y-117681D01*
X77817Y-117639D01*
X77845Y-117575D01*
X77887Y-117491D01*
X77943Y-117392D01*
X78014Y-117280D01*
X78091Y-117167D01*
X78190Y-117048D01*
Y-117041D01*
X78204Y-117034D01*
X78239Y-116991D01*
X78302Y-116928D01*
X78394Y-116837D01*
X78499Y-116731D01*
X78633Y-116604D01*
X78795Y-116464D01*
X78971Y-116316D01*
X78978Y-116309D01*
X79006Y-116288D01*
X79048Y-116252D01*
X79097Y-116210D01*
X79161Y-116154D01*
X79238Y-116091D01*
X79315Y-116020D01*
X79407Y-115943D01*
X79583Y-115774D01*
X79759Y-115605D01*
X79843Y-115521D01*
X79920Y-115436D01*
X79991Y-115359D01*
X80047Y-115282D01*
Y-115275D01*
X80061Y-115267D01*
X80075Y-115246D01*
X80089Y-115218D01*
X80139Y-115141D01*
X80195Y-115049D01*
X80244Y-114937D01*
X80293Y-114817D01*
X80322Y-114684D01*
X80336Y-114557D01*
Y-114550D01*
Y-114543D01*
X80329Y-114501D01*
X80322Y-114430D01*
X80300Y-114353D01*
X80272Y-114254D01*
X80223Y-114156D01*
X80160Y-114057D01*
X80075Y-113959D01*
X80061Y-113945D01*
X80026Y-113917D01*
X79977Y-113882D01*
X79899Y-113832D01*
X79801Y-113790D01*
X79688Y-113748D01*
X79555Y-113720D01*
X79407Y-113713D01*
X79365D01*
X79337Y-113720D01*
X79252Y-113727D01*
X79153Y-113748D01*
X79048Y-113776D01*
X78928Y-113825D01*
X78816Y-113889D01*
X78710Y-113973D01*
X78696Y-113987D01*
X78668Y-114022D01*
X78626Y-114079D01*
X78584Y-114163D01*
X78534Y-114261D01*
X78492Y-114388D01*
X78464Y-114529D01*
X78450Y-114691D01*
X77838Y-114627D01*
Y-114620D01*
X77845Y-114599D01*
Y-114564D01*
X77852Y-114515D01*
X77866Y-114458D01*
X77880Y-114395D01*
X77901Y-114318D01*
X77922Y-114240D01*
X77979Y-114072D01*
X78063Y-113903D01*
X78112Y-113818D01*
X78176Y-113734D01*
X78239Y-113656D01*
X78309Y-113586D01*
X78316Y-113579D01*
X78330Y-113572D01*
X78351Y-113551D01*
X78387Y-113530D01*
X78429Y-113502D01*
X78478Y-113473D01*
X78534Y-113438D01*
X78605Y-113403D01*
X78682Y-113368D01*
X78767Y-113333D01*
X78858Y-113305D01*
X78956Y-113276D01*
X79062Y-113255D01*
X79175Y-113234D01*
X79294Y-113227D01*
X79421Y-113220D01*
X79491D01*
X79541Y-113227D01*
D02*
G37*
G36*
X162053Y-4706D02*
X162103D01*
X162236Y-4720D01*
X162384Y-4741D01*
X162539Y-4776D01*
X162708Y-4818D01*
X162862Y-4875D01*
X162869D01*
X162884Y-4882D01*
X162905Y-4896D01*
X162933Y-4910D01*
X163003Y-4945D01*
X163095Y-5008D01*
X163200Y-5079D01*
X163306Y-5170D01*
X163404Y-5276D01*
X163496Y-5395D01*
Y-5402D01*
X163503Y-5409D01*
X163517Y-5430D01*
X163531Y-5452D01*
X163566Y-5522D01*
X163608Y-5613D01*
X163657Y-5726D01*
X163693Y-5860D01*
X163728Y-6000D01*
X163742Y-6155D01*
X163123Y-6205D01*
Y-6197D01*
Y-6183D01*
X163116Y-6162D01*
X163109Y-6127D01*
X163088Y-6050D01*
X163060Y-5944D01*
X163017Y-5832D01*
X162954Y-5719D01*
X162876Y-5613D01*
X162778Y-5515D01*
X162764Y-5508D01*
X162729Y-5480D01*
X162658Y-5438D01*
X162567Y-5395D01*
X162447Y-5353D01*
X162307Y-5311D01*
X162131Y-5283D01*
X161934Y-5276D01*
X161835D01*
X161793Y-5283D01*
X161737Y-5290D01*
X161610Y-5304D01*
X161469Y-5332D01*
X161329Y-5367D01*
X161195Y-5423D01*
X161139Y-5459D01*
X161082Y-5494D01*
X161068Y-5501D01*
X161040Y-5529D01*
X160998Y-5578D01*
X160956Y-5635D01*
X160907Y-5712D01*
X160864Y-5796D01*
X160836Y-5895D01*
X160822Y-6008D01*
Y-6022D01*
Y-6050D01*
X160829Y-6099D01*
X160843Y-6155D01*
X160864Y-6226D01*
X160900Y-6296D01*
X160942Y-6366D01*
X161005Y-6437D01*
X161012Y-6444D01*
X161047Y-6465D01*
X161075Y-6486D01*
X161103Y-6500D01*
X161146Y-6521D01*
X161195Y-6549D01*
X161258Y-6570D01*
X161329Y-6599D01*
X161406Y-6627D01*
X161497Y-6662D01*
X161596Y-6690D01*
X161709Y-6725D01*
X161835Y-6753D01*
X161976Y-6788D01*
X161983D01*
X162011Y-6795D01*
X162053Y-6802D01*
X162103Y-6817D01*
X162166Y-6831D01*
X162243Y-6852D01*
X162321Y-6873D01*
X162405Y-6894D01*
X162588Y-6943D01*
X162764Y-6992D01*
X162848Y-7021D01*
X162926Y-7049D01*
X162996Y-7070D01*
X163052Y-7098D01*
X163060D01*
X163074Y-7105D01*
X163095Y-7119D01*
X163123Y-7133D01*
X163200Y-7175D01*
X163292Y-7232D01*
X163397Y-7309D01*
X163503Y-7394D01*
X163601Y-7492D01*
X163686Y-7598D01*
X163693Y-7612D01*
X163721Y-7647D01*
X163749Y-7710D01*
X163791Y-7794D01*
X163826Y-7893D01*
X163862Y-8013D01*
X163883Y-8146D01*
X163890Y-8287D01*
Y-8294D01*
Y-8301D01*
Y-8322D01*
Y-8350D01*
X163876Y-8428D01*
X163862Y-8526D01*
X163833Y-8639D01*
X163798Y-8759D01*
X163742Y-8885D01*
X163664Y-9019D01*
Y-9026D01*
X163657Y-9033D01*
X163622Y-9075D01*
X163573Y-9138D01*
X163503Y-9209D01*
X163411Y-9293D01*
X163299Y-9385D01*
X163172Y-9469D01*
X163024Y-9546D01*
X163017D01*
X163003Y-9553D01*
X162982Y-9560D01*
X162954Y-9575D01*
X162912Y-9589D01*
X162862Y-9610D01*
X162750Y-9638D01*
X162616Y-9673D01*
X162454Y-9708D01*
X162278Y-9729D01*
X162089Y-9736D01*
X161976D01*
X161920Y-9729D01*
X161856D01*
X161786Y-9722D01*
X161702Y-9715D01*
X161526Y-9687D01*
X161343Y-9659D01*
X161160Y-9610D01*
X160984Y-9546D01*
X160977D01*
X160963Y-9539D01*
X160942Y-9525D01*
X160914Y-9511D01*
X160829Y-9469D01*
X160731Y-9406D01*
X160618Y-9321D01*
X160498Y-9223D01*
X160386Y-9103D01*
X160280Y-8970D01*
Y-8963D01*
X160266Y-8948D01*
X160259Y-8927D01*
X160238Y-8899D01*
X160224Y-8864D01*
X160203Y-8822D01*
X160154Y-8716D01*
X160104Y-8583D01*
X160062Y-8435D01*
X160034Y-8266D01*
X160020Y-8090D01*
X160625Y-8034D01*
Y-8041D01*
Y-8048D01*
X160632Y-8069D01*
Y-8097D01*
X160646Y-8160D01*
X160667Y-8252D01*
X160695Y-8343D01*
X160724Y-8449D01*
X160773Y-8547D01*
X160822Y-8639D01*
X160829Y-8646D01*
X160850Y-8674D01*
X160885Y-8723D01*
X160942Y-8773D01*
X161012Y-8836D01*
X161089Y-8899D01*
X161195Y-8963D01*
X161308Y-9019D01*
X161315D01*
X161322Y-9026D01*
X161343Y-9033D01*
X161364Y-9040D01*
X161434Y-9061D01*
X161526Y-9089D01*
X161638Y-9117D01*
X161765Y-9138D01*
X161906Y-9153D01*
X162060Y-9160D01*
X162124D01*
X162194Y-9153D01*
X162278Y-9145D01*
X162377Y-9131D01*
X162490Y-9117D01*
X162602Y-9089D01*
X162708Y-9054D01*
X162722Y-9047D01*
X162757Y-9033D01*
X162806Y-9005D01*
X162869Y-8977D01*
X162933Y-8927D01*
X163003Y-8878D01*
X163074Y-8822D01*
X163130Y-8751D01*
X163137Y-8744D01*
X163151Y-8716D01*
X163172Y-8681D01*
X163200Y-8625D01*
X163228Y-8569D01*
X163249Y-8498D01*
X163263Y-8421D01*
X163270Y-8336D01*
Y-8329D01*
Y-8294D01*
X163263Y-8252D01*
X163256Y-8196D01*
X163235Y-8139D01*
X163214Y-8069D01*
X163179Y-7999D01*
X163130Y-7935D01*
X163123Y-7928D01*
X163102Y-7907D01*
X163074Y-7879D01*
X163024Y-7837D01*
X162968Y-7794D01*
X162891Y-7745D01*
X162799Y-7696D01*
X162694Y-7654D01*
X162687Y-7647D01*
X162651Y-7640D01*
X162595Y-7619D01*
X162560Y-7612D01*
X162511Y-7598D01*
X162461Y-7576D01*
X162398Y-7562D01*
X162328Y-7541D01*
X162243Y-7520D01*
X162159Y-7499D01*
X162060Y-7471D01*
X161948Y-7443D01*
X161828Y-7415D01*
X161821D01*
X161800Y-7408D01*
X161765Y-7401D01*
X161723Y-7387D01*
X161666Y-7372D01*
X161603Y-7358D01*
X161462Y-7316D01*
X161308Y-7267D01*
X161146Y-7218D01*
X161005Y-7168D01*
X160942Y-7140D01*
X160885Y-7112D01*
X160878D01*
X160871Y-7105D01*
X160829Y-7077D01*
X160766Y-7042D01*
X160695Y-6985D01*
X160611Y-6922D01*
X160527Y-6845D01*
X160442Y-6753D01*
X160372Y-6655D01*
X160365Y-6641D01*
X160344Y-6605D01*
X160315Y-6549D01*
X160287Y-6479D01*
X160259Y-6387D01*
X160231Y-6282D01*
X160210Y-6169D01*
X160203Y-6050D01*
Y-6043D01*
Y-6036D01*
Y-6015D01*
Y-5986D01*
X160217Y-5916D01*
X160231Y-5824D01*
X160252Y-5719D01*
X160287Y-5599D01*
X160337Y-5480D01*
X160407Y-5360D01*
Y-5353D01*
X160414Y-5346D01*
X160449Y-5304D01*
X160498Y-5248D01*
X160562Y-5177D01*
X160646Y-5100D01*
X160752Y-5015D01*
X160878Y-4938D01*
X161019Y-4868D01*
X161026D01*
X161040Y-4861D01*
X161061Y-4854D01*
X161089Y-4839D01*
X161125Y-4825D01*
X161174Y-4811D01*
X161279Y-4783D01*
X161413Y-4755D01*
X161568Y-4727D01*
X161730Y-4706D01*
X161913Y-4699D01*
X162004D01*
X162053Y-4706D01*
D02*
G37*
G36*
X167527Y-5416D02*
X165578D01*
X165318Y-6732D01*
X165325Y-6725D01*
X165339Y-6718D01*
X165360Y-6704D01*
X165395Y-6683D01*
X165438Y-6662D01*
X165487Y-6634D01*
X165599Y-6577D01*
X165740Y-6521D01*
X165895Y-6472D01*
X166064Y-6437D01*
X166148Y-6423D01*
X166303D01*
X166345Y-6430D01*
X166402Y-6437D01*
X166465Y-6444D01*
X166535Y-6458D01*
X166612Y-6479D01*
X166781Y-6528D01*
X166873Y-6563D01*
X166964Y-6612D01*
X167056Y-6662D01*
X167147Y-6718D01*
X167232Y-6788D01*
X167316Y-6866D01*
X167323Y-6873D01*
X167337Y-6887D01*
X167358Y-6908D01*
X167386Y-6943D01*
X167422Y-6992D01*
X167457Y-7042D01*
X167499Y-7105D01*
X167541Y-7175D01*
X167576Y-7253D01*
X167619Y-7337D01*
X167654Y-7436D01*
X167689Y-7534D01*
X167717Y-7640D01*
X167738Y-7759D01*
X167752Y-7879D01*
X167759Y-8006D01*
Y-8013D01*
Y-8034D01*
Y-8069D01*
X167752Y-8118D01*
X167745Y-8174D01*
X167738Y-8238D01*
X167724Y-8315D01*
X167710Y-8393D01*
X167668Y-8576D01*
X167598Y-8766D01*
X167555Y-8864D01*
X167499Y-8956D01*
X167443Y-9054D01*
X167372Y-9145D01*
X167365Y-9153D01*
X167351Y-9174D01*
X167323Y-9202D01*
X167288Y-9237D01*
X167239Y-9279D01*
X167182Y-9335D01*
X167112Y-9385D01*
X167035Y-9441D01*
X166950Y-9497D01*
X166852Y-9546D01*
X166746Y-9596D01*
X166634Y-9645D01*
X166514Y-9680D01*
X166380Y-9708D01*
X166240Y-9729D01*
X166092Y-9736D01*
X166029D01*
X165979Y-9729D01*
X165923Y-9722D01*
X165860Y-9715D01*
X165782Y-9708D01*
X165705Y-9687D01*
X165529Y-9645D01*
X165353Y-9582D01*
X165262Y-9539D01*
X165170Y-9490D01*
X165086Y-9434D01*
X165001Y-9371D01*
X164994Y-9363D01*
X164980Y-9356D01*
X164966Y-9328D01*
X164938Y-9300D01*
X164903Y-9265D01*
X164868Y-9223D01*
X164825Y-9166D01*
X164790Y-9103D01*
X164748Y-9040D01*
X164706Y-8963D01*
X164628Y-8794D01*
X164565Y-8597D01*
X164544Y-8491D01*
X164530Y-8378D01*
X165156Y-8329D01*
Y-8336D01*
Y-8350D01*
X165163Y-8371D01*
X165170Y-8407D01*
X165191Y-8484D01*
X165219Y-8590D01*
X165262Y-8695D01*
X165318Y-8815D01*
X165388Y-8920D01*
X165473Y-9019D01*
X165487Y-9026D01*
X165515Y-9054D01*
X165571Y-9089D01*
X165649Y-9131D01*
X165733Y-9174D01*
X165839Y-9209D01*
X165958Y-9237D01*
X166092Y-9244D01*
X166134D01*
X166162Y-9237D01*
X166247Y-9230D01*
X166345Y-9202D01*
X166465Y-9166D01*
X166584Y-9110D01*
X166711Y-9026D01*
X166767Y-8977D01*
X166824Y-8920D01*
X166831Y-8913D01*
X166838Y-8906D01*
X166852Y-8885D01*
X166873Y-8864D01*
X166922Y-8787D01*
X166978Y-8688D01*
X167028Y-8569D01*
X167077Y-8421D01*
X167112Y-8245D01*
X167126Y-8153D01*
Y-8055D01*
Y-8048D01*
Y-8034D01*
Y-8006D01*
X167119Y-7970D01*
Y-7928D01*
X167112Y-7879D01*
X167091Y-7766D01*
X167056Y-7633D01*
X167006Y-7499D01*
X166936Y-7372D01*
X166838Y-7253D01*
Y-7246D01*
X166824Y-7239D01*
X166788Y-7204D01*
X166725Y-7154D01*
X166641Y-7098D01*
X166528Y-7049D01*
X166402Y-6999D01*
X166254Y-6964D01*
X166169Y-6950D01*
X166036D01*
X165979Y-6957D01*
X165909Y-6964D01*
X165825Y-6985D01*
X165740Y-7006D01*
X165649Y-7042D01*
X165557Y-7084D01*
X165550Y-7091D01*
X165522Y-7105D01*
X165480Y-7140D01*
X165424Y-7175D01*
X165367Y-7225D01*
X165311Y-7288D01*
X165248Y-7351D01*
X165198Y-7429D01*
X164636Y-7351D01*
X165107Y-4846D01*
X167527D01*
Y-5416D01*
D02*
G37*
G36*
X-10667Y-4706D02*
X-10617D01*
X-10484Y-4720D01*
X-10336Y-4741D01*
X-10181Y-4776D01*
X-10012Y-4818D01*
X-9858Y-4875D01*
X-9851D01*
X-9836Y-4882D01*
X-9815Y-4896D01*
X-9787Y-4910D01*
X-9717Y-4945D01*
X-9625Y-5008D01*
X-9520Y-5079D01*
X-9414Y-5170D01*
X-9316Y-5276D01*
X-9224Y-5395D01*
Y-5402D01*
X-9217Y-5409D01*
X-9203Y-5430D01*
X-9189Y-5452D01*
X-9154Y-5522D01*
X-9112Y-5613D01*
X-9062Y-5726D01*
X-9027Y-5860D01*
X-8992Y-6000D01*
X-8978Y-6155D01*
X-9597Y-6205D01*
Y-6197D01*
Y-6183D01*
X-9604Y-6162D01*
X-9611Y-6127D01*
X-9632Y-6050D01*
X-9661Y-5944D01*
X-9703Y-5832D01*
X-9766Y-5719D01*
X-9844Y-5613D01*
X-9942Y-5515D01*
X-9956Y-5508D01*
X-9991Y-5480D01*
X-10062Y-5438D01*
X-10153Y-5395D01*
X-10273Y-5353D01*
X-10413Y-5311D01*
X-10589Y-5283D01*
X-10786Y-5276D01*
X-10885D01*
X-10927Y-5283D01*
X-10983Y-5290D01*
X-11110Y-5304D01*
X-11251Y-5332D01*
X-11391Y-5367D01*
X-11525Y-5423D01*
X-11581Y-5459D01*
X-11638Y-5494D01*
X-11652Y-5501D01*
X-11680Y-5529D01*
X-11722Y-5578D01*
X-11764Y-5635D01*
X-11813Y-5712D01*
X-11856Y-5796D01*
X-11884Y-5895D01*
X-11898Y-6008D01*
Y-6022D01*
Y-6050D01*
X-11891Y-6099D01*
X-11877Y-6155D01*
X-11856Y-6226D01*
X-11820Y-6296D01*
X-11778Y-6366D01*
X-11715Y-6437D01*
X-11708Y-6444D01*
X-11673Y-6465D01*
X-11645Y-6486D01*
X-11616Y-6500D01*
X-11574Y-6521D01*
X-11525Y-6549D01*
X-11462Y-6570D01*
X-11391Y-6599D01*
X-11314Y-6627D01*
X-11222Y-6662D01*
X-11124Y-6690D01*
X-11011Y-6725D01*
X-10885Y-6753D01*
X-10744Y-6788D01*
X-10737D01*
X-10709Y-6795D01*
X-10667Y-6802D01*
X-10617Y-6817D01*
X-10554Y-6831D01*
X-10477Y-6852D01*
X-10399Y-6873D01*
X-10315Y-6894D01*
X-10132Y-6943D01*
X-9956Y-6992D01*
X-9872Y-7021D01*
X-9794Y-7049D01*
X-9724Y-7070D01*
X-9668Y-7098D01*
X-9661D01*
X-9646Y-7105D01*
X-9625Y-7119D01*
X-9597Y-7133D01*
X-9520Y-7175D01*
X-9428Y-7232D01*
X-9323Y-7309D01*
X-9217Y-7394D01*
X-9119Y-7492D01*
X-9034Y-7598D01*
X-9027Y-7612D01*
X-8999Y-7647D01*
X-8971Y-7710D01*
X-8929Y-7794D01*
X-8894Y-7893D01*
X-8859Y-8013D01*
X-8837Y-8146D01*
X-8830Y-8287D01*
Y-8294D01*
Y-8301D01*
Y-8322D01*
Y-8350D01*
X-8844Y-8428D01*
X-8859Y-8526D01*
X-8887Y-8639D01*
X-8922Y-8759D01*
X-8978Y-8885D01*
X-9056Y-9019D01*
Y-9026D01*
X-9062Y-9033D01*
X-9098Y-9075D01*
X-9147Y-9138D01*
X-9217Y-9209D01*
X-9309Y-9293D01*
X-9421Y-9385D01*
X-9548Y-9469D01*
X-9696Y-9546D01*
X-9703D01*
X-9717Y-9553D01*
X-9738Y-9560D01*
X-9766Y-9575D01*
X-9808Y-9589D01*
X-9858Y-9610D01*
X-9970Y-9638D01*
X-10104Y-9673D01*
X-10266Y-9708D01*
X-10441Y-9729D01*
X-10632Y-9736D01*
X-10744D01*
X-10800Y-9729D01*
X-10864D01*
X-10934Y-9722D01*
X-11018Y-9715D01*
X-11194Y-9687D01*
X-11377Y-9659D01*
X-11560Y-9610D01*
X-11736Y-9546D01*
X-11743D01*
X-11757Y-9539D01*
X-11778Y-9525D01*
X-11806Y-9511D01*
X-11891Y-9469D01*
X-11989Y-9406D01*
X-12102Y-9321D01*
X-12222Y-9223D01*
X-12334Y-9103D01*
X-12440Y-8970D01*
Y-8963D01*
X-12454Y-8948D01*
X-12461Y-8927D01*
X-12482Y-8899D01*
X-12496Y-8864D01*
X-12517Y-8822D01*
X-12566Y-8716D01*
X-12616Y-8583D01*
X-12658Y-8435D01*
X-12686Y-8266D01*
X-12700Y-8090D01*
X-12095Y-8034D01*
Y-8041D01*
Y-8048D01*
X-12088Y-8069D01*
Y-8097D01*
X-12074Y-8160D01*
X-12053Y-8252D01*
X-12025Y-8343D01*
X-11996Y-8449D01*
X-11947Y-8547D01*
X-11898Y-8639D01*
X-11891Y-8646D01*
X-11870Y-8674D01*
X-11835Y-8723D01*
X-11778Y-8773D01*
X-11708Y-8836D01*
X-11631Y-8899D01*
X-11525Y-8963D01*
X-11412Y-9019D01*
X-11405D01*
X-11398Y-9026D01*
X-11377Y-9033D01*
X-11356Y-9040D01*
X-11286Y-9061D01*
X-11194Y-9089D01*
X-11082Y-9117D01*
X-10955Y-9138D01*
X-10814Y-9153D01*
X-10660Y-9160D01*
X-10596D01*
X-10526Y-9153D01*
X-10441Y-9145D01*
X-10343Y-9131D01*
X-10230Y-9117D01*
X-10118Y-9089D01*
X-10012Y-9054D01*
X-9998Y-9047D01*
X-9963Y-9033D01*
X-9914Y-9005D01*
X-9851Y-8977D01*
X-9787Y-8927D01*
X-9717Y-8878D01*
X-9646Y-8822D01*
X-9590Y-8751D01*
X-9583Y-8744D01*
X-9569Y-8716D01*
X-9548Y-8681D01*
X-9520Y-8625D01*
X-9492Y-8569D01*
X-9471Y-8498D01*
X-9456Y-8421D01*
X-9449Y-8336D01*
Y-8329D01*
Y-8294D01*
X-9456Y-8252D01*
X-9463Y-8196D01*
X-9485Y-8139D01*
X-9506Y-8069D01*
X-9541Y-7999D01*
X-9590Y-7935D01*
X-9597Y-7928D01*
X-9618Y-7907D01*
X-9646Y-7879D01*
X-9696Y-7837D01*
X-9752Y-7794D01*
X-9829Y-7745D01*
X-9921Y-7696D01*
X-10026Y-7654D01*
X-10033Y-7647D01*
X-10069Y-7640D01*
X-10125Y-7619D01*
X-10160Y-7612D01*
X-10209Y-7598D01*
X-10259Y-7576D01*
X-10322Y-7562D01*
X-10392Y-7541D01*
X-10477Y-7520D01*
X-10561Y-7499D01*
X-10660Y-7471D01*
X-10772Y-7443D01*
X-10892Y-7415D01*
X-10899D01*
X-10920Y-7408D01*
X-10955Y-7401D01*
X-10997Y-7387D01*
X-11054Y-7372D01*
X-11117Y-7358D01*
X-11258Y-7316D01*
X-11412Y-7267D01*
X-11574Y-7218D01*
X-11715Y-7168D01*
X-11778Y-7140D01*
X-11835Y-7112D01*
X-11842D01*
X-11849Y-7105D01*
X-11891Y-7077D01*
X-11954Y-7042D01*
X-12025Y-6985D01*
X-12109Y-6922D01*
X-12193Y-6845D01*
X-12278Y-6753D01*
X-12348Y-6655D01*
X-12355Y-6641D01*
X-12376Y-6605D01*
X-12405Y-6549D01*
X-12433Y-6479D01*
X-12461Y-6387D01*
X-12489Y-6282D01*
X-12510Y-6169D01*
X-12517Y-6050D01*
Y-6043D01*
Y-6036D01*
Y-6015D01*
Y-5986D01*
X-12503Y-5916D01*
X-12489Y-5824D01*
X-12468Y-5719D01*
X-12433Y-5599D01*
X-12383Y-5480D01*
X-12313Y-5360D01*
Y-5353D01*
X-12306Y-5346D01*
X-12271Y-5304D01*
X-12222Y-5248D01*
X-12158Y-5177D01*
X-12074Y-5100D01*
X-11968Y-5015D01*
X-11842Y-4938D01*
X-11701Y-4868D01*
X-11694D01*
X-11680Y-4861D01*
X-11659Y-4854D01*
X-11631Y-4839D01*
X-11595Y-4825D01*
X-11546Y-4811D01*
X-11441Y-4783D01*
X-11307Y-4755D01*
X-11152Y-4727D01*
X-10990Y-4706D01*
X-10807Y-4699D01*
X-10716D01*
X-10667Y-4706D01*
D02*
G37*
G36*
X-5678Y-7935D02*
X-5017D01*
Y-8484D01*
X-5678D01*
Y-9652D01*
X-6276D01*
Y-8484D01*
X-8394D01*
Y-7935D01*
X-6164Y-4783D01*
X-5678D01*
Y-7935D01*
D02*
G37*
G36*
X35053Y-337954D02*
X35103D01*
X35236Y-337968D01*
X35384Y-337989D01*
X35539Y-338024D01*
X35708Y-338066D01*
X35863Y-338123D01*
X35870D01*
X35884Y-338130D01*
X35905Y-338144D01*
X35933Y-338158D01*
X36003Y-338193D01*
X36095Y-338256D01*
X36200Y-338327D01*
X36306Y-338418D01*
X36404Y-338524D01*
X36496Y-338643D01*
Y-338650D01*
X36503Y-338657D01*
X36517Y-338679D01*
X36531Y-338700D01*
X36566Y-338770D01*
X36608Y-338862D01*
X36658Y-338974D01*
X36693Y-339108D01*
X36728Y-339248D01*
X36742Y-339403D01*
X36123Y-339453D01*
Y-339445D01*
Y-339431D01*
X36116Y-339410D01*
X36109Y-339375D01*
X36088Y-339298D01*
X36060Y-339192D01*
X36017Y-339080D01*
X35954Y-338967D01*
X35877Y-338862D01*
X35778Y-338763D01*
X35764Y-338756D01*
X35729Y-338728D01*
X35658Y-338686D01*
X35567Y-338643D01*
X35447Y-338601D01*
X35307Y-338559D01*
X35131Y-338531D01*
X34934Y-338524D01*
X34835D01*
X34793Y-338531D01*
X34737Y-338538D01*
X34610Y-338552D01*
X34469Y-338580D01*
X34329Y-338615D01*
X34195Y-338671D01*
X34139Y-338707D01*
X34082Y-338742D01*
X34068Y-338749D01*
X34040Y-338777D01*
X33998Y-338826D01*
X33956Y-338883D01*
X33907Y-338960D01*
X33864Y-339044D01*
X33836Y-339143D01*
X33822Y-339255D01*
Y-339269D01*
Y-339298D01*
X33829Y-339347D01*
X33843Y-339403D01*
X33864Y-339474D01*
X33900Y-339544D01*
X33942Y-339614D01*
X34005Y-339685D01*
X34012Y-339692D01*
X34047Y-339713D01*
X34075Y-339734D01*
X34104Y-339748D01*
X34146Y-339769D01*
X34195Y-339797D01*
X34258Y-339818D01*
X34329Y-339846D01*
X34406Y-339875D01*
X34497Y-339910D01*
X34596Y-339938D01*
X34709Y-339973D01*
X34835Y-340001D01*
X34976Y-340036D01*
X34983D01*
X35011Y-340043D01*
X35053Y-340051D01*
X35103Y-340065D01*
X35166Y-340079D01*
X35243Y-340100D01*
X35321Y-340121D01*
X35405Y-340142D01*
X35588Y-340191D01*
X35764Y-340241D01*
X35848Y-340269D01*
X35926Y-340297D01*
X35996Y-340318D01*
X36052Y-340346D01*
X36060D01*
X36074Y-340353D01*
X36095Y-340367D01*
X36123Y-340381D01*
X36200Y-340423D01*
X36292Y-340480D01*
X36397Y-340557D01*
X36503Y-340642D01*
X36601Y-340740D01*
X36686Y-340845D01*
X36693Y-340860D01*
X36721Y-340895D01*
X36749Y-340958D01*
X36791Y-341043D01*
X36826Y-341141D01*
X36862Y-341261D01*
X36883Y-341394D01*
X36890Y-341535D01*
Y-341542D01*
Y-341549D01*
Y-341570D01*
Y-341598D01*
X36876Y-341676D01*
X36862Y-341774D01*
X36833Y-341887D01*
X36798Y-342006D01*
X36742Y-342133D01*
X36665Y-342267D01*
Y-342274D01*
X36658Y-342281D01*
X36622Y-342323D01*
X36573Y-342386D01*
X36503Y-342457D01*
X36411Y-342541D01*
X36299Y-342633D01*
X36172Y-342717D01*
X36024Y-342794D01*
X36017D01*
X36003Y-342802D01*
X35982Y-342808D01*
X35954Y-342823D01*
X35912Y-342837D01*
X35863Y-342858D01*
X35750Y-342886D01*
X35616Y-342921D01*
X35454Y-342956D01*
X35278Y-342977D01*
X35089Y-342984D01*
X34976D01*
X34920Y-342977D01*
X34856D01*
X34786Y-342970D01*
X34702Y-342963D01*
X34526Y-342935D01*
X34343Y-342907D01*
X34160Y-342858D01*
X33984Y-342794D01*
X33977D01*
X33963Y-342787D01*
X33942Y-342773D01*
X33914Y-342759D01*
X33829Y-342717D01*
X33731Y-342654D01*
X33618Y-342569D01*
X33498Y-342471D01*
X33386Y-342351D01*
X33280Y-342217D01*
Y-342211D01*
X33266Y-342196D01*
X33259Y-342175D01*
X33238Y-342147D01*
X33224Y-342112D01*
X33203Y-342070D01*
X33154Y-341964D01*
X33104Y-341831D01*
X33062Y-341683D01*
X33034Y-341514D01*
X33020Y-341338D01*
X33625Y-341282D01*
Y-341289D01*
Y-341296D01*
X33632Y-341317D01*
Y-341345D01*
X33646Y-341408D01*
X33667Y-341500D01*
X33695Y-341591D01*
X33724Y-341697D01*
X33773Y-341795D01*
X33822Y-341887D01*
X33829Y-341894D01*
X33850Y-341922D01*
X33885Y-341971D01*
X33942Y-342020D01*
X34012Y-342084D01*
X34089Y-342147D01*
X34195Y-342211D01*
X34308Y-342267D01*
X34315D01*
X34322Y-342274D01*
X34343Y-342281D01*
X34364Y-342288D01*
X34434Y-342309D01*
X34526Y-342337D01*
X34638Y-342365D01*
X34765Y-342386D01*
X34906Y-342401D01*
X35060Y-342407D01*
X35124D01*
X35194Y-342401D01*
X35278Y-342393D01*
X35377Y-342379D01*
X35490Y-342365D01*
X35602Y-342337D01*
X35708Y-342302D01*
X35722Y-342295D01*
X35757Y-342281D01*
X35806Y-342253D01*
X35870Y-342225D01*
X35933Y-342175D01*
X36003Y-342126D01*
X36074Y-342070D01*
X36130Y-341999D01*
X36137Y-341992D01*
X36151Y-341964D01*
X36172Y-341929D01*
X36200Y-341873D01*
X36228Y-341816D01*
X36249Y-341746D01*
X36263Y-341669D01*
X36270Y-341584D01*
Y-341577D01*
Y-341542D01*
X36263Y-341500D01*
X36256Y-341444D01*
X36235Y-341387D01*
X36214Y-341317D01*
X36179Y-341247D01*
X36130Y-341183D01*
X36123Y-341176D01*
X36102Y-341155D01*
X36074Y-341127D01*
X36024Y-341085D01*
X35968Y-341043D01*
X35891Y-340993D01*
X35799Y-340944D01*
X35694Y-340902D01*
X35687Y-340895D01*
X35651Y-340888D01*
X35595Y-340867D01*
X35560Y-340860D01*
X35511Y-340845D01*
X35461Y-340824D01*
X35398Y-340810D01*
X35328Y-340789D01*
X35243Y-340768D01*
X35159Y-340747D01*
X35060Y-340719D01*
X34948Y-340691D01*
X34828Y-340663D01*
X34821D01*
X34800Y-340656D01*
X34765Y-340648D01*
X34723Y-340634D01*
X34666Y-340620D01*
X34603Y-340606D01*
X34462Y-340564D01*
X34308Y-340515D01*
X34146Y-340466D01*
X34005Y-340416D01*
X33942Y-340388D01*
X33885Y-340360D01*
X33878D01*
X33871Y-340353D01*
X33829Y-340325D01*
X33766Y-340290D01*
X33695Y-340233D01*
X33611Y-340170D01*
X33527Y-340093D01*
X33442Y-340001D01*
X33372Y-339903D01*
X33365Y-339889D01*
X33344Y-339854D01*
X33315Y-339797D01*
X33287Y-339727D01*
X33259Y-339635D01*
X33231Y-339530D01*
X33210Y-339417D01*
X33203Y-339298D01*
Y-339291D01*
Y-339284D01*
Y-339263D01*
Y-339234D01*
X33217Y-339164D01*
X33231Y-339072D01*
X33252Y-338967D01*
X33287Y-338847D01*
X33337Y-338728D01*
X33407Y-338608D01*
Y-338601D01*
X33414Y-338594D01*
X33449Y-338552D01*
X33498Y-338496D01*
X33562Y-338425D01*
X33646Y-338348D01*
X33752Y-338263D01*
X33878Y-338186D01*
X34019Y-338116D01*
X34026D01*
X34040Y-338109D01*
X34061Y-338102D01*
X34089Y-338088D01*
X34125Y-338073D01*
X34174Y-338059D01*
X34279Y-338031D01*
X34413Y-338003D01*
X34568Y-337975D01*
X34730Y-337954D01*
X34913Y-337947D01*
X35004D01*
X35053Y-337954D01*
D02*
G37*
G36*
X39204Y-338017D02*
X39296Y-338031D01*
X39409Y-338052D01*
X39535Y-338088D01*
X39662Y-338130D01*
X39788Y-338186D01*
X39795D01*
X39802Y-338193D01*
X39845Y-338214D01*
X39908Y-338256D01*
X39978Y-338306D01*
X40063Y-338376D01*
X40147Y-338453D01*
X40232Y-338545D01*
X40302Y-338650D01*
X40309Y-338664D01*
X40330Y-338700D01*
X40358Y-338763D01*
X40394Y-338840D01*
X40429Y-338932D01*
X40457Y-339037D01*
X40478Y-339157D01*
X40485Y-339277D01*
Y-339291D01*
Y-339333D01*
X40478Y-339389D01*
X40464Y-339467D01*
X40443Y-339558D01*
X40408Y-339656D01*
X40365Y-339755D01*
X40309Y-339854D01*
X40302Y-339868D01*
X40281Y-339896D01*
X40239Y-339945D01*
X40182Y-340001D01*
X40112Y-340065D01*
X40028Y-340135D01*
X39929Y-340198D01*
X39810Y-340262D01*
X39817D01*
X39831Y-340269D01*
X39852Y-340276D01*
X39880Y-340283D01*
X39957Y-340311D01*
X40056Y-340353D01*
X40168Y-340409D01*
X40281Y-340480D01*
X40387Y-340571D01*
X40485Y-340677D01*
X40492Y-340691D01*
X40520Y-340733D01*
X40562Y-340803D01*
X40605Y-340895D01*
X40647Y-341007D01*
X40689Y-341141D01*
X40717Y-341296D01*
X40724Y-341465D01*
Y-341472D01*
Y-341493D01*
Y-341528D01*
X40717Y-341570D01*
X40710Y-341627D01*
X40696Y-341690D01*
X40682Y-341760D01*
X40668Y-341838D01*
X40612Y-342006D01*
X40569Y-342098D01*
X40527Y-342182D01*
X40471Y-342274D01*
X40408Y-342365D01*
X40337Y-342457D01*
X40253Y-342541D01*
X40246Y-342548D01*
X40232Y-342562D01*
X40204Y-342583D01*
X40168Y-342612D01*
X40126Y-342647D01*
X40070Y-342682D01*
X40006Y-342724D01*
X39929Y-342759D01*
X39852Y-342802D01*
X39760Y-342844D01*
X39669Y-342879D01*
X39563Y-342914D01*
X39451Y-342942D01*
X39331Y-342963D01*
X39211Y-342977D01*
X39078Y-342984D01*
X39014D01*
X38972Y-342977D01*
X38916Y-342970D01*
X38853Y-342963D01*
X38782Y-342949D01*
X38705Y-342935D01*
X38536Y-342893D01*
X38360Y-342823D01*
X38269Y-342780D01*
X38184Y-342731D01*
X38100Y-342668D01*
X38015Y-342604D01*
X38008Y-342598D01*
X37994Y-342583D01*
X37973Y-342562D01*
X37952Y-342534D01*
X37917Y-342499D01*
X37882Y-342450D01*
X37840Y-342401D01*
X37797Y-342337D01*
X37755Y-342267D01*
X37713Y-342196D01*
X37636Y-342028D01*
X37572Y-341831D01*
X37551Y-341725D01*
X37537Y-341612D01*
X38135Y-341535D01*
Y-341542D01*
X38142Y-341556D01*
X38149Y-341584D01*
X38156Y-341619D01*
X38163Y-341662D01*
X38177Y-341711D01*
X38212Y-341816D01*
X38262Y-341943D01*
X38325Y-342063D01*
X38395Y-342175D01*
X38480Y-342274D01*
X38494Y-342281D01*
X38522Y-342309D01*
X38578Y-342344D01*
X38649Y-342379D01*
X38733Y-342422D01*
X38839Y-342457D01*
X38958Y-342485D01*
X39085Y-342492D01*
X39127D01*
X39155Y-342485D01*
X39233Y-342478D01*
X39331Y-342457D01*
X39444Y-342422D01*
X39563Y-342372D01*
X39683Y-342302D01*
X39795Y-342203D01*
X39810Y-342189D01*
X39845Y-342147D01*
X39887Y-342084D01*
X39943Y-341999D01*
X39999Y-341894D01*
X40042Y-341774D01*
X40077Y-341634D01*
X40091Y-341479D01*
Y-341472D01*
Y-341458D01*
Y-341437D01*
X40084Y-341408D01*
X40077Y-341331D01*
X40056Y-341240D01*
X40028Y-341127D01*
X39978Y-341014D01*
X39908Y-340902D01*
X39817Y-340796D01*
X39802Y-340782D01*
X39767Y-340754D01*
X39711Y-340712D01*
X39634Y-340663D01*
X39535Y-340613D01*
X39416Y-340571D01*
X39282Y-340543D01*
X39134Y-340529D01*
X39071D01*
X39021Y-340536D01*
X38958Y-340543D01*
X38888Y-340557D01*
X38803Y-340571D01*
X38712Y-340592D01*
X38782Y-340065D01*
X38818D01*
X38846Y-340072D01*
X38937D01*
X39014Y-340057D01*
X39106Y-340043D01*
X39211Y-340022D01*
X39331Y-339987D01*
X39444Y-339938D01*
X39563Y-339875D01*
X39570D01*
X39577Y-339868D01*
X39613Y-339839D01*
X39662Y-339790D01*
X39718Y-339727D01*
X39774Y-339635D01*
X39824Y-339530D01*
X39859Y-339410D01*
X39873Y-339340D01*
Y-339263D01*
Y-339255D01*
Y-339248D01*
Y-339206D01*
X39859Y-339150D01*
X39845Y-339072D01*
X39817Y-338988D01*
X39781Y-338897D01*
X39725Y-338805D01*
X39648Y-338721D01*
X39641Y-338714D01*
X39606Y-338686D01*
X39556Y-338650D01*
X39493Y-338608D01*
X39409Y-338573D01*
X39310Y-338538D01*
X39197Y-338510D01*
X39071Y-338503D01*
X39014D01*
X38951Y-338517D01*
X38867Y-338531D01*
X38775Y-338559D01*
X38684Y-338594D01*
X38585Y-338650D01*
X38494Y-338721D01*
X38487Y-338728D01*
X38459Y-338763D01*
X38417Y-338812D01*
X38367Y-338883D01*
X38318Y-338974D01*
X38269Y-339087D01*
X38226Y-339220D01*
X38198Y-339375D01*
X37600Y-339269D01*
Y-339263D01*
X37607Y-339241D01*
X37614Y-339213D01*
X37621Y-339171D01*
X37636Y-339122D01*
X37657Y-339066D01*
X37699Y-338932D01*
X37769Y-338777D01*
X37854Y-338622D01*
X37959Y-338475D01*
X38093Y-338341D01*
X38100Y-338334D01*
X38114Y-338327D01*
X38135Y-338313D01*
X38163Y-338292D01*
X38198Y-338263D01*
X38248Y-338235D01*
X38297Y-338207D01*
X38360Y-338172D01*
X38501Y-338116D01*
X38663Y-338059D01*
X38853Y-338024D01*
X38951Y-338010D01*
X39127D01*
X39204Y-338017D01*
D02*
G37*
G36*
X9653Y22980D02*
X9703D01*
X9836Y22966D01*
X9984Y22945D01*
X10139Y22910D01*
X10308Y22868D01*
X10462Y22811D01*
X10469D01*
X10484Y22804D01*
X10505Y22790D01*
X10533Y22776D01*
X10603Y22741D01*
X10695Y22678D01*
X10800Y22607D01*
X10906Y22516D01*
X11004Y22410D01*
X11096Y22291D01*
Y22284D01*
X11103Y22277D01*
X11117Y22255D01*
X11131Y22234D01*
X11166Y22164D01*
X11208Y22073D01*
X11257Y21960D01*
X11293Y21826D01*
X11328Y21686D01*
X11342Y21531D01*
X10723Y21481D01*
Y21489D01*
Y21503D01*
X10716Y21524D01*
X10709Y21559D01*
X10688Y21636D01*
X10660Y21742D01*
X10617Y21854D01*
X10554Y21967D01*
X10476Y22073D01*
X10378Y22171D01*
X10364Y22178D01*
X10329Y22206D01*
X10258Y22248D01*
X10167Y22291D01*
X10047Y22333D01*
X9907Y22375D01*
X9731Y22403D01*
X9534Y22410D01*
X9435D01*
X9393Y22403D01*
X9337Y22396D01*
X9210Y22382D01*
X9069Y22354D01*
X8929Y22319D01*
X8795Y22262D01*
X8739Y22227D01*
X8682Y22192D01*
X8668Y22185D01*
X8640Y22157D01*
X8598Y22108D01*
X8556Y22051D01*
X8507Y21974D01*
X8464Y21890D01*
X8436Y21791D01*
X8422Y21679D01*
Y21665D01*
Y21636D01*
X8429Y21587D01*
X8443Y21531D01*
X8464Y21460D01*
X8500Y21390D01*
X8542Y21320D01*
X8605Y21249D01*
X8612Y21242D01*
X8647Y21221D01*
X8675Y21200D01*
X8704Y21186D01*
X8746Y21165D01*
X8795Y21137D01*
X8858Y21116D01*
X8929Y21088D01*
X9006Y21059D01*
X9097Y21024D01*
X9196Y20996D01*
X9309Y20961D01*
X9435Y20933D01*
X9576Y20898D01*
X9583D01*
X9611Y20891D01*
X9653Y20884D01*
X9703Y20869D01*
X9766Y20855D01*
X9843Y20834D01*
X9921Y20813D01*
X10005Y20792D01*
X10188Y20743D01*
X10364Y20694D01*
X10448Y20665D01*
X10526Y20637D01*
X10596Y20616D01*
X10652Y20588D01*
X10660D01*
X10674Y20581D01*
X10695Y20567D01*
X10723Y20553D01*
X10800Y20511D01*
X10892Y20454D01*
X10997Y20377D01*
X11103Y20292D01*
X11201Y20194D01*
X11286Y20089D01*
X11293Y20074D01*
X11321Y20039D01*
X11349Y19976D01*
X11391Y19892D01*
X11426Y19793D01*
X11461Y19673D01*
X11483Y19540D01*
X11490Y19399D01*
Y19392D01*
Y19385D01*
Y19364D01*
Y19336D01*
X11476Y19258D01*
X11461Y19160D01*
X11433Y19047D01*
X11398Y18928D01*
X11342Y18801D01*
X11264Y18667D01*
Y18660D01*
X11257Y18653D01*
X11222Y18611D01*
X11173Y18548D01*
X11103Y18477D01*
X11011Y18393D01*
X10899Y18301D01*
X10772Y18217D01*
X10624Y18139D01*
X10617D01*
X10603Y18132D01*
X10582Y18125D01*
X10554Y18111D01*
X10512Y18097D01*
X10462Y18076D01*
X10350Y18048D01*
X10216Y18013D01*
X10054Y17978D01*
X9879Y17957D01*
X9689Y17950D01*
X9576D01*
X9520Y17957D01*
X9456D01*
X9386Y17964D01*
X9302Y17971D01*
X9126Y17999D01*
X8943Y18027D01*
X8760Y18076D01*
X8584Y18139D01*
X8577D01*
X8563Y18147D01*
X8542Y18161D01*
X8514Y18175D01*
X8429Y18217D01*
X8331Y18280D01*
X8218Y18365D01*
X8098Y18463D01*
X7986Y18583D01*
X7880Y18716D01*
Y18723D01*
X7866Y18738D01*
X7859Y18759D01*
X7838Y18787D01*
X7824Y18822D01*
X7803Y18864D01*
X7754Y18970D01*
X7704Y19103D01*
X7662Y19251D01*
X7634Y19420D01*
X7620Y19596D01*
X8225Y19652D01*
Y19645D01*
Y19638D01*
X8232Y19617D01*
Y19589D01*
X8246Y19526D01*
X8267Y19434D01*
X8295Y19343D01*
X8324Y19237D01*
X8373Y19139D01*
X8422Y19047D01*
X8429Y19040D01*
X8450Y19012D01*
X8485Y18963D01*
X8542Y18914D01*
X8612Y18850D01*
X8689Y18787D01*
X8795Y18723D01*
X8908Y18667D01*
X8915D01*
X8922Y18660D01*
X8943Y18653D01*
X8964Y18646D01*
X9034Y18625D01*
X9126Y18597D01*
X9238Y18569D01*
X9365Y18548D01*
X9506Y18534D01*
X9660Y18527D01*
X9724D01*
X9794Y18534D01*
X9879Y18541D01*
X9977Y18555D01*
X10090Y18569D01*
X10202Y18597D01*
X10308Y18632D01*
X10322Y18639D01*
X10357Y18653D01*
X10406Y18681D01*
X10469Y18709D01*
X10533Y18759D01*
X10603Y18808D01*
X10674Y18864D01*
X10730Y18935D01*
X10737Y18942D01*
X10751Y18970D01*
X10772Y19005D01*
X10800Y19061D01*
X10828Y19117D01*
X10849Y19188D01*
X10863Y19265D01*
X10870Y19350D01*
Y19357D01*
Y19392D01*
X10863Y19434D01*
X10856Y19490D01*
X10835Y19547D01*
X10814Y19617D01*
X10779Y19687D01*
X10730Y19751D01*
X10723Y19758D01*
X10702Y19779D01*
X10674Y19807D01*
X10624Y19849D01*
X10568Y19892D01*
X10491Y19941D01*
X10399Y19990D01*
X10294Y20032D01*
X10287Y20039D01*
X10251Y20046D01*
X10195Y20067D01*
X10160Y20074D01*
X10111Y20089D01*
X10061Y20110D01*
X9998Y20124D01*
X9928Y20145D01*
X9843Y20166D01*
X9759Y20187D01*
X9660Y20215D01*
X9548Y20243D01*
X9428Y20271D01*
X9421D01*
X9400Y20278D01*
X9365Y20285D01*
X9323Y20299D01*
X9266Y20314D01*
X9203Y20328D01*
X9062Y20370D01*
X8908Y20419D01*
X8746Y20468D01*
X8605Y20518D01*
X8542Y20546D01*
X8485Y20574D01*
X8478D01*
X8471Y20581D01*
X8429Y20609D01*
X8366Y20644D01*
X8295Y20701D01*
X8211Y20764D01*
X8127Y20841D01*
X8042Y20933D01*
X7972Y21031D01*
X7965Y21045D01*
X7944Y21081D01*
X7915Y21137D01*
X7887Y21207D01*
X7859Y21299D01*
X7831Y21404D01*
X7810Y21517D01*
X7803Y21636D01*
Y21643D01*
Y21650D01*
Y21672D01*
Y21700D01*
X7817Y21770D01*
X7831Y21862D01*
X7852Y21967D01*
X7887Y22087D01*
X7937Y22206D01*
X8007Y22326D01*
Y22333D01*
X8014Y22340D01*
X8049Y22382D01*
X8098Y22438D01*
X8162Y22509D01*
X8246Y22586D01*
X8352Y22671D01*
X8478Y22748D01*
X8619Y22818D01*
X8626D01*
X8640Y22825D01*
X8661Y22832D01*
X8689Y22847D01*
X8725Y22861D01*
X8774Y22875D01*
X8879Y22903D01*
X9013Y22931D01*
X9168Y22959D01*
X9330Y22980D01*
X9513Y22987D01*
X9604D01*
X9653Y22980D01*
D02*
G37*
G36*
X13861Y22917D02*
X13917Y22910D01*
X13987Y22903D01*
X14065Y22889D01*
X14142Y22875D01*
X14325Y22825D01*
X14508Y22755D01*
X14599Y22713D01*
X14691Y22664D01*
X14775Y22600D01*
X14853Y22530D01*
X14860Y22523D01*
X14874Y22516D01*
X14888Y22488D01*
X14916Y22459D01*
X14951Y22424D01*
X14986Y22375D01*
X15022Y22326D01*
X15064Y22262D01*
X15134Y22129D01*
X15205Y21960D01*
X15233Y21876D01*
X15247Y21777D01*
X15261Y21679D01*
X15268Y21573D01*
Y21559D01*
Y21524D01*
X15261Y21467D01*
X15254Y21390D01*
X15240Y21306D01*
X15212Y21207D01*
X15184Y21102D01*
X15141Y20996D01*
X15134Y20982D01*
X15120Y20947D01*
X15092Y20891D01*
X15050Y20813D01*
X14993Y20729D01*
X14923Y20623D01*
X14839Y20518D01*
X14740Y20398D01*
X14726Y20384D01*
X14691Y20342D01*
X14656Y20307D01*
X14621Y20271D01*
X14578Y20229D01*
X14522Y20173D01*
X14466Y20117D01*
X14396Y20053D01*
X14325Y19983D01*
X14241Y19906D01*
X14149Y19828D01*
X14051Y19737D01*
X13938Y19645D01*
X13826Y19547D01*
X13819Y19540D01*
X13805Y19526D01*
X13776Y19504D01*
X13741Y19476D01*
X13699Y19434D01*
X13650Y19392D01*
X13537Y19300D01*
X13418Y19195D01*
X13305Y19089D01*
X13206Y18998D01*
X13164Y18963D01*
X13129Y18928D01*
X13122Y18921D01*
X13101Y18899D01*
X13073Y18871D01*
X13038Y18829D01*
X13002Y18780D01*
X12960Y18730D01*
X12876Y18611D01*
X15275D01*
Y18034D01*
X12046D01*
Y18041D01*
Y18069D01*
Y18111D01*
X12053Y18168D01*
X12060Y18231D01*
X12074Y18301D01*
X12088Y18372D01*
X12116Y18449D01*
Y18456D01*
X12123Y18463D01*
X12137Y18505D01*
X12165Y18569D01*
X12207Y18653D01*
X12264Y18752D01*
X12334Y18864D01*
X12411Y18977D01*
X12510Y19096D01*
Y19103D01*
X12524Y19110D01*
X12559Y19153D01*
X12622Y19216D01*
X12714Y19308D01*
X12819Y19413D01*
X12953Y19540D01*
X13115Y19680D01*
X13291Y19828D01*
X13298Y19835D01*
X13326Y19856D01*
X13368Y19892D01*
X13418Y19934D01*
X13481Y19990D01*
X13558Y20053D01*
X13636Y20124D01*
X13727Y20201D01*
X13903Y20370D01*
X14079Y20539D01*
X14163Y20623D01*
X14241Y20708D01*
X14311Y20785D01*
X14367Y20862D01*
Y20869D01*
X14381Y20877D01*
X14396Y20898D01*
X14410Y20926D01*
X14459Y21003D01*
X14515Y21095D01*
X14564Y21207D01*
X14614Y21327D01*
X14642Y21460D01*
X14656Y21587D01*
Y21594D01*
Y21601D01*
X14649Y21643D01*
X14642Y21714D01*
X14621Y21791D01*
X14592Y21890D01*
X14543Y21988D01*
X14480Y22087D01*
X14396Y22185D01*
X14381Y22199D01*
X14346Y22227D01*
X14297Y22262D01*
X14220Y22312D01*
X14121Y22354D01*
X14009Y22396D01*
X13875Y22424D01*
X13727Y22431D01*
X13685D01*
X13657Y22424D01*
X13572Y22417D01*
X13474Y22396D01*
X13368Y22368D01*
X13249Y22319D01*
X13136Y22255D01*
X13031Y22171D01*
X13017Y22157D01*
X12988Y22122D01*
X12946Y22065D01*
X12904Y21981D01*
X12855Y21883D01*
X12812Y21756D01*
X12784Y21615D01*
X12770Y21453D01*
X12158Y21517D01*
Y21524D01*
X12165Y21545D01*
Y21580D01*
X12172Y21629D01*
X12186Y21686D01*
X12200Y21749D01*
X12221Y21826D01*
X12242Y21904D01*
X12299Y22073D01*
X12383Y22241D01*
X12433Y22326D01*
X12496Y22410D01*
X12559Y22488D01*
X12629Y22558D01*
X12636Y22565D01*
X12651Y22572D01*
X12672Y22593D01*
X12707Y22614D01*
X12749Y22642D01*
X12798Y22671D01*
X12855Y22706D01*
X12925Y22741D01*
X13002Y22776D01*
X13087Y22811D01*
X13178Y22840D01*
X13277Y22868D01*
X13382Y22889D01*
X13495Y22910D01*
X13614Y22917D01*
X13741Y22924D01*
X13812D01*
X13861Y22917D01*
D02*
G37*
G36*
X116587Y25012D02*
X116637D01*
X116770Y24998D01*
X116918Y24977D01*
X117073Y24942D01*
X117242Y24900D01*
X117396Y24843D01*
X117403D01*
X117418Y24836D01*
X117439Y24822D01*
X117467Y24808D01*
X117537Y24773D01*
X117629Y24710D01*
X117734Y24639D01*
X117840Y24548D01*
X117938Y24442D01*
X118030Y24323D01*
Y24316D01*
X118037Y24309D01*
X118051Y24288D01*
X118065Y24266D01*
X118100Y24196D01*
X118142Y24104D01*
X118191Y23992D01*
X118227Y23858D01*
X118262Y23718D01*
X118276Y23563D01*
X117657Y23514D01*
Y23521D01*
Y23535D01*
X117650Y23556D01*
X117643Y23591D01*
X117622Y23668D01*
X117593Y23774D01*
X117551Y23886D01*
X117488Y23999D01*
X117410Y24104D01*
X117312Y24203D01*
X117298Y24210D01*
X117263Y24238D01*
X117192Y24280D01*
X117101Y24323D01*
X116981Y24365D01*
X116841Y24407D01*
X116665Y24435D01*
X116468Y24442D01*
X116369D01*
X116327Y24435D01*
X116271Y24428D01*
X116144Y24414D01*
X116003Y24386D01*
X115863Y24351D01*
X115729Y24295D01*
X115673Y24259D01*
X115616Y24224D01*
X115602Y24217D01*
X115574Y24189D01*
X115532Y24140D01*
X115490Y24083D01*
X115441Y24006D01*
X115398Y23922D01*
X115370Y23823D01*
X115356Y23710D01*
Y23696D01*
Y23668D01*
X115363Y23619D01*
X115377Y23563D01*
X115398Y23492D01*
X115434Y23422D01*
X115476Y23352D01*
X115539Y23281D01*
X115546Y23274D01*
X115581Y23253D01*
X115609Y23232D01*
X115638Y23218D01*
X115680Y23197D01*
X115729Y23169D01*
X115792Y23148D01*
X115863Y23119D01*
X115940Y23091D01*
X116032Y23056D01*
X116130Y23028D01*
X116243Y22993D01*
X116369Y22965D01*
X116510Y22930D01*
X116517D01*
X116545Y22922D01*
X116587Y22915D01*
X116637Y22901D01*
X116700Y22887D01*
X116777Y22866D01*
X116855Y22845D01*
X116939Y22824D01*
X117122Y22775D01*
X117298Y22726D01*
X117382Y22697D01*
X117460Y22669D01*
X117530Y22648D01*
X117586Y22620D01*
X117593D01*
X117607Y22613D01*
X117629Y22599D01*
X117657Y22585D01*
X117734Y22543D01*
X117826Y22486D01*
X117931Y22409D01*
X118037Y22325D01*
X118135Y22226D01*
X118220Y22120D01*
X118227Y22106D01*
X118255Y22071D01*
X118283Y22008D01*
X118325Y21923D01*
X118360Y21825D01*
X118396Y21705D01*
X118417Y21572D01*
X118424Y21431D01*
Y21424D01*
Y21417D01*
Y21396D01*
Y21368D01*
X118410Y21290D01*
X118396Y21192D01*
X118367Y21079D01*
X118332Y20959D01*
X118276Y20833D01*
X118198Y20699D01*
Y20692D01*
X118191Y20685D01*
X118156Y20643D01*
X118107Y20580D01*
X118037Y20509D01*
X117945Y20425D01*
X117833Y20333D01*
X117706Y20249D01*
X117558Y20171D01*
X117551D01*
X117537Y20164D01*
X117516Y20157D01*
X117488Y20143D01*
X117446Y20129D01*
X117396Y20108D01*
X117284Y20080D01*
X117150Y20045D01*
X116988Y20010D01*
X116812Y19989D01*
X116622Y19982D01*
X116510D01*
X116454Y19989D01*
X116390D01*
X116320Y19996D01*
X116236Y20003D01*
X116060Y20031D01*
X115877Y20059D01*
X115694Y20108D01*
X115518Y20171D01*
X115511D01*
X115497Y20179D01*
X115476Y20193D01*
X115448Y20207D01*
X115363Y20249D01*
X115265Y20312D01*
X115152Y20397D01*
X115032Y20495D01*
X114920Y20615D01*
X114814Y20749D01*
Y20756D01*
X114800Y20770D01*
X114793Y20791D01*
X114772Y20819D01*
X114758Y20854D01*
X114737Y20896D01*
X114688Y21002D01*
X114638Y21135D01*
X114596Y21283D01*
X114568Y21452D01*
X114554Y21628D01*
X115159Y21684D01*
Y21677D01*
Y21670D01*
X115166Y21649D01*
Y21621D01*
X115180Y21558D01*
X115201Y21466D01*
X115229Y21375D01*
X115258Y21269D01*
X115307Y21171D01*
X115356Y21079D01*
X115363Y21072D01*
X115384Y21044D01*
X115419Y20995D01*
X115476Y20945D01*
X115546Y20882D01*
X115623Y20819D01*
X115729Y20756D01*
X115842Y20699D01*
X115849D01*
X115856Y20692D01*
X115877Y20685D01*
X115898Y20678D01*
X115968Y20657D01*
X116060Y20629D01*
X116172Y20601D01*
X116299Y20580D01*
X116440Y20566D01*
X116594Y20559D01*
X116658D01*
X116728Y20566D01*
X116812Y20573D01*
X116911Y20587D01*
X117024Y20601D01*
X117136Y20629D01*
X117242Y20664D01*
X117256Y20671D01*
X117291Y20685D01*
X117340Y20713D01*
X117403Y20741D01*
X117467Y20791D01*
X117537Y20840D01*
X117607Y20896D01*
X117664Y20967D01*
X117671Y20974D01*
X117685Y21002D01*
X117706Y21037D01*
X117734Y21093D01*
X117762Y21149D01*
X117783Y21220D01*
X117797Y21297D01*
X117804Y21382D01*
Y21389D01*
Y21424D01*
X117797Y21466D01*
X117790Y21522D01*
X117769Y21579D01*
X117748Y21649D01*
X117713Y21719D01*
X117664Y21783D01*
X117657Y21790D01*
X117636Y21811D01*
X117607Y21839D01*
X117558Y21881D01*
X117502Y21923D01*
X117425Y21973D01*
X117333Y22022D01*
X117228Y22064D01*
X117221Y22071D01*
X117185Y22078D01*
X117129Y22099D01*
X117094Y22106D01*
X117045Y22120D01*
X116995Y22142D01*
X116932Y22156D01*
X116862Y22177D01*
X116777Y22198D01*
X116693Y22219D01*
X116594Y22247D01*
X116482Y22275D01*
X116362Y22303D01*
X116355D01*
X116334Y22310D01*
X116299Y22318D01*
X116257Y22332D01*
X116200Y22346D01*
X116137Y22360D01*
X115996Y22402D01*
X115842Y22451D01*
X115680Y22500D01*
X115539Y22550D01*
X115476Y22578D01*
X115419Y22606D01*
X115412D01*
X115405Y22613D01*
X115363Y22641D01*
X115300Y22676D01*
X115229Y22733D01*
X115145Y22796D01*
X115061Y22873D01*
X114976Y22965D01*
X114906Y23063D01*
X114899Y23077D01*
X114878Y23112D01*
X114850Y23169D01*
X114821Y23239D01*
X114793Y23331D01*
X114765Y23436D01*
X114744Y23549D01*
X114737Y23668D01*
Y23675D01*
Y23682D01*
Y23703D01*
Y23732D01*
X114751Y23802D01*
X114765Y23893D01*
X114786Y23999D01*
X114821Y24119D01*
X114871Y24238D01*
X114941Y24358D01*
Y24365D01*
X114948Y24372D01*
X114983Y24414D01*
X115032Y24470D01*
X115096Y24541D01*
X115180Y24618D01*
X115286Y24703D01*
X115412Y24780D01*
X115553Y24850D01*
X115560D01*
X115574Y24857D01*
X115595Y24864D01*
X115623Y24878D01*
X115659Y24893D01*
X115708Y24907D01*
X115813Y24935D01*
X115947Y24963D01*
X116102Y24991D01*
X116264Y25012D01*
X116447Y25019D01*
X116538D01*
X116587Y25012D01*
D02*
G37*
G36*
X121315Y20066D02*
X120717D01*
Y23872D01*
X120710Y23865D01*
X120675Y23837D01*
X120633Y23795D01*
X120563Y23746D01*
X120485Y23682D01*
X120387Y23612D01*
X120274Y23535D01*
X120147Y23457D01*
X120140D01*
X120133Y23450D01*
X120091Y23422D01*
X120021Y23387D01*
X119936Y23345D01*
X119838Y23295D01*
X119732Y23246D01*
X119627Y23197D01*
X119521Y23155D01*
Y23732D01*
X119528D01*
X119542Y23746D01*
X119571Y23753D01*
X119606Y23774D01*
X119648Y23795D01*
X119697Y23823D01*
X119817Y23893D01*
X119958Y23971D01*
X120098Y24069D01*
X120246Y24182D01*
X120394Y24302D01*
X120401Y24309D01*
X120408Y24316D01*
X120429Y24337D01*
X120457Y24358D01*
X120520Y24428D01*
X120605Y24513D01*
X120689Y24611D01*
X120781Y24724D01*
X120858Y24836D01*
X120928Y24956D01*
X121315D01*
Y20066D01*
D02*
G37*
G36*
X64110Y-249363D02*
X65278D01*
Y-249961D01*
X64110D01*
Y-252079D01*
X63561D01*
X60409Y-249849D01*
Y-249363D01*
X63561D01*
Y-248702D01*
X64110D01*
Y-249363D01*
D02*
G37*
G36*
X62963Y-252523D02*
X63019D01*
X63153Y-252530D01*
X63308Y-252551D01*
X63470Y-252572D01*
X63639Y-252607D01*
X63808Y-252649D01*
X63815D01*
X63829Y-252656D01*
X63850Y-252663D01*
X63878Y-252670D01*
X63955Y-252698D01*
X64054Y-252741D01*
X64166Y-252783D01*
X64279Y-252839D01*
X64398Y-252910D01*
X64511Y-252980D01*
X64525Y-252987D01*
X64560Y-253015D01*
X64610Y-253057D01*
X64673Y-253114D01*
X64743Y-253177D01*
X64814Y-253254D01*
X64891Y-253332D01*
X64954Y-253423D01*
X64961Y-253437D01*
X64983Y-253465D01*
X65011Y-253515D01*
X65046Y-253585D01*
X65088Y-253669D01*
X65123Y-253768D01*
X65165Y-253881D01*
X65201Y-254007D01*
Y-254021D01*
X65208Y-254042D01*
X65215Y-254063D01*
X65222Y-254134D01*
X65236Y-254232D01*
X65250Y-254345D01*
X65264Y-254478D01*
X65271Y-254626D01*
X65278Y-254788D01*
Y-256540D01*
X60409D01*
Y-254669D01*
X60416Y-254542D01*
X60423Y-254401D01*
X60437Y-254260D01*
X60458Y-254120D01*
X60480Y-254000D01*
Y-253993D01*
X60487Y-253979D01*
Y-253958D01*
X60501Y-253930D01*
X60522Y-253852D01*
X60557Y-253754D01*
X60606Y-253641D01*
X60670Y-253522D01*
X60740Y-253402D01*
X60831Y-253290D01*
X60838Y-253282D01*
X60845Y-253275D01*
X60867Y-253254D01*
X60888Y-253226D01*
X60958Y-253156D01*
X61056Y-253071D01*
X61176Y-252980D01*
X61317Y-252881D01*
X61479Y-252790D01*
X61662Y-252712D01*
X61669D01*
X61683Y-252705D01*
X61711Y-252691D01*
X61753Y-252684D01*
X61802Y-252663D01*
X61859Y-252649D01*
X61922Y-252635D01*
X61999Y-252614D01*
X62077Y-252593D01*
X62168Y-252579D01*
X62365Y-252544D01*
X62583Y-252523D01*
X62822Y-252516D01*
X62829D01*
X62844D01*
X62879D01*
X62914D01*
X62963Y-252523D01*
D02*
G37*
G36*
X79696Y-289328D02*
X79752Y-289335D01*
X79816Y-289349D01*
X79886Y-289363D01*
X79964Y-289377D01*
X80133Y-289434D01*
X80224Y-289476D01*
X80308Y-289518D01*
X80400Y-289574D01*
X80491Y-289638D01*
X80583Y-289708D01*
X80667Y-289792D01*
X80674Y-289799D01*
X80688Y-289813D01*
X80709Y-289842D01*
X80737Y-289877D01*
X80773Y-289919D01*
X80808Y-289975D01*
X80850Y-290039D01*
X80885Y-290116D01*
X80927Y-290194D01*
X80970Y-290285D01*
X81005Y-290376D01*
X81040Y-290482D01*
X81068Y-290595D01*
X81089Y-290714D01*
X81103Y-290834D01*
X81110Y-290967D01*
Y-291031D01*
X81103Y-291073D01*
X81096Y-291129D01*
X81089Y-291192D01*
X81075Y-291263D01*
X81061Y-291340D01*
X81019Y-291509D01*
X80949Y-291685D01*
X80906Y-291777D01*
X80857Y-291861D01*
X80794Y-291945D01*
X80730Y-292030D01*
X80723Y-292037D01*
X80709Y-292051D01*
X80688Y-292072D01*
X80660Y-292093D01*
X80625Y-292128D01*
X80576Y-292164D01*
X80527Y-292206D01*
X80463Y-292248D01*
X80393Y-292290D01*
X80322Y-292332D01*
X80154Y-292410D01*
X79957Y-292473D01*
X79851Y-292494D01*
X79738Y-292508D01*
X79661Y-291910D01*
X79668D01*
X79682Y-291903D01*
X79710Y-291896D01*
X79745Y-291889D01*
X79788Y-291882D01*
X79837Y-291868D01*
X79942Y-291833D01*
X80069Y-291784D01*
X80189Y-291720D01*
X80301Y-291650D01*
X80400Y-291565D01*
X80407Y-291551D01*
X80435Y-291523D01*
X80470Y-291467D01*
X80505Y-291397D01*
X80548Y-291312D01*
X80583Y-291207D01*
X80611Y-291087D01*
X80618Y-290960D01*
Y-290918D01*
X80611Y-290890D01*
X80604Y-290813D01*
X80583Y-290714D01*
X80548Y-290602D01*
X80498Y-290482D01*
X80428Y-290362D01*
X80330Y-290250D01*
X80315Y-290236D01*
X80273Y-290201D01*
X80210Y-290158D01*
X80125Y-290102D01*
X80020Y-290046D01*
X79900Y-290004D01*
X79760Y-289968D01*
X79605Y-289954D01*
X79598D01*
X79584D01*
X79563D01*
X79534Y-289961D01*
X79457Y-289968D01*
X79366Y-289989D01*
X79253Y-290018D01*
X79140Y-290067D01*
X79028Y-290137D01*
X78922Y-290229D01*
X78908Y-290243D01*
X78880Y-290278D01*
X78838Y-290334D01*
X78789Y-290412D01*
X78739Y-290510D01*
X78697Y-290630D01*
X78669Y-290763D01*
X78655Y-290911D01*
Y-290974D01*
X78662Y-291024D01*
X78669Y-291087D01*
X78683Y-291157D01*
X78697Y-291242D01*
X78718Y-291333D01*
X78191Y-291263D01*
Y-291228D01*
X78198Y-291200D01*
Y-291108D01*
X78183Y-291031D01*
X78169Y-290939D01*
X78148Y-290834D01*
X78113Y-290714D01*
X78064Y-290602D01*
X78001Y-290482D01*
Y-290475D01*
X77994Y-290468D01*
X77965Y-290433D01*
X77916Y-290383D01*
X77853Y-290327D01*
X77761Y-290271D01*
X77656Y-290222D01*
X77536Y-290186D01*
X77466Y-290172D01*
X77389D01*
X77382D01*
X77374D01*
X77332D01*
X77276Y-290186D01*
X77199Y-290201D01*
X77114Y-290229D01*
X77023Y-290264D01*
X76931Y-290320D01*
X76847Y-290397D01*
X76840Y-290404D01*
X76812Y-290440D01*
X76776Y-290489D01*
X76734Y-290552D01*
X76699Y-290637D01*
X76664Y-290735D01*
X76636Y-290848D01*
X76629Y-290974D01*
Y-291031D01*
X76643Y-291094D01*
X76657Y-291178D01*
X76685Y-291270D01*
X76720Y-291361D01*
X76776Y-291460D01*
X76847Y-291551D01*
X76854Y-291558D01*
X76889Y-291586D01*
X76938Y-291629D01*
X77009Y-291678D01*
X77100Y-291727D01*
X77213Y-291777D01*
X77346Y-291819D01*
X77501Y-291847D01*
X77396Y-292445D01*
X77389D01*
X77367Y-292438D01*
X77339Y-292431D01*
X77297Y-292424D01*
X77248Y-292410D01*
X77192Y-292389D01*
X77058Y-292346D01*
X76903Y-292276D01*
X76748Y-292192D01*
X76600Y-292086D01*
X76467Y-291952D01*
X76460Y-291945D01*
X76453Y-291931D01*
X76439Y-291910D01*
X76418Y-291882D01*
X76389Y-291847D01*
X76361Y-291798D01*
X76333Y-291748D01*
X76298Y-291685D01*
X76242Y-291544D01*
X76185Y-291383D01*
X76150Y-291192D01*
X76136Y-291094D01*
Y-290918D01*
X76143Y-290841D01*
X76157Y-290749D01*
X76178Y-290637D01*
X76213Y-290510D01*
X76256Y-290383D01*
X76312Y-290257D01*
Y-290250D01*
X76319Y-290243D01*
X76340Y-290201D01*
X76382Y-290137D01*
X76432Y-290067D01*
X76502Y-289982D01*
X76579Y-289898D01*
X76671Y-289813D01*
X76776Y-289743D01*
X76790Y-289736D01*
X76826Y-289715D01*
X76889Y-289687D01*
X76966Y-289652D01*
X77058Y-289617D01*
X77163Y-289588D01*
X77283Y-289567D01*
X77403Y-289560D01*
X77417D01*
X77459D01*
X77515Y-289567D01*
X77593Y-289581D01*
X77684Y-289602D01*
X77783Y-289638D01*
X77881Y-289680D01*
X77979Y-289736D01*
X77994Y-289743D01*
X78022Y-289764D01*
X78071Y-289806D01*
X78127Y-289863D01*
X78191Y-289933D01*
X78261Y-290018D01*
X78324Y-290116D01*
X78388Y-290236D01*
Y-290229D01*
X78395Y-290215D01*
X78402Y-290194D01*
X78409Y-290165D01*
X78437Y-290088D01*
X78479Y-289989D01*
X78535Y-289877D01*
X78606Y-289764D01*
X78697Y-289659D01*
X78803Y-289560D01*
X78817Y-289553D01*
X78859Y-289525D01*
X78929Y-289483D01*
X79021Y-289441D01*
X79133Y-289398D01*
X79267Y-289356D01*
X79422Y-289328D01*
X79591Y-289321D01*
X79598D01*
X79619D01*
X79654D01*
X79696Y-289328D01*
D02*
G37*
G36*
X78711Y-293163D02*
X78767D01*
X78901Y-293170D01*
X79056Y-293191D01*
X79218Y-293212D01*
X79387Y-293247D01*
X79556Y-293289D01*
X79563D01*
X79577Y-293296D01*
X79598Y-293303D01*
X79626Y-293310D01*
X79703Y-293339D01*
X79802Y-293381D01*
X79914Y-293423D01*
X80027Y-293479D01*
X80147Y-293549D01*
X80259Y-293620D01*
X80273Y-293627D01*
X80308Y-293655D01*
X80358Y-293697D01*
X80421Y-293754D01*
X80491Y-293817D01*
X80562Y-293894D01*
X80639Y-293972D01*
X80702Y-294063D01*
X80709Y-294077D01*
X80730Y-294105D01*
X80759Y-294155D01*
X80794Y-294225D01*
X80836Y-294309D01*
X80871Y-294408D01*
X80913Y-294520D01*
X80949Y-294647D01*
Y-294661D01*
X80956Y-294682D01*
X80963Y-294703D01*
X80970Y-294774D01*
X80984Y-294872D01*
X80998Y-294985D01*
X81012Y-295119D01*
X81019Y-295266D01*
X81026Y-295428D01*
Y-297180D01*
X76157D01*
Y-295308D01*
X76164Y-295182D01*
X76171Y-295041D01*
X76185Y-294900D01*
X76206Y-294760D01*
X76228Y-294640D01*
Y-294633D01*
X76235Y-294619D01*
Y-294598D01*
X76249Y-294570D01*
X76270Y-294492D01*
X76305Y-294394D01*
X76354Y-294281D01*
X76418Y-294162D01*
X76488Y-294042D01*
X76579Y-293930D01*
X76586Y-293922D01*
X76593Y-293915D01*
X76615Y-293894D01*
X76636Y-293866D01*
X76706Y-293796D01*
X76804Y-293711D01*
X76924Y-293620D01*
X77065Y-293521D01*
X77227Y-293430D01*
X77410Y-293353D01*
X77417D01*
X77431Y-293346D01*
X77459Y-293331D01*
X77501Y-293324D01*
X77550Y-293303D01*
X77607Y-293289D01*
X77670Y-293275D01*
X77747Y-293254D01*
X77825Y-293233D01*
X77916Y-293219D01*
X78113Y-293184D01*
X78331Y-293163D01*
X78570Y-293155D01*
X78577D01*
X78592D01*
X78627D01*
X78662D01*
X78711Y-293163D01*
D02*
G37*
G36*
X102362Y-251706D02*
X102355D01*
X102327D01*
X102285D01*
X102228Y-251699D01*
X102165Y-251692D01*
X102095Y-251678D01*
X102024Y-251663D01*
X101947Y-251635D01*
X101940D01*
X101933Y-251628D01*
X101891Y-251614D01*
X101827Y-251586D01*
X101743Y-251544D01*
X101644Y-251488D01*
X101532Y-251417D01*
X101419Y-251340D01*
X101300Y-251241D01*
X101293D01*
X101285Y-251227D01*
X101243Y-251192D01*
X101180Y-251129D01*
X101088Y-251037D01*
X100983Y-250932D01*
X100856Y-250798D01*
X100716Y-250636D01*
X100568Y-250460D01*
X100561Y-250453D01*
X100540Y-250425D01*
X100505Y-250383D01*
X100462Y-250334D01*
X100406Y-250270D01*
X100343Y-250193D01*
X100272Y-250116D01*
X100195Y-250024D01*
X100026Y-249848D01*
X99857Y-249672D01*
X99773Y-249588D01*
X99688Y-249510D01*
X99611Y-249440D01*
X99534Y-249384D01*
X99527D01*
X99520Y-249370D01*
X99498Y-249356D01*
X99470Y-249342D01*
X99393Y-249292D01*
X99301Y-249236D01*
X99189Y-249187D01*
X99069Y-249138D01*
X98936Y-249109D01*
X98809Y-249095D01*
X98802D01*
X98795D01*
X98753Y-249102D01*
X98682Y-249109D01*
X98605Y-249131D01*
X98506Y-249159D01*
X98408Y-249208D01*
X98309Y-249271D01*
X98211Y-249356D01*
X98197Y-249370D01*
X98169Y-249405D01*
X98133Y-249454D01*
X98084Y-249532D01*
X98042Y-249630D01*
X98000Y-249743D01*
X97972Y-249876D01*
X97965Y-250024D01*
Y-250066D01*
X97972Y-250095D01*
X97979Y-250179D01*
X98000Y-250277D01*
X98028Y-250383D01*
X98077Y-250503D01*
X98140Y-250615D01*
X98225Y-250721D01*
X98239Y-250735D01*
X98274Y-250763D01*
X98330Y-250805D01*
X98415Y-250847D01*
X98513Y-250897D01*
X98640Y-250939D01*
X98781Y-250967D01*
X98943Y-250981D01*
X98879Y-251593D01*
X98872D01*
X98851Y-251586D01*
X98816D01*
X98767Y-251579D01*
X98710Y-251565D01*
X98647Y-251551D01*
X98570Y-251530D01*
X98492Y-251509D01*
X98323Y-251452D01*
X98155Y-251368D01*
X98070Y-251319D01*
X97986Y-251255D01*
X97908Y-251192D01*
X97838Y-251122D01*
X97831Y-251115D01*
X97824Y-251101D01*
X97803Y-251080D01*
X97782Y-251044D01*
X97754Y-251002D01*
X97725Y-250953D01*
X97690Y-250897D01*
X97655Y-250826D01*
X97620Y-250749D01*
X97585Y-250664D01*
X97556Y-250573D01*
X97528Y-250474D01*
X97507Y-250369D01*
X97486Y-250256D01*
X97479Y-250137D01*
X97472Y-250010D01*
Y-249940D01*
X97479Y-249890D01*
X97486Y-249834D01*
X97493Y-249764D01*
X97507Y-249686D01*
X97521Y-249609D01*
X97571Y-249426D01*
X97641Y-249243D01*
X97683Y-249152D01*
X97732Y-249060D01*
X97796Y-248976D01*
X97866Y-248898D01*
X97873Y-248891D01*
X97880Y-248877D01*
X97908Y-248863D01*
X97936Y-248835D01*
X97972Y-248800D01*
X98021Y-248765D01*
X98070Y-248730D01*
X98133Y-248687D01*
X98267Y-248617D01*
X98436Y-248547D01*
X98520Y-248519D01*
X98619Y-248504D01*
X98717Y-248490D01*
X98823Y-248483D01*
X98837D01*
X98872D01*
X98928Y-248490D01*
X99006Y-248497D01*
X99090Y-248511D01*
X99189Y-248540D01*
X99294Y-248568D01*
X99400Y-248610D01*
X99414Y-248617D01*
X99449Y-248631D01*
X99506Y-248659D01*
X99583Y-248701D01*
X99667Y-248758D01*
X99773Y-248828D01*
X99878Y-248913D01*
X99998Y-249011D01*
X100012Y-249025D01*
X100054Y-249060D01*
X100089Y-249095D01*
X100125Y-249131D01*
X100167Y-249173D01*
X100223Y-249229D01*
X100279Y-249285D01*
X100343Y-249356D01*
X100413Y-249426D01*
X100491Y-249510D01*
X100568Y-249602D01*
X100659Y-249701D01*
X100751Y-249813D01*
X100849Y-249926D01*
X100856Y-249933D01*
X100870Y-249947D01*
X100892Y-249975D01*
X100920Y-250010D01*
X100962Y-250052D01*
X101004Y-250102D01*
X101096Y-250214D01*
X101201Y-250334D01*
X101307Y-250446D01*
X101398Y-250545D01*
X101433Y-250587D01*
X101468Y-250622D01*
X101475Y-250629D01*
X101497Y-250650D01*
X101525Y-250679D01*
X101567Y-250714D01*
X101616Y-250749D01*
X101665Y-250791D01*
X101785Y-250875D01*
Y-248476D01*
X102362D01*
Y-251706D01*
D02*
G37*
G36*
X100047Y-252269D02*
X100104D01*
X100237Y-252276D01*
X100392Y-252297D01*
X100554Y-252318D01*
X100723Y-252353D01*
X100892Y-252395D01*
X100899D01*
X100913Y-252402D01*
X100934Y-252409D01*
X100962Y-252416D01*
X101039Y-252444D01*
X101138Y-252487D01*
X101250Y-252529D01*
X101363Y-252585D01*
X101482Y-252656D01*
X101595Y-252726D01*
X101609Y-252733D01*
X101644Y-252761D01*
X101694Y-252803D01*
X101757Y-252860D01*
X101827Y-252923D01*
X101898Y-253000D01*
X101975Y-253078D01*
X102038Y-253169D01*
X102045Y-253183D01*
X102066Y-253211D01*
X102095Y-253261D01*
X102130Y-253331D01*
X102172Y-253415D01*
X102207Y-253514D01*
X102249Y-253626D01*
X102285Y-253753D01*
Y-253767D01*
X102292Y-253788D01*
X102299Y-253809D01*
X102306Y-253880D01*
X102320Y-253978D01*
X102334Y-254091D01*
X102348Y-254224D01*
X102355Y-254372D01*
X102362Y-254534D01*
Y-256286D01*
X97493D01*
Y-254415D01*
X97500Y-254288D01*
X97507Y-254147D01*
X97521Y-254006D01*
X97542Y-253866D01*
X97564Y-253746D01*
Y-253739D01*
X97571Y-253725D01*
Y-253704D01*
X97585Y-253676D01*
X97606Y-253598D01*
X97641Y-253500D01*
X97690Y-253387D01*
X97754Y-253268D01*
X97824Y-253148D01*
X97915Y-253036D01*
X97922Y-253028D01*
X97929Y-253021D01*
X97951Y-253000D01*
X97972Y-252972D01*
X98042Y-252902D01*
X98140Y-252817D01*
X98260Y-252726D01*
X98401Y-252627D01*
X98563Y-252536D01*
X98746Y-252458D01*
X98753D01*
X98767Y-252451D01*
X98795Y-252437D01*
X98837Y-252430D01*
X98886Y-252409D01*
X98943Y-252395D01*
X99006Y-252381D01*
X99083Y-252360D01*
X99161Y-252339D01*
X99252Y-252325D01*
X99449Y-252290D01*
X99667Y-252269D01*
X99907Y-252262D01*
X99914D01*
X99928D01*
X99963D01*
X99998D01*
X100047Y-252269D01*
D02*
G37*
G36*
X118676Y-260096D02*
X118078D01*
Y-256290D01*
X118071Y-256297D01*
X118036Y-256325D01*
X117994Y-256367D01*
X117923Y-256416D01*
X117846Y-256480D01*
X117747Y-256550D01*
X117635Y-256627D01*
X117508Y-256705D01*
X117501D01*
X117494Y-256712D01*
X117452Y-256740D01*
X117382Y-256775D01*
X117297Y-256817D01*
X117199Y-256867D01*
X117093Y-256916D01*
X116988Y-256965D01*
X116882Y-257007D01*
Y-256430D01*
X116889D01*
X116903Y-256416D01*
X116931Y-256409D01*
X116966Y-256388D01*
X117009Y-256367D01*
X117058Y-256339D01*
X117178Y-256269D01*
X117318Y-256191D01*
X117459Y-256093D01*
X117607Y-255980D01*
X117754Y-255860D01*
X117761Y-255853D01*
X117769Y-255846D01*
X117790Y-255825D01*
X117818Y-255804D01*
X117881Y-255734D01*
X117966Y-255649D01*
X118050Y-255551D01*
X118141Y-255438D01*
X118219Y-255326D01*
X118289Y-255206D01*
X118676D01*
Y-260096D01*
D02*
G37*
G36*
X113758Y-255234D02*
X113899Y-255241D01*
X114040Y-255255D01*
X114180Y-255277D01*
X114300Y-255298D01*
X114307D01*
X114321Y-255305D01*
X114342D01*
X114370Y-255319D01*
X114448Y-255340D01*
X114546Y-255375D01*
X114659Y-255424D01*
X114778Y-255488D01*
X114898Y-255558D01*
X115010Y-255649D01*
X115018Y-255656D01*
X115025Y-255663D01*
X115046Y-255685D01*
X115074Y-255706D01*
X115144Y-255776D01*
X115229Y-255875D01*
X115320Y-255994D01*
X115419Y-256135D01*
X115510Y-256297D01*
X115588Y-256480D01*
Y-256487D01*
X115595Y-256501D01*
X115609Y-256529D01*
X115616Y-256571D01*
X115637Y-256620D01*
X115651Y-256677D01*
X115665Y-256740D01*
X115686Y-256817D01*
X115707Y-256895D01*
X115721Y-256986D01*
X115756Y-257183D01*
X115777Y-257401D01*
X115785Y-257640D01*
Y-257647D01*
Y-257662D01*
Y-257697D01*
Y-257732D01*
X115777Y-257781D01*
Y-257838D01*
X115770Y-257971D01*
X115749Y-258126D01*
X115728Y-258288D01*
X115693Y-258457D01*
X115651Y-258626D01*
Y-258633D01*
X115644Y-258647D01*
X115637Y-258668D01*
X115630Y-258696D01*
X115602Y-258773D01*
X115559Y-258872D01*
X115517Y-258984D01*
X115461Y-259097D01*
X115391Y-259216D01*
X115320Y-259329D01*
X115313Y-259343D01*
X115285Y-259378D01*
X115243Y-259428D01*
X115186Y-259491D01*
X115123Y-259561D01*
X115046Y-259632D01*
X114968Y-259709D01*
X114877Y-259772D01*
X114863Y-259779D01*
X114835Y-259800D01*
X114785Y-259829D01*
X114715Y-259864D01*
X114631Y-259906D01*
X114532Y-259941D01*
X114419Y-259983D01*
X114293Y-260019D01*
X114279D01*
X114258Y-260026D01*
X114237Y-260033D01*
X114166Y-260040D01*
X114068Y-260054D01*
X113955Y-260068D01*
X113821Y-260082D01*
X113674Y-260089D01*
X113512Y-260096D01*
X111760D01*
Y-255227D01*
X113631D01*
X113758Y-255234D01*
D02*
G37*
%LPC*%
G36*
X-6276Y-5754D02*
X-7810Y-7935D01*
X-6276D01*
Y-5754D01*
D02*
G37*
G36*
X63561Y-249961D02*
X61380D01*
X63561Y-251495D01*
Y-249961D01*
D02*
G37*
G36*
X62808Y-253177D02*
X62801D01*
X62773D01*
X62738D01*
X62682Y-253184D01*
X62618D01*
X62548Y-253191D01*
X62464Y-253198D01*
X62379Y-253205D01*
X62189Y-253240D01*
X61992Y-253282D01*
X61809Y-253346D01*
X61718Y-253388D01*
X61641Y-253430D01*
X61634D01*
X61619Y-253444D01*
X61598Y-253458D01*
X61570Y-253472D01*
X61500Y-253529D01*
X61415Y-253599D01*
X61324Y-253690D01*
X61232Y-253796D01*
X61155Y-253916D01*
X61092Y-254042D01*
X61085Y-254056D01*
X61078Y-254091D01*
X61056Y-254155D01*
X61035Y-254246D01*
X61021Y-254359D01*
X61000Y-254500D01*
X60993Y-254584D01*
Y-254676D01*
X60986Y-254767D01*
Y-255893D01*
X64701D01*
Y-254739D01*
X64694Y-254690D01*
X64687Y-254584D01*
X64680Y-254464D01*
X64666Y-254338D01*
X64645Y-254211D01*
X64617Y-254106D01*
X64610Y-254091D01*
X64603Y-254056D01*
X64581Y-254007D01*
X64553Y-253944D01*
X64511Y-253873D01*
X64469Y-253803D01*
X64420Y-253733D01*
X64363Y-253662D01*
X64349Y-253655D01*
X64321Y-253627D01*
X64272Y-253585D01*
X64201Y-253536D01*
X64110Y-253479D01*
X64005Y-253416D01*
X63885Y-253360D01*
X63751Y-253311D01*
X63744D01*
X63730Y-253304D01*
X63709Y-253297D01*
X63681Y-253290D01*
X63646Y-253282D01*
X63596Y-253268D01*
X63547Y-253254D01*
X63491Y-253240D01*
X63350Y-253219D01*
X63188Y-253198D01*
X63005Y-253184D01*
X62808Y-253177D01*
D02*
G37*
G36*
X78556Y-293817D02*
X78549D01*
X78521D01*
X78486D01*
X78430Y-293824D01*
X78366D01*
X78296Y-293831D01*
X78212Y-293838D01*
X78127Y-293845D01*
X77937Y-293880D01*
X77740Y-293922D01*
X77557Y-293986D01*
X77466Y-294028D01*
X77389Y-294070D01*
X77382D01*
X77367Y-294084D01*
X77346Y-294098D01*
X77318Y-294112D01*
X77248Y-294169D01*
X77163Y-294239D01*
X77072Y-294331D01*
X76980Y-294436D01*
X76903Y-294556D01*
X76840Y-294682D01*
X76833Y-294696D01*
X76826Y-294732D01*
X76804Y-294795D01*
X76783Y-294886D01*
X76769Y-294999D01*
X76748Y-295140D01*
X76741Y-295224D01*
Y-295315D01*
X76734Y-295407D01*
Y-296533D01*
X80449D01*
Y-295379D01*
X80442Y-295330D01*
X80435Y-295224D01*
X80428Y-295104D01*
X80414Y-294978D01*
X80393Y-294851D01*
X80365Y-294746D01*
X80358Y-294732D01*
X80351Y-294696D01*
X80330Y-294647D01*
X80301Y-294584D01*
X80259Y-294513D01*
X80217Y-294443D01*
X80168Y-294373D01*
X80111Y-294302D01*
X80097Y-294295D01*
X80069Y-294267D01*
X80020Y-294225D01*
X79949Y-294176D01*
X79858Y-294119D01*
X79752Y-294056D01*
X79633Y-294000D01*
X79499Y-293951D01*
X79492D01*
X79478Y-293944D01*
X79457Y-293937D01*
X79429Y-293930D01*
X79394Y-293922D01*
X79344Y-293908D01*
X79295Y-293894D01*
X79239Y-293880D01*
X79098Y-293859D01*
X78936Y-293838D01*
X78753Y-293824D01*
X78556Y-293817D01*
D02*
G37*
G36*
X99892Y-252923D02*
X99885D01*
X99857D01*
X99822D01*
X99766Y-252930D01*
X99703D01*
X99632Y-252937D01*
X99548Y-252944D01*
X99463Y-252951D01*
X99273Y-252986D01*
X99076Y-253028D01*
X98893Y-253092D01*
X98802Y-253134D01*
X98724Y-253176D01*
X98717D01*
X98703Y-253190D01*
X98682Y-253204D01*
X98654Y-253218D01*
X98584Y-253275D01*
X98499Y-253345D01*
X98408Y-253437D01*
X98316Y-253542D01*
X98239Y-253662D01*
X98176Y-253788D01*
X98169Y-253802D01*
X98162Y-253838D01*
X98140Y-253901D01*
X98119Y-253992D01*
X98105Y-254105D01*
X98084Y-254246D01*
X98077Y-254330D01*
Y-254422D01*
X98070Y-254513D01*
Y-255639D01*
X101785D01*
Y-254485D01*
X101778Y-254436D01*
X101771Y-254330D01*
X101764Y-254210D01*
X101750Y-254084D01*
X101729Y-253957D01*
X101701Y-253852D01*
X101694Y-253838D01*
X101687Y-253802D01*
X101665Y-253753D01*
X101637Y-253690D01*
X101595Y-253619D01*
X101553Y-253549D01*
X101504Y-253479D01*
X101447Y-253408D01*
X101433Y-253401D01*
X101405Y-253373D01*
X101356Y-253331D01*
X101285Y-253282D01*
X101194Y-253225D01*
X101088Y-253162D01*
X100969Y-253106D01*
X100835Y-253057D01*
X100828D01*
X100814Y-253050D01*
X100793Y-253043D01*
X100765Y-253036D01*
X100730Y-253028D01*
X100680Y-253014D01*
X100631Y-253000D01*
X100575Y-252986D01*
X100434Y-252965D01*
X100272Y-252944D01*
X100089Y-252930D01*
X99892Y-252923D01*
D02*
G37*
G36*
X113533Y-255804D02*
X112407D01*
Y-259519D01*
X113561D01*
X113610Y-259512D01*
X113716Y-259505D01*
X113836Y-259498D01*
X113962Y-259484D01*
X114089Y-259463D01*
X114194Y-259435D01*
X114208Y-259428D01*
X114244Y-259421D01*
X114293Y-259400D01*
X114356Y-259371D01*
X114427Y-259329D01*
X114497Y-259287D01*
X114567Y-259238D01*
X114638Y-259181D01*
X114645Y-259167D01*
X114673Y-259139D01*
X114715Y-259090D01*
X114764Y-259020D01*
X114821Y-258928D01*
X114884Y-258822D01*
X114940Y-258703D01*
X114989Y-258569D01*
Y-258562D01*
X114997Y-258548D01*
X115003Y-258527D01*
X115010Y-258499D01*
X115018Y-258464D01*
X115032Y-258414D01*
X115046Y-258365D01*
X115060Y-258309D01*
X115081Y-258168D01*
X115102Y-258006D01*
X115116Y-257823D01*
X115123Y-257626D01*
Y-257619D01*
Y-257591D01*
Y-257556D01*
X115116Y-257500D01*
Y-257437D01*
X115109Y-257366D01*
X115102Y-257282D01*
X115095Y-257197D01*
X115060Y-257007D01*
X115018Y-256810D01*
X114954Y-256627D01*
X114912Y-256536D01*
X114870Y-256458D01*
Y-256451D01*
X114856Y-256437D01*
X114842Y-256416D01*
X114828Y-256388D01*
X114771Y-256318D01*
X114701Y-256233D01*
X114609Y-256142D01*
X114504Y-256050D01*
X114384Y-255973D01*
X114258Y-255910D01*
X114244Y-255903D01*
X114208Y-255896D01*
X114145Y-255875D01*
X114054Y-255853D01*
X113941Y-255839D01*
X113800Y-255818D01*
X113716Y-255811D01*
X113624D01*
X113533Y-255804D01*
D02*
G37*
%LPD*%
D10*
X108530Y-283256D02*
G03*
X108530Y-283256I-500J0D01*
G01*
X88210Y-282748D02*
G03*
X88210Y-282748I-500J0D01*
G01*
X70176D02*
G03*
X70176Y-282748I-500J0D01*
G01*
X52142D02*
G03*
X52142Y-282748I-500J0D01*
G01*
X108219Y-48803D02*
G03*
X108219Y-48803I-500J0D01*
G01*
D11*
X73552Y-122684D02*
G03*
X73552Y-122684I-1250J0D01*
G01*
X104270Y10414D02*
G03*
X104270Y10414I-1250J0D01*
G01*
D12*
X78837Y-151322D02*
G03*
X78837Y-151322I-3000J0D01*
G01*
D13*
X54177Y-103716D02*
D03*
D14*
X118030Y-261756D02*
X119530D01*
X118030Y-278756D02*
X119530D01*
X106530Y-261756D02*
X108030D01*
X106530Y-278756D02*
X108030D01*
X119530D02*
Y-261756D01*
X106530Y-278756D02*
Y-261756D01*
X97710Y-261248D02*
X99210D01*
X97710Y-278248D02*
X99210D01*
X86210Y-261248D02*
X87710D01*
X86210Y-278248D02*
X87710D01*
X99210D02*
Y-261248D01*
X86210Y-278248D02*
Y-261248D01*
X79676D02*
X81176D01*
X79676Y-278248D02*
X81176D01*
X68176Y-261248D02*
X69676D01*
X68176Y-278248D02*
X69676D01*
X81176D02*
Y-261248D01*
X68176Y-278248D02*
Y-261248D01*
X61642D02*
X63142D01*
X61642Y-278248D02*
X63142D01*
X50142Y-261248D02*
X51642D01*
X50142Y-278248D02*
X51642D01*
X63142D02*
Y-261248D01*
X50142Y-278248D02*
Y-261248D01*
X35532Y-177484D02*
X75837Y-137179D01*
Y-217790D02*
X116142Y-177484D01*
X75837Y-137179D02*
X116142Y-177484D01*
X35532D02*
X75837Y-217790D01*
X122840Y-50432D02*
Y-4432D01*
X110840Y-50432D02*
Y-4432D01*
X20318Y-27687D02*
X96518D01*
X20318D02*
Y23112D01*
X96518D01*
Y-27687D02*
Y23112D01*
D15*
X30272Y-347218D02*
X121712D01*
X30272Y-401828D02*
Y-347218D01*
X121712Y-401828D02*
Y-347218D01*
X30272Y-401828D02*
X121712D01*
X142240Y-14732D02*
X167640D01*
X142240Y-395732D02*
Y-14732D01*
Y-395732D02*
X167640D01*
Y-14732D01*
X-12700D02*
X12700D01*
X-12700Y-395732D02*
Y-14732D01*
Y-395732D02*
X12700D01*
Y-14732D01*
X31550Y-81088D02*
X44278Y-68361D01*
X58420Y-107959D02*
X71148Y-95231D01*
X55592Y-85331D02*
X58420Y-82503D01*
X49935Y-74017D02*
X58420Y-82503D01*
X49935Y-74017D02*
X51349Y-72603D01*
X40036Y-100887D02*
X45692Y-95231D01*
X38621Y-102302D02*
X40036Y-100887D01*
X38621Y-102302D02*
X40036Y-103716D01*
X44278Y-90988D02*
X49935Y-96644D01*
X47106Y-88159D02*
X49935Y-85331D01*
X47106Y-88159D02*
X52763Y-93816D01*
X55592Y-90988D01*
X49935Y-85331D02*
X55592Y-90988D01*
X52763Y-82503D02*
X58420Y-88159D01*
D16*
X170180Y-406400D02*
Y25400D01*
X-15240Y-406400D02*
X170180D01*
X-15240Y25400D02*
X170180D01*
X-15240Y-406400D02*
Y25400D01*
M02*
