M48
;Layer_Color=9474304
;FILE_FORMAT=4:4
METRIC,LZ
;TYPE=PLATED
T1F00S00C0.2540
T2F00S00C0.8500
T3F00S00C1.0200
T4F00S00C1.1000
T5F00S00C1.3000
%
T01
X00054356Y-0037337
X000635Y-00370586
X000895Y-00370605
X0011303Y-00352209
X00121666Y-00356362
X0007Y-00342646
X0005969Y-00340868
X00059182Y-00331828
Y-00325328
X00074468Y-00325374
X0007112Y-00301498
Y-00291408
X00079756Y-00283464
X0009271Y-00272241
X00094806Y-00292828
X00129794Y-00298196
X00125157Y-00273328
X00062577Y-00268392
X00059158Y-00299328
X00018647Y-00300748
X00023727Y-00313748
X00014478Y-00283718
X00040397Y-0035687
X00142505Y-00367782
X00144526Y-00193294
X00146055Y-001143
X00140208Y-00127
X0014097Y-0013462
X00125984Y-001397
X00127762Y-00147955
X00115062Y-00132842
X00113475Y-001143
X00131064Y-00101854
X00127508Y-00095001
X00086868Y-00098298
X00078994Y-00100584
X00073976Y-00095379
X0005588Y-00095525
X0005842Y-0008382
Y-00079756
X00036576Y-00084131
X00014939Y-00090659
X00019558Y-0012954
X0003288Y-00135615
X00017526Y-00150001
X00017018Y-00168624
X00045466Y-00172212
X00053086Y-00168148
X00061722Y-00167894
X0006985Y-00166116
X00069972Y-00161164
X0008509Y-0016002
X0008763Y-00165862
X00085791Y-00151068
X0007747Y-00197612
X0005969Y-00200914
X0006388Y-00188722
X00056134Y-00234188
X0005334Y-00243421
X00046604Y-0024256
X0009271Y-00241808
X00105918Y-0024384
X00128016Y-00232908
X00128027Y-00216408
X00128778Y-00201168
X00079756Y-00262081
X00017896Y-0020066
X00068877Y-00111295
X00089397Y-00063998
X00065024Y-00027178
X00127Y-00034295
X00123952Y-00009014
X0014097Y-0000254
T02
X000515Y-00360172
X001015
T03
X0003302Y-00014986
Y00010414
X0005842
X0008382
Y-00014986
X0005842
T04
X0Y-00383032
Y-00357632
Y-00332232
Y-00306832
Y-00281432
X0015494
Y-00306832
Y-00332232
Y-00357632
Y-00383032
Y-00256032
Y-00230632
Y-00205232
Y-00179832
Y-00154432
Y-00129032
Y-00103632
Y-00078232
Y-00052832
Y-00027432
X0
Y-00052832
Y-00078232
Y-00103632
Y-00129032
Y-00154432
Y-00179832
Y-00205232
Y-00230632
Y-00256032
T05
X000415Y-00386842
X001115
M30
